<svg height="32" viewBox="0 0 126 32" width="126" xmlns="http://www.w3.org/2000/svg"><g><path d="m4.3968 12.3136c2.7008 0 4.128-1.376 4.2048-3.488h-2.5728c-.096.9088-.6528 1.3888-1.4528 1.3888-1.088 0-1.6448-.7488-1.6448-2.208v-.128c0-1.408.5888-2.1248 1.6-2.1248.832 0 1.216.4288 1.344 1.216h2.688c-.16-2.5408-2.048-3.4368-4.096-3.4368-2.4704 0-4.4672 1.6-4.4672 4.384v.128c0 2.816 1.9008 4.2688 4.3968 4.2688z"/><path d="m18.0928 7.9616v-.128c0-2.656-1.984-4.3008-4.5568-4.3008-2.592 0-4.5888 1.696-4.5888 4.384v.128c0 2.7008 1.9968 4.2688 4.576 4.2688s4.5696-1.632 4.5696-4.352zm-6.2208 0v-.128c0-1.408.5888-2.1568 1.664-2.1568 1.088 0 1.6448.7808 1.6448 2.1888v.128c0 1.3888-.576 2.1888387-1.6448 2.1888387-1.1072.0063613-1.664-.7808387-1.664-2.2208387z"/><path d="m21.8112 7.2768c0-.9088.512-1.408 1.28-1.408.6528 0 1.0688.416 1.0688 1.2608v4.992h2.8288v-4.8448c0-.9088.512-1.408 1.28-1.408.6528 0 1.0688.416 1.0688 1.2608v4.992h2.8608v-5.472c0-2.0928-1.152-3.1168-2.7328-3.1168-1.056 0-2.048.416-2.7648 1.3888-.3968-.9088-1.1648-1.3888-2.272-1.3888-1.2928 0-2.176.704-2.624 1.504v-1.28h-2.8608v8.3648h2.8608v-4.8448z"/><path d="m37.6384 5.8688c.6528 0 1.0688.416 1.0688 1.2608v4.992h2.8288v-4.8448c0-.9088.512-1.408 1.28-1.408.6528 0 1.0688.416 1.0688 1.2608v4.992h2.8608v-5.472c0-2.0928-1.152-3.1168-2.7328-3.1168-1.056 0-2.048.416-2.7648 1.3888-.3968-.9088-1.1648-1.3888-2.272-1.3888-1.2928 0-2.176.704-2.624 1.504v-1.28h-2.8608v8.3648h2.8608v-4.8448c.0064-.9152.5184-1.408 1.2864-1.408z"/><path d="m53.4272 8.5696c0 1.0688-.5568 1.5808-1.4208 1.5808-.8128 0-1.184-.4608-1.184-1.408v-4.992h-2.8608v5.4528c0 2.112 1.1968 3.104 2.816 3.104 1.3888 0 2.208-.6208 2.656-1.4848v1.2928h2.8608v-8.3584h-2.8608v4.8128z"/><path d="m63.2128 3.5328c-1.3888 0-2.304.704-2.752 1.568v-1.344h-2.8608v8.3648h2.8608v-4.6848c0-1.0688.576-1.5808 1.4208-1.5808.832 0 1.1968.4608 1.1968 1.408v4.864h2.8608v-5.44c.0128-2.144-1.1072-3.1552-2.7264-3.1552z"/><path d="m67.2448 3.7568h2.8608v8.3648h-2.8608z"/><path d="m68.6656 0c-.896 0-1.568.64-1.568 1.4848s.672 1.472 1.568 1.472 1.5808-.6208 1.5808-1.472c0-.8448-.6848-1.4848-1.5808-1.4848z"/><path d="m75.5264 10.2208c-1.088 0-1.6448-.7488-1.6448-2.208v-.128c0-1.408.5888-2.1248 1.6-2.1248.832 0 1.216.4288 1.344 1.216h2.688c-.16-2.5408-2.048-3.4368-4.096-3.4368-2.464 0-4.4608 1.6-4.4608 4.384v.128c0 2.816 1.9008 4.2688 4.3968 4.2688 2.7008 0 4.128-1.376 4.2048-3.488h-2.5728c-.096.9088-.6592 1.3888-1.4592 1.3888z"/><path d="m84.224 3.5328c-2.2848 0-3.872.992-4 3.008h2.688c.064-.5248.352-.992 1.1328-.992.9088 0 1.1008.5248 1.1008 1.3248v.192h-.8c-2.784 0-4.448.768-4.448 2.7328 0 1.7728 1.3248 2.5088 2.8288 2.5088 1.344 0 2.08-.5568 2.4768-1.1648v.9728h2.7840208v-5.4208c.0063792-2.2144-1.4656208-3.1616-3.7632208-3.1616zm.9216 5.664c0 .7168-.608 1.184-1.4208 1.184-.672 0-.992-.3008-.992-.7808 0-.6848.512-.9088 1.664-.9088h.7488z"/><path d="m92.3968 9.1648v-3.456h1.6448v-1.952h-1.6448v-1.7408h-2.8608v1.7408h-1.0048v1.952h1.0048v3.7248c0 1.9648 1.056 2.88 2.944 2.88.672 0 1.216-.1408 1.5808-.2368v-2.176c-.256.096-.4928.1408-.8128.1408-.5504 0-.8512-.2688-.8512-.8768z"/><path d="m95.0464 3.7568h2.8608v8.3648h-2.8608z"/><path d="m96.4672 0c-.896 0-1.568.64-1.568 1.4848s.672 1.472 1.568 1.472 1.5808-.6208 1.5808-1.472c0-.8448-.6848-1.4848-1.5808-1.4848z"/><path d="m103.3472 3.5328c-2.592 0-4.5888 1.696-4.5888 4.384v.128c0 2.7008 1.9968 4.2688 4.576 4.2688s4.576-1.632 4.576-4.352v-.128c-.0064-2.6496-1.9904-4.3008-4.5632-4.3008zm1.6448 4.4608c0 1.3888-.576 2.1888-1.6448 2.1888-1.1008 0-1.664-.7808-1.664-2.2208v-.128c0-1.408.5888-2.1568 1.664-2.1568 1.088 0 1.6448.7808 1.6448 2.1888z"/><path d="m114.3744 3.5328c-1.3888 0-2.304.704-2.752 1.568v-1.344h-2.8608v8.3648h2.8608v-4.6848c0-1.0688.576-1.5808 1.4208-1.5808.832 0 1.1968.4608 1.1968 1.408v4.864h2.860827v-5.44c.006373-2.144-1.113627-3.1552-2.726427-3.1552z"/><path d="m122.08 6.7456c-1.024-.128-1.408-.288-1.408-.6848 0-.384.32-.6528.9408-.6528.6528 0 .96.2688 1.0688.832h2.592c-.192-1.9968-1.632-2.7008-3.6928-2.7008-1.9328 0-3.584.896-3.584 2.752 0 1.7408.9408 2.4 3.1808 2.688 1.152.16 1.5488.352 1.5488.7488 0 .416-.32.6848-1.024.6848-.8128 0-1.088-.3328-1.184-.9408h-2.6368c.064 1.856 1.4528 2.848 3.84 2.848 2.3168 0 3.788827-.896 3.788827-2.88.006373-1.7984-1.113627-2.4064-3.430427-2.6944z"/><path d="m5.1008 20.5824c-1.216 0-2.3488.736-2.8288 1.5488v-1.408h-1.3312v11.2768h1.3248v-4.288c.48.832 1.4528 1.5168 2.8288 1.5168 2.304 0 3.80801891-1.76 3.80801891-4.32v-.128c.00638109-2.5984-1.61281891-4.1984-3.80161891-4.1984zm2.432 4.3968c0 2.0288-.896 3.1488-2.56 3.1488-1.632 0-2.752-1.0048-2.752-3.1488v-.128c0-2.144 1.184-3.168 2.7328-3.168 1.408 0 2.5728 1.056 2.5728 3.168v.128z"/><path d="m14.4256 20.5824c-1.376 0-2.304.6848-2.688 1.472v-5.3248h-1.3248v12.3584h1.3248v-5.0688c0-1.504 1.1008-2.2848 2.336-2.2848 1.344 0 1.9648.6528 1.9648 2.1248v5.2288h1.3248251v-5.1328c.0063749-2.432-1.2096251-3.3728-2.9376251-3.3728z"/><path d="m21.9968 26.72-2.5536-5.9968h-1.4272l3.2768 7.5008-1.5808 3.776h1.344l4.6208-11.2768h-1.3568z"/><path d="m29.44 24.2112c-1.536-.2688-1.952-.576-1.952-1.3248 0-.7168.6208-1.1968 1.5808-1.1968 1.056 0 1.568.3968 1.76 1.312h1.28c-.224-1.8048-1.5168-2.4128-3.0208-2.4128-1.312 0-2.8288.8-2.8288 2.3488 0 1.4528.736 2.0608 2.912 2.464 1.2928.2368 1.952.5248 1.952 1.408 0 .896-.5568 1.3248-1.824 1.3248-1.344 0-1.8688-.6208-1.9648-1.6128h-1.2928c.0768 1.7088 1.28 2.72 3.2768 2.72 2.0288 0 3.072-1.024 3.072-2.5408-.0064-1.7856-1.2224-2.1696-2.9504-2.4896z"/><circle cx="34.4832" cy="18.1056" r="1"/><path d="m33.8432 20.7232h1.3248v8.3648h-1.3248z"/><path d="m40.7168 28.128c-1.6128 0-2.7328-1.088-2.7328-3.136v-.128c0-1.9648 1.1648-3.1808 2.688-3.1808 1.152 0 2.112.4928 2.3168 1.824h1.312c-.256-2.1248-1.888-2.9248-3.6288-2.9248-2.24 0-4.064 1.728-4.064 4.288v.128c0 2.592 1.76 4.2368 4.096 4.2368 2.016 0 3.4688-1.344 3.648-3.1488h-1.2288c-.1536 1.3568-1.2224 2.0416-2.4064 2.0416z"/><path d="m48.6656 24.2112c-1.536-.2688-1.952-.576-1.952-1.3248 0-.7168.6208-1.1968 1.5808-1.1968 1.056 0 1.568.3968 1.76 1.312h1.28c-.224-1.8048-1.5168-2.4128-3.0208-2.4128-1.312 0-2.8288.8-2.8288 2.3488 0 1.4528.736 2.0608 2.912 2.464 1.2928.2368 1.952.5248 1.952 1.408 0 .896-.5568 1.3248-1.824 1.3248-1.344 0-1.8688-.6208-1.9648-1.6128h-1.2928c.0768 1.7088 1.28 2.72 3.2768 2.72 2.0288 0 3.072-1.024 3.072-2.5408-.0064-1.7856-1.2224-2.1696-2.9504-2.4896z"/></g></svg>