<svg class="main-svg" xmlns="http://www.w3.org/2000/svg" xmlns:xlink="http://www.w3.org/1999/xlink" width="1600" height="900" style="" viewBox="0 0 1600 900"><rect x="0" y="0" width="1600" height="900" style="fill: rgb(255, 255, 255); fill-opacity: 1;"/><defs id="defs-dfbd8f"><g class="clips"><clipPath id="clipdfbd8fxyplot" class="plotclip"><rect width="1338" height="720"/></clipPath><clipPath class="axesclip" id="clipdfbd8fx"><rect x="80" y="0" width="1338" height="900"/></clipPath><clipPath class="axesclip" id="clipdfbd8fy"><rect x="0" y="100" width="1600" height="720"/></clipPath><clipPath class="axesclip" id="clipdfbd8fxy"><rect x="80" y="100" width="1338" height="720"/></clipPath></g><g class="gradients"/><g class="patterns"/></defs><g class="bglayer"/><g class="layer-below"><g class="imagelayer"/><g class="shapelayer"/></g><g class="cartesianlayer"><g class="subplot xy"><g class="layer-subplot"><g class="shapelayer"/><g class="imagelayer"/></g><g class="minor-gridlayer"><g class="x"/><g class="y"/></g><g class="gridlayer"><g class="x"><path class="xgrid crisp" transform="translate(213.8,0)" d="M0,100v720" style="stroke: rgb(235, 240, 248); stroke-opacity: 1; stroke-width: 1px;"/><path class="xgrid crisp" transform="translate(392.2,0)" d="M0,100v720" style="stroke: rgb(235, 240, 248); stroke-opacity: 1; stroke-width: 1px;"/><path class="xgrid crisp" transform="translate(570.6,0)" d="M0,100v720" style="stroke: rgb(235, 240, 248); stroke-opacity: 1; stroke-width: 1px;"/><path class="xgrid crisp" transform="translate(927.4,0)" d="M0,100v720" style="stroke: rgb(235, 240, 248); stroke-opacity: 1; stroke-width: 1px;"/><path class="xgrid crisp" transform="translate(1105.8,0)" d="M0,100v720" style="stroke: rgb(235, 240, 248); stroke-opacity: 1; stroke-width: 1px;"/><path class="xgrid crisp" transform="translate(1284.2,0)" d="M0,100v720" style="stroke: rgb(235, 240, 248); stroke-opacity: 1; stroke-width: 1px;"/></g><g class="y"><path class="ygrid crisp" transform="translate(0,694.62)" d="M80,0h1338" style="stroke: rgb(235, 240, 248); stroke-opacity: 1; stroke-width: 1px;"/><path class="ygrid crisp" transform="translate(0,603.04)" d="M80,0h1338" style="stroke: rgb(235, 240, 248); stroke-opacity: 1; stroke-width: 1px;"/><path class="ygrid crisp" transform="translate(0,511.47)" d="M80,0h1338" style="stroke: rgb(235, 240, 248); stroke-opacity: 1; stroke-width: 1px;"/><path class="ygrid crisp" transform="translate(0,419.89)" d="M80,0h1338" style="stroke: rgb(235, 240, 248); stroke-opacity: 1; stroke-width: 1px;"/><path class="ygrid crisp" transform="translate(0,328.31)" d="M80,0h1338" style="stroke: rgb(235, 240, 248); stroke-opacity: 1; stroke-width: 1px;"/><path class="ygrid crisp" transform="translate(0,236.73)" d="M80,0h1338" style="stroke: rgb(235, 240, 248); stroke-opacity: 1; stroke-width: 1px;"/><path class="ygrid crisp" transform="translate(0,145.16)" d="M80,0h1338" style="stroke: rgb(235, 240, 248); stroke-opacity: 1; stroke-width: 1px;"/></g></g><g class="zerolinelayer"><path class="xzl zl crisp" transform="translate(749,0)" d="M0,100v720" style="stroke: rgb(235, 240, 248); stroke-opacity: 1; stroke-width: 2px;"/><path class="yzl zl crisp" transform="translate(0,786.2)" d="M80,0h1338" style="stroke: rgb(235, 240, 248); stroke-opacity: 1; stroke-width: 2px;"/></g><g class="layer-between"><g class="shapelayer"/><g class="imagelayer"/></g><path class="xlines-below"/><path class="ylines-below"/><g class="overlines-below"/><g class="xaxislayer-below"/><g class="yaxislayer-below"/><g class="overaxes-below"/><g class="overplot"><g class="xy" transform="translate(80,100)" clip-path="url(#clipdfbd8fxyplot)"><g class="scatterlayer mlayer"><g class="trace scatter traceba6cf5" style="stroke-miterlimit: 2; opacity: 0.8;"><g class="fills"/><g class="errorbars"/><g class="lines"><path class="js-line" d="M0,656.89L8.92,656.89L17.84,660.56L26.76,660.56L35.68,664.22L44.6,667.88L53.52,667.88L71.36,667.88L80.28,664.22L89.2,660.56L98.12,664.22L107.04,660.56L115.96,653.23L124.88,645.9L133.8,634.91L142.72,645.9L151.64,649.57L160.56,627.59L169.48,638.58L178.4,627.59L187.32,638.58L196.24,638.58L205.16,656.89L214.08,642.24L223,645.9L231.92,642.24L240.84,649.57L258.68,656.89L267.6,653.23L276.52,645.9L285.44,664.22L294.36,631.25L303.28,634.91L312.2,627.59L321.12,649.57L330.04,653.23L338.96,634.91L347.88,579.97L356.8,642.24L365.72,547L374.64,638.58L383.56,587.29L392.48,627.59L401.4,557.99L410.32,616.6L419.24,634.91L428.16,631.25L437.08,616.6L446,631.25L454.92,616.6L463.84,605.61L472.76,598.28L481.68,620.26L490.6,514.03L499.52,517.7L508.44,627.59L517.36,638.58L526.28,329.05L535.2,310.73L553.04,292.42L561.96,264.94L570.88,264.94L579.8,191.68L606.56,191.68L615.48,145.89L624.4,173.37L633.32,155.05L642.24,164.21L651.16,164.21L660.08,182.52L669,182.52L677.92,228.31L686.84,228.31L695.76,200.84L704.68,219.15L713.6,228.31L722.52,264.94L731.44,301.57L740.36,283.26L749.28,393.15L758.2,457.25L776.04,493.89L784.96,587.29L793.88,568.98L802.8,594.62L811.72,598.28L820.64,620.26L829.56,620.26L838.48,623.93L856.32,623.93L865.24,609.27L874.16,605.61L883.08,605.61L892,587.29L900.92,561.65L909.84,612.94L918.76,631.25L927.68,579.97L936.6,547L945.52,583.63L954.44,583.63L963.36,587.29L972.28,605.61L981.2,631.25L990.12,631.25L999.04,631.25L1007.96,642.24L1016.88,653.23L1025.8,653.23L1034.72,656.89L1043.64,656.89L1052.56,653.23L1061.48,656.89L1070.4,642.24L1079.32,653.23L1088.24,645.9L1097.16,627.59L1106.08,638.58L1115,627.59L1123.92,645.9L1132.84,627.59L1141.76,642.24L1150.68,631.25L1159.6,656.89L1168.52,660.56L1177.44,642.24L1186.36,642.24L1213.12,664.22L1222.04,667.88L1230.96,671.55L1239.88,671.55L1248.8,667.88L1257.72,667.88L1266.64,664.22L1275.56,664.22L1284.48,660.56L1293.4,660.56L1302.32,664.22L1311.24,660.56L1320.16,660.56L1329.08,664.22L1338,660.56" style="vector-effect: none; fill: none; stroke: rgb(169, 214, 229); stroke-opacity: 1; stroke-width: 2px; opacity: 1;"/></g><g class="points"/><g class="text"/></g><g class="trace scatter tracefa8ebe" style="stroke-miterlimit: 2; opacity: 0.8;"><g class="fills"/><g class="errorbars"/><g class="lines"><path class="js-line" d="M0,656.89L8.92,656.89L17.84,664.22L26.76,664.22L35.68,671.55L44.6,667.88L53.52,667.88L71.36,667.88L80.28,656.89L89.2,649.57L98.12,664.22L107.04,656.89L115.96,631.25L124.88,631.25L133.8,649.57L142.72,623.93L151.64,638.58L160.56,638.58L169.48,645.9L178.4,627.59L187.32,634.91L196.24,653.23L205.16,642.24L223,656.89L231.92,660.56L240.84,653.23L249.76,660.56L258.68,660.56L267.6,642.24L276.52,638.58L285.44,653.23L294.36,634.91L303.28,601.95L312.2,642.24L321.12,583.63L330.04,612.94L338.96,576.31L347.88,561.65L356.8,572.64L365.72,565.32L374.64,594.62L383.56,554.33L392.48,634.91L401.4,583.63L410.32,605.61L419.24,627.59L428.16,620.26L437.08,631.25L446,638.58L454.92,590.96L463.84,561.65L472.76,587.29L481.68,528.69L490.6,521.36L499.52,521.36L508.44,402.31L517.36,429.78L526.28,402.31L535.2,402.31L544.12,347.36L553.04,301.57L561.96,200.84L570.88,136.73L579.8,145.89L588.72,255.79L597.64,210L606.56,118.42L615.48,36L624.4,155.05L633.32,219.15L642.24,81.79L651.16,36L660.08,155.05L669,182.52L677.92,81.79L686.84,173.37L695.76,237.47L704.68,145.89L713.6,264.94L722.52,310.73L731.44,237.47L740.36,365.68L749.28,319.89L758.2,587.29L767.12,517.7L776.04,554.33L784.96,583.63L793.88,601.95L802.8,631.25L811.72,649.57L820.64,627.59L829.56,623.93L838.48,627.59L847.4,616.6L856.32,649.57L865.24,598.28L874.16,583.63L883.08,598.28L892,634.91L900.92,565.32L909.84,631.25L918.76,525.02L927.68,554.33L936.6,576.31L945.52,583.63L954.44,572.64L963.36,587.29L972.28,601.95L981.2,623.93L990.12,645.9L999.04,642.24L1007.96,638.58L1016.88,653.23L1025.8,649.57L1034.72,656.89L1043.64,660.56L1052.56,656.89L1061.48,653.23L1070.4,638.58L1079.32,631.25L1088.24,645.9L1097.16,631.25L1106.08,627.59L1115,620.26L1123.92,623.93L1132.84,634.91L1141.76,638.58L1150.68,656.89L1159.6,638.58L1168.52,642.24L1177.44,649.57L1186.36,653.23L1195.28,660.56L1204.2,664.22L1213.12,664.22L1230.96,671.55L1239.88,667.88L1248.8,667.88L1257.72,664.22L1266.64,660.56L1275.56,660.56L1284.48,653.23L1293.4,656.89L1302.32,656.89L1311.24,660.56L1329.08,653.23L1338,660.56" style="vector-effect: none; fill: none; stroke: rgb(169, 214, 229); stroke-opacity: 1; stroke-width: 2px; opacity: 1;"/></g><g class="points"/><g class="text"/></g><g class="trace scatter traceebc3be" style="stroke-miterlimit: 2; opacity: 0.8;"><g class="fills"/><g class="errorbars"/><g class="lines"><path class="js-line" d="M0,664.22L8.92,667.88L17.84,675.21L26.76,675.21L35.68,671.55L44.6,664.22L53.52,660.56L62.44,653.23L71.36,649.57L80.28,645.9L89.2,634.91L107.04,627.59L115.96,620.26L124.88,623.93L133.8,620.26L142.72,631.25L151.64,631.25L160.56,627.59L169.48,634.91L178.4,634.91L187.32,653.23L196.24,653.23L205.16,656.89L223,656.89L231.92,653.23L240.84,642.24L249.76,623.93L258.68,616.6L267.6,616.6L276.52,609.27L285.44,634.91L294.36,583.63L303.28,568.98L312.2,557.99L321.12,539.67L330.04,532.35L338.96,565.32L347.88,557.99L356.8,547L365.72,576.31L374.64,572.64L383.56,594.62L392.48,609.27L410.32,616.6L419.24,631.25L428.16,627.59L437.08,609.27L446,601.95L454.92,568.98L463.84,557.99L472.76,457.25L481.68,411.47L490.6,393.15L499.52,448.1L508.44,429.78L517.36,374.84L526.28,292.42L535.2,228.31L544.12,365.68L553.04,283.26L561.96,173.37L570.88,164.21L579.8,283.26L588.72,200.84L597.64,81.79L606.56,210L615.48,200.84L624.4,81.79L633.32,136.73L642.24,237.47L651.16,136.73L660.08,182.52L669,274.1L677.92,173.37L686.84,374.84L704.68,246.63L713.6,393.15L722.52,319.89L731.44,475.57L740.36,532.35L749.28,565.32L758.2,590.96L767.12,579.97L776.04,598.28L784.96,612.94L793.88,623.93L802.8,620.26L811.72,612.94L820.64,609.27L829.56,631.25L838.48,605.61L847.4,568.98L856.32,554.33L865.24,532.35L874.16,561.65L883.08,539.67L892,521.36L900.92,554.33L909.84,532.35L918.76,561.65L927.68,543.34L936.6,572.64L945.52,587.29L954.44,576.31L963.36,594.62L972.28,609.27L981.2,634.91L990.12,638.58L999.04,645.9L1007.96,653.23L1016.88,656.89L1034.72,649.57L1043.64,649.57L1052.56,653.23L1061.48,638.58L1070.4,634.91L1079.32,634.91L1088.24,645.9L1097.16,627.59L1106.08,645.9L1115,620.26L1132.84,634.91L1141.76,631.25L1168.52,653.23L1177.44,656.89L1186.36,664.22L1195.28,667.88L1204.2,667.88L1213.12,664.22L1230.96,664.22L1239.88,660.56L1248.8,660.56L1257.72,656.89L1266.64,653.23L1275.56,656.89L1284.48,656.89L1293.4,653.23L1302.32,660.56L1311.24,656.89L1320.16,664.22L1329.08,664.22L1338,664.22" style="vector-effect: none; fill: none; stroke: rgb(137, 194, 217); stroke-opacity: 1; stroke-width: 2px; opacity: 1;"/></g><g class="points"/><g class="text"/></g><g class="trace scatter tracef0554a" style="stroke-miterlimit: 2; opacity: 0.8;"><g class="fills"/><g class="errorbars"/><g class="lines"><path class="js-line" d="M0,675.21L17.84,675.21L26.76,671.55L35.68,667.88L44.6,656.89L62.44,649.57L71.36,638.58L80.28,631.25L89.2,627.59L115.96,616.6L124.88,623.93L133.8,623.93L142.72,627.59L151.64,642.24L160.56,634.91L196.24,664.22L205.16,667.88L223,645.9L231.92,653.23L240.84,612.94L249.76,620.26L258.68,594.62L267.6,590.96L276.52,587.29L285.44,557.99L294.36,568.98L303.28,543.34L312.2,557.99L321.12,543.34L330.04,525.02L338.96,557.99L347.88,547L356.8,525.02L365.72,561.65L374.64,583.63L383.56,576.31L392.48,594.62L401.4,609.27L410.32,620.26L428.16,612.94L437.08,605.61L446,601.95L454.92,590.96L463.84,539.67L472.76,521.36L481.68,493.89L490.6,448.1L499.52,365.68L508.44,329.05L517.36,374.84L526.28,383.99L535.2,292.42L544.12,219.15L553.04,338.2L561.96,255.79L570.88,155.05L579.8,237.47L588.72,237.47L597.64,118.42L606.56,237.47L615.48,228.31L624.4,118.42L633.32,274.1L642.24,255.79L651.16,191.68L660.08,319.89L669,228.31L677.92,393.15L686.84,356.52L695.76,310.73L704.68,438.94L713.6,374.84L722.52,503.04L740.36,587.29L749.28,594.62L758.2,612.94L767.12,645.9L776.04,616.6L784.96,612.94L793.88,623.93L802.8,598.28L811.72,587.29L820.64,579.97L838.48,550.66L847.4,605.61L856.32,631.25L865.24,532.35L874.16,609.27L883.08,547L892,532.35L900.92,510.37L909.84,547L918.76,572.64L927.68,561.65L936.6,579.97L945.52,572.64L954.44,594.62L963.36,638.58L972.28,623.93L981.2,653.23L990.12,649.57L999.04,653.23L1007.96,649.57L1016.88,656.89L1025.8,645.9L1052.56,634.91L1061.48,627.59L1079.32,620.26L1088.24,627.59L1097.16,656.89L1106.08,631.25L1115,631.25L1123.92,634.91L1141.76,656.89L1150.68,656.89L1159.6,656.89L1168.52,660.56L1177.44,667.88L1186.36,671.55L1195.28,671.55L1204.2,667.88L1222.04,660.56L1230.96,667.88L1239.88,656.89L1248.8,653.23L1257.72,656.89L1266.64,656.89L1275.56,653.23L1284.48,653.23L1293.4,656.89L1302.32,656.89L1311.24,660.56L1320.16,660.56L1329.08,667.88L1338,664.22" style="vector-effect: none; fill: none; stroke: rgb(137, 194, 217); stroke-opacity: 1; stroke-width: 2px; opacity: 1;"/></g><g class="points"/><g class="text"/></g><g class="trace scatter tracea9cee4" style="stroke-miterlimit: 2; opacity: 0.8;"><g class="fills"/><g class="errorbars"/><g class="lines"><path class="js-line" d="M0,675.21L17.84,675.21L26.76,671.55L35.68,660.56L44.6,656.89L62.44,642.24L71.36,638.58L89.2,631.25L98.12,623.93L107.04,620.26L115.96,627.59L124.88,627.59L133.8,631.25L142.72,638.58L151.64,638.58L178.4,660.56L187.32,664.22L196.24,667.88L205.16,660.56L214.08,653.23L223,638.58L231.92,642.24L240.84,620.26L249.76,583.63L258.68,601.95L267.6,576.31L276.52,579.97L285.44,557.99L294.36,539.67L303.28,557.99L312.2,539.67L321.12,521.36L330.04,550.66L338.96,536.01L347.88,561.65L356.8,539.67L365.72,576.31L374.64,561.65L383.56,587.29L392.48,605.61L401.4,616.6L410.32,627.59L419.24,634.91L446,623.93L454.92,601.95L463.84,590.96L472.76,547L481.68,517.7L490.6,484.73L508.44,374.84L517.36,438.94L526.28,411.47L535.2,319.89L544.12,283.26L553.04,393.15L561.96,292.42L570.88,228.31L579.8,383.99L588.72,292.42L597.64,210L606.56,383.99L615.48,255.79L624.4,283.26L633.32,338.2L642.24,255.79L651.16,420.62L660.08,347.36L669,493.89L677.92,438.94L686.84,525.02L695.76,565.32L704.68,587.29L713.6,576.31L722.52,605.61L731.44,609.27L749.28,616.6L758.2,612.94L767.12,605.61L776.04,601.95L784.96,645.9L793.88,576.31L802.8,565.32L811.72,550.66L820.64,536.01L829.56,557.99L838.48,543.34L847.4,525.02L856.32,554.33L865.24,536.01L874.16,514.03L883.08,547L892,532.35L900.92,561.65L909.84,550.66L918.76,576.31L936.6,612.94L945.52,620.26L954.44,653.23L963.36,642.24L972.28,656.89L981.2,653.23L990.12,653.23L999.04,649.57L1034.72,634.91L1043.64,660.56L1052.56,623.93L1061.48,631.25L1079.32,623.93L1088.24,631.25L1097.16,645.9L1106.08,642.24L1123.92,642.24L1132.84,660.56L1141.76,656.89L1150.68,660.56L1159.6,667.88L1168.52,667.88L1177.44,671.55L1186.36,667.88L1195.28,664.22L1204.2,664.22L1222.04,656.89L1230.96,656.89L1248.8,649.57L1257.72,649.57L1266.64,653.23L1275.56,653.23L1284.48,660.56L1293.4,660.56L1302.32,664.22L1311.24,664.22L1329.08,671.55L1338,671.55" style="vector-effect: none; fill: none; stroke: rgb(97, 165, 194); stroke-opacity: 1; stroke-width: 2px; opacity: 1;"/></g><g class="points"/><g class="text"/></g><g class="trace scatter traceb3e2f6" style="stroke-miterlimit: 2; opacity: 0.8;"><g class="fills"/><g class="errorbars"/><g class="lines"><path class="js-line" d="M0,675.21L8.92,631.25L17.84,675.21L26.76,664.22L35.68,660.56L44.6,656.89L53.52,645.9L62.44,638.58L71.36,638.58L89.2,631.25L98.12,631.25L107.04,620.26L115.96,634.91L124.88,627.59L133.8,634.91L151.64,649.57L160.56,653.23L169.48,660.56L178.4,660.56L187.32,664.22L196.24,671.55L205.16,664.22L214.08,649.57L223,653.23L231.92,631.25L240.84,623.93L249.76,601.95L258.68,605.61L267.6,590.96L276.52,579.97L285.44,561.65L294.36,536.01L303.28,550.66L312.2,536.01L321.12,514.03L330.04,547L338.96,532.35L347.88,561.65L356.8,547L365.72,572.64L374.64,557.99L383.56,583.63L392.48,601.95L419.24,634.91L428.16,642.24L454.92,631.25L463.84,609.27L472.76,576.31L481.68,565.32L490.6,550.66L499.52,525.02L508.44,510.37L517.36,448.1L526.28,402.31L535.2,374.84L544.12,457.25L553.04,374.84L561.96,347.36L570.88,393.15L579.8,310.73L588.72,448.1L606.56,319.89L615.48,466.41L624.4,393.15L633.32,393.15L642.24,475.57L651.16,536.01L660.08,517.7L669,547L677.92,576.31L686.84,598.28L695.76,612.94L704.68,623.93L713.6,616.6L722.52,612.94L731.44,623.93L740.36,620.26L749.28,612.94L758.2,587.29L767.12,601.95L776.04,590.96L784.96,579.97L793.88,587.29L802.8,550.66L811.72,536.01L820.64,521.36L829.56,557.99L838.48,536.01L847.4,510.37L856.32,543.34L865.24,532.35L874.16,565.32L883.08,645.9L892,576.31L900.92,594.62L909.84,609.27L918.76,620.26L927.68,631.25L936.6,649.57L945.52,645.9L954.44,653.23L963.36,649.57L972.28,656.89L981.2,653.23L990.12,642.24L999.04,645.9L1007.96,634.91L1016.88,631.25L1025.8,631.25L1034.72,645.9L1043.64,627.59L1052.56,638.58L1061.48,631.25L1070.4,631.25L1079.32,627.59L1115,656.89L1123.92,660.56L1132.84,660.56L1141.76,667.88L1150.68,664.22L1159.6,667.88L1168.52,667.88L1177.44,664.22L1186.36,664.22L1195.28,660.56L1213.12,653.23L1222.04,653.23L1230.96,649.57L1239.88,649.57L1248.8,653.23L1257.72,653.23L1284.48,664.22L1293.4,664.22L1302.32,664.22L1311.24,667.88L1320.16,675.21L1329.08,675.21L1338,671.55" style="vector-effect: none; fill: none; stroke: rgb(97, 165, 194); stroke-opacity: 1; stroke-width: 2px; opacity: 1;"/></g><g class="points"/><g class="text"/></g><g class="trace scatter trace3fdd5f" style="stroke-miterlimit: 2; opacity: 0.8;"><g class="fills"/><g class="errorbars"/><g class="lines"><path class="js-line" d="M0,671.55L8.92,675.21L17.84,671.55L26.76,660.56L35.68,656.89L44.6,653.23L53.52,642.24L62.44,638.58L71.36,631.25L80.28,631.25L89.2,627.59L98.12,623.93L107.04,627.59L115.96,627.59L124.88,623.93L151.64,645.9L160.56,656.89L169.48,664.22L178.4,664.22L187.32,667.88L196.24,631.25L205.16,675.21L214.08,656.89L231.92,627.59L240.84,623.93L249.76,601.95L258.68,598.28L267.6,579.97L276.52,565.32L285.44,568.98L294.36,543.34L303.28,557.99L312.2,525.02L321.12,554.33L330.04,539.67L338.96,521.36L347.88,557.99L356.8,539.67L365.72,568.98L374.64,587.29L383.56,576.31L392.48,594.62L401.4,609.27L410.32,620.26L419.24,638.58L428.16,638.58L437.08,642.24L446,638.58L454.92,638.58L463.84,634.91L472.76,616.6L481.68,590.96L490.6,579.97L499.52,561.65L508.44,547L526.28,503.04L535.2,461.83L544.12,420.62L553.04,498.46L561.96,466.41L570.88,411.47L579.8,498.46L588.72,461.83L597.64,521.36L606.56,489.31L615.48,539.67L624.4,568.98L633.32,557.99L642.24,583.63L660.08,612.94L669,623.93L677.92,616.6L686.84,627.59L695.76,627.59L704.68,616.6L713.6,612.94L722.52,605.61L731.44,601.95L740.36,590.96L749.28,579.97L758.2,572.64L767.12,557.99L776.04,539.67L784.96,631.25L793.88,557.99L802.8,539.67L811.72,517.7L820.64,557.99L829.56,532.35L838.48,572.64L847.4,579.97L856.32,576.31L865.24,565.32L874.16,587.29L883.08,634.91L892,616.6L900.92,634.91L909.84,645.9L918.76,642.24L936.6,656.89L945.52,653.23L972.28,642.24L981.2,653.23L990.12,634.91L999.04,631.25L1007.96,627.59L1016.88,627.59L1025.8,620.26L1034.72,623.93L1043.64,623.93L1052.56,620.26L1061.48,631.25L1070.4,634.91L1079.32,634.91L1088.24,649.57L1097.16,649.57L1106.08,656.89L1115,660.56L1123.92,667.88L1132.84,664.22L1141.76,667.88L1150.68,667.88L1159.6,664.22L1168.52,664.22L1177.44,660.56L1195.28,653.23L1204.2,653.23L1213.12,656.89L1222.04,653.23L1248.8,653.23L1257.72,656.89L1266.64,664.22L1275.56,664.22L1284.48,667.88L1293.4,667.88L1302.32,671.55L1311.24,671.55L1320.16,675.21L1329.08,675.21L1338,675.21" style="vector-effect: none; fill: none; stroke: rgb(70, 111, 175); stroke-opacity: 1; stroke-width: 2px; opacity: 1;"/></g><g class="points"/><g class="text"/></g><g class="trace scatter tracecd6302" style="stroke-miterlimit: 2; opacity: 0.8;"><g class="fills"/><g class="errorbars"/><g class="lines"><path class="js-line" d="M0,667.88L8.92,671.55L17.84,660.56L26.76,660.56L35.68,653.23L53.52,638.58L62.44,634.91L71.36,623.93L80.28,616.6L89.2,627.59L98.12,620.26L107.04,616.6L115.96,627.59L124.88,627.59L133.8,638.58L142.72,634.91L151.64,649.57L160.56,660.56L169.48,656.89L178.4,667.88L187.32,664.22L196.24,675.21L205.16,678.87L214.08,656.89L223,660.56L231.92,631.25L240.84,634.91L249.76,616.6L258.68,609.27L267.6,572.64L276.52,565.32L285.44,568.98L294.36,565.32L303.28,532.35L312.2,557.99L321.12,536.01L330.04,510.37L338.96,554.33L347.88,525.02L356.8,576.31L365.72,547L374.64,579.97L383.56,609.27L392.48,594.62L401.4,620.26L410.32,638.58L419.24,623.93L428.16,642.24L437.08,634.91L446,653.23L454.92,645.9L463.84,638.58L472.76,634.91L499.52,590.96L508.44,568.98L517.36,547L526.28,514.03L535.2,484.73L544.12,539.67L553.04,506.71L561.96,557.99L570.88,536.01L579.8,506.71L588.72,557.99L597.64,536.01L606.56,579.97L615.48,612.94L624.4,631.25L633.32,620.26L642.24,638.58L651.16,631.25L660.08,623.93L669,645.9L695.76,612.94L704.68,598.28L722.52,561.65L731.44,536.01L740.36,576.31L749.28,554.33L758.2,638.58L767.12,572.64L776.04,543.34L784.96,517.7L793.88,568.98L802.8,539.67L811.72,587.29L820.64,623.93L829.56,583.63L838.48,568.98L847.4,601.95L856.32,627.59L865.24,616.6L874.16,634.91L883.08,649.57L892,649.57L900.92,645.9L909.84,653.23L918.76,645.9L927.68,656.89L936.6,653.23L945.52,645.9L954.44,631.25L963.36,623.93L972.28,616.6L981.2,631.25L990.12,616.6L999.04,605.61L1007.96,638.58L1016.88,616.6L1025.8,609.27L1034.72,631.25L1043.64,623.93L1052.56,638.58L1061.48,627.59L1070.4,645.9L1079.32,656.89L1088.24,653.23L1097.16,660.56L1106.08,656.89L1115,667.88L1123.92,664.22L1132.84,664.22L1141.76,656.89L1159.6,649.57L1168.52,656.89L1195.28,645.9L1204.2,649.57L1213.12,653.23L1222.04,645.9L1230.96,656.89L1239.88,656.89L1248.8,664.22L1257.72,656.89L1266.64,667.88L1275.56,675.21L1284.48,675.21L1293.4,671.55L1302.32,671.55L1311.24,667.88L1320.16,675.21L1329.08,671.55L1338,667.88" style="vector-effect: none; fill: none; stroke: rgb(70, 111, 175); stroke-opacity: 1; stroke-width: 2px; opacity: 1;"/></g><g class="points"/><g class="text"/></g><g class="trace scatter trace3fc29f" style="stroke-miterlimit: 2; opacity: 0.8;"><g class="fills"/><g class="errorbars"/><g class="lines"><path class="js-line" d="M0,664.22L8.92,671.55L17.84,660.56L26.76,656.89L35.68,651.4L44.6,645.9L53.52,638.58L71.36,620.26L80.28,631.25L89.2,622.09L98.12,616.6L107.04,612.94L115.96,623.93L124.88,622.09L133.8,634.91L142.72,631.25L151.64,644.07L169.48,666.05L178.4,667.88L187.32,671.55L196.24,666.05L205.16,675.21L214.08,673.38L223,669.71L231.92,662.39L240.84,647.74L249.76,638.58L258.68,585.46L267.6,618.43L276.52,592.79L285.44,579.97L294.36,585.46L303.28,552.5L312.2,565.32L321.12,567.15L330.04,536.01L338.96,579.97L347.88,554.33L356.8,592.79L365.72,579.97L374.64,611.1L383.56,592.79L392.48,622.09L401.4,638.58L410.32,649.57L419.24,656.89L428.16,653.23L437.08,662.39L446,644.07L454.92,655.06L463.84,649.57L472.76,644.07L481.68,636.75L490.6,627.59L499.52,616.6L508.44,603.78L517.36,576.31L526.28,541.51L535.2,596.45L544.12,576.31L553.04,521.36L561.96,590.96L570.88,561.65L579.8,605.61L588.72,627.59L597.64,622.09L606.56,636.75L615.48,649.57L624.4,644.07L633.32,636.75L642.24,651.4L651.16,642.24L660.08,636.75L669,623.93L677.92,612.94L686.84,589.13L695.76,557.99L704.68,603.78L713.6,574.47L722.52,517.7L731.44,466.41L740.36,585.46L749.28,466.41L758.2,583.63L767.12,548.83L776.04,598.28L784.96,565.32L793.88,600.12L802.8,625.76L811.72,612.94L820.64,633.08L829.56,645.9L838.48,638.58L847.4,649.57L856.32,656.89L865.24,653.23L874.16,660.56L892,653.23L900.92,647.74L909.84,645.9L918.76,633.08L927.68,645.9L936.6,638.58L945.52,629.42L954.44,614.77L963.36,601.95L972.28,622.09L981.2,603.78L990.12,623.93L999.04,611.1L1007.96,627.59L1016.88,618.43L1025.8,634.91L1034.72,644.07L1043.64,640.41L1052.56,651.4L1061.48,667.88L1070.4,666.05L1079.32,671.55L1097.16,667.88L1106.08,664.22L1132.84,653.23L1141.76,647.74L1150.68,653.23L1159.6,651.4L1177.44,640.41L1186.36,649.57L1195.28,642.24L1204.2,653.23L1213.12,655.06L1222.04,658.72L1230.96,662.39L1239.88,667.88L1248.8,673.38L1257.72,671.55L1266.64,677.04L1275.56,675.21L1302.32,669.71L1311.24,675.21L1320.16,671.55L1329.08,664.22L1338,660.56" style="vector-effect: none; fill: none; stroke: rgb(44, 125, 160); stroke-opacity: 1; stroke-width: 2px; opacity: 1;"/></g><g class="points"/><g class="text"/></g><g class="trace scatter trace5efa47" style="stroke-miterlimit: 2; opacity: 0.8;"><g class="fills"/><g class="errorbars"/><g class="lines"><path class="js-line" d="M0,667.88L8.92,671.55L17.84,667.88L26.76,656.89L35.68,649.57L53.52,634.91L62.44,622.09L71.36,633.08L80.28,627.59L89.2,618.43L98.12,611.1L107.04,620.26L115.96,618.43L124.88,614.77L133.8,627.59L142.72,623.93L151.64,638.58L160.56,649.57L169.48,658.72L187.32,669.71L196.24,673.38L214.08,669.71L223,671.55L240.84,671.55L249.76,658.72L258.68,638.58L267.6,640.41L276.52,614.77L285.44,620.26L294.36,612.94L303.28,585.46L312.2,579.97L321.12,592.79L330.04,578.14L338.96,567.15L347.88,592.79L356.8,574.47L365.72,609.27L374.64,629.42L383.56,644.07L392.48,653.23L401.4,660.56L410.32,673.38L428.16,669.71L437.08,666.05L446,667.88L454.92,660.56L463.84,656.89L472.76,631.25L481.68,623.93L490.6,636.75L499.52,627.59L508.44,616.6L517.36,600.12L526.28,623.93L535.2,612.94L544.12,592.79L553.04,620.26L561.96,638.58L570.88,627.59L579.8,642.24L588.72,653.23L597.64,660.56L606.56,658.72L615.48,664.22L624.4,658.72L633.32,662.39L642.24,655.06L651.16,649.57L660.08,644.07L669,634.91L677.92,649.57L686.84,603.78L695.76,578.14L704.68,640.41L713.6,594.62L722.52,565.32L731.44,605.61L740.36,585.46L749.28,611.1L758.2,631.25L767.12,618.43L776.04,634.91L784.96,647.74L793.88,642.24L811.72,660.56L820.64,655.06L829.56,662.39L838.48,658.72L847.4,666.05L856.32,662.39L865.24,658.72L874.16,651.4L883.08,647.74L892,640.41L900.92,631.25L909.84,618.43L918.76,636.75L927.68,625.76L936.6,611.1L945.52,629.42L954.44,618.43L963.36,601.95L981.2,634.91L990.12,647.74L999.04,638.58L1007.96,649.57L1016.88,667.88L1025.8,664.22L1034.72,667.88L1043.64,666.05L1052.56,671.55L1061.48,669.71L1070.4,667.88L1079.32,664.22L1097.16,656.89L1106.08,651.4L1123.92,640.41L1132.84,649.57L1150.68,638.58L1159.6,645.9L1168.52,642.24L1177.44,649.57L1186.36,647.74L1195.28,662.39L1204.2,669.71L1213.12,660.56L1222.04,664.22L1230.96,671.55L1239.88,675.21L1248.8,675.21L1257.72,671.55L1266.64,677.04L1275.56,675.21L1284.48,675.21L1293.4,671.55L1302.32,669.71L1311.24,667.88L1320.16,664.22L1329.08,664.22L1338,660.56" style="vector-effect: none; fill: none; stroke: rgb(44, 125, 160); stroke-opacity: 1; stroke-width: 2px; opacity: 1;"/></g><g class="points"/><g class="text"/></g><g class="trace scatter trace5ce608" style="stroke-miterlimit: 2; opacity: 0.8;"><g class="fills"/><g class="errorbars"/><g class="lines"><path class="js-line" d="M0,678.87L8.92,678.87L17.84,673.38L26.76,664.22L35.68,664.22L44.6,656.89L53.52,640.41L62.44,645.9L71.36,623.93L80.28,634.91L89.2,625.76L98.12,618.43L107.04,612.94L115.96,623.93L124.88,620.26L133.8,629.42L142.72,627.59L151.64,640.41L160.56,649.57L178.4,664.22L187.32,667.88L196.24,671.55L205.16,677.04L223,669.71L231.92,673.38L240.84,673.38L249.76,666.05L258.68,664.22L267.6,655.06L276.52,653.23L285.44,631.25L294.36,623.93L303.28,631.25L312.2,620.26L321.12,623.93L330.04,600.12L338.96,618.43L347.88,611.1L356.8,629.42L374.64,651.4L383.56,658.72L392.48,669.71L401.4,675.21L410.32,677.04L419.24,675.21L428.16,675.21L437.08,673.38L446,664.22L454.92,660.56L463.84,642.24L472.76,636.75L481.68,644.07L490.6,640.41L508.44,622.09L517.36,634.91L526.28,631.25L535.2,642.24L544.12,633.08L553.04,645.9L561.96,655.06L570.88,660.56L579.8,664.22L588.72,669.71L597.64,667.88L606.56,671.55L615.48,667.88L624.4,671.55L633.32,671.55L642.24,667.88L651.16,658.72L660.08,653.23L669,649.57L677.92,644.07L686.84,634.91L695.76,645.9L713.6,631.25L722.52,642.24L731.44,651.4L740.36,647.74L749.28,653.23L758.2,660.56L767.12,664.22L776.04,662.39L784.96,666.05L793.88,662.39L802.8,658.72L811.72,664.22L820.64,662.39L829.56,667.88L838.48,655.06L847.4,649.57L856.32,644.07L865.24,651.4L874.16,645.9L883.08,655.06L892,629.42L900.92,640.41L909.84,631.25L918.76,644.07L927.68,634.91L936.6,627.59L945.52,640.41L954.44,645.9L963.36,638.58L972.28,649.57L981.2,656.89L990.12,666.05L999.04,673.38L1007.96,669.71L1016.88,667.88L1025.8,671.55L1052.56,666.05L1061.48,667.88L1070.4,664.22L1079.32,653.23L1088.24,649.57L1097.16,655.06L1106.08,651.4L1115,644.07L1123.92,634.91L1132.84,645.9L1141.76,640.41L1150.68,647.74L1159.6,645.9L1168.52,651.4L1177.44,649.57L1186.36,656.89L1213.12,673.38L1222.04,677.04L1230.96,671.55L1239.88,673.38L1248.8,677.04L1257.72,675.21L1284.48,669.71L1293.4,669.71L1311.24,662.39L1320.16,662.39L1329.08,660.56L1338,664.22" style="vector-effect: none; fill: none; stroke: rgb(42, 111, 151); stroke-opacity: 1; stroke-width: 2px; opacity: 1;"/></g><g class="points"/><g class="text"/></g><g class="trace scatter trace21ee79" style="stroke-miterlimit: 2; opacity: 0.8;"><g class="fills"/><g class="errorbars"/><g class="lines"><path class="js-line" d="M0,669.71L8.92,677.04L17.84,677.04L26.76,677.04L35.68,675.21L44.6,662.39L53.52,658.72L62.44,656.89L71.36,651.4L80.28,634.91L89.2,627.59L98.12,636.75L107.04,629.42L115.96,623.93L124.88,620.26L133.8,629.42L142.72,627.59L151.64,640.41L160.56,647.74L169.48,655.06L178.4,658.72L187.32,664.22L196.24,671.55L205.16,673.38L214.08,673.38L223,677.04L231.92,673.38L240.84,671.55L249.76,673.38L258.68,671.55L267.6,662.39L276.52,662.39L285.44,658.72L294.36,656.89L303.28,647.74L312.2,651.4L321.12,647.74L330.04,644.07L338.96,649.57L347.88,647.74L356.8,653.23L365.72,662.39L374.64,669.71L392.48,677.04L401.4,678.87L410.32,678.87L419.24,677.04L437.08,662.39L446,658.72L472.76,647.74L481.68,642.24L490.6,634.91L499.52,644.07L508.44,638.58L517.36,647.74L526.28,653.23L535.2,649.57L553.04,660.56L561.96,664.22L570.88,667.88L579.8,673.38L588.72,669.71L597.64,667.88L606.56,666.05L615.48,669.71L624.4,673.38L633.32,671.55L642.24,669.71L651.16,662.39L660.08,664.22L669,655.06L677.92,658.72L686.84,656.89L695.76,660.56L704.68,658.72L722.52,666.05L731.44,667.88L740.36,667.88L749.28,671.55L758.2,675.21L767.12,669.71L776.04,669.71L784.96,667.88L793.88,669.71L802.8,669.71L811.72,667.88L820.64,656.89L838.48,649.57L847.4,644.07L856.32,649.57L865.24,645.9L874.16,634.91L883.08,645.9L892,636.75L900.92,645.9L918.76,656.89L927.68,660.56L945.52,667.88L954.44,669.71L963.36,667.88L972.28,671.55L990.12,667.88L999.04,669.71L1007.96,669.71L1016.88,667.88L1025.8,666.05L1034.72,667.88L1043.64,662.39L1052.56,658.72L1061.48,647.74L1070.4,649.57L1088.24,638.58L1097.16,634.91L1106.08,640.41L1115,644.07L1123.92,642.24L1132.84,636.75L1150.68,655.06L1159.6,656.89L1168.52,662.39L1177.44,666.05L1204.2,677.04L1213.12,675.21L1239.88,669.71L1248.8,669.71L1257.72,673.38L1266.64,671.55L1275.56,664.22L1284.48,662.39L1293.4,660.56L1302.32,664.22L1320.16,660.56L1329.08,662.39L1338,664.22" style="vector-effect: none; fill: none; stroke: rgb(42, 111, 151); stroke-opacity: 1; stroke-width: 2px; opacity: 1;"/></g><g class="points"/><g class="text"/></g><g class="trace scatter trace821c2c" style="stroke-miterlimit: 2; opacity: 0.8;"><g class="fills"/><g class="errorbars"/><g class="lines"><path class="js-line" d="M0,680.7L8.92,677.04L17.84,680.7L26.76,679.79L35.68,676.12L44.6,675.21L53.52,669.71L62.44,666.97L71.36,657.81L80.28,653.23L89.2,646.82L98.12,639.49L107.04,630.34L115.96,644.99L124.88,635.83L133.8,631.25L142.72,642.24L151.64,638.58L160.56,649.57L178.4,663.3L187.32,667.88L196.24,673.38L205.16,677.96L223,676.12L231.92,677.04L240.84,675.21L249.76,674.29L258.68,675.21L267.6,674.29L276.52,672.46L285.44,664.22L294.36,665.14L303.28,661.47L312.2,664.22L321.12,661.47L330.04,665.14L338.96,667.88L347.88,671.55L356.8,673.38L365.72,676.12L374.64,677.04L383.56,678.87L392.48,678.87L401.4,679.79L410.32,678.87L419.24,668.8L428.16,660.56L437.08,655.98L446,650.48L454.92,644.99L463.84,653.23L472.76,648.65L481.68,642.24L490.6,652.31L499.52,664.22L508.44,652.31L517.36,659.64L526.28,663.3L535.2,671.55L544.12,672.46L553.04,672.46L561.96,674.29L570.88,672.46L579.8,667.88L588.72,666.05L597.64,668.8L606.56,672.46L615.48,674.29L624.4,674.29L633.32,672.46L642.24,666.05L651.16,668.8L660.08,666.05L669,664.22L677.92,667.88L686.84,666.05L695.76,668.8L704.68,670.63L713.6,673.38L722.52,671.55L731.44,673.38L740.36,676.12L749.28,671.55L758.2,673.38L767.12,676.12L776.04,673.38L784.96,673.38L793.88,671.55L802.8,663.3L811.72,661.47L820.64,654.15L829.56,660.56L838.48,655.98L847.4,650.48L856.32,658.72L865.24,653.23L874.16,657.81L883.08,663.3L892,666.05L900.92,668.8L909.84,666.05L918.76,667.88L927.68,670.63L936.6,672.46L945.52,666.97L954.44,669.71L963.36,667.88L972.28,670.63L981.2,668.8L990.12,667.88L999.04,670.63L1007.96,663.3L1016.88,658.72L1025.8,654.15L1034.72,647.74L1043.64,640.41L1052.56,630.34L1061.48,645.9L1070.4,631.25L1079.32,641.33L1088.24,632.17L1097.16,645.9L1106.08,635.83L1115,648.65L1123.92,655.98L1132.84,651.4L1141.76,659.64L1150.68,668.8L1159.6,673.38L1168.52,677.04L1177.44,677.96L1186.36,677.04L1195.28,675.21L1204.2,677.96L1213.12,672.46L1222.04,670.63L1230.96,673.38L1239.88,671.55L1248.8,665.14L1266.64,661.47L1275.56,657.81L1284.48,663.3L1293.4,660.56L1302.32,664.22L1311.24,664.22L1320.16,667.88L1329.08,666.97L1338,673.38" style="vector-effect: none; fill: none; stroke: rgb(1, 79, 134); stroke-opacity: 1; stroke-width: 2px; opacity: 1;"/></g><g class="points"/><g class="text"/></g><g class="trace scatter trace10ded3" style="stroke-miterlimit: 2; opacity: 0.8;"><g class="fills"/><g class="errorbars"/><g class="lines"><path class="js-line" d="M0,678.87L8.92,679.79L17.84,678.87L26.76,679.79L35.68,678.87L44.6,677.96L53.52,676.12L62.44,675.21L71.36,669.71L80.28,667.88L89.2,658.72L98.12,654.15L107.04,648.65L115.96,655.98L124.88,651.4L133.8,646.82L142.72,654.15L151.64,655.06L160.56,658.72L169.48,664.22L178.4,667.88L187.32,675.21L196.24,676.12L205.16,677.04L214.08,678.87L223,678.87L231.92,677.04L240.84,677.96L249.76,676.12L258.68,674.29L267.6,676.12L276.52,667.88L285.44,668.8L294.36,666.97L303.28,668.8L312.2,666.05L321.12,669.71L330.04,667.88L338.96,674.29L347.88,676.12L356.8,674.29L365.72,677.04L374.64,677.04L383.56,678.87L392.48,677.96L401.4,678.87L410.32,677.96L419.24,677.04L428.16,667.88L437.08,659.64L446,668.8L454.92,659.64L463.84,658.72L472.76,654.15L481.68,660.56L490.6,665.14L499.52,667.88L508.44,670.63L517.36,672.46L535.2,676.12L544.12,678.87L553.04,674.29L561.96,668.8L570.88,667.88L579.8,677.04L588.72,676.12L597.64,676.12L606.56,675.21L615.48,675.21L624.4,673.38L633.32,668.8L642.24,667.88L651.16,668.8L660.08,672.46L669,669.71L677.92,672.46L686.84,673.38L695.76,676.12L704.68,675.21L713.6,675.21L722.52,677.04L731.44,676.12L740.36,672.46L749.28,677.04L758.2,677.04L767.12,675.21L776.04,674.29L784.96,672.46L793.88,672.46L802.8,668.8L811.72,666.05L820.64,663.3L829.56,666.05L838.48,663.3L847.4,666.97L856.32,669.71L865.24,671.55L874.16,669.71L883.08,671.55L892,674.29L900.92,674.29L909.84,668.8L918.76,661.47L927.68,665.14L936.6,667.88L945.52,675.21L954.44,671.55L963.36,672.46L972.28,670.63L981.2,661.47L990.12,657.81L999.04,652.31L1007.96,645.9L1016.88,652.31L1025.8,644.99L1034.72,651.4L1043.64,646.82L1052.56,638.58L1061.48,647.74L1070.4,652.31L1079.32,647.74L1088.24,655.98L1097.16,660.56L1106.08,659.64L1115,667.88L1123.92,671.55L1132.84,676.12L1150.68,679.79L1159.6,678.87L1168.52,676.12L1177.44,675.21L1186.36,673.38L1195.28,672.46L1204.2,671.55L1213.12,669.71L1222.04,667.88L1230.96,665.14L1239.88,663.3L1248.8,659.64L1257.72,655.98L1266.64,661.47L1275.56,659.64L1284.48,664.22L1293.4,663.3L1302.32,668.8L1311.24,670.63L1320.16,674.29L1329.08,677.96L1338,677.96" style="vector-effect: none; fill: none; stroke: rgb(1, 79, 134); stroke-opacity: 1; stroke-width: 2px; opacity: 1;"/></g><g class="points"/><g class="text"/></g><g class="trace scatter trace4420e6" style="stroke-miterlimit: 2; opacity: 0.8;"><g class="fills"/><g class="errorbars"/><g class="lines"><path class="js-line" d="M0,668.8L8.92,677.96L17.84,679.79L26.76,678.87L35.68,677.04L44.6,678.87L53.52,675.21L62.44,677.04L71.36,675.21L80.28,674.29L89.2,669.71L98.12,667.88L107.04,665.14L115.96,662.39L124.88,666.05L133.8,664.22L142.72,666.97L151.64,666.05L160.56,668.8L169.48,675.21L178.4,677.04L187.32,677.96L196.24,677.04L205.16,679.79L214.08,678.87L223,679.79L231.92,679.79L240.84,677.96L249.76,677.04L258.68,672.46L267.6,670.63L276.52,667.88L285.44,669.71L294.36,667.88L303.28,667.88L312.2,670.63L321.12,672.46L330.04,673.38L338.96,676.12L347.88,677.04L356.8,676.12L374.64,677.96L383.56,677.04L392.48,677.96L401.4,679.79L410.32,679.79L419.24,677.04L428.16,677.04L437.08,675.21L446,674.29L454.92,669.71L463.84,667.88L472.76,667.88L481.68,672.46L490.6,674.29L499.52,678.87L508.44,678.87L526.28,680.7L535.2,676.12L544.12,677.04L553.04,680.7L561.96,680.7L570.88,678.87L579.8,677.96L588.72,676.12L597.64,675.21L606.56,672.46L624.4,672.46L633.32,669.71L660.08,675.21L669,674.29L677.92,675.21L686.84,677.96L695.76,678.87L704.68,678.87L722.52,675.21L731.44,677.04L758.2,674.29L767.12,676.12L776.04,675.21L784.96,672.46L802.8,668.8L811.72,671.55L820.64,669.71L829.56,671.55L838.48,673.38L847.4,674.29L856.32,676.12L865.24,674.29L874.16,667.88L883.08,665.14L892,663.3L900.92,671.55L909.84,669.71L918.76,676.12L936.6,672.46L945.52,673.38L954.44,668.8L963.36,666.97L972.28,663.3L981.2,660.56L990.12,657.81L999.04,649.57L1007.96,655.98L1016.88,650.48L1025.8,656.89L1034.72,649.57L1043.64,656.89L1052.56,661.47L1061.48,664.22L1070.4,667.88L1079.32,669.71L1088.24,673.38L1097.16,674.29L1106.08,676.12L1115,678.87L1123.92,678.87L1141.76,675.21L1150.68,675.21L1159.6,676.12L1168.52,675.21L1186.36,671.55L1195.28,666.05L1222.04,657.81L1230.96,661.47L1239.88,658.72L1248.8,662.39L1257.72,663.3L1266.64,662.39L1275.56,666.05L1284.48,668.8L1293.4,671.55L1302.32,676.12L1311.24,677.96L1320.16,680.7L1329.08,681.62L1338,679.79" style="vector-effect: none; fill: none; stroke: rgb(1, 73, 124); stroke-opacity: 1; stroke-width: 2px; opacity: 1;"/></g><g class="points"/><g class="text"/></g><g class="trace scatter trace2c731f" style="stroke-miterlimit: 2; opacity: 0.8;"><g class="fills"/><g class="errorbars"/><g class="lines"><path class="js-line" d="M0,649.57L8.92,649.57L17.84,657.63L26.76,654.7L35.68,660.56L53.52,654.7L62.44,649.57L80.28,640.04L89.2,635.65L98.12,629.79L107.04,618.8L115.96,618.8L124.88,613.67L133.8,600.48L142.72,609.27L151.64,595.35L160.56,596.82L169.48,599.75L178.4,585.83L187.32,600.48L196.24,592.42L205.16,590.22L214.08,601.95L223,609.27L231.92,610.01L249.76,620.26L258.68,619.53L276.52,636.38L285.44,645.17L294.36,650.3L303.28,657.63L321.12,667.88L330.04,664.22L338.96,660.56L347.88,655.43L356.8,648.1L365.72,655.43L374.64,649.57L383.56,636.38L392.48,645.9L401.4,638.58L410.32,618.06L419.24,641.51L428.16,626.86L437.08,642.97L446,636.38L454.92,649.57L463.84,656.89L472.76,662.75L481.68,667.15L490.6,674.48L499.52,675.21L508.44,674.48L517.36,672.28L526.28,665.68L535.2,662.02L544.12,645.17L553.04,651.76L561.96,668.62L570.88,632.72L579.8,646.64L588.72,634.91L597.64,648.83L606.56,634.91L615.48,650.3L624.4,657.63L633.32,662.02L642.24,666.42L651.16,669.35L660.08,675.21L669,676.67L686.84,678.87L695.76,675.21L704.68,677.41L713.6,676.67L722.52,675.21L731.44,670.81L740.36,660.56L749.28,656.89L758.2,659.09L767.12,657.63L776.04,653.23L784.96,666.42L793.88,663.49L802.8,667.88L820.64,673.01L829.56,677.41L847.4,680.34L856.32,679.6L865.24,678.14L874.16,674.48L892,670.81L900.92,668.62L918.76,660.56L927.68,664.95L936.6,661.29L945.52,664.95L954.44,660.56L963.36,664.22L972.28,659.82L981.2,664.22L990.12,667.88L999.04,675.21L1016.88,678.14L1025.8,676.67L1034.72,677.41L1043.64,675.94L1052.56,675.94L1061.48,671.55L1070.4,672.28L1079.32,670.08L1097.16,664.95L1106.08,660.56L1115,656.16L1123.92,661.29L1132.84,656.16L1141.76,661.29L1150.68,657.63L1159.6,664.95L1168.52,666.42L1177.44,673.01L1186.36,671.55L1195.28,673.01L1204.2,672.28L1213.12,669.35L1230.96,674.48L1239.88,675.94L1248.8,675.21L1257.72,673.01L1266.64,665.68L1275.56,662.02L1284.48,657.63L1293.4,649.57L1302.32,642.24L1311.24,614.4L1320.16,638.58L1329.08,624.66L1338,644.44" style="vector-effect: none; fill: none; stroke: rgb(1, 73, 124); stroke-opacity: 1; stroke-width: 2px; opacity: 1;"/></g><g class="points"/><g class="text"/></g><g class="trace scatter tracee9bb65" style="stroke-miterlimit: 2; opacity: 0.8;"><g class="fills"/><g class="errorbars"/><g class="lines"><path class="js-line" d="M0,669.35L8.92,671.55L17.84,675.21L35.68,682.53L44.6,681.07L53.52,678.87L62.44,678.87L71.36,676.67L80.28,678.87L98.12,675.21L107.04,673.01L115.96,668.62L124.88,673.01L142.72,667.88L151.64,671.55L160.56,675.94L169.48,674.48L178.4,677.41L187.32,676.67L196.24,679.6L205.16,680.34L223,680.34L231.92,682.53L240.84,680.34L249.76,681.8L258.68,677.41L267.6,676.67L276.52,673.74L285.44,673.74L294.36,672.28L303.28,673.74L312.2,670.08L321.12,673.74L330.04,676.67L338.96,674.48L356.8,679.6L365.72,678.14L374.64,679.6L383.56,679.6L401.4,673.01L410.32,675.21L428.16,679.6L437.08,678.14L446,680.34L454.92,678.87L463.84,676.67L472.76,677.41L481.68,677.41L490.6,678.87L499.52,678.14L508.44,680.34L517.36,678.87L526.28,681.07L535.2,682.53L544.12,682.53L561.96,680.34L570.88,678.14L579.8,675.21L588.72,673.74L597.64,671.55L606.56,667.88L615.48,664.22L624.4,667.15L633.32,663.49L642.24,668.62L651.16,664.22L660.08,668.62L669,670.81L677.92,667.15L686.84,673.01L695.76,675.94L713.6,681.07L722.52,678.87L731.44,680.34L740.36,678.87L749.28,678.14L758.2,675.94L767.12,673.74L776.04,676.67L793.88,671.55L802.8,666.42L811.72,670.08L820.64,667.15L829.56,670.08L838.48,665.68L847.4,672.28L856.32,668.62L865.24,670.81L874.16,675.21L883.08,671.55L892,675.21L900.92,678.14L909.84,675.21L918.76,673.01L927.68,676.67L936.6,674.48L945.52,670.08L963.36,657.63L972.28,681.8L981.2,669.35L990.12,684L999.04,649.57L1007.96,681.8L1016.88,676.67L1025.8,652.5L1034.72,662.75L1043.64,649.57L1052.56,665.68L1061.48,667.15L1070.4,657.63L1079.32,653.23L1088.24,649.57L1097.16,659.82L1115,671.55L1123.92,675.21L1132.84,673.01L1141.76,673.01L1150.68,671.55L1159.6,674.48L1177.44,666.42L1186.36,661.29L1195.28,656.89L1204.2,649.57L1213.12,653.23L1222.04,681.07L1230.96,653.96L1239.88,669.35L1248.8,662.75L1257.72,670.81L1266.64,654.7L1275.56,651.03L1284.48,670.81L1293.4,656.16L1302.32,662.75L1311.24,660.56L1320.16,667.88L1329.08,673.01L1338,676.67" style="vector-effect: none; fill: none; stroke: rgb(1, 58, 99); stroke-opacity: 1; stroke-width: 2px; opacity: 1;"/></g><g class="points"/><g class="text"/></g><g class="trace scatter trace013116" style="stroke-miterlimit: 2; opacity: 0.8;"><g class="fills"/><g class="errorbars"/><g class="lines"><path class="js-line" d="M0,677.04L8.92,680.7L17.84,682.53L26.76,683.27L35.68,682.17L53.52,679.6L62.44,677.04L80.28,671.91L89.2,674.48L98.12,672.64L107.04,669.35L115.96,673.38L124.88,671.91L133.8,675.57L142.72,677.41L151.64,676.31L160.56,678.87L169.48,681.07L178.4,679.97L187.32,681.8L196.24,682.17L205.16,680.34L214.08,681.44L223,681.8L231.92,677.41L240.84,678.87L249.76,679.24L258.68,678.14L267.6,679.97L294.36,678.51L303.28,679.6L312.2,678.14L321.12,679.6L330.04,681.44L338.96,679.97L356.8,682.17L365.72,681.44L374.64,681.8L383.56,681.07L392.48,679.6L401.4,681.07L410.32,679.97L419.24,681.44L437.08,677.77L446,679.97L454.92,678.14L463.84,679.97L472.76,681.07L481.68,679.6L490.6,681.44L499.52,680.34L508.44,681.44L517.36,679.97L526.28,681.44L535.2,679.6L544.12,681.07L553.04,679.24L561.96,677.41L570.88,679.24L588.72,675.57L597.64,676.31L606.56,675.21L615.48,677.77L624.4,679.6L633.32,678.87L651.16,682.17L660.08,677.04L669,676.31L677.92,673.01L686.84,675.94L695.76,680.34L704.68,680.7L713.6,678.14L722.52,675.57L731.44,678.14L740.36,676.31L749.28,673.38L758.2,675.57L767.12,673.38L776.04,668.98L784.96,673.74L793.88,671.55L802.8,675.21L811.72,677.77L820.64,676.67L829.56,679.24L838.48,678.14L856.32,681.07L865.24,679.6L874.16,681.44L883.08,679.6L892,678.14L900.92,675.57L909.84,678.51L918.76,674.48L927.68,677.04L936.6,675.57L945.52,673.38L954.44,669.71L963.36,674.84L972.28,670.45L981.2,675.21L990.12,678.14L999.04,673.74L1007.96,677.41L1016.88,674.84L1025.8,677.77L1034.72,675.21L1043.64,678.14L1052.56,675.57L1061.48,678.51L1070.4,677.04L1079.32,673.74L1088.24,673.38L1097.16,675.94L1106.08,673.38L1115,669.35L1123.92,662.02L1132.84,667.88L1141.76,656.89L1150.68,667.88L1159.6,661.66L1168.52,668.25L1177.44,668.98L1186.36,666.05L1195.28,664.59L1204.2,672.28L1213.12,676.31" style="vector-effect: none; fill: none; stroke: rgb(1, 42, 74); stroke-opacity: 1; stroke-width: 2px; opacity: 1;"/></g><g class="points"/><g class="text"/></g></g></g></g><path class="xlines-above crisp" d="M0,0" style="fill: none;"/><path class="ylines-above crisp" d="M0,0" style="fill: none;"/><g class="overlines-above"/><g class="xaxislayer-above"><g class="xtick"><text text-anchor="middle" x="0" y="833" transform="translate(213.8,0)" style="font-family: 'Open Sans', verdana, arial, sans-serif; font-size: 12px; fill: rgb(42, 63, 95); fill-opacity: 1; white-space: pre; opacity: 1;">−0.006</text></g><g class="xtick"><text text-anchor="middle" x="0" y="833" style="font-family: 'Open Sans', verdana, arial, sans-serif; font-size: 12px; fill: rgb(42, 63, 95); fill-opacity: 1; white-space: pre; opacity: 1;" transform="translate(392.2,0)">−0.004</text></g><g class="xtick"><text text-anchor="middle" x="0" y="833" style="font-family: 'Open Sans', verdana, arial, sans-serif; font-size: 12px; fill: rgb(42, 63, 95); fill-opacity: 1; white-space: pre; opacity: 1;" transform="translate(570.6,0)">−0.002</text></g><g class="xtick"><text text-anchor="middle" x="0" y="833" style="font-family: 'Open Sans', verdana, arial, sans-serif; font-size: 12px; fill: rgb(42, 63, 95); fill-opacity: 1; white-space: pre; opacity: 1;" transform="translate(749,0)">0</text></g><g class="xtick"><text text-anchor="middle" x="0" y="833" style="font-family: 'Open Sans', verdana, arial, sans-serif; font-size: 12px; fill: rgb(42, 63, 95); fill-opacity: 1; white-space: pre; opacity: 1;" transform="translate(927.4,0)">0.002</text></g><g class="xtick"><text text-anchor="middle" x="0" y="833" style="font-family: 'Open Sans', verdana, arial, sans-serif; font-size: 12px; fill: rgb(42, 63, 95); fill-opacity: 1; white-space: pre; opacity: 1;" transform="translate(1105.8,0)">0.004</text></g><g class="xtick"><text text-anchor="middle" x="0" y="833" style="font-family: 'Open Sans', verdana, arial, sans-serif; font-size: 12px; fill: rgb(42, 63, 95); fill-opacity: 1; white-space: pre; opacity: 1;" transform="translate(1284.2,0)">0.006</text></g></g><g class="yaxislayer-above"><g class="ytick"><text text-anchor="end" x="79" y="4.199999999999999" transform="translate(0,786.2)" style="font-family: 'Open Sans', verdana, arial, sans-serif; font-size: 12px; fill: rgb(42, 63, 95); fill-opacity: 1; white-space: pre; opacity: 1;">0</text></g><g class="ytick"><text text-anchor="end" x="79" y="4.199999999999999" style="font-family: 'Open Sans', verdana, arial, sans-serif; font-size: 12px; fill: rgb(42, 63, 95); fill-opacity: 1; white-space: pre; opacity: 1;" transform="translate(0,694.62)">5μ</text></g><g class="ytick"><text text-anchor="end" x="79" y="4.199999999999999" style="font-family: 'Open Sans', verdana, arial, sans-serif; font-size: 12px; fill: rgb(42, 63, 95); fill-opacity: 1; white-space: pre; opacity: 1;" transform="translate(0,603.04)">10μ</text></g><g class="ytick"><text text-anchor="end" x="79" y="4.199999999999999" style="font-family: 'Open Sans', verdana, arial, sans-serif; font-size: 12px; fill: rgb(42, 63, 95); fill-opacity: 1; white-space: pre; opacity: 1;" transform="translate(0,511.47)">15μ</text></g><g class="ytick"><text text-anchor="end" x="79" y="4.199999999999999" style="font-family: 'Open Sans', verdana, arial, sans-serif; font-size: 12px; fill: rgb(42, 63, 95); fill-opacity: 1; white-space: pre; opacity: 1;" transform="translate(0,419.89)">20μ</text></g><g class="ytick"><text text-anchor="end" x="79" y="4.199999999999999" style="font-family: 'Open Sans', verdana, arial, sans-serif; font-size: 12px; fill: rgb(42, 63, 95); fill-opacity: 1; white-space: pre; opacity: 1;" transform="translate(0,328.31)">25μ</text></g><g class="ytick"><text text-anchor="end" x="79" y="4.199999999999999" style="font-family: 'Open Sans', verdana, arial, sans-serif; font-size: 12px; fill: rgb(42, 63, 95); fill-opacity: 1; white-space: pre; opacity: 1;" transform="translate(0,236.73)">30μ</text></g><g class="ytick"><text text-anchor="end" x="79" y="4.199999999999999" style="font-family: 'Open Sans', verdana, arial, sans-serif; font-size: 12px; fill: rgb(42, 63, 95); fill-opacity: 1; white-space: pre; opacity: 1;" transform="translate(0,145.16)">35μ</text></g></g><g class="overaxes-above"/></g></g><g class="polarlayer"/><g class="smithlayer"/><g class="ternarylayer"/><g class="geolayer"/><g class="funnelarealayer"/><g class="pielayer"/><g class="iciclelayer"/><g class="treemaplayer"/><g class="sunburstlayer"/><g class="glimages"/><defs id="topdefs-dfbd8f"><g class="clips"/><clipPath id="legenddfbd8f"><rect width="143" height="371" x="0" y="0"/></clipPath></defs><g class="layer-above"><g class="imagelayer"/><g class="shapelayer"/></g><g class="infolayer"><g class="legend" pointer-events="all" transform="translate(1444.76,100)"><rect class="bg" shape-rendering="crispEdges" width="143" height="371" x="0" y="0" style="stroke: rgb(68, 68, 68); stroke-opacity: 1; fill: rgb(255, 255, 255); fill-opacity: 1; stroke-width: 0px;"/><g class="scrollbox" transform="" clip-path="url(#legenddfbd8f)"><text class="legendtitletext" text-anchor="start" x="2" y="18.2" style="font-family: 'Open Sans', verdana, arial, sans-serif; font-size: 14px; fill: rgb(42, 63, 95); fill-opacity: 1; white-space: pre;">訊號</text><g class="groups"><g class="traces" transform="translate(0,32.7)" style="opacity: 1;"><text class="legendtext" text-anchor="start" x="40" y="4.680000000000001" style="font-family: 'Open Sans', verdana, arial, sans-serif; font-size: 12px; fill: rgb(42, 63, 95); fill-opacity: 1; white-space: pre;">0.0mT(399)</text><g class="layers" style="opacity: 0.8;"><g class="legendfill"/><g class="legendlines"><path class="js-line" d="M5,0h30" style="fill: none; stroke: rgb(169, 214, 229); stroke-opacity: 1; stroke-width: 2px;"/></g><g class="legendsymbols"><g class="legendpoints"/></g></g><rect class="legendtoggle" x="0" y="-9.5" width="137.5625" height="19" style="fill: rgb(0, 0, 0); fill-opacity: 0;"/></g><g class="traces" transform="translate(0,51.7)" style="opacity: 1;"><text class="legendtext" text-anchor="start" x="40" y="4.680000000000001" style="font-family: 'Open Sans', verdana, arial, sans-serif; font-size: 12px; fill: rgb(42, 63, 95); fill-opacity: 1; white-space: pre;">10.0mT(401)</text><g class="layers" style="opacity: 0.8;"><g class="legendfill"/><g class="legendlines"><path class="js-line" d="M5,0h30" style="fill: none; stroke: rgb(169, 214, 229); stroke-opacity: 1; stroke-width: 2px;"/></g><g class="legendsymbols"><g class="legendpoints"/></g></g><rect class="legendtoggle" x="0" y="-9.5" width="137.5625" height="19" style="fill: rgb(0, 0, 0); fill-opacity: 0;"/></g><g class="traces" transform="translate(0,70.7)" style="opacity: 1;"><text class="legendtext" text-anchor="start" x="40" y="4.680000000000001" style="font-family: 'Open Sans', verdana, arial, sans-serif; font-size: 12px; fill: rgb(42, 63, 95); fill-opacity: 1; white-space: pre;">20.0mT(409)</text><g class="layers" style="opacity: 0.8;"><g class="legendfill"/><g class="legendlines"><path class="js-line" d="M5,0h30" style="fill: none; stroke: rgb(137, 194, 217); stroke-opacity: 1; stroke-width: 2px;"/></g><g class="legendsymbols"><g class="legendpoints"/></g></g><rect class="legendtoggle" x="0" y="-9.5" width="137.5625" height="19" style="fill: rgb(0, 0, 0); fill-opacity: 0;"/></g><g class="traces" transform="translate(0,89.7)" style="opacity: 1;"><text class="legendtext" text-anchor="start" x="40" y="4.680000000000001" style="font-family: 'Open Sans', verdana, arial, sans-serif; font-size: 12px; fill: rgb(42, 63, 95); fill-opacity: 1; white-space: pre;">30.0mT(417)</text><g class="layers" style="opacity: 0.8;"><g class="legendfill"/><g class="legendlines"><path class="js-line" d="M5,0h30" style="fill: none; stroke: rgb(137, 194, 217); stroke-opacity: 1; stroke-width: 2px;"/></g><g class="legendsymbols"><g class="legendpoints"/></g></g><rect class="legendtoggle" x="0" y="-9.5" width="137.5625" height="19" style="fill: rgb(0, 0, 0); fill-opacity: 0;"/></g><g class="traces" transform="translate(0,108.7)" style="opacity: 1;"><text class="legendtext" text-anchor="start" x="40" y="4.680000000000001" style="font-family: 'Open Sans', verdana, arial, sans-serif; font-size: 12px; fill: rgb(42, 63, 95); fill-opacity: 1; white-space: pre;">40.0mT(419)</text><g class="layers" style="opacity: 0.8;"><g class="legendfill"/><g class="legendlines"><path class="js-line" d="M5,0h30" style="fill: none; stroke: rgb(97, 165, 194); stroke-opacity: 1; stroke-width: 2px;"/></g><g class="legendsymbols"><g class="legendpoints"/></g></g><rect class="legendtoggle" x="0" y="-9.5" width="137.5625" height="19" style="fill: rgb(0, 0, 0); fill-opacity: 0;"/></g><g class="traces" transform="translate(0,127.7)" style="opacity: 1;"><text class="legendtext" text-anchor="start" x="40" y="4.680000000000001" style="font-family: 'Open Sans', verdana, arial, sans-serif; font-size: 12px; fill: rgb(42, 63, 95); fill-opacity: 1; white-space: pre;">50.0mT(423)</text><g class="layers" style="opacity: 0.8;"><g class="legendfill"/><g class="legendlines"><path class="js-line" d="M5,0h30" style="fill: none; stroke: rgb(97, 165, 194); stroke-opacity: 1; stroke-width: 2px;"/></g><g class="legendsymbols"><g class="legendpoints"/></g></g><rect class="legendtoggle" x="0" y="-9.5" width="137.5625" height="19" style="fill: rgb(0, 0, 0); fill-opacity: 0;"/></g><g class="traces" transform="translate(0,146.7)" style="opacity: 1;"><text class="legendtext" text-anchor="start" x="40" y="4.680000000000001" style="font-family: 'Open Sans', verdana, arial, sans-serif; font-size: 12px; fill: rgb(42, 63, 95); fill-opacity: 1; white-space: pre;">60.0mT(434)</text><g class="layers" style="opacity: 0.8;"><g class="legendfill"/><g class="legendlines"><path class="js-line" d="M5,0h30" style="fill: none; stroke: rgb(70, 111, 175); stroke-opacity: 1; stroke-width: 2px;"/></g><g class="legendsymbols"><g class="legendpoints"/></g></g><rect class="legendtoggle" x="0" y="-9.5" width="137.5625" height="19" style="fill: rgb(0, 0, 0); fill-opacity: 0;"/></g><g class="traces" transform="translate(0,165.7)" style="opacity: 1;"><text class="legendtext" text-anchor="start" x="40" y="4.680000000000001" style="font-family: 'Open Sans', verdana, arial, sans-serif; font-size: 12px; fill: rgb(42, 63, 95); fill-opacity: 1; white-space: pre;">70.0mT(442)</text><g class="layers" style="opacity: 0.8;"><g class="legendfill"/><g class="legendlines"><path class="js-line" d="M5,0h30" style="fill: none; stroke: rgb(70, 111, 175); stroke-opacity: 1; stroke-width: 2px;"/></g><g class="legendsymbols"><g class="legendpoints"/></g></g><rect class="legendtoggle" x="0" y="-9.5" width="137.5625" height="19" style="fill: rgb(0, 0, 0); fill-opacity: 0;"/></g><g class="traces" transform="translate(0,184.7)" style="opacity: 1;"><text class="legendtext" text-anchor="start" x="40" y="4.680000000000001" style="font-family: 'Open Sans', verdana, arial, sans-serif; font-size: 12px; fill: rgb(42, 63, 95); fill-opacity: 1; white-space: pre;">80.0mT(447)</text><g class="layers" style="opacity: 0.8;"><g class="legendfill"/><g class="legendlines"><path class="js-line" d="M5,0h30" style="fill: none; stroke: rgb(44, 125, 160); stroke-opacity: 1; stroke-width: 2px;"/></g><g class="legendsymbols"><g class="legendpoints"/></g></g><rect class="legendtoggle" x="0" y="-9.5" width="137.5625" height="19" style="fill: rgb(0, 0, 0); fill-opacity: 0;"/></g><g class="traces" transform="translate(0,203.7)" style="opacity: 1;"><text class="legendtext" text-anchor="start" x="40" y="4.680000000000001" style="font-family: 'Open Sans', verdana, arial, sans-serif; font-size: 12px; fill: rgb(42, 63, 95); fill-opacity: 1; white-space: pre;">90.0mT(454+)</text><g class="layers" style="opacity: 0.8;"><g class="legendfill"/><g class="legendlines"><path class="js-line" d="M5,0h30" style="fill: none; stroke: rgb(44, 125, 160); stroke-opacity: 1; stroke-width: 2px;"/></g><g class="legendsymbols"><g class="legendpoints"/></g></g><rect class="legendtoggle" x="0" y="-9.5" width="137.5625" height="19" style="fill: rgb(0, 0, 0); fill-opacity: 0;"/></g><g class="traces" transform="translate(0,222.7)" style="opacity: 1;"><text class="legendtext" text-anchor="start" x="40" y="4.680000000000001" style="font-family: 'Open Sans', verdana, arial, sans-serif; font-size: 12px; fill: rgb(42, 63, 95); fill-opacity: 1; white-space: pre;">100.0mT(457+)</text><g class="layers" style="opacity: 0.8;"><g class="legendfill"/><g class="legendlines"><path class="js-line" d="M5,0h30" style="fill: none; stroke: rgb(42, 111, 151); stroke-opacity: 1; stroke-width: 2px;"/></g><g class="legendsymbols"><g class="legendpoints"/></g></g><rect class="legendtoggle" x="0" y="-9.5" width="137.5625" height="19" style="fill: rgb(0, 0, 0); fill-opacity: 0;"/></g><g class="traces" transform="translate(0,241.7)" style="opacity: 1;"><text class="legendtext" text-anchor="start" x="40" y="4.680000000000001" style="font-family: 'Open Sans', verdana, arial, sans-serif; font-size: 12px; fill: rgb(42, 63, 95); fill-opacity: 1; white-space: pre;">110.0mT(460+)</text><g class="layers" style="opacity: 0.8;"><g class="legendfill"/><g class="legendlines"><path class="js-line" d="M5,0h30" style="fill: none; stroke: rgb(42, 111, 151); stroke-opacity: 1; stroke-width: 2px;"/></g><g class="legendsymbols"><g class="legendpoints"/></g></g><rect class="legendtoggle" x="0" y="-9.5" width="137.5625" height="19" style="fill: rgb(0, 0, 0); fill-opacity: 0;"/></g><g class="traces" transform="translate(0,260.7)" style="opacity: 1;"><text class="legendtext" text-anchor="start" x="40" y="4.680000000000001" style="font-family: 'Open Sans', verdana, arial, sans-serif; font-size: 12px; fill: rgb(42, 63, 95); fill-opacity: 1; white-space: pre;">120.0mT(462+)</text><g class="layers" style="opacity: 0.8;"><g class="legendfill"/><g class="legendlines"><path class="js-line" d="M5,0h30" style="fill: none; stroke: rgb(1, 79, 134); stroke-opacity: 1; stroke-width: 2px;"/></g><g class="legendsymbols"><g class="legendpoints"/></g></g><rect class="legendtoggle" x="0" y="-9.5" width="137.5625" height="19" style="fill: rgb(0, 0, 0); fill-opacity: 0;"/></g><g class="traces" transform="translate(0,279.7)" style="opacity: 1;"><text class="legendtext" text-anchor="start" x="40" y="4.680000000000001" style="font-family: 'Open Sans', verdana, arial, sans-serif; font-size: 12px; fill: rgb(42, 63, 95); fill-opacity: 1; white-space: pre;">130.0mT(464+)</text><g class="layers" style="opacity: 0.8;"><g class="legendfill"/><g class="legendlines"><path class="js-line" d="M5,0h30" style="fill: none; stroke: rgb(1, 79, 134); stroke-opacity: 1; stroke-width: 2px;"/></g><g class="legendsymbols"><g class="legendpoints"/></g></g><rect class="legendtoggle" x="0" y="-9.5" width="137.5625" height="19" style="fill: rgb(0, 0, 0); fill-opacity: 0;"/></g><g class="traces" transform="translate(0,298.7)" style="opacity: 1;"><text class="legendtext" text-anchor="start" x="40" y="4.680000000000001" style="font-family: 'Open Sans', verdana, arial, sans-serif; font-size: 12px; fill: rgb(42, 63, 95); fill-opacity: 1; white-space: pre;">140.0mT(466+)</text><g class="layers" style="opacity: 0.8;"><g class="legendfill"/><g class="legendlines"><path class="js-line" d="M5,0h30" style="fill: none; stroke: rgb(1, 73, 124); stroke-opacity: 1; stroke-width: 2px;"/></g><g class="legendsymbols"><g class="legendpoints"/></g></g><rect class="legendtoggle" x="0" y="-9.5" width="137.5625" height="19" style="fill: rgb(0, 0, 0); fill-opacity: 0;"/></g><g class="traces" transform="translate(0,317.7)" style="opacity: 1;"><text class="legendtext" text-anchor="start" x="40" y="4.680000000000001" style="font-family: 'Open Sans', verdana, arial, sans-serif; font-size: 12px; fill: rgb(42, 63, 95); fill-opacity: 1; white-space: pre;">150.0mT(478)</text><g class="layers" style="opacity: 0.8;"><g class="legendfill"/><g class="legendlines"><path class="js-line" d="M5,0h30" style="fill: none; stroke: rgb(1, 73, 124); stroke-opacity: 1; stroke-width: 2px;"/></g><g class="legendsymbols"><g class="legendpoints"/></g></g><rect class="legendtoggle" x="0" y="-9.5" width="137.5625" height="19" style="fill: rgb(0, 0, 0); fill-opacity: 0;"/></g><g class="traces" transform="translate(0,336.7)" style="opacity: 1;"><text class="legendtext" text-anchor="start" x="40" y="4.680000000000001" style="font-family: 'Open Sans', verdana, arial, sans-serif; font-size: 12px; fill: rgb(42, 63, 95); fill-opacity: 1; white-space: pre;">160.0mT(476+)</text><g class="layers" style="opacity: 0.8;"><g class="legendfill"/><g class="legendlines"><path class="js-line" d="M5,0h30" style="fill: none; stroke: rgb(1, 58, 99); stroke-opacity: 1; stroke-width: 2px;"/></g><g class="legendsymbols"><g class="legendpoints"/></g></g><rect class="legendtoggle" x="0" y="-9.5" width="137.5625" height="19" style="fill: rgb(0, 0, 0); fill-opacity: 0;"/></g><g class="traces" transform="translate(0,355.7)" style="opacity: 1;"><text class="legendtext" text-anchor="start" x="40" y="4.680000000000001" style="font-family: 'Open Sans', verdana, arial, sans-serif; font-size: 12px; fill: rgb(42, 63, 95); fill-opacity: 1; white-space: pre;">170.0mT(510+)</text><g class="layers" style="opacity: 0.8;"><g class="legendfill"/><g class="legendlines"><path class="js-line" d="M5,0h30" style="fill: none; stroke: rgb(1, 42, 74); stroke-opacity: 1; stroke-width: 2px;"/></g><g class="legendsymbols"><g class="legendpoints"/></g></g><rect class="legendtoggle" x="0" y="-9.5" width="137.5625" height="19" style="fill: rgb(0, 0, 0); fill-opacity: 0;"/></g></g></g><rect class="scrollbar" rx="20" ry="3" width="0" height="0" x="0" y="0" style="fill: rgb(128, 139, 164); fill-opacity: 1;"/></g><g class="g-gtitle"><text class="gtitle" x="80" y="50" text-anchor="start" dy="0em" style="opacity: 1; font-family: 'Open Sans', verdana, arial, sans-serif; font-size: 17px; fill: rgb(42, 63, 95); fill-opacity: 1; white-space: pre;"><tspan class="line" dy="0em" x="80" y="50"><tspan style="font-weight:bold">原始數據預覽</tspan></tspan><tspan class="line" dy="1.3em" x="80" y="50">​<tspan style="font-size:70%" dy="0.3em">003-2 - Finite - Parallel - IVB</tspan><tspan dy="-0.21em">​</tspan></tspan></text></g><g class="g-xtitle"><text class="xtitle" x="749" y="859.8" text-anchor="middle" style="opacity: 1; font-family: 'Open Sans', verdana, arial, sans-serif; font-size: 14px; fill: rgb(42, 63, 95); fill-opacity: 1; white-space: pre;">磁場位置 (物理單位)</text></g><g class="g-ytitle"><text class="ytitle" transform="rotate(-90,36.6625,460)" x="36.6625" y="460" text-anchor="middle" style="opacity: 1; font-family: 'Open Sans', verdana, arial, sans-serif; font-size: 14px; fill: rgb(42, 63, 95); fill-opacity: 1; white-space: pre;">訊號振幅 (Ic)</text></g></g></svg>