<svg class="main-svg" xmlns="http://www.w3.org/2000/svg" xmlns:xlink="http://www.w3.org/1999/xlink" width="1600" height="900" style="" viewBox="0 0 1600 900"><rect x="0" y="0" width="1600" height="900" style="fill: rgb(255, 255, 255); fill-opacity: 1;"/><defs id="defs-17bb75"><g class="clips"><clipPath id="clip17bb75xyplot" class="plotclip"><rect width="1360" height="720"/></clipPath><clipPath class="axesclip" id="clip17bb75x"><rect x="80" y="0" width="1360" height="900"/></clipPath><clipPath class="axesclip" id="clip17bb75y"><rect x="0" y="100" width="1600" height="720"/></clipPath><clipPath class="axesclip" id="clip17bb75xy"><rect x="80" y="100" width="1360" height="720"/></clipPath></g><g class="gradients"/><g class="patterns"/></defs><g class="bglayer"/><g class="layer-below"><g class="imagelayer"/><g class="shapelayer"/></g><g class="cartesianlayer"><g class="subplot xy"><g class="layer-subplot"><g class="shapelayer"/><g class="imagelayer"/></g><g class="minor-gridlayer"><g class="x"/><g class="y"/></g><g class="gridlayer"><g class="x"><path class="xgrid crisp" transform="translate(122.5,0)" d="M0,100v720" style="stroke: rgb(235, 240, 248); stroke-opacity: 1; stroke-width: 1px;"/><path class="xgrid crisp" transform="translate(335,0)" d="M0,100v720" style="stroke: rgb(235, 240, 248); stroke-opacity: 1; stroke-width: 1px;"/><path class="xgrid crisp" transform="translate(547.5,0)" d="M0,100v720" style="stroke: rgb(235, 240, 248); stroke-opacity: 1; stroke-width: 1px;"/><path class="xgrid crisp" transform="translate(972.5,0)" d="M0,100v720" style="stroke: rgb(235, 240, 248); stroke-opacity: 1; stroke-width: 1px;"/><path class="xgrid crisp" transform="translate(1185,0)" d="M0,100v720" style="stroke: rgb(235, 240, 248); stroke-opacity: 1; stroke-width: 1px;"/><path class="xgrid crisp" transform="translate(1397.5,0)" d="M0,100v720" style="stroke: rgb(235, 240, 248); stroke-opacity: 1; stroke-width: 1px;"/></g><g class="y"><path class="ygrid crisp" transform="translate(0,624.44)" d="M80,0h1360" style="stroke: rgb(235, 240, 248); stroke-opacity: 1; stroke-width: 1px;"/><path class="ygrid crisp" transform="translate(0,461.63)" d="M80,0h1360" style="stroke: rgb(235, 240, 248); stroke-opacity: 1; stroke-width: 1px;"/><path class="ygrid crisp" transform="translate(0,298.81)" d="M80,0h1360" style="stroke: rgb(235, 240, 248); stroke-opacity: 1; stroke-width: 1px;"/><path class="ygrid crisp" transform="translate(0,136)" d="M80,0h1360" style="stroke: rgb(235, 240, 248); stroke-opacity: 1; stroke-width: 1px;"/></g></g><g class="zerolinelayer"><path class="xzl zl crisp" transform="translate(760,0)" d="M0,100v720" style="stroke: rgb(235, 240, 248); stroke-opacity: 1; stroke-width: 2px;"/><path class="yzl zl crisp" transform="translate(0,787.26)" d="M80,0h1360" style="stroke: rgb(235, 240, 248); stroke-opacity: 1; stroke-width: 2px;"/></g><g class="layer-between"><g class="shapelayer"/><g class="imagelayer"/></g><path class="xlines-below"/><path class="ylines-below"/><g class="overlines-below"/><g class="xaxislayer-below"/><g class="yaxislayer-below"/><g class="overaxes-below"/><g class="overplot"><g class="xy" transform="translate(80,100)" clip-path="url(#clip17bb75xyplot)"><g class="scatterlayer mlayer"><g class="trace scatter trace011116" style="stroke-miterlimit: 2; opacity: 0.8;"><g class="fills"/><g class="errorbars"/><g class="lines"><path class="js-line" d="M255,667.72L258.4,667.72L261.8,670.97L268.6,664.46L272,664.46L275.4,661.21L278.8,654.69L282.2,654.69L285.6,651.44L295.8,641.67L299.2,641.67L302.6,638.41L306,631.9L309.4,625.39L312.8,625.39L316.2,622.13L319.6,615.62L326.4,609.11L329.8,609.11L333.2,599.34L336.6,596.08L340,592.82L343.4,592.82L346.8,592.82L350.2,583.06L357,576.54L360.4,583.06L363.8,586.31L367.2,586.31L370.6,586.31L374,563.52L377.4,560.26L380.8,566.77L387.6,579.8L391,589.57L394.4,589.57L397.8,596.08L401.2,596.08L404.6,602.59L408,570.03L411.4,612.36L414.8,586.31L418.2,589.57L425,602.59L428.4,618.87L431.8,618.87L435.2,628.64L438.6,625.39L442,651.44L445.4,641.67L448.8,648.18L452.2,664.46L455.6,654.69L459,664.46L462.4,657.95L465.8,661.21L469.2,670.97L472.6,670.97L476,664.46L479.4,628.64L482.8,638.41L486.2,638.41L489.6,596.08L493,605.85L496.4,592.82L499.8,573.29L503.2,563.52L510,550.49L513.4,547.24L516.8,530.95L520.2,491.88L523.6,485.37L527,498.39L530.4,511.42L533.8,504.9L537.2,439.78L540.6,394.19L544,394.19L547.4,439.78L550.8,465.83L554.2,465.83L557.6,446.29L561,374.65L564.4,283.48L567.8,283.48L571.2,322.55L574.6,381.17L578,420.24L581.4,420.24L584.8,303.02L588.2,231.38L591.6,192.3L595,185.79L598.4,257.43L601.8,368.14L605.2,394.19L608.6,342.09L612,237.89L615.4,166.25L618.8,127.18L622.2,133.69L625.6,218.35L629,322.55L632.4,368.14L635.8,296.5L639.2,250.91L642.6,159.74L646,127.18L649.4,153.23L652.8,224.86L656.2,250.91L659.6,329.07L663,387.68L666.4,322.55L669.8,231.38L673.2,159.74L676.6,159.74L680,250.91L683.4,309.53L686.8,387.68L690.2,413.73L693.6,439.78L697,394.19L700.4,309.53L703.8,270.45L707.2,263.94L710.6,283.48L714,348.6L717.4,381.17L724.2,485.37L727.6,491.88L731,478.85L734.4,407.22L737.8,387.68L741.2,407.22L744.6,452.8L748,446.29L754.8,517.93L758.2,586.31L761.6,543.98L765,553.75L768.4,573.29L771.8,573.29L775.2,589.57L778.6,592.82L782,602.59L785.4,605.85L788.8,618.87L792.2,625.39L802.4,635.16L805.8,648.18L809.2,622.13L812.6,622.13L816,628.64L819.4,641.67L822.8,631.9L826.2,638.41L829.6,641.67L833,615.62L836.4,641.67L839.8,618.87L843.2,622.13L846.6,622.13L850,625.39L853.4,599.34L856.8,596.08L860.2,622.13L863.6,622.13L867,612.36L870.4,612.36L873.8,586.31L877.2,609.11L880.6,592.82L884,615.62L887.4,596.08L890.8,609.11L894.2,602.59L897.6,596.08L901,618.87L904.4,589.57L907.8,605.85L911.2,592.82L914.6,599.34L918,609.11L921.4,612.36L924.8,609.11L928.2,612.36L938.4,612.36L941.8,618.87L945.2,644.92L948.6,638.41L952,654.69L955.4,635.16L958.8,641.67L962.2,657.95L965.6,644.92L969,661.21L972.4,654.69L975.8,664.46L979.2,661.21L982.6,664.46L986,670.97L989.4,674.23L992.8,677.49L996.2,684L999.6,680.74L1003,684L1009.8,677.49L1013.2,677.49L1016.6,677.49L1020,674.23L1026.8,674.23L1030.2,670.97L1033.6,670.97L1037,667.72L1040.4,667.72L1043.8,664.46L1060.8,664.46L1064.2,661.21L1074.4,661.21L1077.8,664.46L1081.2,661.21L1084.6,664.46L1094.8,664.46L1098.2,667.72L1105,667.72" style="vector-effect: none; fill: none; stroke: rgb(169, 214, 229); stroke-opacity: 1; stroke-width: 2px; opacity: 1;"/></g><g class="points"/><g class="text"/></g><g class="trace scatter trace3a3f17" style="stroke-miterlimit: 2; opacity: 0.8;"><g class="fills"/><g class="errorbars"/><g class="lines"><path class="js-line" d="M0,679.12L25.5,679.12L34,675.86L51,672.6L59.5,672.6L68,672.6L76.5,669.35L110.5,669.35L119,670.97L144.5,670.97L153,672.6L161.5,667.72L170,664.46L178.5,661.21L187,659.58L195.5,656.32L204,648.18L212.5,644.92L221,646.55L229.5,636.78L238,641.67L246.5,651.44L255,636.78L263.5,640.04L272,644.92L280.5,644.92L289,648.18L297.5,653.07L306,656.32L314.5,657.95L323,661.21L331.5,661.21L340,656.32L348.5,646.55L357,640.04L365.5,618.87L374,605.85L382.5,622.13L391,589.57L399.5,605.85L408,560.26L416.5,566.77L425,537.47L433.5,557.01L442,537.47L450.5,511.42L459,557.01L467.5,560.26L476,570.03L484.5,566.77L493,508.16L501.5,592.82L510,602.59L518.5,579.8L527,631.9L535.5,646.55L544,657.95L552.5,669.35L561,677.49L569.5,674.23L578,674.23L586.5,672.6L595,664.46L603.5,643.3L612,653.07L620.5,609.11L629,641.67L637.5,638.41L646,599.34L654.5,615.62L663,615.62L671.5,622.13L680,644.92L688.5,646.55L697,659.58L705.5,667.72L714,670.97L722.5,669.35L731,662.83L739.5,656.32L748,653.07L756.5,643.3L765,623.76L773.5,646.55L782,586.31L790.5,605.85L799,596.08L807.5,651.44L816,540.72L824.5,573.29L833,550.49L841.5,622.13L850,501.65L858.5,537.47L867,566.77L875.5,560.26L884,570.03L892.5,654.69L901,589.57L909.5,633.53L918,596.08L926.5,596.08L935,649.81L943.5,623.76L952,646.55L960.5,641.67L969,664.46L977.5,656.32L986,657.95L994.5,659.58L1003,654.69L1011.5,653.07L1020,649.81L1028.5,654.69L1037,649.81L1045.5,648.18L1054,657.95L1062.5,653.07L1071,657.95L1079.5,661.21L1088,662.83L1113.5,672.6L1122,674.23L1130.5,677.49L1139,679.12L1198.5,667.72L1207,667.72L1224,667.72L1232.5,669.35L1241,670.97L1249.5,670.97L1258,674.23L1266.5,674.23L1283.5,677.49L1292,677.49L1300.5,677.49L1309,679.12L1326,675.86L1334.5,675.86L1343,677.49L1351.5,675.86L1360,675.86" style="vector-effect: none; fill: none; stroke: rgb(137, 194, 217); stroke-opacity: 1; stroke-width: 2px; opacity: 1;"/></g><g class="points"/><g class="text"/></g><g class="trace scatter trace39634c" style="stroke-miterlimit: 2; opacity: 0.8;"><g class="fills"/><g class="errorbars"/><g class="lines"><path class="js-line" d="M255,638.41L278.8,638.41L282.2,641.67L285.6,638.41L289,644.92L292.4,641.67L295.8,641.67L299.2,648.18L302.6,648.18L306,648.18L309.4,651.44L319.6,661.21L323,661.21L326.4,664.46L329.8,664.46L333.2,667.72L336.6,667.72L340,664.46L343.4,670.97L346.8,664.46L350.2,674.23L353.6,664.46L357,667.72L360.4,654.69L363.8,654.69L367.2,654.69L370.6,657.95L374,635.16L377.4,641.67L380.8,641.67L384.2,635.16L387.6,615.62L391,622.13L394.4,651.44L397.8,599.34L401.2,596.08L404.6,599.34L411.4,592.82L414.8,579.8L418.2,576.54L421.6,576.54L425,573.29L428.4,596.08L431.8,557.01L435.2,553.75L438.6,557.01L442,553.75L452.2,534.21L455.6,540.72L459,527.7L462.4,537.47L465.8,537.47L469.2,540.72L472.6,543.98L476,527.7L479.4,511.42L482.8,511.42L486.2,543.98L489.6,530.95L493,504.9L496.4,534.21L499.8,511.42L503.2,511.42L506.6,573.29L510,504.9L513.4,517.93L516.8,534.21L520.2,547.24L523.6,557.01L527,573.29L530.4,583.06L533.8,589.57L537.2,592.82L540.6,596.08L544,605.85L547.4,612.36L550.8,573.29L554.2,579.8L557.6,592.82L561,599.34L564.4,638.41L567.8,644.92L571.2,648.18L578,661.21L581.4,657.95L584.8,670.97L588.2,664.46L591.6,670.97L595,674.23L598.4,670.97L601.8,664.46L605.2,670.97L608.6,667.72L612,667.72L615.4,657.95L618.8,661.21L622.2,638.41L625.6,648.18L629,622.13L632.4,628.64L635.8,628.64L639.2,602.59L642.6,638.41L649.4,586.31L652.8,589.57L656.2,596.08L659.6,628.64L663,596.08L666.4,583.06L669.8,579.8L673.2,589.57L680,596.08L683.4,579.8L690.2,586.31L693.6,592.82L697,605.85L700.4,609.11L703.8,615.62L707.2,615.62L714,622.13L717.4,651.44L720.8,651.44L724.2,638.41L727.6,648.18L731,651.44L734.4,654.69L737.8,670.97L741.2,670.97L744.6,674.23L748,684L751.4,677.49L754.8,674.23L758.2,677.49L761.6,670.97L765,670.97L768.4,664.46L771.8,670.97L775.2,657.95L778.6,654.69L782,644.92L785.4,641.67L788.8,638.41L792.2,644.92L795.6,628.64L799,638.41L802.4,635.16L805.8,596.08L809.2,605.85L812.6,622.13L816,576.54L819.4,586.31L822.8,589.57L826.2,599.34L829.6,602.59L833,570.03L839.8,589.57L843.2,589.57L846.6,540.72L850,557.01L853.4,576.54L856.8,576.54L860.2,583.06L863.6,592.82L867,534.21L870.4,573.29L873.8,563.52L877.2,573.29L880.6,573.29L884,596.08L887.4,543.98L890.8,560.26L894.2,573.29L897.6,579.8L901,563.52L904.4,644.92L907.8,644.92L911.2,566.77L918,586.31L921.4,583.06L924.8,599.34L928.2,589.57L931.6,602.59L935,579.8L938.4,583.06L941.8,596.08L945.2,615.62L948.6,605.85L952,618.87L955.4,618.87L958.8,609.11L962.2,618.87L965.6,631.9L969,625.39L972.4,641.67L975.8,635.16L979.2,648.18L982.6,635.16L986,638.41L989.4,651.44L992.8,648.18L996.2,651.44L999.6,657.95L1003,654.69L1006.4,651.44L1009.8,651.44L1013.2,654.69L1016.6,651.44L1026.8,651.44L1030.2,648.18L1033.6,651.44L1037,648.18L1043.8,648.18L1047.2,651.44L1050.6,644.92L1054,648.18L1057.4,648.18L1060.8,651.44L1064.2,648.18L1067.6,648.18L1071,651.44L1074.4,648.18L1077.8,651.44L1081.2,648.18L1084.6,657.95L1088,651.44L1091.4,654.69L1094.8,661.21L1098.2,654.69L1101.6,654.69L1105,657.95" style="vector-effect: none; fill: none; stroke: rgb(97, 165, 194); stroke-opacity: 1; stroke-width: 2px; opacity: 1;"/></g><g class="points"/><g class="text"/></g><g class="trace scatter traceee8ff3" style="stroke-miterlimit: 2; opacity: 0.8;"><g class="fills"/><g class="errorbars"/><g class="lines"><path class="js-line" d="M255,664.46L258.4,664.46L261.8,667.72L268.6,667.72L272,664.46L278.8,670.97L282.2,667.72L289,674.23L292.4,674.23L299.2,674.23L302.6,677.49L306,677.49L309.4,680.74L312.8,680.74L316.2,677.49L323,670.97L326.4,670.97L329.8,670.97L333.2,664.46L336.6,657.95L340,654.69L346.8,648.18L350.2,641.67L353.6,638.41L357,638.41L360.4,628.64L363.8,622.13L370.6,622.13L374,612.36L380.8,605.85L384.2,605.85L391,592.82L394.4,589.57L401.2,589.57L404.6,586.31L408,576.54L411.4,576.54L414.8,599.34L418.2,579.8L421.6,579.8L425,566.77L428.4,563.52L431.8,563.52L435.2,573.29L438.6,579.8L442,586.31L445.4,560.26L448.8,560.26L452.2,573.29L455.6,622.13L459,599.34L462.4,589.57L465.8,609.11L469.2,609.11L472.6,586.31L476,612.36L479.4,622.13L482.8,596.08L486.2,625.39L489.6,615.62L493,609.11L499.8,648.18L503.2,644.92L506.6,648.18L510,648.18L513.4,651.44L516.8,631.9L520.2,638.41L523.6,609.11L527,612.36L530.4,609.11L533.8,570.03L537.2,573.29L540.6,579.8L544,517.93L550.8,537.47L554.2,534.21L557.6,485.37L561,472.34L564.4,478.85L567.8,498.39L574.6,400.7L578,387.68L581.4,413.73L584.8,446.29L588.2,439.78L591.6,361.63L595,316.04L598.4,303.02L601.8,355.12L605.2,394.19L608.6,420.24L612,368.14L615.4,263.94L618.8,211.84L622.2,231.38L625.6,309.53L629,342.09L632.4,329.07L635.8,276.96L639.2,179.28L642.6,120.66L646,179.28L649.4,289.99L652.8,335.58L659.6,153.23L663,81.59L666.4,68.56L669.8,166.25L673.2,205.33L676.6,316.04L680,270.45L683.4,153.23L686.8,49.03L690.2,49.03L697,198.81L700.4,296.5L703.8,257.43L707.2,140.2L714,42.51L717.4,68.56L720.8,42.51L724.2,140.2L727.6,192.3L731,309.53L734.4,283.48L737.8,218.35L744.6,75.08L748,114.15L751.4,172.76L754.8,270.45L758.2,368.14L761.6,329.07L765,244.4L768.4,250.91L771.8,198.81L775.2,179.28L778.6,368.14L782,400.7L785.4,400.7L788.8,322.55L792.2,276.96L795.6,257.43L799,283.48L802.4,283.48L809.2,413.73L812.6,459.32L816,472.34L819.4,465.83L822.8,413.73L826.2,400.7L829.6,426.75L833,433.27L836.4,472.34L839.8,485.37L843.2,491.88L846.6,527.7L850,537.47L853.4,550.49L860.2,570.03L863.6,596.08L867,586.31L870.4,592.82L873.8,599.34L877.2,609.11L880.6,612.36L884,638.41L887.4,638.41L890.8,664.46L894.2,654.69L897.6,654.69L901,670.97L904.4,667.72L907.8,664.46L911.2,664.46L914.6,661.21L918,661.21L921.4,654.69L924.8,654.69L928.2,654.69L931.6,644.92L938.4,644.92L941.8,648.18L945.2,635.16L948.6,638.41L955.4,638.41L958.8,635.16L962.2,631.9L965.6,631.9L969,641.67L972.4,644.92L975.8,631.9L979.2,631.9L982.6,631.9L986,641.67L992.8,635.16L996.2,638.41L999.6,638.41L1003,657.95L1006.4,641.67L1009.8,644.92L1013.2,644.92L1016.6,648.18L1020,654.69L1023.4,657.95L1026.8,661.21L1030.2,661.21L1037,667.72L1040.4,664.46L1043.8,670.97L1047.2,670.97L1050.6,674.23L1054,670.97L1057.4,677.49L1060.8,677.49L1064.2,674.23L1067.6,674.23L1074.4,674.23L1077.8,670.97L1081.2,670.97L1084.6,667.72L1088,667.72L1091.4,664.46L1105,664.46" style="vector-effect: none; fill: none; stroke: rgb(70, 111, 175); stroke-opacity: 1; stroke-width: 2px; opacity: 1;"/></g><g class="points"/><g class="text"/></g><g class="trace scatter trace365d93" style="stroke-miterlimit: 2; opacity: 0.8;"><g class="fills"/><g class="errorbars"/><g class="lines"><path class="js-line" d="M255,664.46L261.8,664.46L265.2,661.21L285.6,661.21L289,664.46L302.6,664.46L306,667.72L312.8,667.72L316.2,670.97L319.6,674.23L323,674.23L326.4,674.23L329.8,677.49L333.2,677.49L336.6,680.74L340,684L343.4,684L346.8,684L350.2,674.23L353.6,674.23L357,670.97L360.4,664.46L363.8,664.46L367.2,654.69L370.6,651.44L374,654.69L377.4,644.92L380.8,651.44L384.2,641.67L387.6,638.41L391,631.9L394.4,625.39L397.8,625.39L401.2,622.13L404.6,622.13L408,618.87L411.4,609.11L418.2,609.11L421.6,605.85L425,602.59L428.4,592.82L431.8,592.82L435.2,596.08L438.6,599.34L442,599.34L445.4,628.64L448.8,579.8L452.2,583.06L455.6,573.29L459,599.34L462.4,579.8L465.8,599.34L469.2,589.57L472.6,602.59L476,605.85L479.4,592.82L482.8,592.82L486.2,592.82L489.6,589.57L493,622.13L496.4,622.13L499.8,602.59L503.2,628.64L506.6,628.64L510,638.41L513.4,638.41L516.8,644.92L523.6,651.44L527,648.18L530.4,635.16L533.8,631.9L537.2,609.11L540.6,609.11L544,605.85L547.4,605.85L550.8,592.82L554.2,573.29L557.6,570.03L561,573.29L564.4,550.49L567.8,517.93L571.2,527.7L574.6,530.95L578,534.21L581.4,511.42L584.8,491.88L588.2,446.29L591.6,433.27L595,439.78L598.4,446.29L601.8,459.32L605.2,465.83L608.6,485.37L612,439.78L615.4,355.12L618.8,322.55L622.2,335.58L625.6,329.07L629,374.65L632.4,420.24L635.8,446.29L639.2,439.78L642.6,361.63L646,309.53L649.4,270.45L652.8,211.84L656.2,192.3L659.6,198.81L663,211.84L666.4,257.43L669.8,289.99L673.2,361.63L676.6,381.17L680,355.12L683.4,303.02L686.8,231.38L690.2,179.28L693.6,140.2L697,127.18L700.4,166.25L703.8,166.25L707.2,127.18L710.6,107.64L717.4,198.81L720.8,192.3L724.2,270.45L727.6,289.99L731,342.09L734.4,374.65L737.8,355.12L741.2,387.68L744.6,342.09L748,342.09L751.4,303.02L754.8,276.96L758.2,250.91L761.6,276.96L765,244.4L768.4,224.86L775.2,237.89L778.6,270.45L782,283.48L785.4,329.07L788.8,303.02L792.2,342.09L795.6,381.17L799,387.68L802.4,387.68L805.8,426.75L809.2,439.78L812.6,459.32L816,465.83L819.4,485.37L833,537.47L836.4,540.72L839.8,550.49L843.2,566.77L846.6,573.29L850,592.82L853.4,622.13L856.8,605.85L860.2,628.64L863.6,638.41L870.4,651.44L873.8,664.46L877.2,667.72L880.6,667.72L884,667.72L887.4,670.97L890.8,667.72L894.2,654.69L897.6,651.44L901,654.69L904.4,654.69L907.8,638.41L911.2,638.41L914.6,641.67L918,651.44L921.4,638.41L924.8,605.85L928.2,609.11L935,615.62L938.4,644.92L941.8,609.11L945.2,583.06L948.6,602.59L952,566.77L955.4,566.77L958.8,576.54L962.2,625.39L965.6,583.06L969,635.16L972.4,589.57L975.8,589.57L979.2,596.08L982.6,583.06L986,605.85L989.4,576.54L992.8,586.31L996.2,599.34L999.6,592.82L1003,638.41L1006.4,592.82L1009.8,596.08L1013.2,596.08L1016.6,599.34L1020,605.85L1023.4,635.16L1026.8,612.36L1030.2,615.62L1033.6,628.64L1037,625.39L1040.4,641.67L1043.8,644.92L1047.2,631.9L1054,638.41L1057.4,648.18L1060.8,644.92L1064.2,648.18L1067.6,651.44L1071,657.95L1074.4,667.72L1077.8,670.97L1081.2,664.46L1084.6,667.72L1105,667.72" style="vector-effect: none; fill: none; stroke: rgb(42, 111, 151); stroke-opacity: 1; stroke-width: 2px; opacity: 1;"/></g><g class="points"/><g class="text"/></g><g class="trace scatter trace34c81e" style="stroke-miterlimit: 2; opacity: 0.8;"><g class="fills"/><g class="errorbars"/><g class="lines"><path class="js-line" d="M255,661.21L258.4,661.21L261.8,657.95L272,657.95L275.4,654.69L278.8,651.44L282.2,651.44L285.6,654.69L289,651.44L292.4,651.44L295.8,648.18L302.6,648.18L306,651.44L309.4,648.18L312.8,651.44L316.2,651.44L319.6,648.18L326.4,648.18L329.8,651.44L336.6,651.44L340,654.69L360.4,654.69L363.8,657.95L367.2,657.95L370.6,654.69L374,657.95L377.4,654.69L394.4,654.69L397.8,648.18L401.2,657.95L404.6,644.92L408,644.92L411.4,631.9L418.2,625.39L421.6,628.64L425,628.64L428.4,625.39L431.8,609.11L435.2,605.85L438.6,605.85L442,609.11L445.4,589.57L448.8,589.57L452.2,638.41L455.6,576.54L459,566.77L462.4,579.8L465.8,566.77L469.2,583.06L472.6,583.06L476,592.82L479.4,573.29L482.8,576.54L486.2,573.29L489.6,550.49L493,530.95L496.4,566.77L499.8,537.47L503.2,602.59L506.6,537.47L510,537.47L513.4,543.98L516.8,557.01L520.2,560.26L523.6,566.77L527,570.03L530.4,504.9L533.8,524.44L537.2,537.47L544,550.49L547.4,563.52L550.8,576.54L554.2,583.06L557.6,511.42L561,524.44L564.4,537.47L567.8,547.24L571.2,560.26L574.6,566.77L578,583.06L581.4,589.57L584.8,589.57L588.2,592.82L591.6,609.11L595,615.62L598.4,622.13L601.8,622.13L615.4,648.18L618.8,651.44L622.2,654.69L625.6,654.69L629,654.69L632.4,664.46L639.2,670.97L642.6,667.72L646,670.97L649.4,657.95L652.8,648.18L656.2,651.44L659.6,651.44L663,638.41L666.4,631.9L669.8,635.16L673.2,625.39L676.6,644.92L680,622.13L683.4,622.13L686.8,622.13L690.2,644.92L693.6,609.11L697,615.62L700.4,618.87L703.8,631.9L707.2,605.85L710.6,622.13L714,612.36L717.4,618.87L724.2,618.87L727.6,625.39L731,618.87L734.4,631.9L737.8,631.9L741.2,638.41L744.6,651.44L748,641.67L751.4,648.18L754.8,664.46L758.2,657.95L761.6,661.21L765,674.23L768.4,674.23L771.8,677.49L775.2,670.97L778.6,667.72L782,667.72L785.4,670.97L788.8,677.49L792.2,684L795.6,670.97L799,661.21L802.4,664.46L805.8,661.21L809.2,651.44L812.6,648.18L816,628.64L819.4,654.69L822.8,638.41L826.2,635.16L829.6,609.11L833,622.13L836.4,576.54L839.8,589.57L843.2,599.34L846.6,651.44L850,557.01L853.4,605.85L856.8,563.52L860.2,576.54L863.6,583.06L867,527.7L870.4,543.98L873.8,560.26L877.2,527.7L880.6,540.72L884,550.49L887.4,560.26L890.8,560.26L894.2,524.44L897.6,530.95L901,543.98L904.4,550.49L907.8,557.01L911.2,543.98L914.6,540.72L918,540.72L921.4,550.49L924.8,557.01L928.2,583.06L931.6,553.75L935,557.01L938.4,596.08L941.8,570.03L945.2,573.29L948.6,638.41L952,576.54L955.4,579.8L958.8,654.69L962.2,651.44L965.6,599.34L969,596.08L972.4,599.34L975.8,602.59L979.2,612.36L986,625.39L989.4,638.41L992.8,628.64L996.2,644.92L999.6,670.97L1003,651.44L1006.4,638.41L1009.8,648.18L1013.2,651.44L1016.6,657.95L1020,648.18L1023.4,651.44L1026.8,651.44L1030.2,654.69L1033.6,648.18L1037,651.44L1040.4,654.69L1043.8,644.92L1047.2,654.69L1050.6,644.92L1054,648.18L1057.4,648.18L1060.8,644.92L1064.2,644.92L1067.6,638.41L1071,638.41L1074.4,644.92L1077.8,641.67L1081.2,638.41L1084.6,641.67L1091.4,635.16L1094.8,635.16L1101.6,641.67L1105,638.41" style="vector-effect: none; fill: none; stroke: rgb(1, 79, 134); stroke-opacity: 1; stroke-width: 2px; opacity: 1;"/></g><g class="points"/><g class="text"/></g><g class="trace scatter trace230c0c" style="stroke-miterlimit: 2; opacity: 0.8;"><g class="fills"/><g class="errorbars"/><g class="lines"><path class="js-line" d="M255,654.69L265.2,654.69L268.6,648.18L275.4,648.18L278.8,651.44L282.2,654.69L285.6,651.44L289,651.44L292.4,648.18L299.2,648.18L302.6,651.44L312.8,651.44L316.2,648.18L319.6,648.18L323,651.44L350.2,651.44L353.6,644.92L363.8,644.92L367.2,648.18L370.6,644.92L374,635.16L387.6,635.16L391,618.87L394.4,622.13L397.8,618.87L401.2,625.39L404.6,622.13L408,599.34L411.4,596.08L414.8,605.85L418.2,605.85L421.6,605.85L425,579.8L428.4,576.54L431.8,583.06L435.2,583.06L438.6,592.82L442,583.06L445.4,589.57L448.8,566.77L452.2,579.8L455.6,566.77L459,583.06L462.4,579.8L465.8,579.8L469.2,553.75L472.6,576.54L476,540.72L479.4,563.52L482.8,573.29L486.2,534.21L489.6,540.72L493,566.77L496.4,517.93L499.8,553.75L503.2,524.44L506.6,540.72L510,547.24L513.4,563.52L516.8,570.03L520.2,573.29L523.6,579.8L527,592.82L530.4,599.34L533.8,599.34L537.2,618.87L540.6,573.29L544,579.8L547.4,589.57L550.8,596.08L554.2,609.11L557.6,618.87L561,622.13L571.2,641.67L574.6,641.67L578,648.18L581.4,648.18L584.8,670.97L588.2,657.95L591.6,670.97L595,667.72L598.4,677.49L601.8,677.49L605.2,670.97L608.6,674.23L612,667.72L615.4,670.97L618.8,657.95L622.2,657.95L625.6,638.41L629,638.41L632.4,625.39L635.8,625.39L639.2,622.13L642.6,612.36L646,609.11L649.4,612.36L652.8,596.08L656.2,596.08L659.6,599.34L663,609.11L666.4,599.34L669.8,579.8L673.2,586.31L676.6,589.57L680,596.08L683.4,592.82L686.8,579.8L690.2,586.31L693.6,589.57L697,596.08L707.2,615.62L710.6,605.85L714,605.85L717.4,615.62L720.8,641.67L724.2,648.18L727.6,654.69L731,654.69L734.4,648.18L737.8,654.69L741.2,657.95L744.6,670.97L748,674.23L751.4,667.72L758.2,674.23L761.6,670.97L765,670.97L768.4,677.49L771.8,667.72L775.2,654.69L778.6,657.95L782,644.92L785.4,651.44L788.8,651.44L792.2,631.9L795.6,599.34L799,612.36L802.4,612.36L805.8,622.13L809.2,573.29L816,599.34L819.4,553.75L826.2,579.8L829.6,583.06L833,592.82L836.4,550.49L839.8,553.75L843.2,563.52L846.6,504.9L850,511.42L853.4,543.98L856.8,553.75L860.2,504.9L863.6,511.42L867,527.7L870.4,615.62L873.8,534.21L877.2,576.54L880.6,517.93L884,543.98L887.4,537.47L890.8,527.7L894.2,517.93L897.6,534.21L901,540.72L904.4,540.72L907.8,537.47L911.2,540.72L914.6,599.34L918,550.49L921.4,550.49L924.8,557.01L928.2,566.77L931.6,573.29L935,566.77L938.4,644.92L941.8,586.31L945.2,592.82L948.6,586.31L952,638.41L955.4,596.08L958.8,605.85L962.2,628.64L965.6,625.39L969,628.64L972.4,622.13L975.8,635.16L979.2,638.41L982.6,641.67L986,648.18L989.4,657.95L992.8,657.95L996.2,661.21L999.6,667.72L1003,664.46L1006.4,670.97L1009.8,667.72L1013.2,667.72L1016.6,670.97L1020,664.46L1023.4,657.95L1026.8,661.21L1030.2,661.21L1033.6,657.95L1037,654.69L1040.4,654.69L1043.8,651.44L1047.2,651.44L1050.6,648.18L1054,648.18L1057.4,644.92L1060.8,644.92L1064.2,644.92L1067.6,641.67L1071,644.92L1074.4,641.67L1077.8,654.69L1081.2,641.67L1091.4,651.44L1094.8,644.92L1101.6,644.92L1105,651.44" style="vector-effect: none; fill: none; stroke: rgb(1, 73, 124); stroke-opacity: 1; stroke-width: 2px; opacity: 1;"/></g><g class="points"/><g class="text"/></g><g class="trace scatter trace09ade1" style="stroke-miterlimit: 2; opacity: 0.8;"><g class="fills"/><g class="errorbars"/><g class="lines"><path class="js-line" d="M255,667.72L258.4,667.72L261.8,670.97L268.6,670.97L272,674.23L289,674.23L292.4,670.97L302.6,670.97L306,667.72L309.4,667.72L312.8,664.46L323,654.69L326.4,654.69L340,641.67L343.4,641.67L346.8,638.41L350.2,638.41L353.6,635.16L357,635.16L363.8,628.64L367.2,635.16L370.6,631.9L374,631.9L380.8,631.9L384.2,635.16L387.6,628.64L391,625.39L394.4,631.9L397.8,635.16L401.2,638.41L404.6,638.41L408,644.92L411.4,648.18L418.2,654.69L421.6,654.69L425,657.95L428.4,657.95L431.8,664.46L435.2,667.72L438.6,667.72L442,670.97L448.8,657.95L452.2,654.69L455.6,638.41L459,631.9L462.4,618.87L465.8,618.87L469.2,635.16L472.6,592.82L476,579.8L479.4,579.8L482.8,570.03L486.2,579.8L489.6,570.03L493,527.7L496.4,511.42L499.8,557.01L503.2,543.98L506.6,537.47L510,465.83L513.4,439.78L516.8,452.8L520.2,485.37L523.6,485.37L527,472.34L530.4,394.19L533.8,355.12L537.2,381.17L540.6,420.24L544,465.83L547.4,413.73L554.2,257.43L557.6,289.99L561,348.6L564.4,420.24L567.8,413.73L571.2,289.99L574.6,205.33L578,166.25L581.4,192.3L584.8,250.91L588.2,322.55L591.6,289.99L595,211.84L598.4,153.23L601.8,88.1L605.2,120.66L608.6,224.86L612,296.5L615.4,276.96L618.8,224.86L625.6,55.54L629,68.56L632.4,172.76L635.8,303.02L642.6,101.13L646,49.03L649.4,684L652.8,107.64L656.2,263.94L659.6,276.96L666.4,88.1L669.8,36L673.2,75.08L676.6,198.81L680,309.53L683.4,329.07L686.8,244.4L690.2,211.84L697,88.1L700.4,166.25L703.8,231.38L707.2,355.12L710.6,355.12L714,283.48L720.8,192.3L724.2,198.81L727.6,198.81L731,250.91L734.4,309.53L737.8,420.24L741.2,426.75L744.6,381.17L748,335.58L751.4,309.53L758.2,374.65L761.6,439.78L765,472.34L768.4,465.83L771.8,498.39L775.2,644.92L778.6,504.9L782,491.88L785.4,511.42L788.8,491.88L792.2,586.31L795.6,540.72L799,553.75L802.4,602.59L805.8,573.29L809.2,622.13L816,641.67L819.4,622.13L822.8,625.39L826.2,651.44L833,657.95L836.4,648.18L839.8,654.69L843.2,648.18L846.6,651.44L850,628.64L853.4,638.41L856.8,641.67L860.2,609.11L863.6,618.87L867,622.13L870.4,622.13L873.8,615.62L877.2,602.59L880.6,605.85L884,605.85L887.4,599.34L890.8,570.03L894.2,576.54L897.6,586.31L901,589.57L904.4,586.31L907.8,596.08L911.2,570.03L918,583.06L921.4,615.62L924.8,570.03L928.2,573.29L931.6,579.8L935,583.06L938.4,586.31L941.8,592.82L945.2,589.57L948.6,589.57L952,596.08L955.4,599.34L958.8,605.85L962.2,609.11L969,609.11L972.4,635.16L975.8,618.87L979.2,641.67L982.6,631.9L986,635.16L989.4,641.67L992.8,644.92L996.2,661.21L999.6,654.69L1003,651.44L1006.4,657.95L1009.8,670.97L1013.2,670.97L1020,670.97L1023.4,674.23L1033.6,684L1037,677.49L1040.4,680.74L1043.8,677.49L1047.2,674.23L1050.6,674.23L1057.4,674.23L1060.8,670.97L1064.2,670.97L1067.6,667.72L1084.6,667.72L1088,664.46L1091.4,664.46L1094.8,667.72L1098.2,664.46L1101.6,667.72L1105,670.97" style="vector-effect: none; fill: none; stroke: rgb(1, 42, 74); stroke-opacity: 1; stroke-width: 2px; opacity: 1;"/></g><g class="points"/><g class="text"/></g></g></g></g><path class="xlines-above crisp" d="M0,0" style="fill: none;"/><path class="ylines-above crisp" d="M0,0" style="fill: none;"/><g class="overlines-above"/><g class="xaxislayer-above"><g class="xtick"><text text-anchor="middle" x="0" y="833" transform="translate(122.5,0)" style="font-family: 'Open Sans', verdana, arial, sans-serif; font-size: 12px; fill: rgb(42, 63, 95); fill-opacity: 1; white-space: pre; opacity: 1;">−0.015</text></g><g class="xtick"><text text-anchor="middle" x="0" y="833" style="font-family: 'Open Sans', verdana, arial, sans-serif; font-size: 12px; fill: rgb(42, 63, 95); fill-opacity: 1; white-space: pre; opacity: 1;" transform="translate(335,0)">−0.01</text></g><g class="xtick"><text text-anchor="middle" x="0" y="833" style="font-family: 'Open Sans', verdana, arial, sans-serif; font-size: 12px; fill: rgb(42, 63, 95); fill-opacity: 1; white-space: pre; opacity: 1;" transform="translate(547.5,0)">−0.005</text></g><g class="xtick"><text text-anchor="middle" x="0" y="833" style="font-family: 'Open Sans', verdana, arial, sans-serif; font-size: 12px; fill: rgb(42, 63, 95); fill-opacity: 1; white-space: pre; opacity: 1;" transform="translate(760,0)">0</text></g><g class="xtick"><text text-anchor="middle" x="0" y="833" style="font-family: 'Open Sans', verdana, arial, sans-serif; font-size: 12px; fill: rgb(42, 63, 95); fill-opacity: 1; white-space: pre; opacity: 1;" transform="translate(972.5,0)">0.005</text></g><g class="xtick"><text text-anchor="middle" x="0" y="833" style="font-family: 'Open Sans', verdana, arial, sans-serif; font-size: 12px; fill: rgb(42, 63, 95); fill-opacity: 1; white-space: pre; opacity: 1;" transform="translate(1185,0)">0.01</text></g><g class="xtick"><text text-anchor="middle" x="0" y="833" style="font-family: 'Open Sans', verdana, arial, sans-serif; font-size: 12px; fill: rgb(42, 63, 95); fill-opacity: 1; white-space: pre; opacity: 1;" transform="translate(1397.5,0)">0.015</text></g></g><g class="yaxislayer-above"><g class="ytick"><text text-anchor="end" x="79" y="4.199999999999999" transform="translate(0,787.26)" style="font-family: 'Open Sans', verdana, arial, sans-serif; font-size: 12px; fill: rgb(42, 63, 95); fill-opacity: 1; white-space: pre; opacity: 1;">0</text></g><g class="ytick"><text text-anchor="end" x="79" y="4.199999999999999" style="font-family: 'Open Sans', verdana, arial, sans-serif; font-size: 12px; fill: rgb(42, 63, 95); fill-opacity: 1; white-space: pre; opacity: 1;" transform="translate(0,624.44)">5μ</text></g><g class="ytick"><text text-anchor="end" x="79" y="4.199999999999999" style="font-family: 'Open Sans', verdana, arial, sans-serif; font-size: 12px; fill: rgb(42, 63, 95); fill-opacity: 1; white-space: pre; opacity: 1;" transform="translate(0,461.63)">10μ</text></g><g class="ytick"><text text-anchor="end" x="79" y="4.199999999999999" style="font-family: 'Open Sans', verdana, arial, sans-serif; font-size: 12px; fill: rgb(42, 63, 95); fill-opacity: 1; white-space: pre; opacity: 1;" transform="translate(0,298.81)">15μ</text></g><g class="ytick"><text text-anchor="end" x="79" y="4.199999999999999" style="font-family: 'Open Sans', verdana, arial, sans-serif; font-size: 12px; fill: rgb(42, 63, 95); fill-opacity: 1; white-space: pre; opacity: 1;" transform="translate(0,136)">20μ</text></g></g><g class="overaxes-above"/></g></g><g class="polarlayer"/><g class="smithlayer"/><g class="ternarylayer"/><g class="geolayer"/><g class="funnelarealayer"/><g class="pielayer"/><g class="iciclelayer"/><g class="treemaplayer"/><g class="sunburstlayer"/><g class="glimages"/><defs id="topdefs-17bb75"><g class="clips"/><clipPath id="legend17bb75"><rect width="121" height="181" x="0" y="0"/></clipPath></defs><g class="layer-above"><g class="imagelayer"/><g class="shapelayer"/></g><g class="infolayer"><g class="legend" pointer-events="all" transform="translate(1467.2,100)"><rect class="bg" shape-rendering="crispEdges" width="121" height="181" x="0" y="0" style="stroke: rgb(68, 68, 68); stroke-opacity: 1; fill: rgb(255, 255, 255); fill-opacity: 1; stroke-width: 0px;"/><g class="scrollbox" transform="" clip-path="url(#legend17bb75)"><text class="legendtitletext" text-anchor="start" x="2" y="18.2" style="font-family: 'Open Sans', verdana, arial, sans-serif; font-size: 14px; fill: rgb(42, 63, 95); fill-opacity: 1; white-space: pre;">訊號</text><g class="groups"><g class="traces" transform="translate(0,32.7)" style="opacity: 1;"><text class="legendtext" text-anchor="start" x="40" y="4.680000000000001" style="font-family: 'Open Sans', verdana, arial, sans-serif; font-size: 12px; fill: rgb(42, 63, 95); fill-opacity: 1; white-space: pre;">0.0°(266)</text><g class="layers" style="opacity: 0.8;"><g class="legendfill"/><g class="legendlines"><path class="js-line" d="M5,0h30" style="fill: none; stroke: rgb(169, 214, 229); stroke-opacity: 1; stroke-width: 2px;"/></g><g class="legendsymbols"><g class="legendpoints"/></g></g><rect class="legendtoggle" x="0" y="-9.5" width="115.171875" height="19" style="fill: rgb(0, 0, 0); fill-opacity: 0;"/></g><g class="traces" transform="translate(0,51.7)" style="opacity: 1;"><text class="legendtext" text-anchor="start" x="40" y="4.680000000000001" style="font-family: 'Open Sans', verdana, arial, sans-serif; font-size: 12px; fill: rgb(42, 63, 95); fill-opacity: 1; white-space: pre;">45.0°(313)</text><g class="layers" style="opacity: 0.8;"><g class="legendfill"/><g class="legendlines"><path class="js-line" d="M5,0h30" style="fill: none; stroke: rgb(137, 194, 217); stroke-opacity: 1; stroke-width: 2px;"/></g><g class="legendsymbols"><g class="legendpoints"/></g></g><rect class="legendtoggle" x="0" y="-9.5" width="115.171875" height="19" style="fill: rgb(0, 0, 0); fill-opacity: 0;"/></g><g class="traces" transform="translate(0,70.7)" style="opacity: 1;"><text class="legendtext" text-anchor="start" x="40" y="4.680000000000001" style="font-family: 'Open Sans', verdana, arial, sans-serif; font-size: 12px; fill: rgb(42, 63, 95); fill-opacity: 1; white-space: pre;">90.0°(271)</text><g class="layers" style="opacity: 0.8;"><g class="legendfill"/><g class="legendlines"><path class="js-line" d="M5,0h30" style="fill: none; stroke: rgb(97, 165, 194); stroke-opacity: 1; stroke-width: 2px;"/></g><g class="legendsymbols"><g class="legendpoints"/></g></g><rect class="legendtoggle" x="0" y="-9.5" width="115.171875" height="19" style="fill: rgb(0, 0, 0); fill-opacity: 0;"/></g><g class="traces" transform="translate(0,89.7)" style="opacity: 1;"><text class="legendtext" text-anchor="start" x="40" y="4.680000000000001" style="font-family: 'Open Sans', verdana, arial, sans-serif; font-size: 12px; fill: rgb(42, 63, 95); fill-opacity: 1; white-space: pre;">135.0°(272)</text><g class="layers" style="opacity: 0.8;"><g class="legendfill"/><g class="legendlines"><path class="js-line" d="M5,0h30" style="fill: none; stroke: rgb(70, 111, 175); stroke-opacity: 1; stroke-width: 2px;"/></g><g class="legendsymbols"><g class="legendpoints"/></g></g><rect class="legendtoggle" x="0" y="-9.5" width="115.171875" height="19" style="fill: rgb(0, 0, 0); fill-opacity: 0;"/></g><g class="traces" transform="translate(0,108.7)" style="opacity: 1;"><text class="legendtext" text-anchor="start" x="40" y="4.680000000000001" style="font-family: 'Open Sans', verdana, arial, sans-serif; font-size: 12px; fill: rgb(42, 63, 95); fill-opacity: 1; white-space: pre;">180.0°(273)</text><g class="layers" style="opacity: 0.8;"><g class="legendfill"/><g class="legendlines"><path class="js-line" d="M5,0h30" style="fill: none; stroke: rgb(42, 111, 151); stroke-opacity: 1; stroke-width: 2px;"/></g><g class="legendsymbols"><g class="legendpoints"/></g></g><rect class="legendtoggle" x="0" y="-9.5" width="115.171875" height="19" style="fill: rgb(0, 0, 0); fill-opacity: 0;"/></g><g class="traces" transform="translate(0,127.7)" style="opacity: 1;"><text class="legendtext" text-anchor="start" x="40" y="4.680000000000001" style="font-family: 'Open Sans', verdana, arial, sans-serif; font-size: 12px; fill: rgb(42, 63, 95); fill-opacity: 1; white-space: pre;">225.0°(275)</text><g class="layers" style="opacity: 0.8;"><g class="legendfill"/><g class="legendlines"><path class="js-line" d="M5,0h30" style="fill: none; stroke: rgb(1, 79, 134); stroke-opacity: 1; stroke-width: 2px;"/></g><g class="legendsymbols"><g class="legendpoints"/></g></g><rect class="legendtoggle" x="0" y="-9.5" width="115.171875" height="19" style="fill: rgb(0, 0, 0); fill-opacity: 0;"/></g><g class="traces" transform="translate(0,146.7)" style="opacity: 1;"><text class="legendtext" text-anchor="start" x="40" y="4.680000000000001" style="font-family: 'Open Sans', verdana, arial, sans-serif; font-size: 12px; fill: rgb(42, 63, 95); fill-opacity: 1; white-space: pre;">270.0°(276)</text><g class="layers" style="opacity: 0.8;"><g class="legendfill"/><g class="legendlines"><path class="js-line" d="M5,0h30" style="fill: none; stroke: rgb(1, 73, 124); stroke-opacity: 1; stroke-width: 2px;"/></g><g class="legendsymbols"><g class="legendpoints"/></g></g><rect class="legendtoggle" x="0" y="-9.5" width="115.171875" height="19" style="fill: rgb(0, 0, 0); fill-opacity: 0;"/></g><g class="traces" transform="translate(0,165.7)" style="opacity: 1;"><text class="legendtext" text-anchor="start" x="40" y="4.680000000000001" style="font-family: 'Open Sans', verdana, arial, sans-serif; font-size: 12px; fill: rgb(42, 63, 95); fill-opacity: 1; white-space: pre;">315.0°(277)</text><g class="layers" style="opacity: 0.8;"><g class="legendfill"/><g class="legendlines"><path class="js-line" d="M5,0h30" style="fill: none; stroke: rgb(1, 42, 74); stroke-opacity: 1; stroke-width: 2px;"/></g><g class="legendsymbols"><g class="legendpoints"/></g></g><rect class="legendtoggle" x="0" y="-9.5" width="115.171875" height="19" style="fill: rgb(0, 0, 0); fill-opacity: 0;"/></g></g></g><rect class="scrollbar" rx="20" ry="3" width="0" height="0" x="0" y="0" style="fill: rgb(128, 139, 164); fill-opacity: 1;"/></g><g class="g-gtitle"><text class="gtitle" x="80" y="50" text-anchor="start" dy="0em" style="opacity: 1; font-family: 'Open Sans', verdana, arial, sans-serif; font-size: 17px; fill: rgb(42, 63, 95); fill-opacity: 1; white-space: pre;"><tspan class="line" dy="0em" x="80" y="50"><tspan style="font-weight:bold">原始數據預覽</tspan></tspan><tspan class="line" dy="1.3em" x="80" y="50">​<tspan style="font-size:70%" dy="0.3em">003-3 - 60mT - IVB</tspan><tspan dy="-0.21em">​</tspan></tspan></text></g><g class="g-xtitle"><text class="xtitle" x="760" y="859.8" text-anchor="middle" style="opacity: 1; font-family: 'Open Sans', verdana, arial, sans-serif; font-size: 14px; fill: rgb(42, 63, 95); fill-opacity: 1; white-space: pre;">磁場位置 (物理單位)</text></g><g class="g-ytitle"><text class="ytitle" transform="rotate(-90,36.6625,460)" x="36.6625" y="460" text-anchor="middle" style="opacity: 1; font-family: 'Open Sans', verdana, arial, sans-serif; font-size: 14px; fill: rgb(42, 63, 95); fill-opacity: 1; white-space: pre;">訊號振幅 (Ic)</text></g></g></svg>