<svg class="main-svg" xmlns="http://www.w3.org/2000/svg" xmlns:xlink="http://www.w3.org/1999/xlink" width="1600" height="900" style="" viewBox="0 0 1600 900"><rect x="0" y="0" width="1600" height="900" style="fill: rgb(255, 255, 255); fill-opacity: 1;"/><defs id="defs-d06e4c"><g class="clips"><clipPath id="clipd06e4cxyplot" class="plotclip"><rect width="1360" height="720"/></clipPath><clipPath class="axesclip" id="clipd06e4cx"><rect x="80" y="0" width="1360" height="900"/></clipPath><clipPath class="axesclip" id="clipd06e4cy"><rect x="0" y="100" width="1600" height="720"/></clipPath><clipPath class="axesclip" id="clipd06e4cxy"><rect x="80" y="100" width="1360" height="720"/></clipPath></g><g class="gradients"/><g class="patterns"/></defs><g class="bglayer"/><g class="layer-below"><g class="imagelayer"/><g class="shapelayer"/></g><g class="cartesianlayer"><g class="subplot xy"><g class="layer-subplot"><g class="shapelayer"/><g class="imagelayer"/></g><g class="minor-gridlayer"><g class="x"/><g class="y"/></g><g class="gridlayer"><g class="x"><path class="xgrid crisp" transform="translate(216,0)" d="M0,100v720" style="stroke: rgb(235, 240, 248); stroke-opacity: 1; stroke-width: 1px;"/><path class="xgrid crisp" transform="translate(397.33,0)" d="M0,100v720" style="stroke: rgb(235, 240, 248); stroke-opacity: 1; stroke-width: 1px;"/><path class="xgrid crisp" transform="translate(578.6700000000001,0)" d="M0,100v720" style="stroke: rgb(235, 240, 248); stroke-opacity: 1; stroke-width: 1px;"/><path class="xgrid crisp" transform="translate(941.33,0)" d="M0,100v720" style="stroke: rgb(235, 240, 248); stroke-opacity: 1; stroke-width: 1px;"/><path class="xgrid crisp" transform="translate(1122.67,0)" d="M0,100v720" style="stroke: rgb(235, 240, 248); stroke-opacity: 1; stroke-width: 1px;"/><path class="xgrid crisp" transform="translate(1304,0)" d="M0,100v720" style="stroke: rgb(235, 240, 248); stroke-opacity: 1; stroke-width: 1px;"/></g><g class="y"><path class="ygrid crisp" transform="translate(0,690.21)" d="M80,0h1360" style="stroke: rgb(235, 240, 248); stroke-opacity: 1; stroke-width: 1px;"/><path class="ygrid crisp" transform="translate(0,583.63)" d="M80,0h1360" style="stroke: rgb(235, 240, 248); stroke-opacity: 1; stroke-width: 1px;"/><path class="ygrid crisp" transform="translate(0,477.05)" d="M80,0h1360" style="stroke: rgb(235, 240, 248); stroke-opacity: 1; stroke-width: 1px;"/><path class="ygrid crisp" transform="translate(0,370.47)" d="M80,0h1360" style="stroke: rgb(235, 240, 248); stroke-opacity: 1; stroke-width: 1px;"/><path class="ygrid crisp" transform="translate(0,263.89)" d="M80,0h1360" style="stroke: rgb(235, 240, 248); stroke-opacity: 1; stroke-width: 1px;"/><path class="ygrid crisp" transform="translate(0,157.32)" d="M80,0h1360" style="stroke: rgb(235, 240, 248); stroke-opacity: 1; stroke-width: 1px;"/></g></g><g class="zerolinelayer"><path class="xzl zl crisp" transform="translate(760,0)" d="M0,100v720" style="stroke: rgb(235, 240, 248); stroke-opacity: 1; stroke-width: 2px;"/><path class="yzl zl crisp" transform="translate(0,796.79)" d="M80,0h1360" style="stroke: rgb(235, 240, 248); stroke-opacity: 1; stroke-width: 2px;"/></g><g class="layer-between"><g class="shapelayer"/><g class="imagelayer"/></g><path class="xlines-below"/><path class="ylines-below"/><g class="overlines-below"/><g class="xaxislayer-below"/><g class="yaxislayer-below"/><g class="overaxes-below"/><g class="overplot"><g class="xy" transform="translate(80,100)" clip-path="url(#clipd06e4cxyplot)"><g class="scatterlayer mlayer"><g class="trace scatter tracef504be" style="stroke-miterlimit: 2; opacity: 0.8;"><g class="fills"/><g class="errorbars"/><g class="lines"><path class="js-line" d="M0,666.95L9.07,671.21L18.13,666.95L27.2,666.95L36.27,654.16L63.47,641.37L72.53,624.32L99.73,611.53L108.8,620.05L117.87,620.05L126.93,611.53L136,628.58L145.07,637.11L154.13,645.63L163.2,645.63L172.27,654.16L181.33,658.42L190.4,658.42L199.47,645.63L208.53,624.32L217.6,615.79L226.67,607.26L235.73,577.42L244.8,585.95L253.87,564.63L262.93,551.84L272,534.79L281.07,517.74L290.13,509.21L299.2,500.68L308.27,513.47L317.33,487.89L326.4,530.53L335.47,517.74L344.53,500.68L353.6,543.32L362.67,530.53L371.73,568.89L380.8,590.21L389.87,607.26L398.93,603L408,615.79L417.07,611.53L435.2,603L444.27,568.89L453.33,551.84L462.4,539.05L471.47,377.05L480.53,302.45L489.6,313.11L498.67,409.03L507.73,323.76L516.8,206.53L525.87,131.92L534.93,302.45L544,195.87L553.07,57.32L562.13,89.29L571.2,195.87L580.27,654.16L589.33,654.16L598.4,174.55L607.47,67.97L616.53,654.16L625.6,195.87L634.67,57.32L643.73,142.58L652.8,195.87L661.87,89.29L670.93,323.76L680,195.87L689.07,366.39L698.13,313.11L707.2,387.71L716.27,409.03L725.33,509.21L734.4,551.84L743.47,568.89L752.53,564.63L761.6,585.95L770.67,603L779.73,615.79L788.8,611.53L797.87,603L806.93,615.79L816,585.95L825.07,598.74L834.13,590.21L843.2,573.16L861.33,539.05L870.4,513.47L879.47,547.58L888.53,522L897.6,547.58L906.67,534.79L915.73,513.47L924.8,658.42L933.87,573.16L942.93,590.21L952,603L961.07,620.05L970.13,628.58L979.2,645.63L988.27,654.16L997.33,658.42L1006.4,666.95L1015.47,662.68L1042.67,649.89L1051.73,654.16L1060.8,649.89L1069.87,641.37L1078.93,620.05L1088,624.32L1097.07,620.05L1106.13,624.32L1115.2,624.32L1124.27,658.42L1133.33,637.11L1142.4,649.89L1160.53,658.42L1169.6,666.95L1178.67,671.21L1187.73,679.74L1196.8,675.47L1205.87,679.74L1214.93,679.74L1224,675.47L1242.13,666.95L1251.2,666.95L1260.27,662.68L1269.33,662.68L1278.4,654.16L1287.47,671.21L1296.53,662.68L1305.6,666.95L1314.67,662.68L1323.73,666.95L1332.8,675.47L1341.87,671.21L1360,679.74" style="vector-effect: none; fill: none; stroke: rgb(169, 214, 229); stroke-opacity: 1; stroke-width: 2px; opacity: 1;"/></g><g class="points"/><g class="text"/></g><g class="trace scatter trace17e975" style="stroke-miterlimit: 2; opacity: 0.8;"><g class="fills"/><g class="errorbars"/><g class="lines"><path class="js-line" d="M0,664.82L18.13,675.47L36.27,664.82L54.4,632.84L72.53,622.18L90.67,611.53L108.8,611.53L126.93,600.87L145.07,622.18L163.2,632.84L181.33,664.82L199.47,664.82L217.6,643.5L235.73,622.18L253.87,611.53L272,579.55L290.13,568.89L308.27,547.58L326.4,536.92L344.53,547.58L362.67,579.55L398.93,622.18L417.07,622.18L435.2,579.55L453.33,515.61L471.47,451.66L489.6,377.05L507.73,313.11L525.87,270.47L544,270.47L562.13,185.21L580.27,206.53L598.4,99.95L616.53,153.24L634.67,195.87L652.8,99.95L670.93,259.82L689.07,291.79L707.2,377.05L743.47,526.26L761.6,568.89L779.73,600.87L797.87,622.18L816,622.18L834.13,600.87L852.27,568.89L870.4,547.58L888.53,547.58L906.67,536.92L979.2,622.18L997.33,654.16L1033.6,654.16L1051.73,643.5L1069.87,664.82L1088,622.18L1106.13,664.82L1124.27,643.5L1142.4,632.84L1160.53,643.5L1214.93,675.47L1233.07,590.21L1251.2,664.82L1269.33,664.82L1287.47,664.82L1305.6,654.16L1323.73,654.16L1341.87,664.82L1360,675.47" style="vector-effect: none; fill: none; stroke: rgb(137, 194, 217); stroke-opacity: 1; stroke-width: 2px; opacity: 1;"/></g><g class="points"/><g class="text"/></g><g class="trace scatter tracea6eb67" style="stroke-miterlimit: 2; opacity: 0.8;"><g class="fills"/><g class="errorbars"/><g class="lines"><path class="js-line" d="M0,684L18.13,684L27.2,679.74L36.27,675.47L45.33,662.68L63.47,654.16L72.53,641.37L81.6,632.84L90.67,628.58L117.87,615.79L126.93,624.32L136,624.32L145.07,628.58L154.13,645.63L163.2,637.11L199.47,671.21L208.53,675.47L226.67,649.89L235.73,658.42L244.8,611.53L253.87,620.05L262.93,590.21L272,585.95L281.07,581.68L290.13,547.58L299.2,560.37L308.27,530.53L317.33,547.58L326.4,530.53L335.47,509.21L344.53,547.58L353.6,534.79L362.67,509.21L371.73,551.84L380.8,577.42L389.87,568.89L398.93,590.21L408,607.26L417.07,620.05L435.2,611.53L444.27,603L453.33,598.74L462.4,585.95L471.47,526.26L480.53,504.95L489.6,472.97L498.67,419.68L507.73,323.76L516.8,281.13L525.87,334.42L534.93,345.08L544,238.5L553.07,153.24L562.13,291.79L571.2,195.87L580.27,78.63L589.33,174.55L598.4,174.55L607.47,36L616.53,174.55L625.6,163.89L634.67,36L643.73,217.18L652.8,195.87L661.87,121.26L670.93,270.47L680,163.89L689.07,355.74L698.13,313.11L707.2,259.82L716.27,409.03L725.33,334.42L734.4,483.63L752.53,581.68L761.6,590.21L770.67,611.53L779.73,649.89L788.8,615.79L797.87,611.53L806.93,624.32L816,594.47L825.07,581.68L834.13,573.16L852.27,539.05L861.33,603L870.4,632.84L879.47,517.74L888.53,607.26L897.6,534.79L906.67,517.74L915.73,492.16L924.8,534.79L933.87,564.63L942.93,551.84L952,573.16L961.07,564.63L970.13,590.21L979.2,641.37L988.27,624.32L997.33,658.42L1006.4,654.16L1015.47,658.42L1024.53,654.16L1033.6,662.68L1042.67,649.89L1069.87,637.11L1078.93,628.58L1097.07,620.05L1106.13,628.58L1115.2,662.68L1124.27,632.84L1133.33,632.84L1142.4,637.11L1160.53,662.68L1169.6,662.68L1178.67,662.68L1187.73,666.95L1196.8,675.47L1205.87,679.74L1214.93,679.74L1224,675.47L1242.13,666.95L1251.2,675.47L1260.27,662.68L1269.33,658.42L1278.4,662.68L1287.47,662.68L1296.53,658.42L1305.6,658.42L1314.67,662.68L1323.73,662.68L1332.8,666.95L1341.87,666.95L1350.93,675.47L1360,671.21" style="vector-effect: none; fill: none; stroke: rgb(137, 194, 217); stroke-opacity: 1; stroke-width: 2px; opacity: 1;"/></g><g class="points"/><g class="text"/></g><g class="trace scatter trace15de17" style="stroke-miterlimit: 2; opacity: 0.8;"><g class="fills"/><g class="errorbars"/><g class="lines"><path class="js-line" d="M0,654.16L18.13,671.21L27.2,675.47L36.27,679.74L45.33,679.74L54.4,637.11L63.47,684L72.53,675.47L81.6,671.21L90.67,658.42L99.73,654.16L108.8,649.89L117.87,637.11L136,628.58L145.07,620.05L154.13,615.79L163.2,624.32L172.27,620.05L181.33,632.84L190.4,632.84L199.47,637.11L208.53,654.16L217.6,658.42L226.67,666.95L235.73,662.68L244.8,675.47L253.87,675.47L262.93,671.21L272,658.42L290.13,632.84L299.2,654.16L308.27,603L317.33,585.95L326.4,560.37L335.47,556.11L344.53,547.58L353.6,534.79L362.67,517.74L371.73,496.42L380.8,530.53L389.87,513.47L398.93,483.63L408,539.05L417.07,509.21L426.13,547.58L435.2,577.42L444.27,564.63L453.33,585.95L462.4,603L480.53,628.58L489.6,624.32L498.67,615.79L507.73,628.58L516.8,603L525.87,598.74L534.93,645.63L544,534.79L553.07,513.47L562.13,483.63L571.2,419.68L580.27,334.42L589.33,451.66L598.4,355.74L607.47,291.79L616.53,345.08L625.6,345.08L634.67,259.82L643.73,409.03L652.8,345.08L661.87,259.82L670.93,430.34L680,345.08L689.07,487.89L698.13,430.34L707.2,509.21L716.27,551.84L725.33,577.42L734.4,598.74L743.47,611.53L752.53,649.89L761.6,620.05L770.67,611.53L779.73,611.53L788.8,624.32L797.87,598.74L806.93,590.21L816,573.16L834.13,547.58L843.2,526.26L852.27,632.84L861.33,539.05L870.4,517.74L879.47,487.89L888.53,539.05L897.6,522L906.67,496.42L915.73,530.53L924.8,522L933.87,577.42L942.93,534.79L952,564.63L961.07,585.95L970.13,603L979.2,620.05L988.27,628.58L1024.53,662.68L1033.6,658.42L1042.67,654.16L1051.73,654.16L1069.87,645.63L1078.93,637.11L1088,632.84L1097.07,662.68L1106.13,628.58L1115.2,637.11L1133.33,620.05L1142.4,628.58L1151.47,641.37L1160.53,637.11L1169.6,645.63L1178.67,662.68L1187.73,658.42L1196.8,666.95L1205.87,675.47L1214.93,679.74L1224,675.47L1233.07,675.47L1242.13,671.21L1251.2,671.21L1278.4,658.42L1287.47,666.95L1296.53,654.16L1305.6,658.42L1314.67,658.42L1323.73,654.16L1332.8,662.68L1341.87,658.42L1350.93,666.95L1360,671.21" style="vector-effect: none; fill: none; stroke: rgb(97, 165, 194); stroke-opacity: 1; stroke-width: 2px; opacity: 1;"/></g><g class="points"/><g class="text"/></g><g class="trace scatter trace9e2bd2" style="stroke-miterlimit: 2; opacity: 0.8;"><g class="fills"/><g class="errorbars"/><g class="lines"><path class="js-line" d="M0,649.89L9.07,645.63L18.13,649.89L27.2,649.89L36.27,654.16L45.33,654.16L54.4,658.42L63.47,658.42L72.53,662.68L81.6,671.21L90.67,675.47L99.73,684L108.8,684L117.87,679.74L126.93,666.95L136,662.68L145.07,654.16L154.13,641.37L163.2,632.84L172.27,628.58L181.33,615.79L190.4,611.53L199.47,615.79L208.53,645.63L217.6,615.79L226.67,607.26L235.73,615.79L244.8,628.58L253.87,632.84L272,649.89L281.07,654.16L290.13,662.68L299.2,662.68L308.27,671.21L317.33,671.21L326.4,654.16L335.47,641.37L344.53,624.32L353.6,603L362.67,590.21L371.73,547.58L380.8,568.89L389.87,517.74L398.93,496.42L408,530.53L417.07,517.74L426.13,492.16L435.2,475.11L444.27,517.74L453.33,487.89L462.4,534.79L471.47,513.47L480.53,551.84L489.6,530.53L498.67,564.63L507.73,585.95L516.8,603L525.87,615.79L534.93,611.53L544,624.32L553.07,620.05L571.2,611.53L580.27,581.68L589.33,568.89L598.4,551.84L607.47,462.32L616.53,509.21L625.6,492.16L634.67,445.26L643.73,402.63L652.8,342.95L661.87,321.63L670.93,415.42L680,351.47L689.07,445.26L698.13,394.11L707.2,325.89L716.27,462.32L725.33,402.63L734.4,492.16L743.47,534.79L752.53,530.53L761.6,556.11L770.67,581.68L779.73,598.74L788.8,615.79L797.87,607.26L806.93,607.26L816,620.05L834.13,611.53L843.2,654.16L852.27,594.47L861.33,581.68L870.4,522L879.47,500.68L888.53,611.53L897.6,526.26L906.67,500.68L915.73,543.32L924.8,517.74L933.87,487.89L942.93,470.84L952,513.47L961.07,492.16L970.13,539.05L979.2,517.74L988.27,556.11L997.33,547.58L1006.4,573.16L1015.47,594.47L1024.53,637.11L1033.6,637.11L1042.67,645.63L1051.73,654.16L1060.8,658.42L1069.87,654.16L1078.93,654.16L1088,649.89L1097.07,649.89L1106.13,654.16L1115.2,641.37L1124.27,632.84L1133.33,620.05L1142.4,641.37L1151.47,632.84L1160.53,624.32L1169.6,611.53L1178.67,637.11L1187.73,632.84L1196.8,628.58L1205.87,637.11L1214.93,637.11L1224,654.16L1242.13,671.21L1251.2,666.95L1260.27,675.47L1269.33,675.47L1278.4,679.74L1287.47,675.47L1296.53,666.95L1305.6,662.68L1314.67,666.95L1323.73,658.42L1350.93,658.42L1360,654.16" style="vector-effect: none; fill: none; stroke: rgb(70, 111, 175); stroke-opacity: 1; stroke-width: 2px; opacity: 1;"/></g><g class="points"/><g class="text"/></g><g class="trace scatter trace98c5b5" style="stroke-miterlimit: 2; opacity: 0.8;"><g class="fills"/><g class="errorbars"/><g class="lines"><path class="js-line" d="M0,649.89L9.07,649.89L18.13,645.63L27.2,649.89L36.27,649.89L54.4,658.42L63.47,658.42L72.53,666.95L81.6,671.21L90.67,671.21L99.73,679.74L108.8,684L117.87,679.74L136,662.68L145.07,658.42L154.13,649.89L163.2,637.11L190.4,624.32L199.47,615.79L208.53,607.26L217.6,620.05L226.67,615.79L235.73,620.05L244.8,615.79L253.87,632.84L262.93,632.84L272,645.63L281.07,654.16L290.13,658.42L299.2,662.68L308.27,671.21L317.33,666.95L326.4,649.89L335.47,654.16L344.53,615.79L353.6,607.26L362.67,573.16L380.8,547.58L389.87,543.32L398.93,513.47L408,492.16L417.07,526.26L426.13,504.95L435.2,472.97L444.27,530.53L453.33,504.95L462.4,483.63L471.47,534.79L480.53,509.21L489.6,547.58L498.67,581.68L507.73,568.89L516.8,590.21L525.87,607.26L534.93,620.05L562.13,607.26L571.2,594.47L580.27,590.21L589.33,530.53L598.4,513.47L607.47,487.89L625.6,355.74L634.67,355.74L643.73,430.34L652.8,366.39L661.87,270.47L670.93,409.03L680,313.11L689.07,590.21L698.13,409.03L707.2,323.76L716.27,249.16L725.33,387.71L734.4,313.11L743.47,462.32L752.53,387.71L761.6,500.68L770.67,539.05L779.73,568.89L788.8,590.21L797.87,607.26L806.93,598.74L816,611.53L825.07,607.26L834.13,620.05L843.2,615.79L852.27,607.26L879.47,568.89L888.53,551.84L897.6,654.16L906.67,513.47L915.73,472.97L924.8,526.26L933.87,500.68L942.93,451.66L952,509.21L961.07,451.66L970.13,526.26L979.2,577.42L988.27,534.79L997.33,517.74L1006.4,551.84L1015.47,577.42L1024.53,620.05L1033.6,611.53L1042.67,637.11L1051.73,645.63L1060.8,641.37L1069.87,649.89L1078.93,658.42L1088,662.68L1097.07,662.68L1106.13,654.16L1115.2,654.16L1124.27,662.68L1133.33,641.37L1142.4,637.11L1151.47,615.79L1160.53,624.32L1178.67,615.79L1187.73,645.63L1196.8,620.05L1205.87,628.58L1251.2,671.21L1260.27,675.47L1269.33,679.74L1278.4,679.74L1287.47,675.47L1296.53,675.47L1314.67,666.95L1323.73,666.95L1341.87,658.42L1350.93,658.42L1360,654.16" style="vector-effect: none; fill: none; stroke: rgb(44, 125, 160); stroke-opacity: 1; stroke-width: 2px; opacity: 1;"/></g><g class="points"/><g class="text"/></g><g class="trace scatter tracebbfa1f" style="stroke-miterlimit: 2; opacity: 0.8;"><g class="fills"/><g class="errorbars"/><g class="lines"><path class="js-line" d="M0,659.49L36.27,648.83L54.4,659.49L126.93,680.8L145.07,670.14L163.2,659.49L181.33,643.5L199.47,627.51L217.6,627.51L235.73,627.51L253.87,632.84L272,638.17L290.13,654.16L308.27,664.82L326.4,664.82L344.53,643.5L362.67,616.86L380.8,600.87L398.93,563.57L417.07,542.25L435.2,547.58L471.47,568.89L489.6,574.22L507.73,616.86L525.87,648.83L562.13,584.88L580.27,510.28L598.4,430.34L616.53,441L634.67,345.08L652.8,217.18L670.93,238.5L689.07,281.13L707.2,291.79L725.33,206.53L743.47,227.84L761.6,195.87L779.73,403.7L797.87,409.03L816,536.92L834.13,558.24L852.27,606.2L870.4,632.84L888.53,632.84L906.67,638.17L924.8,611.53L942.93,579.55L961.07,552.91L979.2,552.91L997.33,526.26L1015.47,531.59L1051.73,584.88L1069.87,600.87L1088,632.84L1106.13,659.49L1160.53,659.49L1178.67,648.83L1196.8,632.84L1214.93,643.5L1233.07,643.5L1251.2,648.83L1269.33,659.49L1287.47,664.82L1305.6,675.47L1323.73,675.47L1341.87,675.47L1360,670.14" style="vector-effect: none; fill: none; stroke: rgb(42, 111, 151); stroke-opacity: 1; stroke-width: 2px; opacity: 1;"/></g><g class="points"/><g class="text"/></g><g class="trace scatter tracefb9aa0" style="stroke-miterlimit: 2; opacity: 0.8;"><g class="fills"/><g class="errorbars"/><g class="lines"><path class="js-line" d="M0,648.83L36.27,659.49L54.4,659.49L108.8,675.47L126.93,675.47L145.07,664.82L163.2,659.49L181.33,638.17L199.47,648.83L217.6,643.5L235.73,627.51L253.87,627.51L272,638.17L290.13,648.83L308.27,654.16L326.4,659.49L344.53,648.83L362.67,616.86L380.8,595.54L398.93,563.57L417.07,542.25L435.2,552.91L453.33,558.24L471.47,568.89L489.6,595.54L507.73,616.86L525.87,622.18L544,616.86L562.13,568.89L580.27,520.93L598.4,430.34L616.53,366.39L634.67,206.53L652.8,217.18L670.93,281.13L689.07,46.66L707.2,163.89L725.33,206.53L743.47,36L779.73,291.79L797.87,355.74L816,398.37L834.13,435.67L852.27,632.84L870.4,574.22L888.53,616.86L906.67,638.17L924.8,638.17L942.93,622.18L961.07,611.53L979.2,568.89L997.33,568.89L1015.47,558.24L1051.73,590.21L1069.87,616.86L1106.13,659.49L1124.27,670.14L1142.4,664.82L1160.53,654.16L1233.07,632.84L1251.2,648.83L1269.33,659.49L1287.47,664.82L1305.6,675.47L1323.73,643.5L1341.87,648.83L1360,675.47" style="vector-effect: none; fill: none; stroke: rgb(1, 79, 134); stroke-opacity: 1; stroke-width: 2px; opacity: 1;"/></g><g class="points"/><g class="text"/></g><g class="trace scatter tracec35538" style="stroke-miterlimit: 2; opacity: 0.8;"><g class="fills"/><g class="errorbars"/><g class="lines"><path class="js-line" d="M0,655.76L18.13,649.89L36.27,655.76L54.4,655.76L72.53,667.48L108.8,679.2L126.93,661.62L163.2,638.17L181.33,655.76L199.47,614.72L217.6,614.72L235.73,620.59L253.87,632.31L272,649.89L290.13,649.89L308.27,649.89L326.4,632.31L344.53,608.86L362.67,638.17L380.8,550.24L398.93,532.66L417.07,509.21L435.2,585.41L453.33,526.8L471.47,538.52L489.6,638.17L507.73,638.17L525.87,614.72L544,614.72L562.13,608.86L580.27,585.41L598.4,520.93L616.53,485.76L634.67,442.07L652.8,550.24L670.93,361.07L689.07,259.82L707.2,320.57L725.33,340.82L743.47,381.32L761.6,620.59L779.73,550.24L797.87,603L816,649.89L834.13,632.31L852.27,638.17L870.4,620.59L888.53,597.14L906.67,567.83L924.8,550.24L942.93,526.8L961.07,538.52L979.2,544.38L997.33,556.11L1015.47,585.41L1033.6,626.45L1051.73,649.89L1069.87,673.34L1088,673.34L1106.13,667.48L1124.27,649.89L1142.4,638.17L1160.53,638.17L1178.67,644.03L1196.8,661.62L1233.07,661.62L1251.2,667.48L1269.33,644.03L1287.47,679.2L1323.73,667.48L1341.87,667.48L1360,655.76" style="vector-effect: none; fill: none; stroke: rgb(1, 73, 124); stroke-opacity: 1; stroke-width: 2px; opacity: 1;"/></g><g class="points"/><g class="text"/></g><g class="trace scatter tracef368dd" style="stroke-miterlimit: 2; opacity: 0.8;"><g class="fills"/><g class="errorbars"/><g class="lines"><path class="js-line" d="M0,658.42L18.13,666.95L36.27,671.21L54.4,679.74L72.53,675.47L126.93,624.32L145.07,624.32L163.2,654.16L181.33,620.05L199.47,628.58L217.6,645.63L235.73,658.42L253.87,658.42L272,641.37L290.13,628.58L308.27,581.68L326.4,603L344.53,543.32L362.67,522L380.8,483.63L398.93,500.68L417.07,517.74L435.2,530.53L453.33,543.32L471.47,577.42L489.6,603L507.73,594.47L525.87,603L544,568.89L562.13,513.47L580.27,402.63L598.4,436.74L616.53,654.16L634.67,398.37L652.8,658.42L670.93,658.42L689.07,398.37L707.2,500.68L725.33,577.42L743.47,603L761.6,607.26L779.73,611.53L797.87,624.32L816,645.63L834.13,568.89L852.27,543.32L870.4,547.58L888.53,543.32L906.67,492.16L924.8,504.95L942.93,547.58L961.07,577.42L979.2,603L997.33,645.63L1015.47,675.47L1033.6,675.47L1051.73,666.95L1069.87,666.95L1088,641.37L1106.13,620.05L1124.27,620.05L1142.4,624.32L1160.53,666.95L1178.67,666.95L1196.8,671.21L1214.93,679.74L1233.07,684L1251.2,675.47L1269.33,662.68L1287.47,654.16L1305.6,662.68L1323.73,649.89L1341.87,654.16L1360,666.95" style="vector-effect: none; fill: none; stroke: rgb(1, 42, 74); stroke-opacity: 1; stroke-width: 2px; opacity: 1;"/></g><g class="points"/><g class="text"/></g></g></g></g><path class="xlines-above crisp" d="M0,0" style="fill: none;"/><path class="ylines-above crisp" d="M0,0" style="fill: none;"/><g class="overlines-above"/><g class="xaxislayer-above"><g class="xtick"><text text-anchor="middle" x="0" y="833" transform="translate(216,0)" style="font-family: 'Open Sans', verdana, arial, sans-serif; font-size: 12px; fill: rgb(42, 63, 95); fill-opacity: 1; white-space: pre; opacity: 1;">−0.006</text></g><g class="xtick"><text text-anchor="middle" x="0" y="833" style="font-family: 'Open Sans', verdana, arial, sans-serif; font-size: 12px; fill: rgb(42, 63, 95); fill-opacity: 1; white-space: pre; opacity: 1;" transform="translate(397.33,0)">−0.004</text></g><g class="xtick"><text text-anchor="middle" x="0" y="833" style="font-family: 'Open Sans', verdana, arial, sans-serif; font-size: 12px; fill: rgb(42, 63, 95); fill-opacity: 1; white-space: pre; opacity: 1;" transform="translate(578.6700000000001,0)">−0.002</text></g><g class="xtick"><text text-anchor="middle" x="0" y="833" style="font-family: 'Open Sans', verdana, arial, sans-serif; font-size: 12px; fill: rgb(42, 63, 95); fill-opacity: 1; white-space: pre; opacity: 1;" transform="translate(760,0)">0</text></g><g class="xtick"><text text-anchor="middle" x="0" y="833" style="font-family: 'Open Sans', verdana, arial, sans-serif; font-size: 12px; fill: rgb(42, 63, 95); fill-opacity: 1; white-space: pre; opacity: 1;" transform="translate(941.33,0)">0.002</text></g><g class="xtick"><text text-anchor="middle" x="0" y="833" style="font-family: 'Open Sans', verdana, arial, sans-serif; font-size: 12px; fill: rgb(42, 63, 95); fill-opacity: 1; white-space: pre; opacity: 1;" transform="translate(1122.67,0)">0.004</text></g><g class="xtick"><text text-anchor="middle" x="0" y="833" style="font-family: 'Open Sans', verdana, arial, sans-serif; font-size: 12px; fill: rgb(42, 63, 95); fill-opacity: 1; white-space: pre; opacity: 1;" transform="translate(1304,0)">0.006</text></g></g><g class="yaxislayer-above"><g class="ytick"><text text-anchor="end" x="79" y="4.199999999999999" transform="translate(0,796.79)" style="font-family: 'Open Sans', verdana, arial, sans-serif; font-size: 12px; fill: rgb(42, 63, 95); fill-opacity: 1; white-space: pre; opacity: 1;">0</text></g><g class="ytick"><text text-anchor="end" x="79" y="4.199999999999999" style="font-family: 'Open Sans', verdana, arial, sans-serif; font-size: 12px; fill: rgb(42, 63, 95); fill-opacity: 1; white-space: pre; opacity: 1;" transform="translate(0,690.21)">5μ</text></g><g class="ytick"><text text-anchor="end" x="79" y="4.199999999999999" style="font-family: 'Open Sans', verdana, arial, sans-serif; font-size: 12px; fill: rgb(42, 63, 95); fill-opacity: 1; white-space: pre; opacity: 1;" transform="translate(0,583.63)">10μ</text></g><g class="ytick"><text text-anchor="end" x="79" y="4.199999999999999" style="font-family: 'Open Sans', verdana, arial, sans-serif; font-size: 12px; fill: rgb(42, 63, 95); fill-opacity: 1; white-space: pre; opacity: 1;" transform="translate(0,477.05)">15μ</text></g><g class="ytick"><text text-anchor="end" x="79" y="4.199999999999999" style="font-family: 'Open Sans', verdana, arial, sans-serif; font-size: 12px; fill: rgb(42, 63, 95); fill-opacity: 1; white-space: pre; opacity: 1;" transform="translate(0,370.47)">20μ</text></g><g class="ytick"><text text-anchor="end" x="79" y="4.199999999999999" style="font-family: 'Open Sans', verdana, arial, sans-serif; font-size: 12px; fill: rgb(42, 63, 95); fill-opacity: 1; white-space: pre; opacity: 1;" transform="translate(0,263.89)">25μ</text></g><g class="ytick"><text text-anchor="end" x="79" y="4.199999999999999" style="font-family: 'Open Sans', verdana, arial, sans-serif; font-size: 12px; fill: rgb(42, 63, 95); fill-opacity: 1; white-space: pre; opacity: 1;" transform="translate(0,157.32)">30μ</text></g></g><g class="overaxes-above"/></g></g><g class="polarlayer"/><g class="smithlayer"/><g class="ternarylayer"/><g class="geolayer"/><g class="funnelarealayer"/><g class="pielayer"/><g class="iciclelayer"/><g class="treemaplayer"/><g class="sunburstlayer"/><g class="glimages"/><defs id="topdefs-d06e4c"><g class="clips"/><clipPath id="legendd06e4c"><rect width="121" height="219" x="0" y="0"/></clipPath></defs><g class="layer-above"><g class="imagelayer"/><g class="shapelayer"/></g><g class="infolayer"><g class="legend" pointer-events="all" transform="translate(1467.2,100)"><rect class="bg" shape-rendering="crispEdges" width="121" height="219" x="0" y="0" style="stroke: rgb(68, 68, 68); stroke-opacity: 1; fill: rgb(255, 255, 255); fill-opacity: 1; stroke-width: 0px;"/><g class="scrollbox" transform="" clip-path="url(#legendd06e4c)"><text class="legendtitletext" text-anchor="start" x="2" y="18.2" style="font-family: 'Open Sans', verdana, arial, sans-serif; font-size: 14px; fill: rgb(42, 63, 95); fill-opacity: 1; white-space: pre;">訊號</text><g class="groups"><g class="traces" transform="translate(0,32.7)" style="opacity: 1;"><text class="legendtext" text-anchor="start" x="40" y="4.680000000000001" style="font-family: 'Open Sans', verdana, arial, sans-serif; font-size: 12px; fill: rgb(42, 63, 95); fill-opacity: 1; white-space: pre;">0.0°(382)</text><g class="layers" style="opacity: 0.8;"><g class="legendfill"/><g class="legendlines"><path class="js-line" d="M5,0h30" style="fill: none; stroke: rgb(169, 214, 229); stroke-opacity: 1; stroke-width: 2px;"/></g><g class="legendsymbols"><g class="legendpoints"/></g></g><rect class="legendtoggle" x="0" y="-9.5" width="115.171875" height="19" style="fill: rgb(0, 0, 0); fill-opacity: 0;"/></g><g class="traces" transform="translate(0,51.7)" style="opacity: 1;"><text class="legendtext" text-anchor="start" x="40" y="4.680000000000001" style="font-family: 'Open Sans', verdana, arial, sans-serif; font-size: 12px; fill: rgb(42, 63, 95); fill-opacity: 1; white-space: pre;">45.0°(359)</text><g class="layers" style="opacity: 0.8;"><g class="legendfill"/><g class="legendlines"><path class="js-line" d="M5,0h30" style="fill: none; stroke: rgb(137, 194, 217); stroke-opacity: 1; stroke-width: 2px;"/></g><g class="legendsymbols"><g class="legendpoints"/></g></g><rect class="legendtoggle" x="0" y="-9.5" width="115.171875" height="19" style="fill: rgb(0, 0, 0); fill-opacity: 0;"/></g><g class="traces" transform="translate(0,70.7)" style="opacity: 1;"><text class="legendtext" text-anchor="start" x="40" y="4.680000000000001" style="font-family: 'Open Sans', verdana, arial, sans-serif; font-size: 12px; fill: rgb(42, 63, 95); fill-opacity: 1; white-space: pre;">58.7°(417)</text><g class="layers" style="opacity: 0.8;"><g class="legendfill"/><g class="legendlines"><path class="js-line" d="M5,0h30" style="fill: none; stroke: rgb(137, 194, 217); stroke-opacity: 1; stroke-width: 2px;"/></g><g class="legendsymbols"><g class="legendpoints"/></g></g><rect class="legendtoggle" x="0" y="-9.5" width="115.171875" height="19" style="fill: rgb(0, 0, 0); fill-opacity: 0;"/></g><g class="traces" transform="translate(0,89.7)" style="opacity: 1;"><text class="legendtext" text-anchor="start" x="40" y="4.680000000000001" style="font-family: 'Open Sans', verdana, arial, sans-serif; font-size: 12px; fill: rgb(42, 63, 95); fill-opacity: 1; white-space: pre;">90.0°(358)</text><g class="layers" style="opacity: 0.8;"><g class="legendfill"/><g class="legendlines"><path class="js-line" d="M5,0h30" style="fill: none; stroke: rgb(97, 165, 194); stroke-opacity: 1; stroke-width: 2px;"/></g><g class="legendsymbols"><g class="legendpoints"/></g></g><rect class="legendtoggle" x="0" y="-9.5" width="115.171875" height="19" style="fill: rgb(0, 0, 0); fill-opacity: 0;"/></g><g class="traces" transform="translate(0,108.7)" style="opacity: 1;"><text class="legendtext" text-anchor="start" x="40" y="4.680000000000001" style="font-family: 'Open Sans', verdana, arial, sans-serif; font-size: 12px; fill: rgb(42, 63, 95); fill-opacity: 1; white-space: pre;">135.0°(389)</text><g class="layers" style="opacity: 0.8;"><g class="legendfill"/><g class="legendlines"><path class="js-line" d="M5,0h30" style="fill: none; stroke: rgb(70, 111, 175); stroke-opacity: 1; stroke-width: 2px;"/></g><g class="legendsymbols"><g class="legendpoints"/></g></g><rect class="legendtoggle" x="0" y="-9.5" width="115.171875" height="19" style="fill: rgb(0, 0, 0); fill-opacity: 0;"/></g><g class="traces" transform="translate(0,127.7)" style="opacity: 1;"><text class="legendtext" text-anchor="start" x="40" y="4.680000000000001" style="font-family: 'Open Sans', verdana, arial, sans-serif; font-size: 12px; fill: rgb(42, 63, 95); fill-opacity: 1; white-space: pre;">140.7°(415)</text><g class="layers" style="opacity: 0.8;"><g class="legendfill"/><g class="legendlines"><path class="js-line" d="M5,0h30" style="fill: none; stroke: rgb(44, 125, 160); stroke-opacity: 1; stroke-width: 2px;"/></g><g class="legendsymbols"><g class="legendpoints"/></g></g><rect class="legendtoggle" x="0" y="-9.5" width="115.171875" height="19" style="fill: rgb(0, 0, 0); fill-opacity: 0;"/></g><g class="traces" transform="translate(0,146.7)" style="opacity: 1;"><text class="legendtext" text-anchor="start" x="40" y="4.680000000000001" style="font-family: 'Open Sans', verdana, arial, sans-serif; font-size: 12px; fill: rgb(42, 63, 95); fill-opacity: 1; white-space: pre;">180.0°(376)</text><g class="layers" style="opacity: 0.8;"><g class="legendfill"/><g class="legendlines"><path class="js-line" d="M5,0h30" style="fill: none; stroke: rgb(42, 111, 151); stroke-opacity: 1; stroke-width: 2px;"/></g><g class="legendsymbols"><g class="legendpoints"/></g></g><rect class="legendtoggle" x="0" y="-9.5" width="115.171875" height="19" style="fill: rgb(0, 0, 0); fill-opacity: 0;"/></g><g class="traces" transform="translate(0,165.7)" style="opacity: 1;"><text class="legendtext" text-anchor="start" x="40" y="4.680000000000001" style="font-family: 'Open Sans', verdana, arial, sans-serif; font-size: 12px; fill: rgb(42, 63, 95); fill-opacity: 1; white-space: pre;">225.0°(377)</text><g class="layers" style="opacity: 0.8;"><g class="legendfill"/><g class="legendlines"><path class="js-line" d="M5,0h30" style="fill: none; stroke: rgb(1, 79, 134); stroke-opacity: 1; stroke-width: 2px;"/></g><g class="legendsymbols"><g class="legendpoints"/></g></g><rect class="legendtoggle" x="0" y="-9.5" width="115.171875" height="19" style="fill: rgb(0, 0, 0); fill-opacity: 0;"/></g><g class="traces" transform="translate(0,184.7)" style="opacity: 1;"><text class="legendtext" text-anchor="start" x="40" y="4.680000000000001" style="font-family: 'Open Sans', verdana, arial, sans-serif; font-size: 12px; fill: rgb(42, 63, 95); fill-opacity: 1; white-space: pre;">270.0°(378)</text><g class="layers" style="opacity: 0.8;"><g class="legendfill"/><g class="legendlines"><path class="js-line" d="M5,0h30" style="fill: none; stroke: rgb(1, 73, 124); stroke-opacity: 1; stroke-width: 2px;"/></g><g class="legendsymbols"><g class="legendpoints"/></g></g><rect class="legendtoggle" x="0" y="-9.5" width="115.171875" height="19" style="fill: rgb(0, 0, 0); fill-opacity: 0;"/></g><g class="traces" transform="translate(0,203.7)" style="opacity: 1;"><text class="legendtext" text-anchor="start" x="40" y="4.680000000000001" style="font-family: 'Open Sans', verdana, arial, sans-serif; font-size: 12px; fill: rgb(42, 63, 95); fill-opacity: 1; white-space: pre;">315.0°(379)</text><g class="layers" style="opacity: 0.8;"><g class="legendfill"/><g class="legendlines"><path class="js-line" d="M5,0h30" style="fill: none; stroke: rgb(1, 42, 74); stroke-opacity: 1; stroke-width: 2px;"/></g><g class="legendsymbols"><g class="legendpoints"/></g></g><rect class="legendtoggle" x="0" y="-9.5" width="115.171875" height="19" style="fill: rgb(0, 0, 0); fill-opacity: 0;"/></g></g></g><rect class="scrollbar" rx="20" ry="3" width="0" height="0" x="0" y="0" style="fill: rgb(128, 139, 164); fill-opacity: 1;"/></g><g class="g-gtitle"><text class="gtitle" x="80" y="50" text-anchor="start" dy="0em" style="opacity: 1; font-family: 'Open Sans', verdana, arial, sans-serif; font-size: 17px; fill: rgb(42, 63, 95); fill-opacity: 1; white-space: pre;"><tspan class="line" dy="0em" x="80" y="50"><tspan style="font-weight:bold">原始數據預覽</tspan></tspan><tspan class="line" dy="1.3em" x="80" y="50">​<tspan style="font-size:70%" dy="0.3em">003-2 - 30mT - IVB</tspan><tspan dy="-0.21em">​</tspan></tspan></text></g><g class="g-xtitle"><text class="xtitle" x="760" y="859.8" text-anchor="middle" style="opacity: 1; font-family: 'Open Sans', verdana, arial, sans-serif; font-size: 14px; fill: rgb(42, 63, 95); fill-opacity: 1; white-space: pre;">磁場位置 (物理單位)</text></g><g class="g-ytitle"><text class="ytitle" transform="rotate(-90,36.6625,460)" x="36.6625" y="460" text-anchor="middle" style="opacity: 1; font-family: 'Open Sans', verdana, arial, sans-serif; font-size: 14px; fill: rgb(42, 63, 95); fill-opacity: 1; white-space: pre;">訊號振幅 (Ic)</text></g></g></svg>