<svg class="main-svg" xmlns="http://www.w3.org/2000/svg" xmlns:xlink="http://www.w3.org/1999/xlink" width="1600" height="900" style="" viewBox="0 0 1600 900"><rect x="0" y="0" width="1600" height="900" style="fill: rgb(255, 255, 255); fill-opacity: 1;"/><defs id="defs-85ec0c"><g class="clips"><clipPath id="clip85ec0cxyplot" class="plotclip"><rect width="1360" height="720"/></clipPath><clipPath class="axesclip" id="clip85ec0cx"><rect x="80" y="0" width="1360" height="900"/></clipPath><clipPath class="axesclip" id="clip85ec0cy"><rect x="0" y="100" width="1600" height="720"/></clipPath><clipPath class="axesclip" id="clip85ec0cxy"><rect x="80" y="100" width="1360" height="720"/></clipPath></g><g class="gradients"/><g class="patterns"/></defs><g class="bglayer"/><g class="layer-below"><g class="imagelayer"/><g class="shapelayer"/></g><g class="cartesianlayer"><g class="subplot xy"><g class="layer-subplot"><g class="shapelayer"/><g class="imagelayer"/></g><g class="minor-gridlayer"><g class="x"/><g class="y"/></g><g class="gridlayer"><g class="x"><path class="xgrid crisp" transform="translate(420,0)" d="M0,100v720" style="stroke: rgb(235, 240, 248); stroke-opacity: 1; stroke-width: 1px;"/><path class="xgrid crisp" transform="translate(1100,0)" d="M0,100v720" style="stroke: rgb(235, 240, 248); stroke-opacity: 1; stroke-width: 1px;"/></g><g class="y"><path class="ygrid crisp" transform="translate(0,695.42)" d="M80,0h1360" style="stroke: rgb(235, 240, 248); stroke-opacity: 1; stroke-width: 1px;"/><path class="ygrid crisp" transform="translate(0,602.19)" d="M80,0h1360" style="stroke: rgb(235, 240, 248); stroke-opacity: 1; stroke-width: 1px;"/><path class="ygrid crisp" transform="translate(0,508.95)" d="M80,0h1360" style="stroke: rgb(235, 240, 248); stroke-opacity: 1; stroke-width: 1px;"/><path class="ygrid crisp" transform="translate(0,415.71)" d="M80,0h1360" style="stroke: rgb(235, 240, 248); stroke-opacity: 1; stroke-width: 1px;"/><path class="ygrid crisp" transform="translate(0,322.47)" d="M80,0h1360" style="stroke: rgb(235, 240, 248); stroke-opacity: 1; stroke-width: 1px;"/><path class="ygrid crisp" transform="translate(0,229.24)" d="M80,0h1360" style="stroke: rgb(235, 240, 248); stroke-opacity: 1; stroke-width: 1px;"/><path class="ygrid crisp" transform="translate(0,136)" d="M80,0h1360" style="stroke: rgb(235, 240, 248); stroke-opacity: 1; stroke-width: 1px;"/></g></g><g class="zerolinelayer"><path class="xzl zl crisp" transform="translate(760,0)" d="M0,100v720" style="stroke: rgb(235, 240, 248); stroke-opacity: 1; stroke-width: 2px;"/><path class="yzl zl crisp" transform="translate(0,788.66)" d="M80,0h1360" style="stroke: rgb(235, 240, 248); stroke-opacity: 1; stroke-width: 2px;"/></g><g class="layer-between"><g class="shapelayer"/><g class="imagelayer"/></g><path class="xlines-below"/><path class="ylines-below"/><g class="overlines-below"/><g class="xaxislayer-below"/><g class="yaxislayer-below"/><g class="overaxes-below"/><g class="overplot"><g class="xy" transform="translate(80,100)" clip-path="url(#clip85ec0cxyplot)"><g class="scatterlayer mlayer"><g class="trace scatter trace3dfb11" style="stroke-miterlimit: 2; opacity: 0.8;"><g class="fills"/><g class="errorbars"/><g class="lines"><path class="js-line" d="M0,681.2L13.6,670.01L27.2,662.56L40.8,655.1L54.4,655.1L68,647.64L81.6,651.37L108.8,658.83L122.4,670.01L136,673.74L149.6,658.83L163.2,651.37L176.8,640.18L190.4,625.26L204,606.61L217.6,614.07L231.2,617.8L258.4,632.72L272,651.37L285.6,655.1L299.2,632.72L312.8,599.15L326.4,569.32L340,569.32L353.6,528.29L367.2,539.48L380.8,524.56L394.4,524.56L408,505.92L421.6,528.29L435.2,539.48L448.8,591.69L462.4,625.26L476,632.72L489.6,617.8L503.2,617.8L516.8,561.86L530.4,528.29L544,449.97L557.6,479.81L571.2,390.3L584.8,408.95L598.4,449.97L612,483.54L625.6,561.86L639.2,606.61L652.8,614.07L666.4,621.53L680,625.26L693.6,606.61L707.2,576.78L720.8,587.97L734.4,561.86L748,524.56L761.6,535.75L775.2,539.48L788.8,554.4L802.4,569.32L816,602.88L829.6,632.72L843.2,666.28L856.8,666.28L870.4,662.56L884,636.45L897.6,617.8L911.2,617.8L924.8,602.88L938.4,606.61L952,632.72L965.6,636.45L979.2,670.01L992.8,662.56L1006.4,673.74L1020,670.01L1033.6,655.1L1047.2,651.37L1060.8,651.37L1074.4,651.37L1088,647.64L1101.6,647.64L1115.2,658.83L1128.8,666.28L1142.4,670.01L1156,673.74L1169.6,673.74L1183.2,666.28L1196.8,662.56L1210.4,655.1L1224,666.28L1237.6,662.56L1251.2,666.28L1292,677.47L1305.6,677.47L1332.8,670.01L1346.4,670.01L1360,670.01" style="vector-effect: none; fill: none; stroke: rgb(169, 214, 229); stroke-opacity: 1; stroke-width: 2px; opacity: 1;"/></g><g class="points"/><g class="text"/></g><g class="trace scatter trace2b9e51" style="stroke-miterlimit: 2; opacity: 0.8;"><g class="fills"/><g class="errorbars"/><g class="lines"><path class="js-line" d="M170,647.64L183.6,640.18L190.4,642.04L197.2,627.13L204,619.67L210.8,628.99L217.6,623.4L224.4,615.94L231.2,628.99L238,638.31L244.8,636.45L251.6,643.91L258.4,655.1L265.2,662.56L272,666.28L278.8,670.01L285.6,670.01L292.4,660.69L299.2,642.04L306,636.45L312.8,645.77L319.6,287.74L326.4,520.83L333.2,576.78L340,558.13L353.6,558.13L360.4,539.48L367.2,539.48L374,502.19L380.8,483.54L387.6,539.48L394.4,520.83L401.2,483.54L408,576.78L414.8,502.19L421.6,306.39L428.4,615.94L435.2,630.85L442,642.04L462.4,625.26L469.2,617.8L476,483.54L482.8,502.19L489.6,539.48L496.4,464.89L503.2,390.3L510,446.24L516.8,334.36L523.6,334.36L530.4,427.6L537.2,287.74L544,259.77L550.8,353.01L557.6,241.12L564.4,194.5L571.2,334.36L578,194.5L584.8,185.18L591.6,269.09L598.4,129.24L605.2,287.74L612,203.83L618.8,231.8L625.6,297.06L632.4,194.5L639.2,390.3L646,334.36L652.8,371.65L659.6,446.24L666.4,353.01L673.2,539.48L680,427.6L686.8,36L693.6,502.19L700.4,601.02L707.2,334.36L714,615.94L720.8,606.61L727.6,625.26L734.4,617.8L741.2,608.48L748,315.71L754.8,558.13L761.6,621.53L768.4,483.54L782,520.83L788.8,446.24L795.6,520.83L802.4,539.48L809.2,464.89L816,558.13L822.8,502.19L829.6,539.48L836.4,558.13L843.2,539.48L850,306.39L856.8,612.21L863.6,628.99L870.4,642.04L877.2,649.5L884,655.1L890.8,653.23L897.6,649.5L904.4,655.1L911.2,651.37L931.6,640.18L938.4,634.58L945.2,640.18L952,642.04L958.8,632.72L965.6,627.13L972.4,640.18L979.2,634.58L986,643.91L992.8,651.37L999.6,656.96L1006.4,660.69L1013.2,664.42L1020,670.01L1026.8,671.88L1033.6,670.01L1040.4,670.01L1047.2,668.15L1060.8,664.42L1067.6,656.96L1074.4,660.69L1081.2,656.96L1088,655.1L1094.8,655.1L1101.6,653.23L1108.4,658.83L1115.2,656.96L1122,660.69L1142.4,671.88L1149.2,673.74L1156,677.47L1162.8,677.47L1169.6,677.47L1176.4,679.34L1183.2,679.34L1190,677.47" style="vector-effect: none; fill: none; stroke: rgb(137, 194, 217); stroke-opacity: 1; stroke-width: 2px; opacity: 1;"/></g><g class="points"/><g class="text"/></g><g class="trace scatter tracebd80d5" style="stroke-miterlimit: 2; opacity: 0.8;"><g class="fills"/><g class="errorbars"/><g class="lines"><path class="js-line" d="M170,673.74L176.8,677.47L183.6,673.74L190.4,662.56L197.2,658.83L204,655.1L210.8,643.91L217.6,640.18L224.4,632.72L231.2,632.72L238,628.99L244.8,625.26L251.6,628.99L258.4,628.99L265.2,625.26L285.6,647.64L292.4,658.83L299.2,666.28L306,666.28L312.8,670.01L319.6,632.72L326.4,677.47L333.2,658.83L346.8,628.99L353.6,625.26L360.4,602.88L367.2,599.15L374,580.51L380.8,565.59L387.6,569.32L394.4,543.21L401.2,558.13L408,524.56L414.8,554.4L421.6,539.48L428.4,520.83L435.2,558.13L442,539.48L448.8,569.32L455.6,587.97L462.4,576.78L469.2,595.42L476,610.34L482.8,621.53L489.6,640.18L496.4,640.18L503.2,643.91L510,640.18L516.8,640.18L523.6,636.45L530.4,617.8L537.2,591.69L544,580.51L550.8,561.86L557.6,546.94L571.2,502.19L578,460.23L584.8,418.27L591.6,497.53L598.4,464.89L605.2,408.95L612,497.53L618.8,460.23L625.6,520.83L632.4,488.2L639.2,539.48L646,569.32L652.8,558.13L659.6,584.24L673.2,614.07L680,625.26L686.8,617.8L693.6,628.99L700.4,628.99L707.2,617.8L714,614.07L720.8,606.61L727.6,602.88L734.4,591.69L741.2,580.51L748,573.05L754.8,558.13L761.6,539.48L768.4,632.72L775.2,558.13L782,539.48L788.8,517.11L795.6,558.13L802.4,532.02L809.2,573.05L816,580.51L822.8,576.78L829.6,565.59L836.4,587.97L843.2,636.45L850,617.8L856.8,636.45L863.6,647.64L870.4,643.91L884,658.83L890.8,655.1L911.2,643.91L918,655.1L924.8,636.45L931.6,632.72L938.4,628.99L945.2,628.99L952,621.53L958.8,625.26L965.6,625.26L972.4,621.53L979.2,632.72L986,636.45L992.8,636.45L999.6,651.37L1006.4,651.37L1013.2,658.83L1020,662.56L1026.8,670.01L1033.6,666.28L1040.4,670.01L1047.2,670.01L1054,666.28L1060.8,666.28L1067.6,662.56L1081.2,655.1L1088,655.1L1094.8,658.83L1101.6,655.1L1122,655.1L1128.8,658.83L1135.6,666.28L1142.4,666.28L1149.2,670.01L1156,670.01L1162.8,673.74L1169.6,673.74L1176.4,677.47L1183.2,677.47L1190,677.47" style="vector-effect: none; fill: none; stroke: rgb(137, 194, 217); stroke-opacity: 1; stroke-width: 2px; opacity: 1;"/></g><g class="points"/><g class="text"/></g><g class="trace scatter traced27704" style="stroke-miterlimit: 2; opacity: 0.8;"><g class="fills"/><g class="errorbars"/><g class="lines"><path class="js-line" d="M170,632.72L176.8,625.26L183.6,632.72L190.4,628.99L197.2,636.45L204,636.45L210.8,642.04L217.6,642.04L224.4,649.5L231.2,660.69L238,664.42L244.8,671.88L251.6,675.61L258.4,677.47L265.2,677.47L278.8,666.28L285.6,658.83L292.4,647.64L299.2,658.83L306,627.13L312.8,621.53L319.6,642.04L326.4,614.07L333.2,604.75L340,608.48L346.8,614.07L353.6,608.48L360.4,634.58L367.2,615.94L374,625.26L380.8,619.67L387.6,640.18L394.4,647.64L408,666.28L414.8,673.74L421.6,675.61L428.4,679.34L435.2,668.15L442,670.01L448.8,675.61L455.6,673.74L469.2,662.56L476,658.83L482.8,649.5L489.6,645.77L496.4,630.85L503.2,636.45L516.8,628.99L523.6,638.31L530.4,645.77L537.2,656.96L544,662.56L550.8,670.01L564.4,677.47L571.2,675.61L578,675.61L584.8,670.01L591.6,656.96L598.4,655.1L605.2,642.04L612,638.31L618.8,634.58L625.6,628.99L632.4,621.53L639.2,632.72L646,628.99L652.8,636.45L659.6,628.99L666.4,640.18L673.2,647.64L680,653.23L686.8,658.83L693.6,662.56L707.2,670.01L714,671.88L720.8,670.01L727.6,670.01L734.4,670.01L741.2,664.42L748,662.56L754.8,655.1L761.6,651.37L768.4,638.31L775.2,634.58L782,643.91L795.6,636.45L802.4,643.91L809.2,651.37L816,655.1L822.8,660.69L829.6,664.42L836.4,668.15L843.2,666.28L850,664.42L856.8,666.28L863.6,668.15L870.4,666.28L877.2,664.42L884,656.96L890.8,655.1L897.6,643.91L904.4,658.83L911.2,638.31L924.8,630.85L931.6,645.77L938.4,634.58L945.2,630.85L952,625.26L958.8,638.31L965.6,643.91L972.4,632.72L979.2,649.5L986,655.1L992.8,660.69L999.6,668.15L1006.4,671.88L1013.2,671.88L1020,673.74L1026.8,673.74L1033.6,671.88L1040.4,671.88L1047.2,670.01L1054,666.28L1060.8,664.42L1067.6,656.96L1074.4,649.5L1081.2,645.77L1088,651.37L1094.8,628.99L1101.6,649.5L1108.4,634.58L1115.2,630.85L1122,636.45L1128.8,643.91L1135.6,653.23L1142.4,651.37L1149.2,662.56L1156,660.69L1162.8,664.42L1169.6,671.88L1176.4,675.61L1190,679.34" style="vector-effect: none; fill: none; stroke: rgb(97, 165, 194); stroke-opacity: 1; stroke-width: 2px; opacity: 1;"/></g><g class="points"/><g class="text"/></g><g class="trace scatter traceec2313" style="stroke-miterlimit: 2; opacity: 0.8;"><g class="fills"/><g class="errorbars"/><g class="lines"><path class="js-line" d="M170,647.64L204,619.67L210.8,610.34L217.6,617.8L224.4,614.07L231.2,606.61L238,597.29L244.8,612.21L251.6,606.61L258.4,617.8L265.2,612.21L278.8,638.31L285.6,634.58L292.4,656.96L299.2,649.5L306,655.1L312.8,664.42L319.6,671.88L326.4,670.01L333.2,671.88L340,666.28L346.8,662.56L353.6,656.96L360.4,649.5L367.2,638.31L374,625.26L380.8,604.75L387.6,625.26L394.4,621.53L401.2,610.34L408,593.56L414.8,608.48L421.6,599.15L428.4,597.29L435.2,606.61L442,608.48L448.8,621.53L455.6,617.8L462.4,642.04L469.2,649.5L476,660.69L482.8,670.01L489.6,675.61L496.4,679.34L503.2,675.61L510,670.01L516.8,673.74L523.6,673.74L530.4,668.15L537.2,666.28L544,656.96L550.8,655.1L557.6,651.37L564.4,649.5L571.2,645.77L578,653.23L584.8,649.5L591.6,664.42L598.4,662.56L612,673.74L618.8,675.61L625.6,679.34L632.4,679.34L639.2,673.74L646,662.56L659.6,643.91L666.4,638.31L680,627.13L686.8,636.45L693.6,630.85L700.4,623.4L714,642.04L720.8,636.45L727.6,642.04L734.4,649.5L741.2,653.23L748,664.42L761.6,668.15L768.4,671.88L775.2,673.74L782,671.88L788.8,670.01L795.6,673.74L802.4,668.15L809.2,664.42L816,662.56L822.8,655.1L843.2,643.91L850,649.5L856.8,645.77L863.6,651.37L870.4,660.69L877.2,664.42L884,668.15L890.8,670.01L897.6,673.74L904.4,670.01L911.2,673.74L918,671.88L924.8,671.88L931.6,670.01L938.4,662.56L945.2,660.69L958.8,653.23L965.6,640.18L972.4,636.45L979.2,628.99L986,640.18L992.8,664.42L999.6,623.4L1006.4,636.45L1013.2,628.99L1020,638.31L1026.8,642.04L1033.6,651.37L1040.4,656.96L1047.2,664.42L1054,671.88L1060.8,673.74L1067.6,673.74L1074.4,675.61L1088,671.88L1094.8,671.88L1115.2,666.28L1122,658.83L1128.8,651.37L1135.6,636.45L1149.2,628.99L1156,634.58L1162.8,651.37L1169.6,627.13L1176.4,623.4L1183.2,656.96L1190,630.85" style="vector-effect: none; fill: none; stroke: rgb(70, 111, 175); stroke-opacity: 1; stroke-width: 2px; opacity: 1;"/></g><g class="points"/><g class="text"/></g><g class="trace scatter trace54d3a8" style="stroke-miterlimit: 2; opacity: 0.8;"><g class="fills"/><g class="errorbars"/><g class="lines"><path class="js-line" d="M170,662.56L183.6,655.1L190.4,643.91L204,636.45L210.8,636.45L217.6,628.99L224.4,625.26L231.2,617.8L238,632.72L244.8,621.53L251.6,617.8L258.4,621.53L265.2,632.72L272,617.8L278.8,625.26L292.4,640.18L299.2,643.91L306,655.1L312.8,662.56L319.6,666.28L326.4,666.28L333.2,670.01L340,662.56L346.8,658.83L353.6,651.37L360.4,643.91L367.2,640.18L374,636.45L380.8,628.99L387.6,625.26L394.4,617.8L401.2,602.88L408,595.42L414.8,602.88L421.6,595.42L428.4,595.42L435.2,587.97L448.8,610.34L455.6,617.8L462.4,617.8L469.2,636.45L476,640.18L482.8,658.83L489.6,662.56L496.4,670.01L503.2,673.74L510,670.01L516.8,666.28L523.6,673.74L530.4,670.01L537.2,670.01L544,666.28L550.8,651.37L557.6,640.18L564.4,636.45L578,628.99L584.8,621.53L591.6,628.99L598.4,625.26L605.2,632.72L612,647.64L618.8,647.64L625.6,662.56L632.4,666.28L639.2,673.74L646,677.47L652.8,673.74L659.6,666.28L666.4,666.28L680,643.91L686.8,640.18L700.4,632.72L707.2,617.8L714,628.99L720.8,628.99L727.6,625.26L734.4,628.99L748,628.99L754.8,636.45L761.6,647.64L768.4,655.1L775.2,655.1L782,662.56L788.8,666.28L795.6,662.56L802.4,670.01L809.2,670.01L816,662.56L822.8,658.83L829.6,647.64L836.4,643.91L843.2,636.45L850,632.72L856.8,628.99L863.6,647.64L870.4,651.37L877.2,643.91L884,632.72L890.8,636.45L911.2,658.83L918,658.83L924.8,666.28L931.6,670.01L945.2,662.56L952,670.01L986,651.37L992.8,636.45L1006.4,628.99L1013.2,632.72L1020,628.99L1026.8,647.64L1033.6,617.8L1040.4,625.26L1047.2,621.53L1054,628.99L1060.8,632.72L1067.6,632.72L1081.2,662.56L1088,658.83L1094.8,673.74L1101.6,670.01L1108.4,673.74L1115.2,670.01L1128.8,670.01L1135.6,666.28L1142.4,670.01L1149.2,658.83L1169.6,647.64L1176.4,636.45L1183.2,643.91L1190,640.18" style="vector-effect: none; fill: none; stroke: rgb(44, 125, 160); stroke-opacity: 1; stroke-width: 2px; opacity: 1;"/></g><g class="points"/><g class="text"/></g><g class="trace scatter trace7f6b47" style="stroke-miterlimit: 2; opacity: 0.8;"><g class="fills"/><g class="errorbars"/><g class="lines"><path class="js-line" d="M0,673.74L13.6,677.47L27.2,677.47L40.8,677.47L54.4,670.01L68,666.28L81.6,658.83L122.4,658.83L136,666.28L149.6,673.74L163.2,677.47L231.2,640.18L244.8,643.91L258.4,643.91L272,655.1L285.6,655.1L299.2,670.01L312.8,670.01L326.4,662.56L340,647.64L353.6,636.45L367.2,651.37L380.8,606.61L394.4,614.07L408,614.07L435.2,628.99L448.8,647.64L462.4,662.56L476,655.1L489.6,628.99L503.2,580.51L516.8,573.05L530.4,539.48L544,502.19L557.6,517.11L584.8,524.56L598.4,576.78L625.6,591.69L639.2,628.99L652.8,625.26L666.4,614.07L680,584.24L693.6,550.67L707.2,491L720.8,502.19L734.4,386.57L748,379.11L761.6,397.76L775.2,528.29L788.8,528.29L802.4,584.24L816,617.8L829.6,617.8L843.2,625.26L856.8,643.91L870.4,599.15L884,569.32L897.6,573.05L911.2,532.02L924.8,535.75L938.4,546.94L965.6,546.94L979.2,554.4L992.8,606.61L1006.4,628.99L1020,651.37L1033.6,662.56L1047.2,655.1L1060.8,643.91L1088,614.07L1101.6,614.07L1115.2,617.8L1128.8,625.26L1156,662.56L1169.6,666.28L1196.8,673.74L1210.4,666.28L1237.6,651.37L1251.2,651.37L1264.8,647.64L1278.4,655.1L1292,666.28L1305.6,670.01L1319.2,681.2L1332.8,681.2L1346.4,677.47L1360,670.01" style="vector-effect: none; fill: none; stroke: rgb(42, 111, 151); stroke-opacity: 1; stroke-width: 2px; opacity: 1;"/></g><g class="points"/><g class="text"/></g><g class="trace scatter tracefce82f" style="stroke-miterlimit: 2; opacity: 0.8;"><g class="fills"/><g class="errorbars"/><g class="lines"><path class="js-line" d="M170,673.74L176.8,677.47L183.6,673.74L190.4,673.74L197.2,670.01L204,666.28L210.8,666.28L238,651.37L244.8,655.1L251.6,655.1L258.4,658.83L265.2,658.83L272,662.56L278.8,666.28L285.6,666.28L292.4,670.01L299.2,670.01L306,666.28L312.8,666.28L319.6,658.83L326.4,655.1L333.2,651.37L340,651.37L346.8,643.91L353.6,640.18L360.4,632.72L367.2,632.72L374,632.72L380.8,628.99L387.6,628.99L394.4,625.26L401.2,632.72L408,636.45L414.8,636.45L421.6,647.64L428.4,640.18L435.2,647.64L442,651.37L448.8,651.37L455.6,643.91L462.4,640.18L469.2,655.1L476,617.8L482.8,595.42L489.6,580.51L496.4,569.32L503.2,554.4L510,535.75L516.8,561.86L523.6,550.67L530.4,528.29L537.2,558.13L544,543.21L550.8,520.83L557.6,558.13L564.4,539.48L571.2,565.59L578,584.24L584.8,599.15L591.6,595.42L598.4,610.34L605.2,621.53L612,614.07L618.8,610.34L625.6,599.15L632.4,591.69L639.2,580.51L646,569.32L652.8,471.11L659.6,393.41L666.4,393.41L673.2,471.11L680,362.33L686.8,269.09L693.6,393.41L700.4,331.25L707.2,191.4L714,269.09L720.8,300.17L727.6,144.78L734.4,222.47L741.2,269.09L748,160.32L754.8,191.4L761.6,269.09L768.4,175.86L775.2,269.09L782,315.71L788.8,222.47L795.6,315.71L802.4,628.99L809.2,315.71L816,471.11L822.8,393.41L829.6,517.11L836.4,539.48L843.2,539.48L850,599.15L856.8,614.07L863.6,625.26L870.4,621.53L877.2,632.72L884,640.18L890.8,640.18L897.6,636.45L904.4,632.72L911.2,614.07L918,610.34L924.8,602.88L931.6,561.86L938.4,580.51L952,565.59L958.8,554.4L965.6,539.48L972.4,561.86L979.2,554.4L986,576.78L992.8,576.78L999.6,595.42L1013.2,625.26L1020,632.72L1026.8,643.91L1033.6,658.83L1040.4,666.28L1047.2,670.01L1060.8,670.01L1067.6,658.83L1074.4,658.83L1081.2,647.64L1094.8,640.18L1101.6,651.37L1108.4,636.45L1115.2,628.99L1128.8,636.45L1135.6,636.45L1142.4,643.91L1149.2,643.91L1169.6,666.28L1176.4,670.01L1183.2,673.74L1190,636.45" style="vector-effect: none; fill: none; stroke: rgb(1, 79, 134); stroke-opacity: 1; stroke-width: 2px; opacity: 1;"/></g><g class="points"/><g class="text"/></g><g class="trace scatter trace092a83" style="stroke-miterlimit: 2; opacity: 0.8;"><g class="fills"/><g class="errorbars"/><g class="lines"><path class="js-line" d="M0,678.41L6.8,684L13.6,683.07L20.4,682.14L27.2,679.34L34,674.68L40.8,672.81L47.6,670.95L54.4,667.22L61.2,667.22L68,664.42L74.8,661.62L81.6,659.76L88.4,665.35L95.2,669.08L102,668.15L108.8,671.88L115.6,673.74L122.4,676.54L129.2,675.61L136,677.47L142.8,680.27L149.6,679.34L163.2,677.47L170,671.88L176.8,664.42L183.6,659.76L190.4,654.16L197.2,650.43L204,643.91L210.8,635.52L217.6,622.46L224.4,642.04L231.2,633.65L238,618.73L244.8,642.98L251.6,654.16L258.4,648.57L265.2,657.89L272,665.35L278.8,669.08L285.6,667.22L292.4,670.95L299.2,670.01L306,673.74L312.8,671.88L319.6,675.61L340,670.01L346.8,659.76L353.6,652.3L360.4,642.04L367.2,645.77L374,639.25L380.8,628.99L387.6,613.14L394.4,626.19L401.2,559.99L408,627.13L414.8,600.09L421.6,659.76L428.4,625.26L435.2,598.22L442,637.38L448.8,624.33L455.6,643.91L462.4,656.96L469.2,662.56L476,660.69L482.8,656.03L489.6,664.42L496.4,660.69L503.2,666.28L510,655.1L523.6,643.91L530.4,635.52L537.2,622.46L544,642.98L550.8,637.38L557.6,625.26L564.4,647.64L571.2,641.11L578,628.06L584.8,646.71L591.6,657.89L598.4,652.3L605.2,662.56L612,667.22L618.8,670.95L625.6,670.01L632.4,669.08L639.2,667.22L646,665.35L652.8,649.5L659.6,642.04L666.4,629.92L673.2,609.41L680,560.93L686.8,633.65L693.6,619.67L700.4,573.98L707.2,678.41L714,628.99L720.8,646.71L734.4,632.72L741.2,649.5L748,641.11L754.8,655.1L761.6,670.01L768.4,673.74L775.2,676.54L782,678.41L788.8,675.61L795.6,670.95L802.4,659.76L809.2,654.16L816,644.84L822.8,614.07L829.6,634.58L836.4,627.13L843.2,636.45L850,640.18L856.8,631.79L863.6,649.5L870.4,643.91L877.2,656.03L884,661.62L890.8,671.88L897.6,675.61L904.4,670.01L911.2,664.42L918,668.15L924.8,680.27L931.6,678.41L945.2,656.03L952,628.06L965.6,599.15L972.4,611.27L979.2,615L986,609.41L992.8,594.49L999.6,599.15L1006.4,610.34L1013.2,594.49L1020,600.09L1026.8,621.53L1033.6,610.34L1040.4,639.25L1047.2,653.23L1054,664.42L1060.8,669.08L1067.6,675.61L1074.4,678.41L1081.2,677.47L1088,674.68L1094.8,673.74L1101.6,667.22L1108.4,656.96L1115.2,653.23L1122,651.37L1128.8,647.64L1135.6,653.23L1142.4,635.52L1149.2,631.79L1156,628.99L1162.8,622.46L1169.6,616.87L1176.4,616.87L1183.2,635.52L1190,633.65L1196.8,631.79L1203.6,645.77L1210.4,646.71L1217.2,663.49L1230.8,674.68L1237.6,673.74L1244.4,677.47L1251.2,680.27L1258,677.47L1264.8,676.54L1271.6,671.88L1278.4,665.35L1285.2,664.42L1292,661.62L1298.8,662.56L1305.6,656.96L1312.4,661.62L1319.2,655.1L1326,655.1L1332.8,656.03L1346.4,659.76L1353.2,664.42L1360,666.28" style="vector-effect: none; fill: none; stroke: rgb(1, 73, 124); stroke-opacity: 1; stroke-width: 2px; opacity: 1;"/></g><g class="points"/><g class="text"/></g><g class="trace scatter tracec528a2" style="stroke-miterlimit: 2; opacity: 0.8;"><g class="fills"/><g class="errorbars"/><g class="lines"><path class="js-line" d="M0,664.42L13.6,656.96L20.4,663.49L27.2,660.69L34,666.28L40.8,670.01L47.6,672.81L61.2,678.41L68,677.47L81.6,681.2L88.4,684L95.2,683.07L102,675.61L108.8,670.01L115.6,661.62L122.4,655.1L129.2,661.62L136,642.98L142.8,632.72L149.6,660.69L156.4,612.21L163.2,629.92L170,615.94L176.8,606.61L183.6,628.06L190.4,612.21L197.2,639.25L204,650.43L210.8,645.77L217.6,665.35L224.4,670.01L231.2,673.74L238,671.88L244.8,674.68L251.6,673.74L258.4,671.88L265.2,675.61L272,674.68L278.8,672.81L285.6,665.35L292.4,661.62L299.2,642.04L306,637.38L312.8,627.13L319.6,644.84L326.4,601.95L333.2,641.11L340,621.53L346.8,619.67L353.6,641.11L360.4,642.04L367.2,633.65L374,638.31L380.8,645.77L387.6,636.45L394.4,645.77L401.2,652.3L408,665.35L414.8,670.95L421.6,670.01L428.4,672.81L442,670.95L448.8,669.08L455.6,667.22L462.4,654.16L469.2,649.5L476,643.91L482.8,633.65L489.6,650.43L503.2,635.52L510,650.43L516.8,643.91L523.6,656.03L530.4,662.56L537.2,667.22L550.8,674.68L557.6,675.61L564.4,675.61L571.2,674.68L578,673.74L584.8,667.22L591.6,654.16L598.4,648.57L605.2,641.11L612,628.06L618.8,645.77L625.6,638.31L632.4,626.19L639.2,601.02L646,636.45L652.8,650.43L659.6,607.55L666.4,639.25L673.2,632.72L680,648.57L686.8,644.84L693.6,659.76L707.2,679.34L714,679.34L720.8,679.34L727.6,674.68L734.4,665.35L741.2,657.89L748,654.16L754.8,649.5L761.6,639.25L768.4,650.43L775.2,644.84L782,655.1L788.8,651.37L795.6,660.69L802.4,666.28L809.2,665.35L816,673.74L822.8,675.61L829.6,675.61L836.4,667.22L843.2,671.88L850,679.34L856.8,673.74L863.6,666.28L870.4,627.13L877.2,645.77L884,625.26L890.8,647.64L897.6,595.42L904.4,594.49L911.2,601.02L918,597.29L924.8,586.1L931.6,628.06L938.4,602.88L945.2,593.56L958.8,659.76L965.6,660.69L972.4,663.49L979.2,660.69L986,666.28L992.8,674.68L999.6,673.74L1006.4,673.74L1013.2,667.22L1020,664.42L1026.8,650.43L1033.6,640.18L1040.4,632.72L1047.2,634.58L1054,627.13L1060.8,622.46L1067.6,606.61L1074.4,643.91L1081.2,613.14L1088,602.88L1094.8,644.84L1101.6,613.14L1108.4,612.21L1115.2,604.75L1122,623.4L1128.8,654.16L1135.6,625.26L1142.4,640.18L1149.2,643.91L1156,654.16L1162.8,660.69L1169.6,662.56L1176.4,675.61L1183.2,671.88L1190,672.81L1196.8,670.01L1203.6,668.15L1210.4,660.69L1217.2,657.89L1224,664.42L1230.8,654.16L1237.6,653.23L1244.4,660.69L1251.2,652.3L1258,649.5L1264.8,651.37L1271.6,654.16L1278.4,655.1L1285.2,658.83L1292,663.49L1298.8,663.49L1305.6,669.08L1312.4,672.81L1319.2,675.61L1326,678.41L1332.8,678.41L1339.6,679.34L1346.4,676.54L1353.2,675.61L1360,673.74" style="vector-effect: none; fill: none; stroke: rgb(1, 42, 74); stroke-opacity: 1; stroke-width: 2px; opacity: 1;"/></g><g class="points"/><g class="text"/></g></g></g></g><path class="xlines-above crisp" d="M0,0" style="fill: none;"/><path class="ylines-above crisp" d="M0,0" style="fill: none;"/><g class="overlines-above"/><g class="xaxislayer-above"><g class="xtick"><text text-anchor="middle" x="0" y="833" transform="translate(80,0)" style="font-family: 'Open Sans', verdana, arial, sans-serif; font-size: 12px; fill: rgb(42, 63, 95); fill-opacity: 1; white-space: pre; opacity: 1;">−0.01</text></g><g class="xtick"><text text-anchor="middle" x="0" y="833" style="font-family: 'Open Sans', verdana, arial, sans-serif; font-size: 12px; fill: rgb(42, 63, 95); fill-opacity: 1; white-space: pre; opacity: 1;" transform="translate(420,0)">−0.005</text></g><g class="xtick"><text text-anchor="middle" x="0" y="833" style="font-family: 'Open Sans', verdana, arial, sans-serif; font-size: 12px; fill: rgb(42, 63, 95); fill-opacity: 1; white-space: pre; opacity: 1;" transform="translate(760,0)">0</text></g><g class="xtick"><text text-anchor="middle" x="0" y="833" style="font-family: 'Open Sans', verdana, arial, sans-serif; font-size: 12px; fill: rgb(42, 63, 95); fill-opacity: 1; white-space: pre; opacity: 1;" transform="translate(1100,0)">0.005</text></g><g class="xtick"><text text-anchor="middle" x="0" y="833" style="font-family: 'Open Sans', verdana, arial, sans-serif; font-size: 12px; fill: rgb(42, 63, 95); fill-opacity: 1; white-space: pre; opacity: 1;" transform="translate(1440,0)">0.01</text></g></g><g class="yaxislayer-above"><g class="ytick"><text text-anchor="end" x="79" y="4.199999999999999" transform="translate(0,788.66)" style="font-family: 'Open Sans', verdana, arial, sans-serif; font-size: 12px; fill: rgb(42, 63, 95); fill-opacity: 1; white-space: pre; opacity: 1;">0</text></g><g class="ytick"><text text-anchor="end" x="79" y="4.199999999999999" style="font-family: 'Open Sans', verdana, arial, sans-serif; font-size: 12px; fill: rgb(42, 63, 95); fill-opacity: 1; white-space: pre; opacity: 1;" transform="translate(0,695.42)">5μ</text></g><g class="ytick"><text text-anchor="end" x="79" y="4.199999999999999" style="font-family: 'Open Sans', verdana, arial, sans-serif; font-size: 12px; fill: rgb(42, 63, 95); fill-opacity: 1; white-space: pre; opacity: 1;" transform="translate(0,602.19)">10μ</text></g><g class="ytick"><text text-anchor="end" x="79" y="4.199999999999999" style="font-family: 'Open Sans', verdana, arial, sans-serif; font-size: 12px; fill: rgb(42, 63, 95); fill-opacity: 1; white-space: pre; opacity: 1;" transform="translate(0,508.95)">15μ</text></g><g class="ytick"><text text-anchor="end" x="79" y="4.199999999999999" style="font-family: 'Open Sans', verdana, arial, sans-serif; font-size: 12px; fill: rgb(42, 63, 95); fill-opacity: 1; white-space: pre; opacity: 1;" transform="translate(0,415.71)">20μ</text></g><g class="ytick"><text text-anchor="end" x="79" y="4.199999999999999" style="font-family: 'Open Sans', verdana, arial, sans-serif; font-size: 12px; fill: rgb(42, 63, 95); fill-opacity: 1; white-space: pre; opacity: 1;" transform="translate(0,322.47)">25μ</text></g><g class="ytick"><text text-anchor="end" x="79" y="4.199999999999999" style="font-family: 'Open Sans', verdana, arial, sans-serif; font-size: 12px; fill: rgb(42, 63, 95); fill-opacity: 1; white-space: pre; opacity: 1;" transform="translate(0,229.24)">30μ</text></g><g class="ytick"><text text-anchor="end" x="79" y="4.199999999999999" style="font-family: 'Open Sans', verdana, arial, sans-serif; font-size: 12px; fill: rgb(42, 63, 95); fill-opacity: 1; white-space: pre; opacity: 1;" transform="translate(0,136)">35μ</text></g></g><g class="overaxes-above"/></g></g><g class="polarlayer"/><g class="smithlayer"/><g class="ternarylayer"/><g class="geolayer"/><g class="funnelarealayer"/><g class="pielayer"/><g class="iciclelayer"/><g class="treemaplayer"/><g class="sunburstlayer"/><g class="glimages"/><defs id="topdefs-85ec0c"><g class="clips"/><clipPath id="legend85ec0c"><rect width="121" height="219" x="0" y="0"/></clipPath></defs><g class="layer-above"><g class="imagelayer"/><g class="shapelayer"/></g><g class="infolayer"><g class="legend" pointer-events="all" transform="translate(1467.2,100)"><rect class="bg" shape-rendering="crispEdges" width="121" height="219" x="0" y="0" style="stroke: rgb(68, 68, 68); stroke-opacity: 1; fill: rgb(255, 255, 255); fill-opacity: 1; stroke-width: 0px;"/><g class="scrollbox" transform="" clip-path="url(#legend85ec0c)"><text class="legendtitletext" text-anchor="start" x="2" y="18.2" style="font-family: 'Open Sans', verdana, arial, sans-serif; font-size: 14px; fill: rgb(42, 63, 95); fill-opacity: 1; white-space: pre;">訊號</text><g class="groups"><g class="traces" transform="translate(0,32.7)" style="opacity: 1;"><text class="legendtext" text-anchor="start" x="40" y="4.680000000000001" style="font-family: 'Open Sans', verdana, arial, sans-serif; font-size: 12px; fill: rgb(42, 63, 95); fill-opacity: 1; white-space: pre;">0.0°(318)</text><g class="layers" style="opacity: 0.8;"><g class="legendfill"/><g class="legendlines"><path class="js-line" d="M5,0h30" style="fill: none; stroke: rgb(169, 214, 229); stroke-opacity: 1; stroke-width: 2px;"/></g><g class="legendsymbols"><g class="legendpoints"/></g></g><rect class="legendtoggle" x="0" y="-9.5" width="115.171875" height="19" style="fill: rgb(0, 0, 0); fill-opacity: 0;"/></g><g class="traces" transform="translate(0,51.7)" style="opacity: 1;"><text class="legendtext" text-anchor="start" x="40" y="4.680000000000001" style="font-family: 'Open Sans', verdana, arial, sans-serif; font-size: 12px; fill: rgb(42, 63, 95); fill-opacity: 1; white-space: pre;">45.0°(347)</text><g class="layers" style="opacity: 0.8;"><g class="legendfill"/><g class="legendlines"><path class="js-line" d="M5,0h30" style="fill: none; stroke: rgb(137, 194, 217); stroke-opacity: 1; stroke-width: 2px;"/></g><g class="legendsymbols"><g class="legendpoints"/></g></g><rect class="legendtoggle" x="0" y="-9.5" width="115.171875" height="19" style="fill: rgb(0, 0, 0); fill-opacity: 0;"/></g><g class="traces" transform="translate(0,70.7)" style="opacity: 1;"><text class="legendtext" text-anchor="start" x="40" y="4.680000000000001" style="font-family: 'Open Sans', verdana, arial, sans-serif; font-size: 12px; fill: rgb(42, 63, 95); fill-opacity: 1; white-space: pre;">58.7°(434)</text><g class="layers" style="opacity: 0.8;"><g class="legendfill"/><g class="legendlines"><path class="js-line" d="M5,0h30" style="fill: none; stroke: rgb(137, 194, 217); stroke-opacity: 1; stroke-width: 2px;"/></g><g class="legendsymbols"><g class="legendpoints"/></g></g><rect class="legendtoggle" x="0" y="-9.5" width="115.171875" height="19" style="fill: rgb(0, 0, 0); fill-opacity: 0;"/></g><g class="traces" transform="translate(0,89.7)" style="opacity: 1;"><text class="legendtext" text-anchor="start" x="40" y="4.680000000000001" style="font-family: 'Open Sans', verdana, arial, sans-serif; font-size: 12px; fill: rgb(42, 63, 95); fill-opacity: 1; white-space: pre;">90.0°(355)</text><g class="layers" style="opacity: 0.8;"><g class="legendfill"/><g class="legendlines"><path class="js-line" d="M5,0h30" style="fill: none; stroke: rgb(97, 165, 194); stroke-opacity: 1; stroke-width: 2px;"/></g><g class="legendsymbols"><g class="legendpoints"/></g></g><rect class="legendtoggle" x="0" y="-9.5" width="115.171875" height="19" style="fill: rgb(0, 0, 0); fill-opacity: 0;"/></g><g class="traces" transform="translate(0,108.7)" style="opacity: 1;"><text class="legendtext" text-anchor="start" x="40" y="4.680000000000001" style="font-family: 'Open Sans', verdana, arial, sans-serif; font-size: 12px; fill: rgb(42, 63, 95); fill-opacity: 1; white-space: pre;">135.0°(356)</text><g class="layers" style="opacity: 0.8;"><g class="legendfill"/><g class="legendlines"><path class="js-line" d="M5,0h30" style="fill: none; stroke: rgb(70, 111, 175); stroke-opacity: 1; stroke-width: 2px;"/></g><g class="legendsymbols"><g class="legendpoints"/></g></g><rect class="legendtoggle" x="0" y="-9.5" width="115.171875" height="19" style="fill: rgb(0, 0, 0); fill-opacity: 0;"/></g><g class="traces" transform="translate(0,127.7)" style="opacity: 1;"><text class="legendtext" text-anchor="start" x="40" y="4.680000000000001" style="font-family: 'Open Sans', verdana, arial, sans-serif; font-size: 12px; fill: rgb(42, 63, 95); fill-opacity: 1; white-space: pre;">140.7°(436)</text><g class="layers" style="opacity: 0.8;"><g class="legendfill"/><g class="legendlines"><path class="js-line" d="M5,0h30" style="fill: none; stroke: rgb(44, 125, 160); stroke-opacity: 1; stroke-width: 2px;"/></g><g class="legendsymbols"><g class="legendpoints"/></g></g><rect class="legendtoggle" x="0" y="-9.5" width="115.171875" height="19" style="fill: rgb(0, 0, 0); fill-opacity: 0;"/></g><g class="traces" transform="translate(0,146.7)" style="opacity: 1;"><text class="legendtext" text-anchor="start" x="40" y="4.680000000000001" style="font-family: 'Open Sans', verdana, arial, sans-serif; font-size: 12px; fill: rgb(42, 63, 95); fill-opacity: 1; white-space: pre;">180.0°(323)</text><g class="layers" style="opacity: 0.8;"><g class="legendfill"/><g class="legendlines"><path class="js-line" d="M5,0h30" style="fill: none; stroke: rgb(42, 111, 151); stroke-opacity: 1; stroke-width: 2px;"/></g><g class="legendsymbols"><g class="legendpoints"/></g></g><rect class="legendtoggle" x="0" y="-9.5" width="115.171875" height="19" style="fill: rgb(0, 0, 0); fill-opacity: 0;"/></g><g class="traces" transform="translate(0,165.7)" style="opacity: 1;"><text class="legendtext" text-anchor="start" x="40" y="4.680000000000001" style="font-family: 'Open Sans', verdana, arial, sans-serif; font-size: 12px; fill: rgb(42, 63, 95); fill-opacity: 1; white-space: pre;">225.0°(350)</text><g class="layers" style="opacity: 0.8;"><g class="legendfill"/><g class="legendlines"><path class="js-line" d="M5,0h30" style="fill: none; stroke: rgb(1, 79, 134); stroke-opacity: 1; stroke-width: 2px;"/></g><g class="legendsymbols"><g class="legendpoints"/></g></g><rect class="legendtoggle" x="0" y="-9.5" width="115.171875" height="19" style="fill: rgb(0, 0, 0); fill-opacity: 0;"/></g><g class="traces" transform="translate(0,184.7)" style="opacity: 1;"><text class="legendtext" text-anchor="start" x="40" y="4.680000000000001" style="font-family: 'Open Sans', verdana, arial, sans-serif; font-size: 12px; fill: rgb(42, 63, 95); fill-opacity: 1; white-space: pre;">270.0°(343)</text><g class="layers" style="opacity: 0.8;"><g class="legendfill"/><g class="legendlines"><path class="js-line" d="M5,0h30" style="fill: none; stroke: rgb(1, 73, 124); stroke-opacity: 1; stroke-width: 2px;"/></g><g class="legendsymbols"><g class="legendpoints"/></g></g><rect class="legendtoggle" x="0" y="-9.5" width="115.171875" height="19" style="fill: rgb(0, 0, 0); fill-opacity: 0;"/></g><g class="traces" transform="translate(0,203.7)" style="opacity: 1;"><text class="legendtext" text-anchor="start" x="40" y="4.680000000000001" style="font-family: 'Open Sans', verdana, arial, sans-serif; font-size: 12px; fill: rgb(42, 63, 95); fill-opacity: 1; white-space: pre;">315.0°(342)</text><g class="layers" style="opacity: 0.8;"><g class="legendfill"/><g class="legendlines"><path class="js-line" d="M5,0h30" style="fill: none; stroke: rgb(1, 42, 74); stroke-opacity: 1; stroke-width: 2px;"/></g><g class="legendsymbols"><g class="legendpoints"/></g></g><rect class="legendtoggle" x="0" y="-9.5" width="115.171875" height="19" style="fill: rgb(0, 0, 0); fill-opacity: 0;"/></g></g></g><rect class="scrollbar" rx="20" ry="3" width="0" height="0" x="0" y="0" style="fill: rgb(128, 139, 164); fill-opacity: 1;"/></g><g class="g-gtitle"><text class="gtitle" x="80" y="50" text-anchor="start" dy="0em" style="opacity: 1; font-family: 'Open Sans', verdana, arial, sans-serif; font-size: 17px; fill: rgb(42, 63, 95); fill-opacity: 1; white-space: pre;"><tspan class="line" dy="0em" x="80" y="50"><tspan style="font-weight:bold">原始數據預覽</tspan></tspan><tspan class="line" dy="1.3em" x="80" y="50">​<tspan style="font-size:70%" dy="0.3em">003-2 - 60mT - IVB</tspan><tspan dy="-0.21em">​</tspan></tspan></text></g><g class="g-xtitle"><text class="xtitle" x="760" y="859.8" text-anchor="middle" style="opacity: 1; font-family: 'Open Sans', verdana, arial, sans-serif; font-size: 14px; fill: rgb(42, 63, 95); fill-opacity: 1; white-space: pre;">磁場位置 (物理單位)</text></g><g class="g-ytitle"><text class="ytitle" transform="rotate(-90,36.6625,460)" x="36.6625" y="460" text-anchor="middle" style="opacity: 1; font-family: 'Open Sans', verdana, arial, sans-serif; font-size: 14px; fill: rgb(42, 63, 95); fill-opacity: 1; white-space: pre;">訊號振幅 (Ic)</text></g></g></svg>