<svg class="main-svg" xmlns="http://www.w3.org/2000/svg" xmlns:xlink="http://www.w3.org/1999/xlink" width="1600" height="900" style="" viewBox="0 0 1600 900"><rect x="0" y="0" width="1600" height="900" style="fill: rgb(255, 255, 255); fill-opacity: 1;"/><defs id="defs-72a0e2"><g class="clips"><clipPath id="clip72a0e2xyplot" class="plotclip"><rect width="1338" height="720"/></clipPath><clipPath class="axesclip" id="clip72a0e2x"><rect x="80" y="0" width="1338" height="900"/></clipPath><clipPath class="axesclip" id="clip72a0e2y"><rect x="0" y="100" width="1600" height="720"/></clipPath><clipPath class="axesclip" id="clip72a0e2xy"><rect x="80" y="100" width="1338" height="720"/></clipPath></g><g class="gradients"/><g class="patterns"/></defs><g class="bglayer"/><g class="layer-below"><g class="imagelayer"/><g class="shapelayer"/></g><g class="cartesianlayer"><g class="subplot xy"><g class="layer-subplot"><g class="shapelayer"/><g class="imagelayer"/></g><g class="minor-gridlayer"><g class="x"/><g class="y"/></g><g class="gridlayer"><g class="x"><path class="xgrid crisp" transform="translate(213.8,0)" d="M0,100v720" style="stroke: rgb(235, 240, 248); stroke-opacity: 1; stroke-width: 1px;"/><path class="xgrid crisp" transform="translate(392.2,0)" d="M0,100v720" style="stroke: rgb(235, 240, 248); stroke-opacity: 1; stroke-width: 1px;"/><path class="xgrid crisp" transform="translate(570.6,0)" d="M0,100v720" style="stroke: rgb(235, 240, 248); stroke-opacity: 1; stroke-width: 1px;"/><path class="xgrid crisp" transform="translate(927.4,0)" d="M0,100v720" style="stroke: rgb(235, 240, 248); stroke-opacity: 1; stroke-width: 1px;"/><path class="xgrid crisp" transform="translate(1105.8,0)" d="M0,100v720" style="stroke: rgb(235, 240, 248); stroke-opacity: 1; stroke-width: 1px;"/><path class="xgrid crisp" transform="translate(1284.2,0)" d="M0,100v720" style="stroke: rgb(235, 240, 248); stroke-opacity: 1; stroke-width: 1px;"/></g><g class="y"><path class="ygrid crisp" transform="translate(0,691.78)" d="M80,0h1338" style="stroke: rgb(235, 240, 248); stroke-opacity: 1; stroke-width: 1px;"/><path class="ygrid crisp" transform="translate(0,597.5799999999999)" d="M80,0h1338" style="stroke: rgb(235, 240, 248); stroke-opacity: 1; stroke-width: 1px;"/><path class="ygrid crisp" transform="translate(0,503.38)" d="M80,0h1338" style="stroke: rgb(235, 240, 248); stroke-opacity: 1; stroke-width: 1px;"/><path class="ygrid crisp" transform="translate(0,409.18)" d="M80,0h1338" style="stroke: rgb(235, 240, 248); stroke-opacity: 1; stroke-width: 1px;"/><path class="ygrid crisp" transform="translate(0,314.98)" d="M80,0h1338" style="stroke: rgb(235, 240, 248); stroke-opacity: 1; stroke-width: 1px;"/><path class="ygrid crisp" transform="translate(0,220.78)" d="M80,0h1338" style="stroke: rgb(235, 240, 248); stroke-opacity: 1; stroke-width: 1px;"/><path class="ygrid crisp" transform="translate(0,126.58)" d="M80,0h1338" style="stroke: rgb(235, 240, 248); stroke-opacity: 1; stroke-width: 1px;"/></g></g><g class="zerolinelayer"><path class="xzl zl crisp" transform="translate(749,0)" d="M0,100v720" style="stroke: rgb(235, 240, 248); stroke-opacity: 1; stroke-width: 2px;"/><path class="yzl zl crisp" transform="translate(0,785.98)" d="M80,0h1338" style="stroke: rgb(235, 240, 248); stroke-opacity: 1; stroke-width: 2px;"/></g><g class="layer-between"><g class="shapelayer"/><g class="imagelayer"/></g><path class="xlines-below"/><path class="ylines-below"/><g class="overlines-below"/><g class="xaxislayer-below"/><g class="yaxislayer-below"/><g class="overaxes-below"/><g class="overplot"><g class="xy" transform="translate(80,100)" clip-path="url(#clip72a0e2xyplot)"><g class="scatterlayer mlayer"><g class="trace scatter trace947269" style="stroke-miterlimit: 2; opacity: 0.8;"><g class="fills"/><g class="errorbars"/><g class="lines"><path class="js-line" d="M0,655.83L8.92,655.83L17.84,659.6L26.76,659.6L35.68,663.37L44.6,667.14L53.52,667.14L71.36,667.14L80.28,663.37L89.2,659.6L98.12,663.37L107.04,659.6L115.96,652.07L124.88,644.53L133.8,633.23L142.72,644.53L151.64,648.3L160.56,625.69L169.48,636.99L178.4,625.69L187.32,636.99L196.24,636.99L205.16,655.83L214.08,640.76L223,644.53L231.92,640.76L240.84,648.3L258.68,655.83L267.6,652.07L276.52,644.53L285.44,663.37L294.36,629.46L303.28,633.23L312.2,625.69L321.12,648.3L330.04,652.07L338.96,633.23L347.88,576.71L356.8,640.76L365.72,542.79L374.64,636.99L383.56,584.24L392.48,625.69L401.4,554.1L410.32,614.39L419.24,633.23L428.16,629.46L437.08,614.39L446,629.46L454.92,614.39L463.84,603.08L472.76,595.55L481.68,618.15L490.6,508.88L499.52,512.65L508.44,625.69L517.36,636.99L526.28,318.6L535.2,299.76L553.04,280.92L561.96,252.66L570.88,252.66L579.8,177.3L606.56,177.3L615.48,130.2L624.4,158.46L633.32,139.62L642.24,149.04L651.16,149.04L660.08,167.88L669,167.88L677.92,214.98L686.84,214.98L695.76,186.72L704.68,205.56L713.6,214.98L722.52,252.66L731.44,290.34L740.36,271.5L749.28,384.54L758.2,450.48L776.04,488.16L784.96,584.24L793.88,565.4L802.8,591.78L811.72,595.55L820.64,618.15L829.56,618.15L838.48,621.92L856.32,621.92L865.24,606.85L874.16,603.08L883.08,603.08L892,584.24L900.92,557.87L909.84,610.62L918.76,629.46L927.68,576.71L936.6,542.79L945.52,580.47L954.44,580.47L963.36,584.24L972.28,603.08L981.2,629.46L990.12,629.46L999.04,629.46L1007.96,640.76L1016.88,652.07L1025.8,652.07L1034.72,655.83L1043.64,655.83L1052.56,652.07L1061.48,655.83L1070.4,640.76L1079.32,652.07L1088.24,644.53L1097.16,625.69L1106.08,636.99L1115,625.69L1123.92,644.53L1132.84,625.69L1141.76,640.76L1150.68,629.46L1159.6,655.83L1168.52,659.6L1177.44,640.76L1186.36,640.76L1213.12,663.37L1222.04,667.14L1230.96,670.91L1239.88,670.91L1248.8,667.14L1257.72,667.14L1266.64,663.37L1275.56,663.37L1284.48,659.6L1293.4,659.6L1302.32,663.37L1311.24,659.6L1320.16,659.6L1329.08,663.37L1338,659.6" style="vector-effect: none; fill: none; stroke: rgb(169, 214, 229); stroke-opacity: 1; stroke-width: 2px; opacity: 1;"/></g><g class="points"/><g class="text"/></g><g class="trace scatter trace3641e5" style="stroke-miterlimit: 2; opacity: 0.8;"><g class="fills"/><g class="errorbars"/><g class="lines"><path class="js-line" d="M0,644.53L8.92,648.3L17.84,655.83L35.68,655.83L44.6,663.37L53.52,663.37L62.44,670.91L71.36,670.91L80.28,667.14L89.2,667.14L98.12,659.6L107.04,663.37L115.96,655.83L124.88,648.3L133.8,648.3L142.72,655.83L151.64,629.46L160.56,618.15L169.48,636.99L178.4,614.39L187.32,636.99L196.24,621.92L205.16,625.69L214.08,629.46L223,636.99L231.92,640.76L240.84,648.3L249.76,644.53L258.68,655.83L267.6,655.83L276.52,648.3L294.36,648.3L303.28,640.76L312.2,614.39L321.12,591.78L330.04,588.01L338.96,636.99L347.88,614.39L356.8,595.55L365.72,542.79L374.64,546.56L383.56,535.26L392.48,561.63L401.4,542.79L410.32,539.03L419.24,603.08L428.16,576.71L437.08,599.31L446,644.53L454.92,618.15L463.84,618.15L472.76,614.39L481.68,618.15L490.6,644.53L499.52,554.1L508.44,478.74L517.36,459.9L526.28,450.48L535.2,412.8L553.04,337.44L561.96,328.02L570.88,233.82L579.8,186.72L588.72,139.62L597.64,224.4L606.56,243.24L615.48,243.24L624.4,120.78L633.32,45.42L642.24,101.94L651.16,177.3L660.08,130.2L669,36L677.92,64.26L686.84,224.4L695.76,83.1L704.68,92.52L713.6,271.5L722.52,139.62L731.44,233.82L740.36,280.92L749.28,205.56L758.2,403.38L767.12,299.76L776.04,618.15L784.96,393.96L793.88,505.11L802.8,542.79L811.72,599.31L820.64,591.78L829.56,621.92L838.48,618.15L847.4,629.46L856.32,618.15L865.24,610.62L874.16,606.85L883.08,595.55L892,584.24L900.92,610.62L909.84,580.47L918.76,565.4L927.68,625.69L936.6,625.69L945.52,621.92L954.44,629.46L963.36,554.1L972.28,572.94L981.2,557.87L990.12,618.15L999.04,591.78L1007.96,625.69L1016.88,614.39L1025.8,636.99L1034.72,640.76L1043.64,648.3L1052.56,652.07L1061.48,648.3L1070.4,652.07L1079.32,648.3L1088.24,648.3L1097.16,644.53L1106.08,633.23L1115,625.69L1123.92,644.53L1132.84,629.46L1141.76,618.15L1150.68,629.46L1159.6,614.39L1168.52,625.69L1177.44,621.92L1186.36,640.76L1195.28,636.99L1204.2,648.3L1213.12,659.6L1222.04,652.07L1230.96,659.6L1239.88,670.91L1248.8,667.14L1257.72,667.14L1266.64,663.37L1275.56,667.14L1302.32,655.83L1311.24,655.83L1320.16,652.07L1329.08,655.83L1338,659.6" style="vector-effect: none; fill: none; stroke: rgb(169, 214, 229); stroke-opacity: 1; stroke-width: 2px; opacity: 1;"/></g><g class="points"/><g class="text"/></g><g class="trace scatter trace9639b2" style="stroke-miterlimit: 2; opacity: 0.8;"><g class="fills"/><g class="errorbars"/><g class="lines"><path class="js-line" d="M0,644.53L8.92,648.3L17.84,655.83L26.76,652.07L35.68,652.07L44.6,659.6L53.52,663.37L71.36,670.91L80.28,670.91L89.2,670.91L98.12,667.14L107.04,667.14L115.96,655.83L124.88,652.07L133.8,644.53L142.72,659.6L151.64,636.99L160.56,625.69L169.48,621.92L178.4,621.92L187.32,629.46L196.24,614.39L205.16,618.15L214.08,629.46L223,629.46L231.92,640.76L240.84,636.99L249.76,648.3L258.68,655.83L267.6,655.83L276.52,659.6L294.36,652.07L303.28,640.76L312.2,621.92L321.12,599.31L330.04,591.78L338.96,588.01L347.88,576.71L356.8,569.17L365.72,557.87L374.64,550.33L383.56,542.79L392.48,527.72L401.4,520.19L410.32,550.33L419.24,546.56L428.16,531.49L437.08,565.4L446,554.1L454.92,584.24L463.84,603.08L472.76,614.39L481.68,610.62L490.6,621.92L499.52,610.62L508.44,599.31L517.36,591.78L526.28,550.33L535.2,535.26L553.04,497.58L561.96,441.06L570.88,375.12L579.8,318.6L588.72,299.76L597.64,375.12L606.56,337.44L615.48,214.98L624.4,299.76L633.32,280.92L642.24,167.88L651.16,196.14L660.08,299.76L669,177.3L677.92,158.46L686.84,328.02L695.76,214.98L704.68,177.3L713.6,356.28L722.52,243.24L731.44,365.7L740.36,346.86L749.28,299.76L758.2,422.22L767.12,375.12L776.04,497.58L784.96,542.79L793.88,572.94L802.8,591.78L811.72,606.85L820.64,603.08L829.56,614.39L838.48,625.69L847.4,621.92L856.32,614.39L865.24,629.46L874.16,599.31L883.08,561.63L900.92,516.42L909.84,542.79L918.76,520.19L927.68,488.16L936.6,535.26L945.52,557.87L954.44,542.79L963.36,531.49L972.28,505.11L981.2,539.03L990.12,565.4L999.04,584.24L1007.96,572.94L1016.88,591.78L1025.8,621.92L1034.72,629.46L1043.64,640.76L1052.56,648.3L1061.48,652.07L1070.4,652.07L1079.32,655.83L1088.24,640.76L1097.16,644.53L1106.08,633.23L1115,636.99L1123.92,621.92L1132.84,625.69L1141.76,636.99L1150.68,633.23L1159.6,625.69L1168.52,633.23L1177.44,652.07L1186.36,636.99L1195.28,633.23L1204.2,644.53L1213.12,667.14L1222.04,655.83L1230.96,659.6L1239.88,667.14L1248.8,670.91L1257.72,667.14L1266.64,667.14L1275.56,667.14L1284.48,663.37L1302.32,655.83L1311.24,655.83L1329.08,648.3L1338,652.07" style="vector-effect: none; fill: none; stroke: rgb(137, 194, 217); stroke-opacity: 1; stroke-width: 2px; opacity: 1;"/></g><g class="points"/><g class="text"/></g><g class="trace scatter trace4b3cc6" style="stroke-miterlimit: 2; opacity: 0.8;"><g class="fills"/><g class="errorbars"/><g class="lines"><path class="js-line" d="M0,644.53L8.92,644.53L17.84,640.76L26.76,644.53L35.68,644.53L53.52,652.07L62.44,652.07L71.36,659.6L80.28,663.37L89.2,663.37L98.12,670.91L107.04,674.67L115.96,670.91L133.8,655.83L142.72,652.07L151.64,644.53L160.56,633.23L187.32,621.92L196.24,614.39L205.16,606.85L214.08,618.15L223,614.39L231.92,618.15L240.84,614.39L249.76,629.46L258.68,629.46L267.6,640.76L276.52,648.3L285.44,652.07L294.36,655.83L303.28,663.37L312.2,659.6L321.12,644.53L330.04,648.3L338.96,614.39L347.88,606.85L356.8,576.71L374.64,554.1L383.56,550.33L392.48,523.95L401.4,505.11L410.32,535.26L419.24,516.42L428.16,488.16L437.08,539.03L446,516.42L454.92,497.58L463.84,542.79L472.76,520.19L481.68,554.1L490.6,584.24L499.52,572.94L508.44,591.78L517.36,606.85L526.28,618.15L553.04,606.85L561.96,595.55L570.88,591.78L579.8,539.03L588.72,523.95L597.64,501.35L615.48,384.54L624.4,384.54L633.32,450.48L642.24,393.96L651.16,309.18L660.08,431.64L669,346.86L677.92,591.78L686.84,431.64L695.76,356.28L704.68,290.34L713.6,412.8L722.52,346.86L731.44,478.74L740.36,412.8L749.28,512.65L758.2,546.56L767.12,572.94L776.04,591.78L784.96,606.85L793.88,599.31L802.8,610.62L811.72,606.85L820.64,618.15L829.56,614.39L838.48,606.85L865.24,572.94L874.16,557.87L883.08,648.3L892,523.95L900.92,488.16L909.84,535.26L918.76,512.65L927.68,469.32L936.6,520.19L945.52,469.32L954.44,535.26L963.36,580.47L972.28,542.79L981.2,527.72L990.12,557.87L999.04,580.47L1007.96,618.15L1016.88,610.62L1025.8,633.23L1034.72,640.76L1043.64,636.99L1052.56,644.53L1061.48,652.07L1070.4,655.83L1079.32,655.83L1088.24,648.3L1097.16,648.3L1106.08,655.83L1115,636.99L1123.92,633.23L1132.84,614.39L1141.76,621.92L1159.6,614.39L1168.52,640.76L1177.44,618.15L1186.36,625.69L1230.96,663.37L1239.88,667.14L1248.8,670.91L1257.72,670.91L1266.64,667.14L1275.56,667.14L1293.4,659.6L1302.32,659.6L1320.16,652.07L1329.08,652.07L1338,648.3" style="vector-effect: none; fill: none; stroke: rgb(137, 194, 217); stroke-opacity: 1; stroke-width: 2px; opacity: 1;"/></g><g class="points"/><g class="text"/></g><g class="trace scatter trace81249c" style="stroke-miterlimit: 2; opacity: 0.8;"><g class="fills"/><g class="errorbars"/><g class="lines"><path class="js-line" d="M0,644.53L8.92,648.3L17.84,644.53L35.68,636.99L44.6,636.99L53.52,640.76L62.44,640.76L80.28,648.3L89.2,655.83L98.12,655.83L107.04,659.6L115.96,667.14L124.88,670.91L133.8,670.91L142.72,667.14L151.64,663.37L160.56,663.37L169.48,644.53L178.4,640.76L187.32,625.69L196.24,618.15L205.16,621.92L214.08,614.39L223,599.31L231.92,599.31L258.68,599.31L267.6,595.55L276.52,606.85L285.44,614.39L294.36,625.69L303.28,640.76L321.12,648.3L330.04,663.37L338.96,663.37L347.88,667.14L356.8,667.14L365.72,655.83L383.56,625.69L392.48,606.85L401.4,599.31L410.32,561.63L419.24,550.33L428.16,531.49L437.08,550.33L446,539.03L463.84,501.35L472.76,539.03L481.68,520.19L490.6,550.33L499.52,535.26L508.44,565.4L517.36,584.24L526.28,572.94L535.2,606.85L544.12,606.85L553.04,618.15L561.96,644.53L570.88,644.53L579.8,640.76L588.72,640.76L597.64,636.99L606.56,629.46L615.48,629.46L624.4,606.85L633.32,569.17L642.24,557.87L651.16,542.79L660.08,516.42L669,625.69L677.92,535.26L686.84,512.65L695.76,535.26L704.68,520.19L713.6,501.35L722.52,539.03L731.44,569.17L740.36,550.33L749.28,576.71L758.2,595.55L767.12,621.92L776.04,629.46L784.96,636.99L793.88,633.23L802.8,636.99L811.72,636.99L829.56,629.46L838.48,606.85L856.32,591.78L865.24,576.71L883.08,539.03L892,569.17L900.92,550.33L909.84,527.72L918.76,554.1L927.68,535.26L936.6,561.63L945.52,542.79L954.44,523.95L963.36,561.63L972.28,576.71L981.2,565.4L990.12,584.24L999.04,618.15L1007.96,614.39L1016.88,633.23L1025.8,648.3L1034.72,644.53L1052.56,659.6L1061.48,655.83L1070.4,659.6L1079.32,648.3L1097.16,640.76L1106.08,629.46L1115,621.92L1123.92,618.15L1132.84,610.62L1141.76,614.39L1150.68,610.62L1159.6,618.15L1168.52,629.46L1177.44,614.39L1195.28,629.46L1204.2,633.23L1213.12,644.53L1222.04,648.3L1230.96,659.6L1239.88,663.37L1248.8,667.14L1257.72,667.14L1266.64,670.91L1275.56,670.91L1293.4,663.37L1302.32,655.83L1320.16,648.3L1329.08,652.07L1338,648.3" style="vector-effect: none; fill: none; stroke: rgb(97, 165, 194); stroke-opacity: 1; stroke-width: 2px; opacity: 1;"/></g><g class="points"/><g class="text"/></g><g class="trace scatter trace1fc999" style="stroke-miterlimit: 2; opacity: 0.8;"><g class="fills"/><g class="errorbars"/><g class="lines"><path class="js-line" d="M0,652.07L17.84,644.53L26.76,652.07L35.68,636.99L44.6,636.99L53.52,636.99L62.44,621.92L71.36,629.46L80.28,629.46L89.2,633.23L98.12,633.23L107.04,636.99L115.96,636.99L124.88,644.53L133.8,648.3L142.72,655.83L151.64,659.6L160.56,667.14L169.48,667.14L187.32,659.6L196.24,648.3L205.16,633.23L214.08,633.23L223,618.15L231.92,614.39L240.84,606.85L249.76,606.85L258.68,591.78L267.6,588.01L276.52,588.01L285.44,633.23L294.36,591.78L303.28,588.01L312.2,599.31L321.12,595.55L330.04,606.85L338.96,621.92L347.88,625.69L356.8,644.53L365.72,648.3L374.64,663.37L383.56,659.6L392.48,667.14L410.32,659.6L419.24,667.14L428.16,663.37L437.08,652.07L454.92,621.92L463.84,599.31L472.76,591.78L481.68,621.92L490.6,572.94L499.52,561.63L508.44,554.1L517.36,572.94L526.28,561.63L535.2,580.47L544.12,569.17L553.04,599.31L561.96,606.85L570.88,629.46L579.8,636.99L588.72,652.07L597.64,655.83L606.56,663.37L624.4,655.83L633.32,655.83L642.24,652.07L651.16,640.76L660.08,636.99L669,621.92L677.92,614.39L686.84,591.78L695.76,621.92L704.68,599.31L713.6,591.78L722.52,603.08L731.44,595.55L740.36,625.69L749.28,618.15L758.2,625.69L767.12,625.69L776.04,640.76L784.96,648.3L793.88,648.3L811.72,655.83L820.64,644.53L829.56,644.53L838.48,640.76L847.4,636.99L856.32,625.69L865.24,614.39L874.16,591.78L883.08,603.08L892,595.55L900.92,591.78L909.84,580.47L918.76,561.63L927.68,580.47L936.6,572.94L945.52,591.78L954.44,603.08L963.36,595.55L972.28,618.15L981.2,633.23L999.04,648.3L1007.96,652.07L1016.88,655.83L1025.8,655.83L1034.72,659.6L1043.64,659.6L1052.56,655.83L1061.48,655.83L1070.4,648.3L1079.32,648.3L1088.24,640.76L1097.16,629.46L1106.08,621.92L1115,621.92L1123.92,629.46L1132.84,599.31L1141.76,606.85L1150.68,603.08L1159.6,610.62L1168.52,603.08L1186.36,625.69L1195.28,618.15L1204.2,636.99L1213.12,648.3L1222.04,652.07L1230.96,659.6L1239.88,670.91L1248.8,670.91L1257.72,667.14L1266.64,667.14L1275.56,663.37L1284.48,663.37L1293.4,659.6L1302.32,659.6L1311.24,655.83L1320.16,644.53L1329.08,640.76L1338,648.3" style="vector-effect: none; fill: none; stroke: rgb(97, 165, 194); stroke-opacity: 1; stroke-width: 2px; opacity: 1;"/></g><g class="points"/><g class="text"/></g><g class="trace scatter trace7141d8" style="stroke-miterlimit: 2; opacity: 0.8;"><g class="fills"/><g class="errorbars"/><g class="lines"><path class="js-line" d="M0,659.6L17.84,652.07L26.76,640.76L44.6,633.23L53.52,633.23L62.44,625.69L71.36,621.92L80.28,614.39L89.2,629.46L98.12,618.15L107.04,614.39L115.96,618.15L124.88,629.46L133.8,614.39L142.72,621.92L160.56,636.99L169.48,640.76L178.4,652.07L187.32,659.6L196.24,663.37L205.16,663.37L214.08,667.14L223,659.6L231.92,655.83L240.84,648.3L249.76,640.76L258.68,636.99L267.6,633.23L276.52,625.69L285.44,621.92L294.36,614.39L303.28,599.31L312.2,591.78L321.12,599.31L330.04,591.78L338.96,591.78L347.88,584.24L365.72,606.85L374.64,614.39L383.56,614.39L392.48,633.23L401.4,636.99L410.32,655.83L419.24,659.6L428.16,667.14L437.08,670.91L446,667.14L454.92,663.37L463.84,670.91L472.76,667.14L481.68,667.14L490.6,663.37L499.52,648.3L508.44,636.99L517.36,633.23L535.2,625.69L544.12,618.15L553.04,625.69L561.96,621.92L570.88,629.46L579.8,644.53L588.72,644.53L597.64,659.6L606.56,663.37L615.48,670.91L624.4,674.67L633.32,670.91L642.24,663.37L651.16,663.37L669,640.76L677.92,636.99L695.76,629.46L704.68,614.39L713.6,625.69L722.52,625.69L731.44,621.92L740.36,625.69L758.2,625.69L767.12,633.23L776.04,644.53L784.96,652.07L793.88,652.07L802.8,659.6L811.72,663.37L820.64,659.6L829.56,667.14L838.48,667.14L847.4,659.6L856.32,655.83L865.24,644.53L874.16,640.76L883.08,633.23L892,629.46L900.92,625.69L909.84,644.53L918.76,648.3L927.68,640.76L936.6,629.46L945.52,633.23L972.28,655.83L981.2,655.83L990.12,663.37L999.04,667.14L1016.88,659.6L1025.8,667.14L1070.4,648.3L1079.32,633.23L1097.16,625.69L1106.08,629.46L1115,625.69L1123.92,644.53L1132.84,614.39L1141.76,621.92L1150.68,618.15L1159.6,625.69L1168.52,629.46L1177.44,629.46L1195.28,659.6L1204.2,655.83L1213.12,670.91L1222.04,667.14L1230.96,670.91L1239.88,667.14L1257.72,667.14L1266.64,663.37L1275.56,667.14L1284.48,655.83L1311.24,644.53L1320.16,633.23L1329.08,640.76L1338,636.99" style="vector-effect: none; fill: none; stroke: rgb(70, 111, 175); stroke-opacity: 1; stroke-width: 2px; opacity: 1;"/></g><g class="points"/><g class="text"/></g><g class="trace scatter trace12acc1" style="stroke-miterlimit: 2; opacity: 0.8;"><g class="fills"/><g class="errorbars"/><g class="lines"><path class="js-line" d="M0,662.43L8.92,663.37L17.84,658.66L26.76,649.24L35.68,642.65L53.52,628.52L62.44,623.81L71.36,621.92L80.28,611.56L89.2,601.2L98.12,609.68L107.04,600.26L115.96,588.95L124.88,604.02L133.8,587.07L142.72,598.37L151.64,598.37L160.56,591.78L169.48,608.73L178.4,609.68L187.32,607.79L196.24,622.86L205.16,629.46L214.08,638.88L223,643.59L231.92,651.12L240.84,651.12L249.76,665.25L258.68,666.2L267.6,668.08L276.52,661.49L285.44,658.66L294.36,652.07L312.2,628.52L321.12,605.91L330.04,631.34L338.96,619.1L347.88,588.95L356.8,616.27L365.72,599.31L374.64,596.49L383.56,608.73L392.48,600.26L401.4,608.73L410.32,619.1L419.24,614.39L428.16,630.4L437.08,644.53L446,654.89L454.92,667.14L463.84,673.73L472.76,676.56L481.68,673.73L499.52,671.85L508.44,666.2L526.28,660.54L535.2,646.41L544.12,653.01L553.04,649.24L561.96,642.65L570.88,652.07L579.8,646.41L588.72,654.89L597.64,660.54L606.56,665.25L615.48,669.02L624.4,674.67L633.32,673.73L642.24,675.62L651.16,677.5L660.08,673.73L669,669.02L677.92,647.36L695.76,628.52L704.68,638.88L713.6,633.23L722.52,631.34L731.44,634.17L740.36,620.04L749.28,636.99L758.2,626.63L767.12,640.76L776.04,651.12L784.96,657.72L793.88,662.43L811.72,669.96L820.64,675.62L838.48,673.73L847.4,675.62L856.32,670.91L865.24,667.14L874.16,665.25L883.08,660.54L892,655.83L900.92,648.3L909.84,656.78L918.76,650.18L927.68,655.83L936.6,653.01L945.52,658.66L954.44,660.54L963.36,659.6L972.28,664.31L981.2,667.14L990.12,670.91L999.04,672.79L1007.96,670.91L1016.88,673.73L1025.8,671.85L1034.72,669.02L1043.64,668.08L1052.56,656.78L1061.48,651.12L1070.4,655.83L1079.32,648.3L1088.24,642.65L1097.16,630.4L1106.08,643.59L1115,653.95L1123.92,617.21L1132.84,639.82L1141.76,625.69L1150.68,642.65L1159.6,653.95L1168.52,657.72L1177.44,669.02L1186.36,671.85L1195.28,673.73L1204.2,671.85L1213.12,669.96L1222.04,673.73L1230.96,671.85L1239.88,670.91L1257.72,667.14L1266.64,664.31L1275.56,659.6L1284.48,638.88L1293.4,632.28L1302.32,614.39L1311.24,635.11L1320.16,624.75L1329.08,611.56L1338,625.69" style="vector-effect: none; fill: none; stroke: rgb(70, 111, 175); stroke-opacity: 1; stroke-width: 2px; opacity: 1;"/></g><g class="points"/><g class="text"/></g><g class="trace scatter tracea34768" style="stroke-miterlimit: 2; opacity: 0.8;"><g class="fills"/><g class="errorbars"/><g class="lines"><path class="js-line" d="M0,648.3L8.92,648.3L17.84,656.59L26.76,653.57L35.68,659.6L53.52,653.57L62.44,648.3L80.28,638.5L89.2,633.98L98.12,627.95L107.04,616.65L115.96,616.65L124.88,611.37L133.8,597.81L142.72,606.85L151.64,592.53L160.56,594.04L169.48,597.05L178.4,582.74L187.32,597.81L196.24,589.52L205.16,587.26L214.08,599.31L223,606.85L231.92,607.6L249.76,618.15L258.68,617.4L276.52,634.73L285.44,643.78L294.36,649.05L303.28,656.59L321.12,667.14L330.04,663.37L338.96,659.6L347.88,654.33L356.8,646.79L365.72,654.33L374.64,648.3L383.56,634.73L392.48,644.53L401.4,636.99L410.32,615.89L419.24,640.01L428.16,624.94L437.08,641.52L446,634.73L454.92,648.3L463.84,655.83L472.76,661.86L481.68,666.38L490.6,673.92L499.52,674.67L508.44,673.92L517.36,671.66L526.28,664.88L535.2,661.11L544.12,643.78L553.04,650.56L561.96,667.89L570.88,630.97L579.8,645.28L588.72,633.23L597.64,647.54L606.56,633.23L615.48,649.05L624.4,656.59L633.32,661.11L642.24,665.63L651.16,668.65L660.08,674.67L669,676.18L686.84,678.44L695.76,674.67L704.68,676.94L713.6,676.18L722.52,674.67L731.44,670.15L740.36,659.6L749.28,655.83L758.2,658.1L767.12,656.59L776.04,652.07L784.96,665.63L793.88,662.62L802.8,667.14L820.64,672.41L829.56,676.94L847.4,679.95L856.32,679.2L865.24,677.69L874.16,673.92L892,670.15L900.92,667.89L918.76,659.6L927.68,664.12L936.6,660.36L945.52,664.12L954.44,659.6L963.36,663.37L972.28,658.85L981.2,663.37L990.12,667.14L999.04,674.67L1016.88,677.69L1025.8,676.18L1034.72,676.94L1043.64,675.43L1052.56,675.43L1061.48,670.91L1070.4,671.66L1079.32,669.4L1097.16,664.12L1106.08,659.6L1115,655.08L1123.92,660.36L1132.84,655.08L1141.76,660.36L1150.68,656.59L1159.6,664.12L1168.52,665.63L1177.44,672.41L1186.36,670.91L1195.28,672.41L1204.2,671.66L1213.12,668.65L1230.96,673.92L1239.88,675.43L1248.8,674.67L1257.72,672.41L1266.64,664.88L1275.56,661.11L1284.48,656.59L1293.4,648.3L1302.32,640.76L1311.24,612.13L1320.16,636.99L1329.08,622.68L1338,643.02" style="vector-effect: none; fill: none; stroke: rgb(44, 125, 160); stroke-opacity: 1; stroke-width: 2px; opacity: 1;"/></g><g class="points"/><g class="text"/></g><g class="trace scatter trace0de086" style="stroke-miterlimit: 2; opacity: 0.8;"><g class="fills"/><g class="errorbars"/><g class="lines"><path class="js-line" d="M0,633.23L17.84,638.88L35.68,640.76L53.52,650.18L71.36,652.07L89.2,653.95L107.04,648.3L124.88,636.99L142.72,627.57L160.56,616.27L178.4,618.15L196.24,606.85L214.08,606.85L231.92,606.85L249.76,650.18L267.6,635.11L285.44,635.11L303.28,646.41L321.12,655.83L338.96,665.25L356.8,663.37L374.64,657.72L392.48,653.95L410.32,648.3L428.16,648.3L446,642.65L463.84,652.07L481.68,659.6L499.52,670.91L535.2,674.67L553.04,665.25L570.88,655.83L588.72,653.95L606.56,650.18L624.4,652.07L642.24,657.72L660.08,667.14L677.92,674.67L695.76,676.56L713.6,680.33L731.44,678.44L749.28,674.67L767.12,672.79L802.8,672.79L820.64,676.56L856.32,680.33L874.16,680.33L892,672.79L909.84,667.14L963.36,667.14L981.2,669.02L1034.72,680.33L1052.56,678.44L1088.24,674.67L1106.08,667.14L1123.92,665.25L1141.76,665.25L1159.6,665.25L1177.44,670.91L1195.28,674.67L1213.12,672.79L1248.8,676.56L1266.64,670.91L1284.48,665.25L1302.32,653.95L1320.16,646.41L1338,642.65" style="vector-effect: none; fill: none; stroke: rgb(44, 125, 160); stroke-opacity: 1; stroke-width: 2px; opacity: 1;"/></g><g class="points"/><g class="text"/></g><g class="trace scatter trace917fc4" style="stroke-miterlimit: 2; opacity: 0.8;"><g class="fills"/><g class="errorbars"/><g class="lines"><path class="js-line" d="M0,640.76L35.68,640.76L53.52,642.65L71.36,646.41L89.2,653.95L107.04,657.72L124.88,663.37L142.72,657.72L160.56,657.72L178.4,644.53L196.24,644.53L214.08,640.76L231.92,640.76L249.76,633.23L267.6,648.3L303.28,659.6L321.12,667.14L338.96,667.14L356.8,665.25L374.64,657.72L392.48,648.3L410.32,640.76L428.16,638.88L446,640.76L463.84,644.53L481.68,652.07L499.52,661.49L517.36,670.91L535.2,674.67L553.04,676.56L570.88,672.79L588.72,669.02L606.56,663.37L642.24,663.37L660.08,670.91L677.92,676.56L695.76,678.44L749.28,672.79L767.12,669.02L820.64,674.67L838.48,678.44L856.32,678.44L874.16,676.56L892,674.67L909.84,678.44L927.68,676.56L945.52,670.91L963.36,669.02L981.2,670.91L1016.88,678.44L1034.72,680.33L1070.4,680.33L1088.24,676.56L1123.92,669.02L1141.76,667.14L1159.6,667.14L1177.44,669.02L1195.28,670.91L1213.12,678.44L1230.96,680.33L1248.8,678.44L1266.64,678.44L1284.48,674.67L1302.32,670.91L1320.16,670.91L1338,667.14" style="vector-effect: none; fill: none; stroke: rgb(42, 111, 151); stroke-opacity: 1; stroke-width: 2px; opacity: 1;"/></g><g class="points"/><g class="text"/></g><g class="trace scatter traceefadf8" style="stroke-miterlimit: 2; opacity: 0.8;"><g class="fills"/><g class="errorbars"/><g class="lines"><path class="js-line" d="M0,624.18L17.84,627.2L35.68,625.69L53.52,631.72L71.36,634.73L89.2,645.28L107.04,651.31L124.88,648.3L142.72,642.27L160.56,642.27L178.4,639.26L196.24,639.26L214.08,643.78L231.92,652.82L249.76,654.33L267.6,657.34L285.44,658.85L303.28,658.85L321.12,654.33L338.96,649.81L356.8,643.78L374.64,645.28L392.48,642.27L410.32,643.78L428.16,646.79L446,655.83L463.84,658.85L499.52,667.89L517.36,667.89L535.2,666.38L553.04,661.86L570.88,661.86L588.72,663.37L606.56,666.38L624.4,672.41L642.24,676.94L660.08,676.94L677.92,676.94L695.76,672.41L713.6,664.88L731.44,661.86L749.28,657.34L767.12,655.83L784.96,661.86L802.8,670.91L820.64,676.94L838.48,679.95L856.32,678.44L874.16,678.44L927.68,669.4L945.52,670.91L963.36,675.43L981.2,676.94L999.04,679.95L1016.88,681.46L1034.72,679.95L1052.56,669.4L1070.4,664.88L1088.24,658.85L1106.08,660.36L1123.92,658.85L1141.76,664.88L1159.6,666.38L1177.44,672.41L1195.28,675.43L1213.12,678.44L1230.96,676.94L1248.8,678.44L1266.64,676.94L1284.48,676.94L1302.32,675.43L1320.16,673.92L1338,675.43" style="vector-effect: none; fill: none; stroke: rgb(42, 111, 151); stroke-opacity: 1; stroke-width: 2px; opacity: 1;"/></g><g class="points"/><g class="text"/></g><g class="trace scatter tracecdf1cc" style="stroke-miterlimit: 2; opacity: 0.8;"><g class="fills"/><g class="errorbars"/><g class="lines"><path class="js-line" d="M0,647.36L17.84,646.41L35.68,646.41L53.52,647.36L71.36,650.18L89.2,655.83L107.04,659.6L124.88,663.37L142.72,664.31L160.56,656.78L178.4,653.95L196.24,650.18L214.08,650.18L231.92,653.01L249.76,653.01L267.6,656.78L285.44,659.6L303.28,661.49L321.12,662.43L338.96,658.66L356.8,658.66L374.64,653.95L392.48,654.89L410.32,654.89L428.16,660.54L446,662.43L463.84,666.2L481.68,669.96L499.52,671.85L517.36,669.96L535.2,663.37L553.04,660.54L570.88,659.6L588.72,658.66L606.56,659.6L624.4,660.54L642.24,669.02L660.08,675.62L677.92,679.38L695.76,679.38L713.6,678.44L731.44,676.56L749.28,673.73L767.12,671.85L784.96,671.85L820.64,679.38L838.48,681.27L856.32,644.53L874.16,679.38L892,672.79L909.84,667.14L927.68,669.02L945.52,669.02L963.36,672.79L981.2,675.62L999.04,678.44L1016.88,680.33L1034.72,682.21L1052.56,679.38L1070.4,680.33L1088.24,677.5L1106.08,675.62L1123.92,672.79L1141.76,673.73L1159.6,673.73L1177.44,674.67L1195.28,673.73L1213.12,674.67L1230.96,672.79L1248.8,674.67L1266.64,674.67L1284.48,673.73L1302.32,674.67L1320.16,675.62L1338,675.62" style="vector-effect: none; fill: none; stroke: rgb(1, 79, 134); stroke-opacity: 1; stroke-width: 2px; opacity: 1;"/></g><g class="points"/><g class="text"/></g><g class="trace scatter tracebcfcb5" style="stroke-miterlimit: 2; opacity: 0.8;"><g class="fills"/><g class="errorbars"/><g class="lines"><path class="js-line" d="M0,669.96L35.68,663.84L53.52,663.84L89.2,665.25L107.04,667.61L124.88,669.96L142.72,669.49L160.56,669.02L178.4,664.78L196.24,662.43L214.08,659.13L249.76,658.66L267.6,661.02L285.44,661.02L303.28,663.84L321.12,669.96L338.96,670.44L356.8,669.02L374.64,666.67L410.32,666.2L428.16,662.43L446,667.61L463.84,669.96L481.68,670.44L499.52,667.61L553.04,664.78L570.88,663.37L606.56,660.07L624.4,661.49L642.24,669.02L660.08,670.91L677.92,677.5L695.76,680.8L713.6,680.8L731.44,677.5L749.28,674.2L767.12,673.26L784.96,672.79L802.8,675.15L820.64,679.86L838.48,681.74L856.32,681.74L874.16,682.68L892,680.8L909.84,677.03L927.68,671.38L945.52,669.02L963.36,668.55L981.2,676.09L999.04,674.2L1016.88,676.56L1034.72,678.91L1052.56,677.03L1070.4,678.44L1088.24,677.97L1123.92,680.33L1141.76,679.86L1159.6,680.8L1177.44,679.86L1195.28,680.8L1213.12,679.86L1230.96,676.56L1248.8,678.44L1266.64,674.67L1284.48,673.73L1320.16,677.5L1338,677.03" style="vector-effect: none; fill: none; stroke: rgb(1, 79, 134); stroke-opacity: 1; stroke-width: 2px; opacity: 1;"/></g><g class="points"/><g class="text"/></g><g class="trace scatter traceeb95d2" style="stroke-miterlimit: 2; opacity: 0.8;"><g class="fills"/><g class="errorbars"/><g class="lines"><path class="js-line" d="M0,677.97L17.84,675.15L35.68,674.67L53.52,671.85L71.36,668.08L107.04,670.44L124.88,672.32L142.72,674.67L160.56,675.15L178.4,675.15L196.24,672.32L214.08,671.85L231.92,668.55L285.44,670.44L303.28,673.26L321.12,674.2L338.96,674.2L356.8,673.73L374.64,670.44L392.48,669.02L410.32,665.73L428.16,664.78L446,665.25L463.84,664.78L481.68,670.44L517.36,672.32L535.2,672.32L570.88,672.79L588.72,672.32L606.56,670.91L624.4,675.15L677.92,682.21L695.76,682.21L713.6,682.21L731.44,677.03L749.28,675.15L767.12,669.96L802.8,668.08L820.64,671.38L856.32,679.86L874.16,682.68L909.84,681.27L927.68,682.21L1016.88,679.38L1034.72,678.44L1052.56,674.2L1070.4,672.32L1088.24,671.38L1106.08,672.79L1123.92,671.85L1141.76,674.67L1159.6,678.91L1177.44,681.74L1195.28,682.21L1213.12,680.8L1284.48,677.03L1302.32,678.44L1320.16,680.8L1338,682.21" style="vector-effect: none; fill: none; stroke: rgb(1, 73, 124); stroke-opacity: 1; stroke-width: 2px; opacity: 1;"/></g><g class="points"/><g class="text"/></g><g class="trace scatter tracea19593" style="stroke-miterlimit: 2; opacity: 0.8;"><g class="fills"/><g class="errorbars"/><g class="lines"><path class="js-line" d="M0,677.69L17.84,679.57L35.68,678.82L71.36,675.05L89.2,675.05L124.88,673.92L142.72,676.56L160.56,677.69L178.4,680.33L196.24,680.7L214.08,679.2L231.92,678.07L249.76,675.05L285.44,674.67L303.28,676.18L321.12,676.94L338.96,679.2L356.8,677.31L374.64,676.94L410.32,671.66L428.16,671.28L446,671.28L463.84,672.04L499.52,677.31L517.36,679.95L535.2,681.46L553.04,680.7L570.88,680.33L588.72,678.07L624.4,677.69L642.24,677.31L660.08,679.57L677.92,680.7L695.76,682.96L713.6,682.96L731.44,681.83L749.28,681.46L767.12,679.2L784.96,678.82L802.8,678.44L820.64,676.94L838.48,676.56L856.32,674.67L874.16,674.3L892,676.18L927.68,674.67L945.52,675.8L981.2,680.7L999.04,681.83L1016.88,683.34L1034.72,682.21L1052.56,681.83L1070.4,679.95L1088.24,677.31L1106.08,676.56L1123.92,673.54L1141.76,675.8L1159.6,676.56L1177.44,681.08L1195.28,683.34L1213.12,682.21L1230.96,680.33L1248.8,677.31L1266.64,673.17L1284.48,672.79L1302.32,673.54L1320.16,676.18L1338,678.07" style="vector-effect: none; fill: none; stroke: rgb(1, 73, 124); stroke-opacity: 1; stroke-width: 2px; opacity: 1;"/></g><g class="points"/><g class="text"/></g><g class="trace scatter traceaa5b66" style="stroke-miterlimit: 2; opacity: 0.8;"><g class="fills"/><g class="errorbars"/><g class="lines"><path class="js-line" d="M0,675.52L17.84,678.07L35.68,679.2L53.52,679.48L71.36,678.07L89.2,676.09L107.04,676.09L142.72,677.22L160.56,679.2L196.24,682.02L214.08,681.17L231.92,680.89L249.76,678.91L267.6,677.78L285.44,675.52L356.8,680.61L374.64,682.3L410.32,682.02L428.16,679.48L446,678.07L463.84,679.2L481.68,679.48L499.52,680.89L535.2,683.15L553.04,684L588.72,680.61L606.56,679.2L660.08,678.35L677.92,679.76L713.6,681.46L731.44,683.72L749.28,684L767.12,657.72L784.96,683.15L802.8,657.72L820.64,683.15L838.48,682.02L874.16,676.94L892,675.8L927.68,671.28L945.52,673.54L963.36,671.85L981.2,674.11L999.04,675.8L1016.88,678.63L1034.72,683.15L1052.56,683.72L1070.4,681.17L1088.24,680.33L1141.76,676.94L1159.6,678.63L1195.28,682.59L1213.12,683.72L1230.96,682.87L1248.8,679.76L1266.64,674.96L1284.48,672.41L1302.32,670.72L1320.16,672.13L1338,672.13" style="vector-effect: none; fill: none; stroke: rgb(1, 58, 99); stroke-opacity: 1; stroke-width: 2px; opacity: 1;"/></g><g class="points"/><g class="text"/></g><g class="trace scatter tracec43f89" style="stroke-miterlimit: 2; opacity: 0.8;"><g class="fills"/><g class="errorbars"/><g class="lines"><path class="js-line" d="M0,679.38L53.52,675.15L71.36,675.38L107.04,676.79L124.88,679.15L142.72,681.27L160.56,681.27L178.4,678.91L196.24,678.21L214.08,676.09L231.92,675.62L249.76,674.44L267.6,675.38L303.28,676.56L321.12,678.91L338.96,681.74L356.8,681.97L374.64,682.21L392.48,680.8L428.16,679.15L446,680.56L517.36,682.68L535.2,681.74L570.88,677.97L588.72,677.74L624.4,679.38L642.24,680.8L660.08,681.5L677.92,681.27L713.6,681.5L731.44,679.86L784.96,678.21L802.8,679.62L820.64,680.09L838.48,681.5L874.16,682.92L892,681.5L909.84,679.62L927.68,678.91L945.52,679.86L963.36,679.38L999.04,680.56L1016.88,681.5L1034.72,683.62L1052.56,683.86L1070.4,681.74L1088.24,677.5L1123.92,671.85L1141.76,670.44L1159.6,670.67L1177.44,672.55L1195.28,675.62L1213.12,679.62L1230.96,681.97L1248.8,682.92L1284.48,680.8L1302.32,676.09L1338,674.67" style="vector-effect: none; fill: none; stroke: rgb(1, 58, 99); stroke-opacity: 1; stroke-width: 2px; opacity: 1;"/></g><g class="points"/><g class="text"/></g><g class="trace scatter tracec045f8" style="stroke-miterlimit: 2; opacity: 0.8;"><g class="fills"/><g class="errorbars"/><g class="lines"><path class="js-line" d="M0,678.91L71.36,675.62L89.2,675.62L124.88,677.5L142.72,679.86L160.56,682.21L178.4,682.92L196.24,665.73L214.08,681.03L231.92,679.62L249.76,679.15L285.44,679.15L303.28,680.8L356.8,683.62L374.64,677.74L392.48,682.21L410.32,682.21L446,679.62L463.84,681.5L481.68,682.92L499.52,682.68L535.2,683.86L553.04,683.62L570.88,683.62L588.72,662.43L606.56,681.5L624.4,670.67L642.24,682.68L660.08,681.03L677.92,677.5L695.76,675.85L713.6,673.5L731.44,673.03L749.28,673.03L767.12,674.2L784.96,679.15L802.8,678.91L874.16,682.92L892,682.92L909.84,679.15L927.68,681.5L981.2,679.15L999.04,680.33L1034.72,681.74L1052.56,681.97L1088.24,680.09L1106.08,677.03L1141.76,672.32L1159.6,667.14L1177.44,670.67L1195.28,670.67L1248.8,680.8L1266.64,683.15L1320.16,681.5L1338,679.15" style="vector-effect: none; fill: none; stroke: rgb(1, 42, 74); stroke-opacity: 1; stroke-width: 2px; opacity: 1;"/></g><g class="points"/><g class="text"/></g></g></g></g><path class="xlines-above crisp" d="M0,0" style="fill: none;"/><path class="ylines-above crisp" d="M0,0" style="fill: none;"/><g class="overlines-above"/><g class="xaxislayer-above"><g class="xtick"><text text-anchor="middle" x="0" y="833" transform="translate(213.8,0)" style="font-family: 'Open Sans', verdana, arial, sans-serif; font-size: 12px; fill: rgb(42, 63, 95); fill-opacity: 1; white-space: pre; opacity: 1;">−0.006</text></g><g class="xtick"><text text-anchor="middle" x="0" y="833" style="font-family: 'Open Sans', verdana, arial, sans-serif; font-size: 12px; fill: rgb(42, 63, 95); fill-opacity: 1; white-space: pre; opacity: 1;" transform="translate(392.2,0)">−0.004</text></g><g class="xtick"><text text-anchor="middle" x="0" y="833" style="font-family: 'Open Sans', verdana, arial, sans-serif; font-size: 12px; fill: rgb(42, 63, 95); fill-opacity: 1; white-space: pre; opacity: 1;" transform="translate(570.6,0)">−0.002</text></g><g class="xtick"><text text-anchor="middle" x="0" y="833" style="font-family: 'Open Sans', verdana, arial, sans-serif; font-size: 12px; fill: rgb(42, 63, 95); fill-opacity: 1; white-space: pre; opacity: 1;" transform="translate(749,0)">0</text></g><g class="xtick"><text text-anchor="middle" x="0" y="833" style="font-family: 'Open Sans', verdana, arial, sans-serif; font-size: 12px; fill: rgb(42, 63, 95); fill-opacity: 1; white-space: pre; opacity: 1;" transform="translate(927.4,0)">0.002</text></g><g class="xtick"><text text-anchor="middle" x="0" y="833" style="font-family: 'Open Sans', verdana, arial, sans-serif; font-size: 12px; fill: rgb(42, 63, 95); fill-opacity: 1; white-space: pre; opacity: 1;" transform="translate(1105.8,0)">0.004</text></g><g class="xtick"><text text-anchor="middle" x="0" y="833" style="font-family: 'Open Sans', verdana, arial, sans-serif; font-size: 12px; fill: rgb(42, 63, 95); fill-opacity: 1; white-space: pre; opacity: 1;" transform="translate(1284.2,0)">0.006</text></g></g><g class="yaxislayer-above"><g class="ytick"><text text-anchor="end" x="79" y="4.199999999999999" transform="translate(0,785.98)" style="font-family: 'Open Sans', verdana, arial, sans-serif; font-size: 12px; fill: rgb(42, 63, 95); fill-opacity: 1; white-space: pre; opacity: 1;">0</text></g><g class="ytick"><text text-anchor="end" x="79" y="4.199999999999999" style="font-family: 'Open Sans', verdana, arial, sans-serif; font-size: 12px; fill: rgb(42, 63, 95); fill-opacity: 1; white-space: pre; opacity: 1;" transform="translate(0,691.78)">5μ</text></g><g class="ytick"><text text-anchor="end" x="79" y="4.199999999999999" style="font-family: 'Open Sans', verdana, arial, sans-serif; font-size: 12px; fill: rgb(42, 63, 95); fill-opacity: 1; white-space: pre; opacity: 1;" transform="translate(0,597.5799999999999)">10μ</text></g><g class="ytick"><text text-anchor="end" x="79" y="4.199999999999999" style="font-family: 'Open Sans', verdana, arial, sans-serif; font-size: 12px; fill: rgb(42, 63, 95); fill-opacity: 1; white-space: pre; opacity: 1;" transform="translate(0,503.38)">15μ</text></g><g class="ytick"><text text-anchor="end" x="79" y="4.199999999999999" style="font-family: 'Open Sans', verdana, arial, sans-serif; font-size: 12px; fill: rgb(42, 63, 95); fill-opacity: 1; white-space: pre; opacity: 1;" transform="translate(0,409.18)">20μ</text></g><g class="ytick"><text text-anchor="end" x="79" y="4.199999999999999" style="font-family: 'Open Sans', verdana, arial, sans-serif; font-size: 12px; fill: rgb(42, 63, 95); fill-opacity: 1; white-space: pre; opacity: 1;" transform="translate(0,314.98)">25μ</text></g><g class="ytick"><text text-anchor="end" x="79" y="4.199999999999999" style="font-family: 'Open Sans', verdana, arial, sans-serif; font-size: 12px; fill: rgb(42, 63, 95); fill-opacity: 1; white-space: pre; opacity: 1;" transform="translate(0,220.78)">30μ</text></g><g class="ytick"><text text-anchor="end" x="79" y="4.199999999999999" style="font-family: 'Open Sans', verdana, arial, sans-serif; font-size: 12px; fill: rgb(42, 63, 95); fill-opacity: 1; white-space: pre; opacity: 1;" transform="translate(0,126.58)">35μ</text></g></g><g class="overaxes-above"/></g></g><g class="polarlayer"/><g class="smithlayer"/><g class="ternarylayer"/><g class="geolayer"/><g class="funnelarealayer"/><g class="pielayer"/><g class="iciclelayer"/><g class="treemaplayer"/><g class="sunburstlayer"/><g class="glimages"/><defs id="topdefs-72a0e2"><g class="clips"/><clipPath id="legend72a0e2"><rect width="143" height="390" x="0" y="0"/></clipPath></defs><g class="layer-above"><g class="imagelayer"/><g class="shapelayer"/></g><g class="infolayer"><g class="legend" pointer-events="all" transform="translate(1444.76,100)"><rect class="bg" shape-rendering="crispEdges" width="143" height="390" x="0" y="0" style="stroke: rgb(68, 68, 68); stroke-opacity: 1; fill: rgb(255, 255, 255); fill-opacity: 1; stroke-width: 0px;"/><g class="scrollbox" transform="" clip-path="url(#legend72a0e2)"><text class="legendtitletext" text-anchor="start" x="2" y="18.2" style="font-family: 'Open Sans', verdana, arial, sans-serif; font-size: 14px; fill: rgb(42, 63, 95); fill-opacity: 1; white-space: pre;">訊號</text><g class="groups"><g class="traces" transform="translate(0,32.7)" style="opacity: 1;"><text class="legendtext" text-anchor="start" x="40" y="4.680000000000001" style="font-family: 'Open Sans', verdana, arial, sans-serif; font-size: 12px; fill: rgb(42, 63, 95); fill-opacity: 1; white-space: pre;">0.0mT(399)</text><g class="layers" style="opacity: 0.8;"><g class="legendfill"/><g class="legendlines"><path class="js-line" d="M5,0h30" style="fill: none; stroke: rgb(169, 214, 229); stroke-opacity: 1; stroke-width: 2px;"/></g><g class="legendsymbols"><g class="legendpoints"/></g></g><rect class="legendtoggle" x="0" y="-9.5" width="137.5625" height="19" style="fill: rgb(0, 0, 0); fill-opacity: 0;"/></g><g class="traces" transform="translate(0,51.7)" style="opacity: 1;"><text class="legendtext" text-anchor="start" x="40" y="4.680000000000001" style="font-family: 'Open Sans', verdana, arial, sans-serif; font-size: 12px; fill: rgb(42, 63, 95); fill-opacity: 1; white-space: pre;">10.0mT(404)</text><g class="layers" style="opacity: 0.8;"><g class="legendfill"/><g class="legendlines"><path class="js-line" d="M5,0h30" style="fill: none; stroke: rgb(169, 214, 229); stroke-opacity: 1; stroke-width: 2px;"/></g><g class="legendsymbols"><g class="legendpoints"/></g></g><rect class="legendtoggle" x="0" y="-9.5" width="137.5625" height="19" style="fill: rgb(0, 0, 0); fill-opacity: 0;"/></g><g class="traces" transform="translate(0,70.7)" style="opacity: 1;"><text class="legendtext" text-anchor="start" x="40" y="4.680000000000001" style="font-family: 'Open Sans', verdana, arial, sans-serif; font-size: 12px; fill: rgb(42, 63, 95); fill-opacity: 1; white-space: pre;">20.0mT(413)</text><g class="layers" style="opacity: 0.8;"><g class="legendfill"/><g class="legendlines"><path class="js-line" d="M5,0h30" style="fill: none; stroke: rgb(137, 194, 217); stroke-opacity: 1; stroke-width: 2px;"/></g><g class="legendsymbols"><g class="legendpoints"/></g></g><rect class="legendtoggle" x="0" y="-9.5" width="137.5625" height="19" style="fill: rgb(0, 0, 0); fill-opacity: 0;"/></g><g class="traces" transform="translate(0,89.7)" style="opacity: 1;"><text class="legendtext" text-anchor="start" x="40" y="4.680000000000001" style="font-family: 'Open Sans', verdana, arial, sans-serif; font-size: 12px; fill: rgb(42, 63, 95); fill-opacity: 1; white-space: pre;">30.0mT(415)</text><g class="layers" style="opacity: 0.8;"><g class="legendfill"/><g class="legendlines"><path class="js-line" d="M5,0h30" style="fill: none; stroke: rgb(137, 194, 217); stroke-opacity: 1; stroke-width: 2px;"/></g><g class="legendsymbols"><g class="legendpoints"/></g></g><rect class="legendtoggle" x="0" y="-9.5" width="137.5625" height="19" style="fill: rgb(0, 0, 0); fill-opacity: 0;"/></g><g class="traces" transform="translate(0,108.7)" style="opacity: 1;"><text class="legendtext" text-anchor="start" x="40" y="4.680000000000001" style="font-family: 'Open Sans', verdana, arial, sans-serif; font-size: 12px; fill: rgb(42, 63, 95); fill-opacity: 1; white-space: pre;">40.0mT(421)</text><g class="layers" style="opacity: 0.8;"><g class="legendfill"/><g class="legendlines"><path class="js-line" d="M5,0h30" style="fill: none; stroke: rgb(97, 165, 194); stroke-opacity: 1; stroke-width: 2px;"/></g><g class="legendsymbols"><g class="legendpoints"/></g></g><rect class="legendtoggle" x="0" y="-9.5" width="137.5625" height="19" style="fill: rgb(0, 0, 0); fill-opacity: 0;"/></g><g class="traces" transform="translate(0,127.7)" style="opacity: 1;"><text class="legendtext" text-anchor="start" x="40" y="4.680000000000001" style="font-family: 'Open Sans', verdana, arial, sans-serif; font-size: 12px; fill: rgb(42, 63, 95); fill-opacity: 1; white-space: pre;">50.0mT(430)</text><g class="layers" style="opacity: 0.8;"><g class="legendfill"/><g class="legendlines"><path class="js-line" d="M5,0h30" style="fill: none; stroke: rgb(97, 165, 194); stroke-opacity: 1; stroke-width: 2px;"/></g><g class="legendsymbols"><g class="legendpoints"/></g></g><rect class="legendtoggle" x="0" y="-9.5" width="137.5625" height="19" style="fill: rgb(0, 0, 0); fill-opacity: 0;"/></g><g class="traces" transform="translate(0,146.7)" style="opacity: 1;"><text class="legendtext" text-anchor="start" x="40" y="4.680000000000001" style="font-family: 'Open Sans', verdana, arial, sans-serif; font-size: 12px; fill: rgb(42, 63, 95); fill-opacity: 1; white-space: pre;">60.0mT(436)</text><g class="layers" style="opacity: 0.8;"><g class="legendfill"/><g class="legendlines"><path class="js-line" d="M5,0h30" style="fill: none; stroke: rgb(70, 111, 175); stroke-opacity: 1; stroke-width: 2px;"/></g><g class="legendsymbols"><g class="legendpoints"/></g></g><rect class="legendtoggle" x="0" y="-9.5" width="137.5625" height="19" style="fill: rgb(0, 0, 0); fill-opacity: 0;"/></g><g class="traces" transform="translate(0,165.7)" style="opacity: 1;"><text class="legendtext" text-anchor="start" x="40" y="4.680000000000001" style="font-family: 'Open Sans', verdana, arial, sans-serif; font-size: 12px; fill: rgb(42, 63, 95); fill-opacity: 1; white-space: pre;">70.0mT(440)</text><g class="layers" style="opacity: 0.8;"><g class="legendfill"/><g class="legendlines"><path class="js-line" d="M5,0h30" style="fill: none; stroke: rgb(70, 111, 175); stroke-opacity: 1; stroke-width: 2px;"/></g><g class="legendsymbols"><g class="legendpoints"/></g></g><rect class="legendtoggle" x="0" y="-9.5" width="137.5625" height="19" style="fill: rgb(0, 0, 0); fill-opacity: 0;"/></g><g class="traces" transform="translate(0,184.7)" style="opacity: 1;"><text class="legendtext" text-anchor="start" x="40" y="4.680000000000001" style="font-family: 'Open Sans', verdana, arial, sans-serif; font-size: 12px; fill: rgb(42, 63, 95); fill-opacity: 1; white-space: pre;">80.0mT(478)</text><g class="layers" style="opacity: 0.8;"><g class="legendfill"/><g class="legendlines"><path class="js-line" d="M5,0h30" style="fill: none; stroke: rgb(44, 125, 160); stroke-opacity: 1; stroke-width: 2px;"/></g><g class="legendsymbols"><g class="legendpoints"/></g></g><rect class="legendtoggle" x="0" y="-9.5" width="137.5625" height="19" style="fill: rgb(0, 0, 0); fill-opacity: 0;"/></g><g class="traces" transform="translate(0,203.7)" style="opacity: 1;"><text class="legendtext" text-anchor="start" x="40" y="4.680000000000001" style="font-family: 'Open Sans', verdana, arial, sans-serif; font-size: 12px; fill: rgb(42, 63, 95); fill-opacity: 1; white-space: pre;">90.0mT(482+)</text><g class="layers" style="opacity: 0.8;"><g class="legendfill"/><g class="legendlines"><path class="js-line" d="M5,0h30" style="fill: none; stroke: rgb(44, 125, 160); stroke-opacity: 1; stroke-width: 2px;"/></g><g class="legendsymbols"><g class="legendpoints"/></g></g><rect class="legendtoggle" x="0" y="-9.5" width="137.5625" height="19" style="fill: rgb(0, 0, 0); fill-opacity: 0;"/></g><g class="traces" transform="translate(0,222.7)" style="opacity: 1;"><text class="legendtext" text-anchor="start" x="40" y="4.680000000000001" style="font-family: 'Open Sans', verdana, arial, sans-serif; font-size: 12px; fill: rgb(42, 63, 95); fill-opacity: 1; white-space: pre;">100.0mT(485+)</text><g class="layers" style="opacity: 0.8;"><g class="legendfill"/><g class="legendlines"><path class="js-line" d="M5,0h30" style="fill: none; stroke: rgb(42, 111, 151); stroke-opacity: 1; stroke-width: 2px;"/></g><g class="legendsymbols"><g class="legendpoints"/></g></g><rect class="legendtoggle" x="0" y="-9.5" width="137.5625" height="19" style="fill: rgb(0, 0, 0); fill-opacity: 0;"/></g><g class="traces" transform="translate(0,241.7)" style="opacity: 1;"><text class="legendtext" text-anchor="start" x="40" y="4.680000000000001" style="font-family: 'Open Sans', verdana, arial, sans-serif; font-size: 12px; fill: rgb(42, 63, 95); fill-opacity: 1; white-space: pre;">110.0mT(490+)</text><g class="layers" style="opacity: 0.8;"><g class="legendfill"/><g class="legendlines"><path class="js-line" d="M5,0h30" style="fill: none; stroke: rgb(42, 111, 151); stroke-opacity: 1; stroke-width: 2px;"/></g><g class="legendsymbols"><g class="legendpoints"/></g></g><rect class="legendtoggle" x="0" y="-9.5" width="137.5625" height="19" style="fill: rgb(0, 0, 0); fill-opacity: 0;"/></g><g class="traces" transform="translate(0,260.7)" style="opacity: 1;"><text class="legendtext" text-anchor="start" x="40" y="4.680000000000001" style="font-family: 'Open Sans', verdana, arial, sans-serif; font-size: 12px; fill: rgb(42, 63, 95); fill-opacity: 1; white-space: pre;">120.0mT(493+)</text><g class="layers" style="opacity: 0.8;"><g class="legendfill"/><g class="legendlines"><path class="js-line" d="M5,0h30" style="fill: none; stroke: rgb(1, 79, 134); stroke-opacity: 1; stroke-width: 2px;"/></g><g class="legendsymbols"><g class="legendpoints"/></g></g><rect class="legendtoggle" x="0" y="-9.5" width="137.5625" height="19" style="fill: rgb(0, 0, 0); fill-opacity: 0;"/></g><g class="traces" transform="translate(0,279.7)" style="opacity: 1;"><text class="legendtext" text-anchor="start" x="40" y="4.680000000000001" style="font-family: 'Open Sans', verdana, arial, sans-serif; font-size: 12px; fill: rgb(42, 63, 95); fill-opacity: 1; white-space: pre;">130.0mT(496+)</text><g class="layers" style="opacity: 0.8;"><g class="legendfill"/><g class="legendlines"><path class="js-line" d="M5,0h30" style="fill: none; stroke: rgb(1, 79, 134); stroke-opacity: 1; stroke-width: 2px;"/></g><g class="legendsymbols"><g class="legendpoints"/></g></g><rect class="legendtoggle" x="0" y="-9.5" width="137.5625" height="19" style="fill: rgb(0, 0, 0); fill-opacity: 0;"/></g><g class="traces" transform="translate(0,298.7)" style="opacity: 1;"><text class="legendtext" text-anchor="start" x="40" y="4.680000000000001" style="font-family: 'Open Sans', verdana, arial, sans-serif; font-size: 12px; fill: rgb(42, 63, 95); fill-opacity: 1; white-space: pre;">140.0mT(498+)</text><g class="layers" style="opacity: 0.8;"><g class="legendfill"/><g class="legendlines"><path class="js-line" d="M5,0h30" style="fill: none; stroke: rgb(1, 73, 124); stroke-opacity: 1; stroke-width: 2px;"/></g><g class="legendsymbols"><g class="legendpoints"/></g></g><rect class="legendtoggle" x="0" y="-9.5" width="137.5625" height="19" style="fill: rgb(0, 0, 0); fill-opacity: 0;"/></g><g class="traces" transform="translate(0,317.7)" style="opacity: 1;"><text class="legendtext" text-anchor="start" x="40" y="4.680000000000001" style="font-family: 'Open Sans', verdana, arial, sans-serif; font-size: 12px; fill: rgb(42, 63, 95); fill-opacity: 1; white-space: pre;">150.0mT(501+)</text><g class="layers" style="opacity: 0.8;"><g class="legendfill"/><g class="legendlines"><path class="js-line" d="M5,0h30" style="fill: none; stroke: rgb(1, 73, 124); stroke-opacity: 1; stroke-width: 2px;"/></g><g class="legendsymbols"><g class="legendpoints"/></g></g><rect class="legendtoggle" x="0" y="-9.5" width="137.5625" height="19" style="fill: rgb(0, 0, 0); fill-opacity: 0;"/></g><g class="traces" transform="translate(0,336.7)" style="opacity: 1;"><text class="legendtext" text-anchor="start" x="40" y="4.680000000000001" style="font-family: 'Open Sans', verdana, arial, sans-serif; font-size: 12px; fill: rgb(42, 63, 95); fill-opacity: 1; white-space: pre;">160.0mT(503+)</text><g class="layers" style="opacity: 0.8;"><g class="legendfill"/><g class="legendlines"><path class="js-line" d="M5,0h30" style="fill: none; stroke: rgb(1, 58, 99); stroke-opacity: 1; stroke-width: 2px;"/></g><g class="legendsymbols"><g class="legendpoints"/></g></g><rect class="legendtoggle" x="0" y="-9.5" width="137.5625" height="19" style="fill: rgb(0, 0, 0); fill-opacity: 0;"/></g><g class="traces" transform="translate(0,355.7)" style="opacity: 1;"><text class="legendtext" text-anchor="start" x="40" y="4.680000000000001" style="font-family: 'Open Sans', verdana, arial, sans-serif; font-size: 12px; fill: rgb(42, 63, 95); fill-opacity: 1; white-space: pre;">170.0mT(505+)</text><g class="layers" style="opacity: 0.8;"><g class="legendfill"/><g class="legendlines"><path class="js-line" d="M5,0h30" style="fill: none; stroke: rgb(1, 58, 99); stroke-opacity: 1; stroke-width: 2px;"/></g><g class="legendsymbols"><g class="legendpoints"/></g></g><rect class="legendtoggle" x="0" y="-9.5" width="137.5625" height="19" style="fill: rgb(0, 0, 0); fill-opacity: 0;"/></g><g class="traces" transform="translate(0,374.7)" style="opacity: 1;"><text class="legendtext" text-anchor="start" x="40" y="4.680000000000001" style="font-family: 'Open Sans', verdana, arial, sans-serif; font-size: 12px; fill: rgb(42, 63, 95); fill-opacity: 1; white-space: pre;">180.0mT(507+)</text><g class="layers" style="opacity: 0.8;"><g class="legendfill"/><g class="legendlines"><path class="js-line" d="M5,0h30" style="fill: none; stroke: rgb(1, 42, 74); stroke-opacity: 1; stroke-width: 2px;"/></g><g class="legendsymbols"><g class="legendpoints"/></g></g><rect class="legendtoggle" x="0" y="-9.5" width="137.5625" height="19" style="fill: rgb(0, 0, 0); fill-opacity: 0;"/></g></g></g><rect class="scrollbar" rx="20" ry="3" width="0" height="0" x="0" y="0" style="fill: rgb(128, 139, 164); fill-opacity: 1;"/></g><g class="g-gtitle"><text class="gtitle" x="80" y="50" text-anchor="start" dy="0em" style="opacity: 1; font-family: 'Open Sans', verdana, arial, sans-serif; font-size: 17px; fill: rgb(42, 63, 95); fill-opacity: 1; white-space: pre;"><tspan class="line" dy="0em" x="80" y="50"><tspan style="font-weight:bold">原始數據預覽</tspan></tspan><tspan class="line" dy="1.3em" x="80" y="50">​<tspan style="font-size:70%" dy="0.3em">003-2 - Finite - Perpendicular - IVB</tspan><tspan dy="-0.21em">​</tspan></tspan></text></g><g class="g-xtitle"><text class="xtitle" x="749" y="859.8" text-anchor="middle" style="opacity: 1; font-family: 'Open Sans', verdana, arial, sans-serif; font-size: 14px; fill: rgb(42, 63, 95); fill-opacity: 1; white-space: pre;">磁場位置 (物理單位)</text></g><g class="g-ytitle"><text class="ytitle" transform="rotate(-90,36.6625,460)" x="36.6625" y="460" text-anchor="middle" style="opacity: 1; font-family: 'Open Sans', verdana, arial, sans-serif; font-size: 14px; fill: rgb(42, 63, 95); fill-opacity: 1; white-space: pre;">訊號振幅 (Ic)</text></g></g></svg>