<svg class="main-svg" xmlns="http://www.w3.org/2000/svg" xmlns:xlink="http://www.w3.org/1999/xlink" width="1600" height="900" style="" viewBox="0 0 1600 900"><rect x="0" y="0" width="1600" height="900" style="fill: rgb(255, 255, 255); fill-opacity: 1;"/><defs id="defs-5ef614"><g class="clips"><clipPath id="clip5ef614xyplot" class="plotclip"><rect width="1360" height="720"/></clipPath><clipPath class="axesclip" id="clip5ef614x"><rect x="80" y="0" width="1360" height="900"/></clipPath><clipPath class="axesclip" id="clip5ef614y"><rect x="0" y="100" width="1600" height="720"/></clipPath><clipPath class="axesclip" id="clip5ef614xy"><rect x="80" y="100" width="1360" height="720"/></clipPath></g><g class="gradients"/><g class="patterns"/></defs><g class="bglayer"/><g class="layer-below"><g class="imagelayer"/><g class="shapelayer"/></g><g class="cartesianlayer"><g class="subplot xy"><g class="layer-subplot"><g class="shapelayer"/><g class="imagelayer"/></g><g class="minor-gridlayer"><g class="x"/><g class="y"/></g><g class="gridlayer"><g class="x"><path class="xgrid crisp" transform="translate(420,0)" d="M0,100v720" style="stroke: rgb(235, 240, 248); stroke-opacity: 1; stroke-width: 1px;"/><path class="xgrid crisp" transform="translate(1100,0)" d="M0,100v720" style="stroke: rgb(235, 240, 248); stroke-opacity: 1; stroke-width: 1px;"/></g><g class="y"><path class="ygrid crisp" transform="translate(0,689.35)" d="M80,0h1360" style="stroke: rgb(235, 240, 248); stroke-opacity: 1; stroke-width: 1px;"/><path class="ygrid crisp" transform="translate(0,592.27)" d="M80,0h1360" style="stroke: rgb(235, 240, 248); stroke-opacity: 1; stroke-width: 1px;"/><path class="ygrid crisp" transform="translate(0,495.19)" d="M80,0h1360" style="stroke: rgb(235, 240, 248); stroke-opacity: 1; stroke-width: 1px;"/><path class="ygrid crisp" transform="translate(0,398.11)" d="M80,0h1360" style="stroke: rgb(235, 240, 248); stroke-opacity: 1; stroke-width: 1px;"/><path class="ygrid crisp" transform="translate(0,301.03)" d="M80,0h1360" style="stroke: rgb(235, 240, 248); stroke-opacity: 1; stroke-width: 1px;"/><path class="ygrid crisp" transform="translate(0,203.95999999999998)" d="M80,0h1360" style="stroke: rgb(235, 240, 248); stroke-opacity: 1; stroke-width: 1px;"/><path class="ygrid crisp" transform="translate(0,106.88)" d="M80,0h1360" style="stroke: rgb(235, 240, 248); stroke-opacity: 1; stroke-width: 1px;"/></g></g><g class="zerolinelayer"><path class="xzl zl crisp" transform="translate(760,0)" d="M0,100v720" style="stroke: rgb(235, 240, 248); stroke-opacity: 1; stroke-width: 2px;"/><path class="yzl zl crisp" transform="translate(0,786.43)" d="M80,0h1360" style="stroke: rgb(235, 240, 248); stroke-opacity: 1; stroke-width: 2px;"/></g><g class="layer-between"><g class="shapelayer"/><g class="imagelayer"/></g><path class="xlines-below"/><path class="ylines-below"/><g class="overlines-below"/><g class="xaxislayer-below"/><g class="yaxislayer-below"/><g class="overaxes-below"/><g class="overplot"><g class="xy" transform="translate(80,100)" clip-path="url(#clip5ef614xyplot)"><g class="scatterlayer mlayer"><g class="trace scatter trace908369" style="stroke-miterlimit: 2; opacity: 0.8;"><g class="fills"/><g class="errorbars"/><g class="lines"><path class="js-line" d="M0,635.46L27.2,657.3L54.4,664.58L81.6,671.87L108.8,657.3L136,642.74L163.2,642.74L217.6,657.3L244.8,657.3L272,628.18L299.2,591.78L326.4,584.49L353.6,599.06L408,642.74L435.2,613.62L462.4,453.44L489.6,278.7L516.8,187.69L544,177.98L571.2,679.15L598.4,679.15L625.6,204.67L652.8,221.66L680,344.22L707.2,453.44L734.4,577.21L761.6,642.74L788.8,620.9L816,613.62L843.2,584.49L870.4,599.06L924.8,657.3L952,657.3L1006.4,642.74L1033.6,650.02L1088,664.58L1115.2,664.58L1224,664.58L1251.2,671.87L1360,671.87" style="vector-effect: none; fill: none; stroke: rgb(169, 214, 229); stroke-opacity: 1; stroke-width: 2px; opacity: 1;"/></g><g class="points"/><g class="text"/></g><g class="trace scatter trace42d07a" style="stroke-miterlimit: 2; opacity: 0.8;"><g class="fills"/><g class="errorbars"/><g class="lines"><path class="js-line" d="M0,642.74L27.2,657.3L54.4,664.58L81.6,676.72L108.8,669.44L136,654.88L163.2,645.17L190.4,642.74L217.6,659.73L244.8,671.87L272,654.88L299.2,616.04L326.4,586.92L353.6,594.2L380.8,596.63L408,640.31L435.2,659.73L462.4,545.66L489.6,409.75L516.8,268.99L544,133.08L571.2,74.83L598.4,74.83L625.6,89.39L652.8,487.42L680,230.16L707.2,366.07L734.4,506.83L761.6,613.62L788.8,645.17L816,623.33L843.2,601.48L870.4,625.75L897.6,618.47L924.8,650.02L952,662.16L979.2,664.58L1006.4,654.88L1033.6,652.45L1088,662.16L1115.2,669.44L1142.4,669.44L1169.6,667.01L1196.8,667.01L1224,669.44L1305.6,676.72L1332.8,674.29L1360,674.29" style="vector-effect: none; fill: none; stroke: rgb(137, 194, 217); stroke-opacity: 1; stroke-width: 2px; opacity: 1;"/></g><g class="points"/><g class="text"/></g><g class="trace scatter tracebfbbce" style="stroke-miterlimit: 2; opacity: 0.8;"><g class="fills"/><g class="errorbars"/><g class="lines"><path class="js-line" d="M0,676.72L17,674.29L34,669.44L51,664.58L68,662.16L102,662.16L119,667.01L153,676.72L170,669.44L204,654.88L221,642.74L238,640.31L255,642.74L272,647.6L289,659.73L306,667.01L323,667.01L340,654.88L357,637.89L374,611.19L391,591.78L408,582.07L425,574.79L442,591.78L459,611.19L476,637.89L493,647.6L510,652.45L527,574.79L544,458.29L561,351.51L578,254.43L595,181.62L612,133.08L629,108.81L646,60.27L663,40.85L680,74.83L697,205.89L714,123.37L731,176.76L748,591.78L765,322.38L782,596.63L799,599.06L816,589.35L833,630.61L850,637.89L867,640.31L884,616.04L901,608.76L918,586.92L935,635.46L952,608.76L969,623.33L1003,657.3L1020,662.16L1037,659.73L1054,659.73L1071,652.45L1088,650.02L1105,650.02L1122,657.3L1156,667.01L1173,667.01L1190,669.44L1207,669.44L1241,664.58L1258,667.01L1275,669.44L1292,669.44L1326,674.29L1343,674.29L1360,676.72" style="vector-effect: none; fill: none; stroke: rgb(97, 165, 194); stroke-opacity: 1; stroke-width: 2px; opacity: 1;"/></g><g class="points"/><g class="text"/></g><g class="trace scatter trace18a5fe" style="stroke-miterlimit: 2; opacity: 0.8;"><g class="fills"/><g class="errorbars"/><g class="lines"><path class="js-line" d="M0,664.58L27.2,674.29L54.4,674.29L81.6,664.58L108.8,662.16L136,662.16L163.2,667.01L190.4,674.29L217.6,664.58L244.8,647.6L272,637.89L299.2,640.31L326.4,654.88L353.6,662.16L380.8,654.88L408,608.76L435.2,574.79L462.4,569.93L489.6,591.78L516.8,633.03L544,654.88L571.2,482.56L598.4,298.11L625.6,162.2L652.8,65.12L680,684L707.2,210.74L734.4,210.74L761.6,162.2L788.8,307.82L816,414.61L843.2,511.69L870.4,642.74L897.6,642.74L924.8,608.76L952,603.91L979.2,586.92L1006.4,623.33L1033.6,652.45L1060.8,662.16L1088,657.3L1115.2,640.31L1142.4,647.6L1169.6,654.88L1196.8,664.58L1224,671.87L1251.2,669.44L1278.4,664.58L1305.6,664.58L1332.8,667.01L1360,671.87" style="vector-effect: none; fill: none; stroke: rgb(70, 111, 175); stroke-opacity: 1; stroke-width: 2px; opacity: 1;"/></g><g class="points"/><g class="text"/></g><g class="trace scatter tracec223c7" style="stroke-miterlimit: 2; opacity: 0.8;"><g class="fills"/><g class="errorbars"/><g class="lines"><path class="js-line" d="M0,664.58L27.2,671.87L54.4,674.29L81.6,671.87L108.8,667.01L136,664.58L163.2,664.58L190.4,669.44L217.6,669.44L244.8,667.01L272,654.88L299.2,645.17L326.4,650.02L353.6,662.16L380.8,662.16L408,654.88L435.2,611.19L462.4,596.63L489.6,594.2L516.8,608.76L544,637.89L571.2,633.03L598.4,472.85L652.8,181.62L680,84.54L707.2,36L734.4,162.2L761.6,210.74L788.8,249.57L816,552.94L843.2,443.73L870.4,562.65L897.6,647.6L924.8,642.74L952,594.2L1006.4,608.76L1033.6,620.9L1060.8,654.88L1088,674.29L1115.2,657.3L1142.4,642.74L1169.6,645.17L1196.8,657.3L1224,667.01L1251.2,674.29L1305.6,664.58L1332.8,662.16L1360,667.01" style="vector-effect: none; fill: none; stroke: rgb(42, 111, 151); stroke-opacity: 1; stroke-width: 2px; opacity: 1;"/></g><g class="points"/><g class="text"/></g><g class="trace scatter trace637cd7" style="stroke-miterlimit: 2; opacity: 0.8;"><g class="fills"/><g class="errorbars"/><g class="lines"><path class="js-line" d="M0,669.44L27.2,674.29L54.4,674.29L81.6,669.44L108.8,667.01L163.2,667.01L190.4,669.44L217.6,667.01L244.8,659.73L272,652.45L299.2,650.02L326.4,659.73L353.6,664.58L380.8,657.3L408,635.46L435.2,603.91L462.4,603.91L489.6,608.76L516.8,633.03L544,642.74L571.2,560.22L598.4,414.61L625.6,230.16L652.8,133.08L680,65.12L707.2,36L734.4,84.54L761.6,220.45L788.8,239.87L816,572.36L843.2,531.1L870.4,620.9L897.6,652.45L924.8,616.04L952,591.78L979.2,584.49L1006.4,611.19L1033.6,645.17L1060.8,664.58L1088,662.16L1115.2,645.17L1142.4,640.31L1169.6,650.02L1196.8,659.73L1224,674.29L1251.2,671.87L1278.4,664.58L1305.6,662.16L1332.8,664.58L1360,671.87" style="vector-effect: none; fill: none; stroke: rgb(1, 79, 134); stroke-opacity: 1; stroke-width: 2px; opacity: 1;"/></g><g class="points"/><g class="text"/></g><g class="trace scatter trace183a36" style="stroke-miterlimit: 2; opacity: 0.8;"><g class="fills"/><g class="errorbars"/><g class="lines"><path class="js-line" d="M0,667.01L27.2,669.44L54.4,667.01L81.6,664.58L108.8,667.01L136,669.44L163.2,667.01L190.4,662.16L217.6,654.88L244.8,650.02L272,657.3L299.2,662.16L326.4,659.73L353.6,633.03L380.8,608.76L408,596.63L435.2,596.63L462.4,623.33L489.6,642.74L516.8,589.35L544,443.73L571.2,268.99L598.4,152.49L625.6,162.2L652.8,181.62L680,191.33L707.2,113.66L734.4,577.21L761.6,336.94L788.8,472.85L816,637.89L843.2,654.88L870.4,625.75L897.6,596.63L924.8,594.2L952,601.48L979.2,640.31L1006.4,664.58L1033.6,662.16L1060.8,647.6L1088,642.74L1115.2,650.02L1142.4,659.73L1169.6,671.87L1196.8,674.29L1224,664.58L1251.2,662.16L1278.4,664.58L1305.6,669.44L1332.8,676.72L1360,676.72" style="vector-effect: none; fill: none; stroke: rgb(1, 73, 124); stroke-opacity: 1; stroke-width: 2px; opacity: 1;"/></g><g class="points"/><g class="text"/></g><g class="trace scatter trace248d4f" style="stroke-miterlimit: 2; opacity: 0.8;"><g class="fills"/><g class="errorbars"/><g class="lines"><path class="js-line" d="M0,650.02L27.2,662.16L54.4,667.01L81.6,671.87L108.8,669.44L136,662.16L163.2,652.45L190.4,647.6L217.6,654.88L244.8,662.16L272,664.58L299.2,635.46L326.4,599.06L353.6,589.35L380.8,589.35L408,623.33L435.2,645.17L462.4,601.48L489.6,463.15L516.8,302.97L544,404.9L571.2,69.98L598.4,196.18L625.6,50.56L652.8,94.25L680,171.91L707.2,283.55L734.4,472.85L761.6,594.2L788.8,647.6L816,618.47L843.2,589.35L870.4,591.78L897.6,625.75L924.8,650.02L952,664.58L979.2,659.73L1006.4,645.17L1033.6,642.74L1060.8,650.02L1088,662.16L1115.2,671.87L1142.4,671.87L1169.6,664.58L1196.8,662.16L1224,664.58L1251.2,671.87L1278.4,676.72L1305.6,676.72L1332.8,671.87L1360,669.44" style="vector-effect: none; fill: none; stroke: rgb(1, 42, 74); stroke-opacity: 1; stroke-width: 2px; opacity: 1;"/></g><g class="points"/><g class="text"/></g></g></g></g><path class="xlines-above crisp" d="M0,0" style="fill: none;"/><path class="ylines-above crisp" d="M0,0" style="fill: none;"/><g class="overlines-above"/><g class="xaxislayer-above"><g class="xtick"><text text-anchor="middle" x="0" y="833" transform="translate(80,0)" style="font-family: 'Open Sans', verdana, arial, sans-serif; font-size: 12px; fill: rgb(42, 63, 95); fill-opacity: 1; white-space: pre; opacity: 1;">−0.01</text></g><g class="xtick"><text text-anchor="middle" x="0" y="833" style="font-family: 'Open Sans', verdana, arial, sans-serif; font-size: 12px; fill: rgb(42, 63, 95); fill-opacity: 1; white-space: pre; opacity: 1;" transform="translate(420,0)">−0.005</text></g><g class="xtick"><text text-anchor="middle" x="0" y="833" style="font-family: 'Open Sans', verdana, arial, sans-serif; font-size: 12px; fill: rgb(42, 63, 95); fill-opacity: 1; white-space: pre; opacity: 1;" transform="translate(760,0)">0</text></g><g class="xtick"><text text-anchor="middle" x="0" y="833" style="font-family: 'Open Sans', verdana, arial, sans-serif; font-size: 12px; fill: rgb(42, 63, 95); fill-opacity: 1; white-space: pre; opacity: 1;" transform="translate(1100,0)">0.005</text></g><g class="xtick"><text text-anchor="middle" x="0" y="833" style="font-family: 'Open Sans', verdana, arial, sans-serif; font-size: 12px; fill: rgb(42, 63, 95); fill-opacity: 1; white-space: pre; opacity: 1;" transform="translate(1440,0)">0.01</text></g></g><g class="yaxislayer-above"><g class="ytick"><text text-anchor="end" x="79" y="4.199999999999999" transform="translate(0,786.43)" style="font-family: 'Open Sans', verdana, arial, sans-serif; font-size: 12px; fill: rgb(42, 63, 95); fill-opacity: 1; white-space: pre; opacity: 1;">0</text></g><g class="ytick"><text text-anchor="end" x="79" y="4.199999999999999" style="font-family: 'Open Sans', verdana, arial, sans-serif; font-size: 12px; fill: rgb(42, 63, 95); fill-opacity: 1; white-space: pre; opacity: 1;" transform="translate(0,689.35)">20μ</text></g><g class="ytick"><text text-anchor="end" x="79" y="4.199999999999999" style="font-family: 'Open Sans', verdana, arial, sans-serif; font-size: 12px; fill: rgb(42, 63, 95); fill-opacity: 1; white-space: pre; opacity: 1;" transform="translate(0,592.27)">40μ</text></g><g class="ytick"><text text-anchor="end" x="79" y="4.199999999999999" style="font-family: 'Open Sans', verdana, arial, sans-serif; font-size: 12px; fill: rgb(42, 63, 95); fill-opacity: 1; white-space: pre; opacity: 1;" transform="translate(0,495.19)">60μ</text></g><g class="ytick"><text text-anchor="end" x="79" y="4.199999999999999" style="font-family: 'Open Sans', verdana, arial, sans-serif; font-size: 12px; fill: rgb(42, 63, 95); fill-opacity: 1; white-space: pre; opacity: 1;" transform="translate(0,398.11)">80μ</text></g><g class="ytick"><text text-anchor="end" x="79" y="4.199999999999999" style="font-family: 'Open Sans', verdana, arial, sans-serif; font-size: 12px; fill: rgb(42, 63, 95); fill-opacity: 1; white-space: pre; opacity: 1;" transform="translate(0,301.03)">100μ</text></g><g class="ytick"><text text-anchor="end" x="79" y="4.199999999999999" style="font-family: 'Open Sans', verdana, arial, sans-serif; font-size: 12px; fill: rgb(42, 63, 95); fill-opacity: 1; white-space: pre; opacity: 1;" transform="translate(0,203.95999999999998)">120μ</text></g><g class="ytick"><text text-anchor="end" x="79" y="4.199999999999999" style="font-family: 'Open Sans', verdana, arial, sans-serif; font-size: 12px; fill: rgb(42, 63, 95); fill-opacity: 1; white-space: pre; opacity: 1;" transform="translate(0,106.88)">140μ</text></g></g><g class="overaxes-above"/></g></g><g class="polarlayer"/><g class="smithlayer"/><g class="ternarylayer"/><g class="geolayer"/><g class="funnelarealayer"/><g class="pielayer"/><g class="iciclelayer"/><g class="treemaplayer"/><g class="sunburstlayer"/><g class="glimages"/><defs id="topdefs-5ef614"><g class="clips"/><clipPath id="legend5ef614"><rect width="121" height="181" x="0" y="0"/></clipPath></defs><g class="layer-above"><g class="imagelayer"/><g class="shapelayer"/></g><g class="infolayer"><g class="legend" pointer-events="all" transform="translate(1467.2,100)"><rect class="bg" shape-rendering="crispEdges" width="121" height="181" x="0" y="0" style="stroke: rgb(68, 68, 68); stroke-opacity: 1; fill: rgb(255, 255, 255); fill-opacity: 1; stroke-width: 0px;"/><g class="scrollbox" transform="" clip-path="url(#legend5ef614)"><text class="legendtitletext" text-anchor="start" x="2" y="18.2" style="font-family: 'Open Sans', verdana, arial, sans-serif; font-size: 14px; fill: rgb(42, 63, 95); fill-opacity: 1; white-space: pre;">訊號</text><g class="groups"><g class="traces" transform="translate(0,32.7)" style="opacity: 1;"><text class="legendtext" text-anchor="start" x="40" y="4.680000000000001" style="font-family: 'Open Sans', verdana, arial, sans-serif; font-size: 12px; fill: rgb(42, 63, 95); fill-opacity: 1; white-space: pre;">0.0°(151)</text><g class="layers" style="opacity: 0.8;"><g class="legendfill"/><g class="legendlines"><path class="js-line" d="M5,0h30" style="fill: none; stroke: rgb(169, 214, 229); stroke-opacity: 1; stroke-width: 2px;"/></g><g class="legendsymbols"><g class="legendpoints"/></g></g><rect class="legendtoggle" x="0" y="-9.5" width="115.171875" height="19" style="fill: rgb(0, 0, 0); fill-opacity: 0;"/></g><g class="traces" transform="translate(0,51.7)" style="opacity: 1;"><text class="legendtext" text-anchor="start" x="40" y="4.680000000000001" style="font-family: 'Open Sans', verdana, arial, sans-serif; font-size: 12px; fill: rgb(42, 63, 95); fill-opacity: 1; white-space: pre;">45.0°(146)</text><g class="layers" style="opacity: 0.8;"><g class="legendfill"/><g class="legendlines"><path class="js-line" d="M5,0h30" style="fill: none; stroke: rgb(137, 194, 217); stroke-opacity: 1; stroke-width: 2px;"/></g><g class="legendsymbols"><g class="legendpoints"/></g></g><rect class="legendtoggle" x="0" y="-9.5" width="115.171875" height="19" style="fill: rgb(0, 0, 0); fill-opacity: 0;"/></g><g class="traces" transform="translate(0,70.7)" style="opacity: 1;"><text class="legendtext" text-anchor="start" x="40" y="4.680000000000001" style="font-family: 'Open Sans', verdana, arial, sans-serif; font-size: 12px; fill: rgb(42, 63, 95); fill-opacity: 1; white-space: pre;">90.0°(107)</text><g class="layers" style="opacity: 0.8;"><g class="legendfill"/><g class="legendlines"><path class="js-line" d="M5,0h30" style="fill: none; stroke: rgb(97, 165, 194); stroke-opacity: 1; stroke-width: 2px;"/></g><g class="legendsymbols"><g class="legendpoints"/></g></g><rect class="legendtoggle" x="0" y="-9.5" width="115.171875" height="19" style="fill: rgb(0, 0, 0); fill-opacity: 0;"/></g><g class="traces" transform="translate(0,89.7)" style="opacity: 1;"><text class="legendtext" text-anchor="start" x="40" y="4.680000000000001" style="font-family: 'Open Sans', verdana, arial, sans-serif; font-size: 12px; fill: rgb(42, 63, 95); fill-opacity: 1; white-space: pre;">135.0°(159)</text><g class="layers" style="opacity: 0.8;"><g class="legendfill"/><g class="legendlines"><path class="js-line" d="M5,0h30" style="fill: none; stroke: rgb(70, 111, 175); stroke-opacity: 1; stroke-width: 2px;"/></g><g class="legendsymbols"><g class="legendpoints"/></g></g><rect class="legendtoggle" x="0" y="-9.5" width="115.171875" height="19" style="fill: rgb(0, 0, 0); fill-opacity: 0;"/></g><g class="traces" transform="translate(0,108.7)" style="opacity: 1;"><text class="legendtext" text-anchor="start" x="40" y="4.680000000000001" style="font-family: 'Open Sans', verdana, arial, sans-serif; font-size: 12px; fill: rgb(42, 63, 95); fill-opacity: 1; white-space: pre;">180.0°(165)</text><g class="layers" style="opacity: 0.8;"><g class="legendfill"/><g class="legendlines"><path class="js-line" d="M5,0h30" style="fill: none; stroke: rgb(42, 111, 151); stroke-opacity: 1; stroke-width: 2px;"/></g><g class="legendsymbols"><g class="legendpoints"/></g></g><rect class="legendtoggle" x="0" y="-9.5" width="115.171875" height="19" style="fill: rgb(0, 0, 0); fill-opacity: 0;"/></g><g class="traces" transform="translate(0,127.7)" style="opacity: 1;"><text class="legendtext" text-anchor="start" x="40" y="4.680000000000001" style="font-family: 'Open Sans', verdana, arial, sans-serif; font-size: 12px; fill: rgb(42, 63, 95); fill-opacity: 1; white-space: pre;">225.0°(169)</text><g class="layers" style="opacity: 0.8;"><g class="legendfill"/><g class="legendlines"><path class="js-line" d="M5,0h30" style="fill: none; stroke: rgb(1, 79, 134); stroke-opacity: 1; stroke-width: 2px;"/></g><g class="legendsymbols"><g class="legendpoints"/></g></g><rect class="legendtoggle" x="0" y="-9.5" width="115.171875" height="19" style="fill: rgb(0, 0, 0); fill-opacity: 0;"/></g><g class="traces" transform="translate(0,146.7)" style="opacity: 1;"><text class="legendtext" text-anchor="start" x="40" y="4.680000000000001" style="font-family: 'Open Sans', verdana, arial, sans-serif; font-size: 12px; fill: rgb(42, 63, 95); fill-opacity: 1; white-space: pre;">270.0°(171)</text><g class="layers" style="opacity: 0.8;"><g class="legendfill"/><g class="legendlines"><path class="js-line" d="M5,0h30" style="fill: none; stroke: rgb(1, 73, 124); stroke-opacity: 1; stroke-width: 2px;"/></g><g class="legendsymbols"><g class="legendpoints"/></g></g><rect class="legendtoggle" x="0" y="-9.5" width="115.171875" height="19" style="fill: rgb(0, 0, 0); fill-opacity: 0;"/></g><g class="traces" transform="translate(0,165.7)" style="opacity: 1;"><text class="legendtext" text-anchor="start" x="40" y="4.680000000000001" style="font-family: 'Open Sans', verdana, arial, sans-serif; font-size: 12px; fill: rgb(42, 63, 95); fill-opacity: 1; white-space: pre;">315.0°(149)</text><g class="layers" style="opacity: 0.8;"><g class="legendfill"/><g class="legendlines"><path class="js-line" d="M5,0h30" style="fill: none; stroke: rgb(1, 42, 74); stroke-opacity: 1; stroke-width: 2px;"/></g><g class="legendsymbols"><g class="legendpoints"/></g></g><rect class="legendtoggle" x="0" y="-9.5" width="115.171875" height="19" style="fill: rgb(0, 0, 0); fill-opacity: 0;"/></g></g></g><rect class="scrollbar" rx="20" ry="3" width="0" height="0" x="0" y="0" style="fill: rgb(128, 139, 164); fill-opacity: 1;"/></g><g class="g-gtitle"><text class="gtitle" x="80" y="50" text-anchor="start" dy="0em" style="opacity: 1; font-family: 'Open Sans', verdana, arial, sans-serif; font-size: 17px; fill: rgb(42, 63, 95); fill-opacity: 1; white-space: pre;"><tspan class="line" dy="0em" x="80" y="50"><tspan style="font-weight:bold">原始數據預覽</tspan></tspan><tspan class="line" dy="1.3em" x="80" y="50">​<tspan style="font-size:70%" dy="0.3em">005-1 - 30mT - IVB</tspan><tspan dy="-0.21em">​</tspan></tspan></text></g><g class="g-xtitle"><text class="xtitle" x="760" y="859.8" text-anchor="middle" style="opacity: 1; font-family: 'Open Sans', verdana, arial, sans-serif; font-size: 14px; fill: rgb(42, 63, 95); fill-opacity: 1; white-space: pre;">磁場位置 (物理單位)</text></g><g class="g-ytitle"><text class="ytitle" transform="rotate(-90,29.0375,460)" x="29.0375" y="460" text-anchor="middle" style="opacity: 1; font-family: 'Open Sans', verdana, arial, sans-serif; font-size: 14px; fill: rgb(42, 63, 95); fill-opacity: 1; white-space: pre;">訊號振幅 (Ic)</text></g></g></svg>