<svg class="main-svg" xmlns="http://www.w3.org/2000/svg" xmlns:xlink="http://www.w3.org/1999/xlink" width="1600" height="900" style="" viewBox="0 0 1600 900"><rect x="0" y="0" width="1600" height="900" style="fill: rgb(255, 255, 255); fill-opacity: 1;"/><defs id="defs-c64d9c"><g class="clips"><clipPath id="clipc64d9cxyplot" class="plotclip"><rect width="1360" height="720"/></clipPath><clipPath class="axesclip" id="clipc64d9cx"><rect x="80" y="0" width="1360" height="900"/></clipPath><clipPath class="axesclip" id="clipc64d9cy"><rect x="0" y="100" width="1600" height="720"/></clipPath><clipPath class="axesclip" id="clipc64d9cxy"><rect x="80" y="100" width="1360" height="720"/></clipPath></g><g class="gradients"/><g class="patterns"/></defs><g class="bglayer"/><g class="layer-below"><g class="imagelayer"/><g class="shapelayer"/></g><g class="cartesianlayer"><g class="subplot xy"><g class="layer-subplot"><g class="shapelayer"/><g class="imagelayer"/></g><g class="minor-gridlayer"><g class="x"/><g class="y"/></g><g class="gridlayer"><g class="x"><path class="xgrid crisp" transform="translate(420,0)" d="M0,100v720" style="stroke: rgb(235, 240, 248); stroke-opacity: 1; stroke-width: 1px;"/><path class="xgrid crisp" transform="translate(1100,0)" d="M0,100v720" style="stroke: rgb(235, 240, 248); stroke-opacity: 1; stroke-width: 1px;"/></g><g class="y"><path class="ygrid crisp" transform="translate(0,703.27)" d="M80,0h1360" style="stroke: rgb(235, 240, 248); stroke-opacity: 1; stroke-width: 1px;"/><path class="ygrid crisp" transform="translate(0,616)" d="M80,0h1360" style="stroke: rgb(235, 240, 248); stroke-opacity: 1; stroke-width: 1px;"/><path class="ygrid crisp" transform="translate(0,528.73)" d="M80,0h1360" style="stroke: rgb(235, 240, 248); stroke-opacity: 1; stroke-width: 1px;"/><path class="ygrid crisp" transform="translate(0,441.45)" d="M80,0h1360" style="stroke: rgb(235, 240, 248); stroke-opacity: 1; stroke-width: 1px;"/><path class="ygrid crisp" transform="translate(0,354.18)" d="M80,0h1360" style="stroke: rgb(235, 240, 248); stroke-opacity: 1; stroke-width: 1px;"/><path class="ygrid crisp" transform="translate(0,266.90999999999997)" d="M80,0h1360" style="stroke: rgb(235, 240, 248); stroke-opacity: 1; stroke-width: 1px;"/><path class="ygrid crisp" transform="translate(0,179.64)" d="M80,0h1360" style="stroke: rgb(235, 240, 248); stroke-opacity: 1; stroke-width: 1px;"/></g></g><g class="zerolinelayer"><path class="xzl zl crisp" transform="translate(760,0)" d="M0,100v720" style="stroke: rgb(235, 240, 248); stroke-opacity: 1; stroke-width: 2px;"/><path class="yzl zl crisp" transform="translate(0,790.55)" d="M80,0h1360" style="stroke: rgb(235, 240, 248); stroke-opacity: 1; stroke-width: 2px;"/></g><g class="layer-between"><g class="shapelayer"/><g class="imagelayer"/></g><path class="xlines-below"/><path class="ylines-below"/><g class="overlines-below"/><g class="xaxislayer-below"/><g class="yaxislayer-below"/><g class="overaxes-below"/><g class="overplot"><g class="xy" transform="translate(80,100)" clip-path="url(#clipc64d9cxyplot)"><g class="scatterlayer mlayer"><g class="trace scatter traceb31ada" style="stroke-miterlimit: 2; opacity: 0.8;"><g class="fills"/><g class="errorbars"/><g class="lines"><path class="js-line" d="M0,673.09L27.2,666.55L54.4,655.64L81.6,651.27L108.8,660L136,670.91L163.2,673.09L190.4,653.45L217.6,614.18L244.8,601.09L272,620.73L299.2,642.55L326.4,670.91L353.6,642.55L380.8,533.45L408,420L435.2,332.73L462.4,271.64L489.6,516L516.8,271.64L544,219.27L571.2,306.55L598.4,385.09L625.6,507.27L652.8,598.91L680,651.27L707.2,642.55L734.4,625.09L761.6,622.91L788.8,646.91L816,644.73L843.2,666.55L870.4,668.73L897.6,666.55L924.8,660L952,664.36L979.2,670.91L1006.4,675.27L1033.6,677.45L1088,673.09L1115.2,675.27L1169.6,679.64L1196.8,679.64L1278.4,679.64L1305.6,681.82L1332.8,684L1360,684" style="vector-effect: none; fill: none; stroke: rgb(169, 214, 229); stroke-opacity: 1; stroke-width: 2px; opacity: 1;"/></g><g class="points"/><g class="text"/></g><g class="trace scatter tracea999b4" style="stroke-miterlimit: 2; opacity: 0.8;"><g class="fills"/><g class="errorbars"/><g class="lines"><path class="js-line" d="M0,668.73L27.2,681.82L54.4,677.45L81.6,662.18L108.8,655.64L136,657.82L163.2,668.73L190.4,681.82L217.6,664.36L244.8,642.55L272,616.36L299.2,616.36L326.4,638.18L380.8,677.45L408,616.36L435.2,542.18L462.4,402.55L489.6,358.91L516.8,262.91L544,245.45L571.2,254.18L625.6,358.91L652.8,437.45L680,559.64L707.2,625.09L734.4,655.64L761.6,651.27L788.8,642.55L816,642.55L897.6,668.73L924.8,668.73L952,670.91L979.2,666.55L1006.4,670.91L1033.6,670.91L1060.8,677.45L1088,677.45L1142.4,677.45L1169.6,36L1360,158.18" style="vector-effect: none; fill: none; stroke: rgb(137, 194, 217); stroke-opacity: 1; stroke-width: 2px; opacity: 1;"/></g><g class="points"/><g class="text"/></g><g class="trace scatter trace100e93" style="stroke-miterlimit: 2; opacity: 0.8;"><g class="fills"/><g class="errorbars"/><g class="lines"><path class="js-line" d="M0,679.64L27.2,675.27L54.4,668.73L81.6,668.73L108.8,673.09L136,681.82L163.2,679.64L217.6,657.82L244.8,655.64L272,664.36L299.2,677.45L326.4,670.91L353.6,651.27L380.8,625.09L408,614.18L435.2,625.09L462.4,642.55L489.6,666.55L516.8,631.64L544,524.73L571.2,428.73L598.4,358.91L625.6,262.91L652.8,236.73L680,262.91L707.2,315.27L734.4,598.91L761.6,498.55L788.8,596.73L816,640.36L843.2,655.64L870.4,644.73L897.6,640.36L924.8,638.18L952,646.91L979.2,664.36L1006.4,670.91L1060.8,666.55L1088,668.73L1115.2,668.73L1142.4,675.27L1169.6,675.27L1196.8,677.45L1278.4,677.45L1305.6,679.64L1332.8,681.82L1360,681.82" style="vector-effect: none; fill: none; stroke: rgb(97, 165, 194); stroke-opacity: 1; stroke-width: 2px; opacity: 1;"/></g><g class="points"/><g class="text"/></g><g class="trace scatter trace77eb87" style="stroke-miterlimit: 2; opacity: 0.8;"><g class="fills"/><g class="errorbars"/><g class="lines"><path class="js-line" d="M0,668.73L27.2,673.09L54.4,675.27L81.6,679.64L108.8,681.82L163.2,668.73L190.4,670.91L217.6,673.09L244.8,679.64L272,675.27L299.2,666.55L326.4,653.45L353.6,651.27L380.8,657.82L408,668.73L435.2,670.91L462.4,644.73L489.6,612L516.8,598.91L544,614.18L571.2,644.73L598.4,657.82L625.6,605.45L652.8,446.18L680,350.18L707.2,289.09L734.4,210.55L761.6,262.91L788.8,236.73L816,315.27L843.2,411.27L870.4,507.27L897.6,640.36L924.8,655.64L952,649.09L979.2,622.91L1006.4,644.73L1033.6,625.09L1060.8,649.09L1088,664.36L1115.2,670.91L1142.4,666.55L1169.6,660L1196.8,660L1224,668.73L1251.2,675.27L1278.4,677.45L1332.8,673.09L1360,675.27" style="vector-effect: none; fill: none; stroke: rgb(70, 111, 175); stroke-opacity: 1; stroke-width: 2px; opacity: 1;"/></g><g class="points"/><g class="text"/></g><g class="trace scatter trace5a8c3c" style="stroke-miterlimit: 2; opacity: 0.8;"><g class="fills"/><g class="errorbars"/><g class="lines"><path class="js-line" d="M0,114.55L81.6,62.18L108.8,53.45L136,36L163.2,679.64L190.4,675.27L217.6,673.09L272,677.45L299.2,677.45L326.4,673.09L353.6,664.36L380.8,660L408,662.18L435.2,664.36L462.4,670.91L489.6,664.36L516.8,636L544,625.09L571.2,622.91L598.4,633.82L625.6,653.45L652.8,646.91L680,542.18L707.2,393.82L734.4,297.82L761.6,219.27L788.8,219.27L816,193.09L843.2,262.91L870.4,341.45L897.6,446.18L924.8,516L952,618.55L979.2,664.36L1006.4,653.45L1060.8,605.45L1088,618.55L1115.2,644.73L1142.4,664.36L1169.6,679.64L1196.8,666.55L1224,655.64L1251.2,657.82L1305.6,675.27L1332.8,681.82L1360,675.27" style="vector-effect: none; fill: none; stroke: rgb(42, 111, 151); stroke-opacity: 1; stroke-width: 2px; opacity: 1;"/></g><g class="points"/><g class="text"/></g><g class="trace scatter trace070e9c" style="stroke-miterlimit: 2; opacity: 0.8;"><g class="fills"/><g class="errorbars"/><g class="lines"><path class="js-line" d="M0,201.82L136,114.55L163.2,105.82L244.8,53.45L272,44.73L299.2,673.09L326.4,668.73L353.6,666.55L380.8,668.73L408,668.73L435.2,666.55L462.4,660L489.6,644.73L516.8,638.18L544,638.18L571.2,651.27L598.4,653.45L625.6,622.91L652.8,542.18L680,420L707.2,324L734.4,297.82L761.6,254.18L788.8,271.64L816,315.27L843.2,385.09L870.4,622.91L897.6,579.27L924.8,655.64L952,670.91L979.2,651.27L1006.4,627.27L1033.6,618.55L1088,653.45L1115.2,673.09L1142.4,679.64L1169.6,666.55L1196.8,657.82L1224,662.18L1251.2,666.55L1278.4,677.45L1305.6,684L1332.8,677.45L1360,670.91" style="vector-effect: none; fill: none; stroke: rgb(1, 79, 134); stroke-opacity: 1; stroke-width: 2px; opacity: 1;"/></g><g class="points"/><g class="text"/></g><g class="trace scatter tracea542ee" style="stroke-miterlimit: 2; opacity: 0.8;"><g class="fills"/><g class="errorbars"/><g class="lines"><path class="js-line" d="M0,97.09L27.2,79.64L54.4,53.45L81.6,36L108.8,675.27L136,677.45L163.2,677.45L217.6,668.73L244.8,666.55L272,668.73L299.2,668.73L326.4,670.91L353.6,664.36L380.8,651.27L408,640.36L435.2,638.18L462.4,644.73L489.6,649.09L516.8,651.27L544,603.27L571.2,498.55L625.6,289.09L652.8,245.45L680,219.27L707.2,262.91L734.4,324L761.6,614.18L788.8,605.45L816,614.18L843.2,664.36L870.4,651.27L897.6,629.45L924.8,618.55L952,625.09L979.2,649.09L1006.4,668.73L1033.6,677.45L1060.8,664.36L1088,655.64L1115.2,660L1142.4,666.55L1169.6,677.45L1196.8,684L1224,675.27L1251.2,670.91L1278.4,670.91L1305.6,675.27L1332.8,681.82L1360,684" style="vector-effect: none; fill: none; stroke: rgb(1, 73, 124); stroke-opacity: 1; stroke-width: 2px; opacity: 1;"/></g><g class="points"/><g class="text"/></g><g class="trace scatter tracec69fba" style="stroke-miterlimit: 2; opacity: 0.8;"><g class="fills"/><g class="errorbars"/><g class="lines"><path class="js-line" d="M0,657.82L27.2,670.91L54.4,675.27L81.6,670.91L108.8,664.36L136,657.82L163.2,660L190.4,670.91L217.6,670.91L244.8,660L272,627.27L299.2,614.18L326.4,618.55L353.6,631.64L380.8,649.09L408,657.82L435.2,568.36L462.4,420L489.6,297.82L516.8,219.27L544,184.36L571.2,175.64L598.4,315.27L625.6,306.55L652.8,411.27L680,498.55L707.2,620.73L734.4,657.82L761.6,629.45L788.8,636L816,603.27L843.2,620.73L870.4,653.45L897.6,668.73L924.8,668.73L952,657.82L979.2,651.27L1033.6,668.73L1060.8,679.64L1088,677.45L1115.2,670.91L1142.4,668.73L1169.6,673.09L1224,681.82L1251.2,681.82L1278.4,675.27L1305.6,677.45L1332.8,677.45L1360,681.82" style="vector-effect: none; fill: none; stroke: rgb(1, 42, 74); stroke-opacity: 1; stroke-width: 2px; opacity: 1;"/></g><g class="points"/><g class="text"/></g></g></g></g><path class="xlines-above crisp" d="M0,0" style="fill: none;"/><path class="ylines-above crisp" d="M0,0" style="fill: none;"/><g class="overlines-above"/><g class="xaxislayer-above"><g class="xtick"><text text-anchor="middle" x="0" y="833" transform="translate(80,0)" style="font-family: 'Open Sans', verdana, arial, sans-serif; font-size: 12px; fill: rgb(42, 63, 95); fill-opacity: 1; white-space: pre; opacity: 1;">−0.01</text></g><g class="xtick"><text text-anchor="middle" x="0" y="833" style="font-family: 'Open Sans', verdana, arial, sans-serif; font-size: 12px; fill: rgb(42, 63, 95); fill-opacity: 1; white-space: pre; opacity: 1;" transform="translate(420,0)">−0.005</text></g><g class="xtick"><text text-anchor="middle" x="0" y="833" style="font-family: 'Open Sans', verdana, arial, sans-serif; font-size: 12px; fill: rgb(42, 63, 95); fill-opacity: 1; white-space: pre; opacity: 1;" transform="translate(760,0)">0</text></g><g class="xtick"><text text-anchor="middle" x="0" y="833" style="font-family: 'Open Sans', verdana, arial, sans-serif; font-size: 12px; fill: rgb(42, 63, 95); fill-opacity: 1; white-space: pre; opacity: 1;" transform="translate(1100,0)">0.005</text></g><g class="xtick"><text text-anchor="middle" x="0" y="833" style="font-family: 'Open Sans', verdana, arial, sans-serif; font-size: 12px; fill: rgb(42, 63, 95); fill-opacity: 1; white-space: pre; opacity: 1;" transform="translate(1440,0)">0.01</text></g></g><g class="yaxislayer-above"><g class="ytick"><text text-anchor="end" x="79" y="4.199999999999999" transform="translate(0,790.55)" style="font-family: 'Open Sans', verdana, arial, sans-serif; font-size: 12px; fill: rgb(42, 63, 95); fill-opacity: 1; white-space: pre; opacity: 1;">0</text></g><g class="ytick"><text text-anchor="end" x="79" y="4.199999999999999" style="font-family: 'Open Sans', verdana, arial, sans-serif; font-size: 12px; fill: rgb(42, 63, 95); fill-opacity: 1; white-space: pre; opacity: 1;" transform="translate(0,703.27)">20μ</text></g><g class="ytick"><text text-anchor="end" x="79" y="4.199999999999999" style="font-family: 'Open Sans', verdana, arial, sans-serif; font-size: 12px; fill: rgb(42, 63, 95); fill-opacity: 1; white-space: pre; opacity: 1;" transform="translate(0,616)">40μ</text></g><g class="ytick"><text text-anchor="end" x="79" y="4.199999999999999" style="font-family: 'Open Sans', verdana, arial, sans-serif; font-size: 12px; fill: rgb(42, 63, 95); fill-opacity: 1; white-space: pre; opacity: 1;" transform="translate(0,528.73)">60μ</text></g><g class="ytick"><text text-anchor="end" x="79" y="4.199999999999999" style="font-family: 'Open Sans', verdana, arial, sans-serif; font-size: 12px; fill: rgb(42, 63, 95); fill-opacity: 1; white-space: pre; opacity: 1;" transform="translate(0,441.45)">80μ</text></g><g class="ytick"><text text-anchor="end" x="79" y="4.199999999999999" style="font-family: 'Open Sans', verdana, arial, sans-serif; font-size: 12px; fill: rgb(42, 63, 95); fill-opacity: 1; white-space: pre; opacity: 1;" transform="translate(0,354.18)">100μ</text></g><g class="ytick"><text text-anchor="end" x="79" y="4.199999999999999" style="font-family: 'Open Sans', verdana, arial, sans-serif; font-size: 12px; fill: rgb(42, 63, 95); fill-opacity: 1; white-space: pre; opacity: 1;" transform="translate(0,266.90999999999997)">120μ</text></g><g class="ytick"><text text-anchor="end" x="79" y="4.199999999999999" style="font-family: 'Open Sans', verdana, arial, sans-serif; font-size: 12px; fill: rgb(42, 63, 95); fill-opacity: 1; white-space: pre; opacity: 1;" transform="translate(0,179.64)">140μ</text></g></g><g class="overaxes-above"/></g></g><g class="polarlayer"/><g class="smithlayer"/><g class="ternarylayer"/><g class="geolayer"/><g class="funnelarealayer"/><g class="pielayer"/><g class="iciclelayer"/><g class="treemaplayer"/><g class="sunburstlayer"/><g class="glimages"/><defs id="topdefs-c64d9c"><g class="clips"/><clipPath id="legendc64d9c"><rect width="121" height="181" x="0" y="0"/></clipPath></defs><g class="layer-above"><g class="imagelayer"/><g class="shapelayer"/></g><g class="infolayer"><g class="legend" pointer-events="all" transform="translate(1467.2,100)"><rect class="bg" shape-rendering="crispEdges" width="121" height="181" x="0" y="0" style="stroke: rgb(68, 68, 68); stroke-opacity: 1; fill: rgb(255, 255, 255); fill-opacity: 1; stroke-width: 0px;"/><g class="scrollbox" transform="" clip-path="url(#legendc64d9c)"><text class="legendtitletext" text-anchor="start" x="2" y="18.2" style="font-family: 'Open Sans', verdana, arial, sans-serif; font-size: 14px; fill: rgb(42, 63, 95); fill-opacity: 1; white-space: pre;">訊號</text><g class="groups"><g class="traces" transform="translate(0,32.7)" style="opacity: 1;"><text class="legendtext" text-anchor="start" x="40" y="4.680000000000001" style="font-family: 'Open Sans', verdana, arial, sans-serif; font-size: 12px; fill: rgb(42, 63, 95); fill-opacity: 1; white-space: pre;">0.0°(192)</text><g class="layers" style="opacity: 0.8;"><g class="legendfill"/><g class="legendlines"><path class="js-line" d="M5,0h30" style="fill: none; stroke: rgb(169, 214, 229); stroke-opacity: 1; stroke-width: 2px;"/></g><g class="legendsymbols"><g class="legendpoints"/></g></g><rect class="legendtoggle" x="0" y="-9.5" width="115.171875" height="19" style="fill: rgb(0, 0, 0); fill-opacity: 0;"/></g><g class="traces" transform="translate(0,51.7)" style="opacity: 1;"><text class="legendtext" text-anchor="start" x="40" y="4.680000000000001" style="font-family: 'Open Sans', verdana, arial, sans-serif; font-size: 12px; fill: rgb(42, 63, 95); fill-opacity: 1; white-space: pre;">45.0°(194)</text><g class="layers" style="opacity: 0.8;"><g class="legendfill"/><g class="legendlines"><path class="js-line" d="M5,0h30" style="fill: none; stroke: rgb(137, 194, 217); stroke-opacity: 1; stroke-width: 2px;"/></g><g class="legendsymbols"><g class="legendpoints"/></g></g><rect class="legendtoggle" x="0" y="-9.5" width="115.171875" height="19" style="fill: rgb(0, 0, 0); fill-opacity: 0;"/></g><g class="traces" transform="translate(0,70.7)" style="opacity: 1;"><text class="legendtext" text-anchor="start" x="40" y="4.680000000000001" style="font-family: 'Open Sans', verdana, arial, sans-serif; font-size: 12px; fill: rgb(42, 63, 95); fill-opacity: 1; white-space: pre;">90.0°(177)</text><g class="layers" style="opacity: 0.8;"><g class="legendfill"/><g class="legendlines"><path class="js-line" d="M5,0h30" style="fill: none; stroke: rgb(97, 165, 194); stroke-opacity: 1; stroke-width: 2px;"/></g><g class="legendsymbols"><g class="legendpoints"/></g></g><rect class="legendtoggle" x="0" y="-9.5" width="115.171875" height="19" style="fill: rgb(0, 0, 0); fill-opacity: 0;"/></g><g class="traces" transform="translate(0,89.7)" style="opacity: 1;"><text class="legendtext" text-anchor="start" x="40" y="4.680000000000001" style="font-family: 'Open Sans', verdana, arial, sans-serif; font-size: 12px; fill: rgb(42, 63, 95); fill-opacity: 1; white-space: pre;">135.0°(179)</text><g class="layers" style="opacity: 0.8;"><g class="legendfill"/><g class="legendlines"><path class="js-line" d="M5,0h30" style="fill: none; stroke: rgb(70, 111, 175); stroke-opacity: 1; stroke-width: 2px;"/></g><g class="legendsymbols"><g class="legendpoints"/></g></g><rect class="legendtoggle" x="0" y="-9.5" width="115.171875" height="19" style="fill: rgb(0, 0, 0); fill-opacity: 0;"/></g><g class="traces" transform="translate(0,108.7)" style="opacity: 1;"><text class="legendtext" text-anchor="start" x="40" y="4.680000000000001" style="font-family: 'Open Sans', verdana, arial, sans-serif; font-size: 12px; fill: rgb(42, 63, 95); fill-opacity: 1; white-space: pre;">180.0°(181)</text><g class="layers" style="opacity: 0.8;"><g class="legendfill"/><g class="legendlines"><path class="js-line" d="M5,0h30" style="fill: none; stroke: rgb(42, 111, 151); stroke-opacity: 1; stroke-width: 2px;"/></g><g class="legendsymbols"><g class="legendpoints"/></g></g><rect class="legendtoggle" x="0" y="-9.5" width="115.171875" height="19" style="fill: rgb(0, 0, 0); fill-opacity: 0;"/></g><g class="traces" transform="translate(0,127.7)" style="opacity: 1;"><text class="legendtext" text-anchor="start" x="40" y="4.680000000000001" style="font-family: 'Open Sans', verdana, arial, sans-serif; font-size: 12px; fill: rgb(42, 63, 95); fill-opacity: 1; white-space: pre;">225.0°(183)</text><g class="layers" style="opacity: 0.8;"><g class="legendfill"/><g class="legendlines"><path class="js-line" d="M5,0h30" style="fill: none; stroke: rgb(1, 79, 134); stroke-opacity: 1; stroke-width: 2px;"/></g><g class="legendsymbols"><g class="legendpoints"/></g></g><rect class="legendtoggle" x="0" y="-9.5" width="115.171875" height="19" style="fill: rgb(0, 0, 0); fill-opacity: 0;"/></g><g class="traces" transform="translate(0,146.7)" style="opacity: 1;"><text class="legendtext" text-anchor="start" x="40" y="4.680000000000001" style="font-family: 'Open Sans', verdana, arial, sans-serif; font-size: 12px; fill: rgb(42, 63, 95); fill-opacity: 1; white-space: pre;">270.0°(187)</text><g class="layers" style="opacity: 0.8;"><g class="legendfill"/><g class="legendlines"><path class="js-line" d="M5,0h30" style="fill: none; stroke: rgb(1, 73, 124); stroke-opacity: 1; stroke-width: 2px;"/></g><g class="legendsymbols"><g class="legendpoints"/></g></g><rect class="legendtoggle" x="0" y="-9.5" width="115.171875" height="19" style="fill: rgb(0, 0, 0); fill-opacity: 0;"/></g><g class="traces" transform="translate(0,165.7)" style="opacity: 1;"><text class="legendtext" text-anchor="start" x="40" y="4.680000000000001" style="font-family: 'Open Sans', verdana, arial, sans-serif; font-size: 12px; fill: rgb(42, 63, 95); fill-opacity: 1; white-space: pre;">315.0°(189)</text><g class="layers" style="opacity: 0.8;"><g class="legendfill"/><g class="legendlines"><path class="js-line" d="M5,0h30" style="fill: none; stroke: rgb(1, 42, 74); stroke-opacity: 1; stroke-width: 2px;"/></g><g class="legendsymbols"><g class="legendpoints"/></g></g><rect class="legendtoggle" x="0" y="-9.5" width="115.171875" height="19" style="fill: rgb(0, 0, 0); fill-opacity: 0;"/></g></g></g><rect class="scrollbar" rx="20" ry="3" width="0" height="0" x="0" y="0" style="fill: rgb(128, 139, 164); fill-opacity: 1;"/></g><g class="g-gtitle"><text class="gtitle" x="80" y="50" text-anchor="start" dy="0em" style="opacity: 1; font-family: 'Open Sans', verdana, arial, sans-serif; font-size: 17px; fill: rgb(42, 63, 95); fill-opacity: 1; white-space: pre;"><tspan class="line" dy="0em" x="80" y="50"><tspan style="font-weight:bold">原始數據預覽</tspan></tspan><tspan class="line" dy="1.3em" x="80" y="50">​<tspan style="font-size:70%" dy="0.3em">005-1 - 60mT - IVB</tspan><tspan dy="-0.21em">​</tspan></tspan></text></g><g class="g-xtitle"><text class="xtitle" x="760" y="859.8" text-anchor="middle" style="opacity: 1; font-family: 'Open Sans', verdana, arial, sans-serif; font-size: 14px; fill: rgb(42, 63, 95); fill-opacity: 1; white-space: pre;">磁場位置 (物理單位)</text></g><g class="g-ytitle"><text class="ytitle" transform="rotate(-90,29.0375,460)" x="29.0375" y="460" text-anchor="middle" style="opacity: 1; font-family: 'Open Sans', verdana, arial, sans-serif; font-size: 14px; fill: rgb(42, 63, 95); fill-opacity: 1; white-space: pre;">訊號振幅 (Ic)</text></g></g></svg>