<svg class="main-svg" xmlns="http://www.w3.org/2000/svg" xmlns:xlink="http://www.w3.org/1999/xlink" width="1600" height="900" style="" viewBox="0 0 1600 900"><rect x="0" y="0" width="1600" height="900" style="fill: rgb(255, 255, 255); fill-opacity: 1;"/><defs id="defs-e4bcb0"><g class="clips"><clipPath id="clipe4bcb0xyplot" class="plotclip"><rect width="1360" height="720"/></clipPath><clipPath class="axesclip" id="clipe4bcb0x"><rect x="80" y="0" width="1360" height="900"/></clipPath><clipPath class="axesclip" id="clipe4bcb0y"><rect x="0" y="100" width="1600" height="720"/></clipPath><clipPath class="axesclip" id="clipe4bcb0xy"><rect x="80" y="100" width="1360" height="720"/></clipPath></g><g class="gradients"/><g class="patterns"/></defs><g class="bglayer"/><g class="layer-below"><g class="imagelayer"/><g class="shapelayer"/></g><g class="cartesianlayer"><g class="subplot xy"><g class="layer-subplot"><g class="shapelayer"/><g class="imagelayer"/></g><g class="minor-gridlayer"><g class="x"/><g class="y"/></g><g class="gridlayer"><g class="x"><path class="xgrid crisp" transform="translate(420,0)" d="M0,100v720" style="stroke: rgb(235, 240, 248); stroke-opacity: 1; stroke-width: 1px;"/><path class="xgrid crisp" transform="translate(1100,0)" d="M0,100v720" style="stroke: rgb(235, 240, 248); stroke-opacity: 1; stroke-width: 1px;"/></g><g class="y"><path class="ygrid crisp" transform="translate(0,667.05)" d="M80,0h1360" style="stroke: rgb(235, 240, 248); stroke-opacity: 1; stroke-width: 1px;"/><path class="ygrid crisp" transform="translate(0,547.71)" d="M80,0h1360" style="stroke: rgb(235, 240, 248); stroke-opacity: 1; stroke-width: 1px;"/><path class="ygrid crisp" transform="translate(0,428.38)" d="M80,0h1360" style="stroke: rgb(235, 240, 248); stroke-opacity: 1; stroke-width: 1px;"/><path class="ygrid crisp" transform="translate(0,309.03999999999996)" d="M80,0h1360" style="stroke: rgb(235, 240, 248); stroke-opacity: 1; stroke-width: 1px;"/><path class="ygrid crisp" transform="translate(0,189.7)" d="M80,0h1360" style="stroke: rgb(235, 240, 248); stroke-opacity: 1; stroke-width: 1px;"/></g></g><g class="zerolinelayer"><path class="xzl zl crisp" transform="translate(760,0)" d="M0,100v720" style="stroke: rgb(235, 240, 248); stroke-opacity: 1; stroke-width: 2px;"/><path class="yzl zl crisp" transform="translate(0,786.39)" d="M80,0h1360" style="stroke: rgb(235, 240, 248); stroke-opacity: 1; stroke-width: 2px;"/></g><g class="layer-between"><g class="shapelayer"/><g class="imagelayer"/></g><path class="xlines-below"/><path class="ylines-below"/><g class="overlines-below"/><g class="xaxislayer-below"/><g class="yaxislayer-below"/><g class="overaxes-below"/><g class="overplot"><g class="xy" transform="translate(80,100)" clip-path="url(#clipe4bcb0xyplot)"><g class="scatterlayer mlayer"><g class="trace scatter trace36b599" style="stroke-miterlimit: 2; opacity: 0.8;"><g class="fills"/><g class="errorbars"/><g class="lines"><path class="js-line" d="M0,674.45L13.6,672.07L27.2,672.07L40.8,674.45L54.4,679.23L68,679.23L81.6,669.68L95.2,660.13L108.8,662.52L122.4,672.07L136,674.45L149.6,676.84L163.2,664.91L176.8,650.59L190.4,648.2L204,660.13L217.6,667.29L231.2,676.84L244.8,676.84L258.4,641.04L272,631.49L285.6,626.72L299.2,636.27L312.8,641.04L326.4,652.97L340,652.97L353.6,662.52L367.2,660.13L380.8,641.04L394.4,638.65L408,650.59L421.6,650.59L435.2,543.18L448.8,483.51L462.4,435.78L476,280.64L489.6,328.38L503.2,149.37L516.8,280.64L530.4,340.31L544,292.57L557.6,435.78L571.2,399.98L584.8,507.38L598.4,641.04L612,638.65L625.6,621.94L639.2,600.46L652.8,633.88L666.4,662.52L680,624.33L693.6,655.36L707.2,667.29L720.8,657.75L734.4,662.52L748,641.04L761.6,648.2L775.2,667.29L788.8,667.29L802.4,674.45L816,667.29L829.6,662.52L843.2,652.97L856.8,657.75L870.4,667.29L884,676.84L897.6,676.84L924.8,667.29L938.4,664.91L952,669.68L965.6,676.84L979.2,681.61L992.8,676.84L1006.4,672.07L1020,672.07L1033.6,672.07L1047.2,674.45L1074.4,684L1088,679.23L1115.2,674.45L1128.8,676.84L1142.4,679.23L1156,684L1169.6,684L1183.2,679.23L1224,679.23L1237.6,684L1264.8,684L1278.4,679.23L1305.6,679.23L1319.2,684L1346.4,684L1360,681.61" style="vector-effect: none; fill: none; stroke: rgb(169, 214, 229); stroke-opacity: 1; stroke-width: 2px; opacity: 1;"/></g><g class="points"/><g class="text"/></g><g class="trace scatter trace7c7531" style="stroke-miterlimit: 2; opacity: 0.8;"><g class="fills"/><g class="errorbars"/><g class="lines"><path class="js-line" d="M272,669.68L273.36,660.13L274.72,662.52L277.44,667.29L278.8,674.45L280.16,672.07L281.52,674.45L284.24,679.23L285.6,669.68L286.96,672.07L288.32,672.07L293.76,681.61L295.12,672.07L296.48,674.45L297.84,674.45L299.2,674.45L300.56,676.84L301.92,662.52L303.28,662.52L304.64,664.91L306,664.91L307.36,652.97L308.72,652.97L311.44,652.97L312.8,650.59L316.88,643.43L318.24,643.43L319.6,643.43L320.96,645.81L322.32,631.49L323.68,636.27L325.04,629.1L326.4,641.04L329.12,624.33L330.48,626.72L331.84,636.27L333.2,636.27L334.56,641.04L335.92,638.65L338.64,621.94L340,638.65L341.36,621.94L342.72,645.81L344.08,648.2L345.44,648.2L346.8,648.2L348.16,619.56L349.52,650.59L350.88,652.97L352.24,655.36L353.6,652.97L354.96,638.65L356.32,648.2L357.68,648.2L359.04,629.1L361.76,648.2L363.12,643.43L364.48,655.36L365.84,650.59L367.2,662.52L368.56,641.04L369.92,633.88L371.28,633.88L372.64,657.75L374,660.13L375.36,652.97L376.72,667.29L378.08,667.29L379.44,645.81L380.8,667.29L382.16,664.91L383.52,664.91L384.88,655.36L387.6,662.52L388.96,652.97L390.32,660.13L391.68,652.97L394.4,648.2L395.76,652.97L398.48,643.43L399.84,645.81L401.2,645.81L402.56,633.88L403.92,629.1L405.28,631.49L406.64,641.04L408,633.88L412.08,607.62L413.44,631.49L417.52,600.46L418.88,633.88L420.24,621.94L421.6,617.17L422.96,595.69L424.32,631.49L425.68,619.56L427.04,614.78L428.4,638.65L429.76,633.88L432.48,619.56L433.84,641.04L435.2,641.04L436.56,624.33L437.92,614.78L439.28,645.81L442,638.65L443.36,652.97L447.44,638.65L448.8,655.36L451.52,645.81L452.88,662.52L454.24,660.13L455.6,655.36L456.96,650.59L458.32,657.75L459.68,662.52L461.04,660.13L463.76,652.97L465.12,660.13L467.84,648.2L469.2,633.88L470.56,619.56L471.92,636.27L474.64,612.4L476,590.92L477.36,567.05L478.72,578.98L480.08,567.05L481.44,543.18L482.8,555.12L484.16,531.25L485.52,519.31L486.88,531.25L489.6,495.45L490.96,483.51L492.32,507.38L493.68,459.65L495.04,459.65L496.4,495.45L497.76,435.78L499.12,423.85L500.48,471.58L501.84,459.65L504.56,364.18L505.92,423.85L507.28,352.24L508.64,328.38L510,304.51L511.36,388.04L512.72,352.24L514.08,292.57L515.44,292.57L516.8,340.31L518.16,280.64L519.52,280.64L520.88,215.01L522.24,280.64L523.6,280.64L524.96,244.84L526.32,191.14L527.68,191.14L529.04,238.87L530.4,197.1L531.76,161.3L533.12,244.84L534.48,244.84L535.84,197.1L538.56,101.64L539.92,226.94L542.64,185.17L544,137.44L545.36,125.5L546.72,131.47L548.08,113.57L549.44,77.77L550.8,59.87L552.16,53.9L553.52,47.93L554.88,203.07L556.24,185.17L557.6,89.7L558.96,83.73L560.32,101.64L561.68,53.9L563.04,41.97L564.4,41.97L565.76,53.9L567.12,179.2L568.48,197.1L569.84,161.3L571.2,161.3L572.56,173.24L573.92,167.27L575.28,101.64L576.64,107.6L578,107.6L579.36,232.91L580.72,250.81L582.08,191.14L583.44,143.4L584.8,131.47L586.16,125.5L587.52,280.64L590.24,191.14L591.6,197.1L592.96,167.27L594.32,191.14L595.68,179.2L597.04,203.07L599.76,238.87L601.12,244.84L602.48,203.07L603.84,209.04L606.56,244.84L607.92,280.64L609.28,280.64L610.64,304.51L612,280.64L613.36,292.57L617.44,388.04L618.8,399.98L621.52,435.78L622.88,388.04L624.24,388.04L625.6,471.58L626.96,459.65L628.32,495.45L629.68,435.78L631.04,471.58L632.4,507.38L633.76,626.72L635.12,495.45L636.48,483.51L637.84,495.45L639.2,619.56L640.56,519.31L641.92,531.25L643.28,629.1L644.64,543.18L647.36,543.18L648.72,555.12L650.08,567.05L651.44,567.05L652.8,578.98L654.16,578.98L655.52,602.85L656.88,598.08L658.24,578.98L659.6,593.3L660.96,617.17L662.32,617.17L663.68,621.94L665.04,593.3L666.4,590.92L667.76,595.69L669.12,578.98L670.48,629.1L671.84,626.72L673.2,619.56L674.56,619.56L675.92,610.01L677.28,612.4L678.64,567.05L680,643.43L681.36,567.05L682.72,612.4L684.08,607.62L685.44,555.12L686.8,648.2L688.16,567.05L689.52,543.18L690.88,614.78L692.24,612.4L693.6,612.4L694.96,567.05L696.32,619.56L697.68,600.46L699.04,610.01L700.4,610.01L701.76,555.12L703.12,567.05L704.48,614.78L705.84,617.17L707.2,633.88L708.56,595.69L712.64,595.69L714,641.04L715.36,619.56L716.72,619.56L719.44,626.72L720.8,612.4L722.16,602.85L723.52,605.24L724.88,655.36L726.24,652.97L727.6,633.88L728.96,638.65L730.32,636.27L731.68,660.13L734.4,631.49L735.76,636.27L737.12,652.97L738.48,641.04L739.84,645.81L741.2,645.81L743.92,638.65L745.28,655.36L746.64,652.97L748,648.2L749.36,660.13L750.72,660.13L753.44,652.97L754.8,662.52L757.52,657.75L758.88,645.81L760.24,643.43L761.6,638.65L762.96,650.59L764.32,648.2L767.04,636.27L768.4,643.43L769.76,655.36L771.12,641.04L772.48,624.33L773.84,641.04L775.2,643.43L776.56,641.04L777.92,636.27L779.28,621.94L782,614.78L783.36,602.85L784.72,624.33L786.08,626.72L787.44,617.17L788.8,631.49L790.16,650.59L791.52,614.78L792.88,624.33L794.24,650.59L795.6,662.52L796.96,610.01L798.32,638.65L799.68,631.49L801.04,629.1L802.4,631.49L805.12,626.72L806.48,631.49L807.84,619.56L809.2,621.94L810.56,638.65L811.92,633.88L813.28,631.49L814.64,638.65L816,638.65" style="vector-effect: none; fill: none; stroke: rgb(169, 214, 229); stroke-opacity: 1; stroke-width: 2px; opacity: 1;"/></g><g class="points"/><g class="text"/></g><g class="trace scatter trace340843" style="stroke-miterlimit: 2; opacity: 0.8;"><g class="fills"/><g class="errorbars"/><g class="lines"><path class="js-line" d="M340,662.52L353.6,662.52L360.4,665.5L367.2,671.47L374,674.45L387.6,674.45L394.4,677.44L401.2,671.47L408,656.55L414.8,647.6L421.6,641.64L428.4,644.62L435.2,650.59L442,656.55L448.8,659.54L455.6,662.52L462.4,662.52L469.2,668.49L476,671.47L482.8,668.49L489.6,650.59L496.4,635.67L503.2,626.72L510,623.73L516.8,629.7L523.6,626.72L530.4,635.67L537.2,644.62L544,656.55L550.8,671.47L557.6,668.49L564.4,665.5L571.2,596.88L578,543.18L584.8,471.58L591.6,423.85L598.4,423.85L605.2,352.24L612,310.48L618.8,352.24L625.6,328.38L632.4,304.51L639.2,232.91L646,328.38L652.8,268.71L659.6,304.51L666.4,286.61L673.2,304.51L680,596.88L686.8,304.51L693.6,304.51L700.4,376.11L707.2,399.98L714,447.71L720.8,599.87L727.6,638.65L734.4,543.18L741.2,650.59L748,632.69L754.8,644.62L761.6,623.73L768.4,638.65L775.2,620.75L782,644.62L788.8,656.55L795.6,647.6L802.4,650.59L809.2,653.57L816,662.52L822.8,653.57L829.6,659.54L836.4,659.54L843.2,656.55L850,647.6L856.8,641.64L863.6,635.67L870.4,644.62L877.2,623.73L884,629.7L890.8,623.73L897.6,635.67L904.4,656.55L911.2,653.57L918,671.47L924.8,674.45L931.6,677.44L938.4,674.45L952,668.49L958.8,659.54L965.6,659.54L972.4,656.55L986,656.55L992.8,659.54L999.6,665.5L1006.4,668.49L1013.2,677.44L1020,677.44" style="vector-effect: none; fill: none; stroke: rgb(169, 214, 229); stroke-opacity: 1; stroke-width: 2px; opacity: 1;"/></g><g class="points"/><g class="text"/></g><g class="trace scatter traced1f6b3" style="stroke-miterlimit: 2; opacity: 0.8;"><g class="fills"/><g class="errorbars"/><g class="lines"><path class="js-line" d="M544,643.43L546.72,643.43L548.08,624.33L549.44,624.33L550.8,626.72L553.52,633.88L554.88,636.27L557.6,645.81L558.96,643.43L560.32,650.59L561.68,652.97L563.04,657.75L564.4,657.75L565.76,660.13L567.12,643.43L569.84,650.59L571.2,652.97L573.92,660.13L575.28,662.52L578,667.29L579.36,672.07L580.72,660.13L582.08,674.45L583.44,660.13L584.8,662.52L587.52,667.29L588.88,672.07L591.6,672.07L592.96,660.13L595.68,660.13L597.04,655.36L598.4,645.81L599.76,645.81L603.84,633.88L605.2,633.88L606.56,636.27L607.92,633.88L609.28,633.88L610.64,602.85L612,600.46L613.36,600.46L616.08,600.46L617.44,598.08L618.8,598.08L620.16,600.46L621.52,598.08L622.88,600.46L624.24,600.46L625.6,593.3L626.96,590.92L628.32,578.98L629.68,590.92L631.04,578.98L632.4,567.05L633.76,567.05L636.48,567.05L637.84,626.72L639.2,626.72L640.56,624.33L641.92,624.33L643.28,617.17L644.64,614.78L646,617.17L647.36,605.24L648.72,643.43L650.08,643.43L651.44,638.65L652.8,638.65L654.16,655.36L655.52,660.13L656.88,657.75L658.24,650.59L659.6,660.13L660.96,650.59L662.32,650.59L663.68,643.43L665.04,664.91L666.4,664.91L667.76,660.13L673.2,643.43L674.56,633.88L677.28,602.85L678.64,605.24L681.36,578.98L682.72,578.98L684.08,567.05L685.44,567.05L688.16,531.25L689.52,531.25L690.88,519.31L692.24,495.45L693.6,495.45L694.96,519.31L696.32,459.65L697.68,459.65L699.04,507.38L700.4,495.45L701.76,447.71L703.12,483.51L705.84,411.91L707.2,376.11L708.56,364.18L709.92,411.91L712.64,316.44L714,328.38L715.36,352.24L716.72,316.44L718.08,280.64L719.44,280.64L720.8,328.38L722.16,328.38L723.52,244.84L724.88,232.91L726.24,280.64L727.6,262.74L728.96,220.97L730.32,203.07L731.68,280.64L733.04,280.64L734.4,268.71L735.76,191.14L737.12,197.1L738.48,197.1L739.84,167.27L741.2,244.84L742.56,250.81L743.92,215.01L745.28,220.97L746.64,215.01L748,215.01L749.36,220.97L750.72,185.17L752.08,173.24L753.44,161.3L754.8,161.3L756.16,167.27L757.52,167.27L758.88,185.17L760.24,191.14L761.6,173.24L762.96,173.24L764.32,179.2L765.68,238.87L767.04,173.24L768.4,179.2L769.76,161.3L771.12,161.3L772.48,268.71L773.84,280.64L775.2,238.87L776.56,256.77L779.28,209.04L780.64,256.77L782,244.84L783.36,256.77L784.72,280.64L786.08,268.71L787.44,280.64L788.8,364.18L790.16,292.57L791.52,292.57L792.88,376.11L794.24,376.11L795.6,316.44L796.96,316.44L798.32,328.38L799.68,328.38L802.4,399.98L803.76,388.04L805.12,423.85L806.48,636.27L807.84,617.17L809.2,399.98L811.92,435.78L813.28,447.71L814.64,459.65L816,495.45L817.36,507.38L818.72,495.45L820.08,507.38L821.44,495.45L825.52,531.25L826.88,519.31L829.6,543.18L830.96,543.18L832.32,555.12L833.68,543.18L835.04,555.12L836.4,555.12L837.76,590.92L839.12,578.98L841.84,607.62L843.2,657.75L844.56,600.46L845.92,605.24L847.28,617.17L848.64,636.27L850,626.72L851.36,631.49L852.72,629.1L854.08,629.1L855.44,648.2L856.8,610.01L858.16,655.36L859.52,602.85L860.88,602.85L862.24,600.46L864.96,650.59L866.32,636.27L867.68,629.1L869.04,629.1L870.4,578.98L871.76,633.88L873.12,664.91L874.48,629.1L875.84,626.72L877.2,621.94L878.56,619.56L879.92,641.04L881.28,624.33L882.64,645.81L884,617.17L885.36,650.59L886.72,638.65L888.08,652.97L890.8,652.97L892.16,657.75L894.88,643.43L896.24,662.52L897.6,660.13L898.96,660.13L900.32,667.29L901.68,660.13L903.04,655.36L904.4,657.75L905.76,650.59L907.12,650.59L908.48,664.91L909.84,664.91L911.2,657.75L912.56,657.75L913.92,655.36L915.28,657.75L922.08,657.75L923.44,655.36L926.16,655.36L927.52,650.59L928.88,660.13L930.24,655.36L931.6,657.75L932.96,657.75L934.32,648.2L935.68,648.2L938.4,633.88L939.76,633.88L941.12,643.43L942.48,643.43L943.84,636.27L945.2,636.27L946.56,612.4L947.92,641.04L949.28,638.65L950.64,626.72L952,645.81L953.36,619.56L954.72,612.4L956.08,629.1L957.44,617.17L958.8,595.69L960.16,638.65L961.52,578.98L964.24,641.04L965.6,631.49L966.96,660.13L968.32,612.4L969.68,652.97L971.04,624.33L972.4,600.46L973.76,602.85L975.12,638.65L976.48,614.78L977.84,610.01L979.2,614.78L980.56,624.33L981.92,619.56L983.28,602.85L984.64,638.65L986,617.17L987.36,631.49L988.72,619.56L990.08,619.56L991.44,624.33L992.8,633.88L994.16,624.33L995.52,629.1L996.88,633.88L998.24,631.49L999.6,636.27L1000.96,633.88L1002.32,636.27L1003.68,641.04L1005.04,655.36L1006.4,645.81L1009.12,650.59L1010.48,650.59L1011.84,657.75L1013.2,655.36L1014.56,664.91L1015.92,662.52L1017.28,669.68L1018.64,669.68L1020,669.68L1021.36,667.29L1022.72,676.84L1024.08,674.45L1026.8,674.45L1028.16,672.07L1029.52,679.23L1030.88,674.45L1032.24,674.45L1033.6,676.84L1034.96,672.07L1036.32,676.84L1037.68,674.45L1039.04,667.29L1040.4,676.84L1041.76,674.45L1044.48,660.13L1045.84,672.07L1048.56,660.13L1049.92,669.68L1051.28,667.29L1052.64,667.29L1054,655.36L1055.36,650.59L1056.72,662.52L1058.08,660.13L1059.44,657.75L1060.8,662.52L1062.16,655.36L1063.52,655.36L1064.88,652.97L1066.24,643.43L1067.6,650.59L1068.96,645.81L1070.32,650.59L1071.68,650.59L1073.04,645.81L1074.4,650.59L1075.76,650.59L1077.12,645.81L1079.84,650.59L1081.2,645.81L1083.92,650.59L1085.28,650.59L1086.64,650.59L1088,652.97" style="vector-effect: none; fill: none; stroke: rgb(137, 194, 217); stroke-opacity: 1; stroke-width: 2px; opacity: 1;"/></g><g class="points"/><g class="text"/></g><g class="trace scatter trace6cf39d" style="stroke-miterlimit: 2; opacity: 0.8;"><g class="fills"/><g class="errorbars"/><g class="lines"><path class="js-line" d="M408,662.52L421.6,662.52L428.4,672.07L442,672.07L448.8,676.84L455.6,676.84L462.4,667.29L469.2,657.75L476,652.97L482.8,652.97L489.6,657.75L510,672.07L516.8,672.07L523.6,672.07L530.4,676.84L537.2,672.07L544,657.75L550.8,643.43L557.6,633.88L564.4,629.1L571.2,633.88L598.4,652.97L605.2,662.52L612,662.52L618.8,667.29L625.6,662.52L632.4,652.97L639.2,643.43L646,624.33L652.8,629.1L659.6,605.24L666.4,610.01L673.2,595.69L680,610.01L686.8,619.56L693.6,633.88L700.4,643.43L707.2,648.2L714,643.43L720.8,610.01L727.6,555.12L734.4,507.38L741.2,435.78L748,435.78L754.8,376.11L761.6,304.51L768.4,370.14L775.2,352.24L782,614.78L788.8,364.18L795.6,328.38L802.4,280.64L809.2,322.41L816,298.54L822.8,358.21L829.6,352.24L836.4,370.14L843.2,423.85L850,555.12L856.8,619.56L863.6,459.65L870.4,507.38L877.2,633.88L884,576.6L890.8,619.56L897.6,638.65L904.4,652.97L911.2,652.97L918,648.2L924.8,638.65L931.6,638.65L945.2,648.2L952,662.52L958.8,657.75L965.6,657.75L972.4,648.2L979.2,657.75L986,657.75L992.8,648.2L999.6,638.65L1006.4,643.43L1013.2,638.65L1020,629.1L1026.8,657.75L1033.6,624.33L1040.4,633.88L1047.2,648.2L1054,648.2L1060.8,652.97L1067.6,672.07L1074.4,676.84L1088,676.84" style="vector-effect: none; fill: none; stroke: rgb(137, 194, 217); stroke-opacity: 1; stroke-width: 2px; opacity: 1;"/></g><g class="points"/><g class="text"/></g><g class="trace scatter trace2dab05" style="stroke-miterlimit: 2; opacity: 0.8;"><g class="fills"/><g class="errorbars"/><g class="lines"><path class="js-line" d="M425,667.29L438.6,667.29L445.4,657.75L452.2,648.2L459,662.52L465.8,657.75L472.6,657.75L479.4,667.29L486.2,672.07L493,667.29L499.8,672.07L506.6,667.29L513.4,648.2L527,638.65L533.8,629.1L540.6,638.65L547.4,629.1L554.2,638.65L561,643.43L567.8,643.43L574.6,652.97L581.4,657.75L588.2,657.75L595,648.2L601.8,652.97L608.6,638.65L615.4,629.1L622.2,619.56L629,614.78L635.8,614.78L642.6,610.01L649.4,610.01L656.2,629.1L663,638.65L669.8,633.88L676.6,614.78L683.4,576.6L690.2,543.18L697,483.51L703.8,459.65L710.6,364.18L717.4,334.34L724.2,292.57L731,203.07L737.8,215.01L744.6,567.05L751.4,125.5L758.2,328.38L765,304.51L771.8,346.28L778.6,322.41L785.4,304.51L792.2,358.21L799,370.14L805.8,358.21L812.6,370.14L819.4,423.85L826.2,471.58L833,471.58L839.8,624.33L846.6,567.05L860.2,648.2L867,667.29L873.8,652.97L880.6,657.75L887.4,662.52L894.2,638.65L914.6,624.33L921.4,662.52L928.2,629.1L935,638.65L941.8,643.43L948.6,652.97L955.4,662.52L962.2,662.52L969,662.52L975.8,652.97L982.6,648.2L989.4,657.75L996.2,633.88L1003,633.88L1009.8,652.97L1016.6,648.2L1023.4,652.97L1030.2,662.52L1043.8,672.07L1050.6,672.07L1057.4,672.07L1064.2,667.29L1071,667.29L1077.8,662.52L1084.6,657.75L1091.4,662.52L1098.2,652.97L1105,657.75" style="vector-effect: none; fill: none; stroke: rgb(97, 165, 194); stroke-opacity: 1; stroke-width: 2px; opacity: 1;"/></g><g class="points"/><g class="text"/></g><g class="trace scatter trace50938d" style="stroke-miterlimit: 2; opacity: 0.8;"><g class="fills"/><g class="errorbars"/><g class="lines"><path class="js-line" d="M340,657.75L353.6,648.2L360.4,648.2L380.8,662.52L387.6,662.52L394.4,672.07L401.2,672.07L408,676.84L414.8,667.29L421.6,652.97L428.4,633.88L435.2,629.1L442,619.56L448.8,624.33L455.6,624.33L462.4,629.1L469.2,629.1L476,629.1L482.8,648.2L489.6,643.43L496.4,643.43L510,662.52L516.8,662.52L523.6,648.2L530.4,638.65L537.2,624.33L544,629.1L557.6,619.56L564.4,629.1L571.2,624.33L578,614.78L584.8,586.14L591.6,543.18L598.4,495.45L605.2,459.65L612,399.98L618.8,358.21L625.6,322.41L632.4,268.71L639.2,250.81L646,179.2L652.8,149.37L659.6,113.57L666.4,209.04L673.2,173.24L680,334.34L686.8,334.34L693.6,399.98L700.4,352.24L707.2,376.11L714,411.91L720.8,388.04L727.6,495.45L741.2,543.18L748,590.92L754.8,633.88L761.6,657.75L768.4,662.52L775.2,657.75L782,652.97L788.8,633.88L795.6,619.56L802.4,648.2L809.2,652.97L816,619.56L822.8,614.78L829.6,638.65L836.4,633.88L843.2,643.43L850,657.75L856.8,662.52L863.6,667.29L870.4,657.75L877.2,662.52L884,652.97L890.8,643.43L897.6,638.65L904.4,629.1L911.2,662.52L918,643.43L924.8,643.43L931.6,657.75L938.4,667.29L945.2,676.84L952,672.07L972.4,672.07L979.2,657.75L992.8,657.75L999.6,662.52L1006.4,657.75L1013.2,662.52L1020,667.29" style="vector-effect: none; fill: none; stroke: rgb(97, 165, 194); stroke-opacity: 1; stroke-width: 2px; opacity: 1;"/></g><g class="points"/><g class="text"/></g><g class="trace scatter tracea8d78a" style="stroke-miterlimit: 2; opacity: 0.8;"><g class="fills"/><g class="errorbars"/><g class="lines"><path class="js-line" d="M0,677.44L13.6,677.44L27.2,683.4L54.4,671.47L68,668.49L81.6,674.45L95.2,677.44L122.4,677.44L136,665.5L149.6,659.54L163.2,662.52L176.8,668.49L190.4,677.44L204,677.44L217.6,665.5L231.2,647.6L244.8,650.59L258.4,656.55L272,671.47L285.6,674.45L299.2,674.45L312.8,638.65L326.4,626.72L353.6,614.78L367.2,623.73L394.4,647.6L408,656.55L421.6,671.47L435.2,653.57L448.8,638.65L462.4,638.65L476,629.7L489.6,567.05L503.2,641.64L516.8,447.71L530.4,316.44L544,280.64L557.6,244.84L571.2,185.17L584.8,388.04L598.4,364.18L612,435.78L625.6,578.98L639.2,641.64L652.8,641.64L666.4,653.57L680,662.52L693.6,608.82L707.2,641.64L720.8,653.57L734.4,668.49L761.6,662.52L775.2,656.55L788.8,650.59L802.4,641.64L816,662.52L829.6,662.52L843.2,677.44L856.8,671.47L870.4,665.5L884,656.55L897.6,653.57L911.2,665.5L924.8,668.49L938.4,677.44L952,677.44L965.6,671.47L979.2,665.5L992.8,665.5L1020,677.44L1033.6,680.42L1074.4,671.47L1088,671.47L1115.2,683.4L1128.8,683.4L1142.4,677.44L1156,674.45L1169.6,674.45L1183.2,677.44L1196.8,683.4L1210.4,683.4L1237.6,677.44L1251.2,677.44L1264.8,677.44L1278.4,683.4L1305.6,683.4L1319.2,680.42L1360,680.42" style="vector-effect: none; fill: none; stroke: rgb(97, 165, 194); stroke-opacity: 1; stroke-width: 2px; opacity: 1;"/></g><g class="points"/><g class="text"/></g><g class="trace scatter tracebef0e2" style="stroke-miterlimit: 2; opacity: 0.8;"><g class="fills"/><g class="errorbars"/><g class="lines"><path class="js-line" d="M408,676.84L409.36,674.45L410.72,679.23L412.08,669.68L413.44,672.07L416.16,679.23L417.52,669.68L418.88,672.07L420.24,676.84L421.6,679.23L422.96,667.29L424.32,667.29L425.68,672.07L427.04,660.13L428.4,662.52L429.76,662.52L431.12,652.97L433.84,652.97L435.2,648.2L437.92,643.43L439.28,643.43L440.64,643.43L442,641.04L443.36,633.88L444.72,633.88L447.44,641.04L448.8,621.94L450.16,626.72L451.52,636.27L454.24,641.04L455.6,619.56L458.32,631.49L459.68,638.65L461.04,641.04L462.4,645.81L463.76,629.1L465.12,638.65L466.48,638.65L467.84,641.04L469.2,645.81L470.56,624.33L471.92,652.97L473.28,652.97L474.64,638.65L476,643.43L478.72,648.2L480.08,652.97L481.44,655.36L482.8,655.36L485.52,660.13L486.88,660.13L488.24,662.52L489.6,662.52L490.96,662.52L492.32,664.91L493.68,664.91L495.04,650.59L496.4,652.97L497.76,650.59L499.12,652.97L500.48,652.97L501.84,652.97L503.2,657.75L505.92,650.59L507.28,650.59L508.64,648.2L510,643.43L511.36,650.59L512.72,638.65L514.08,648.2L515.44,645.81L516.8,643.43L518.16,643.43L524.96,617.17L526.32,607.62L529.04,590.92L530.4,636.27L531.76,629.1L533.12,629.1L537.2,600.46L538.56,578.98L539.92,590.92L541.28,567.05L542.64,631.49L544,621.94L546.72,610.01L548.08,578.98L549.44,636.27L550.8,636.27L553.52,624.33L554.88,626.72L556.24,614.78L557.6,648.2L558.96,643.43L560.32,643.43L563.04,633.88L564.4,652.97L565.76,657.75L567.12,650.59L568.48,650.59L569.84,643.43L571.2,662.52L572.56,660.13L579.36,638.65L580.72,624.33L582.08,602.85L583.44,600.46L584.8,595.69L586.16,598.08L588.88,567.05L590.24,567.05L591.6,555.12L592.96,567.05L597.04,507.38L598.4,507.38L599.76,531.25L601.12,495.45L603.84,435.78L605.2,447.71L606.56,471.58L607.92,471.58L610.64,388.04L612,399.98L613.36,423.85L614.72,423.85L617.44,376.11L618.8,280.64L620.16,280.64L621.52,304.51L622.88,352.24L624.24,340.31L625.6,238.87L626.96,220.97L628.32,215.01L629.68,197.1L632.4,197.1L633.76,215.01L635.12,244.84L636.48,149.37L637.84,131.47L639.2,149.37L640.56,179.2L641.92,185.17L643.28,167.27L644.64,161.3L646,167.27L647.36,161.3L648.72,167.27L650.08,125.5L651.44,143.4L652.8,131.47L654.16,119.54L655.52,83.73L656.88,113.57L658.24,95.67L659.6,53.9L660.96,47.93L662.32,65.83L663.68,71.8L665.04,47.93L666.4,77.77L669.12,47.93L670.48,197.1L671.84,36L673.2,47.93L674.56,197.1L675.92,203.07L678.64,131.47L680,179.2L681.36,197.1L682.72,149.37L684.08,107.6L685.44,119.54L688.16,155.34L689.52,137.44L690.88,167.27L692.24,137.44L693.6,125.5L694.96,161.3L696.32,191.14L697.68,292.57L699.04,268.71L700.4,209.04L701.76,191.14L703.12,232.91L704.48,280.64L705.84,232.91L707.2,226.94L708.56,232.91L709.92,256.77L711.28,256.77L712.64,328.38L714,352.24L715.36,388.04L716.72,376.11L718.08,364.18L719.44,328.38L720.8,340.31L722.16,411.91L723.52,399.98L724.88,399.98L726.24,612.4L727.6,423.85L728.96,459.65L730.32,595.69L731.68,411.91L733.04,447.71L734.4,641.04L735.76,435.78L738.48,495.45L739.84,519.31L741.2,495.45L742.56,519.31L743.92,531.25L745.28,531.25L749.36,567.05L750.72,567.05L752.08,578.98L753.44,638.65L754.8,567.05L756.16,645.81L757.52,578.98L758.88,633.88L760.24,641.04L761.6,641.04L762.96,645.81L764.32,643.43L765.68,660.13L767.04,645.81L768.4,650.59L769.76,643.43L771.12,657.75L772.48,662.52L773.84,648.2L775.2,652.97L776.56,614.78L777.92,650.59L779.28,648.2L780.64,614.78L782,641.04L783.36,595.69L784.72,655.36L786.08,655.36L787.44,626.72L788.8,636.27L790.16,645.81L791.52,633.88L792.88,567.05L794.24,641.04L795.6,638.65L796.96,657.75L798.32,626.72L799.68,638.65L801.04,617.17L802.4,621.94L803.76,617.17L805.12,629.1L806.48,652.97L807.84,610.01L809.2,617.17L810.56,645.81L811.92,633.88L813.28,652.97L814.64,621.94L816,655.36L817.36,631.49L818.72,655.36L820.08,617.17L821.44,648.2L822.8,629.1L824.16,624.33L825.52,626.72L826.88,660.13L828.24,657.75L829.6,631.49L832.32,641.04L833.68,638.65L835.04,638.65L836.4,643.43L837.76,645.81L839.12,638.65L840.48,652.97L841.84,641.04L843.2,652.97L844.56,650.59L845.92,655.36L847.28,655.36L848.64,655.36L850,657.75L851.36,655.36L852.72,655.36L854.08,657.75L855.44,650.59L856.8,648.2L858.16,650.59L859.52,650.59L860.88,645.81L862.24,645.81L863.6,643.43L864.96,662.52L866.32,652.97L867.68,652.97L869.04,648.2L870.4,648.2L871.76,662.52L873.12,650.59L874.48,648.2L875.84,648.2L877.2,638.65L878.56,633.88L879.92,645.81L881.28,633.88L882.64,660.13L884,629.1L885.36,624.33L886.72,614.78L888.08,645.81L889.44,650.59L890.8,626.72L892.16,612.4L893.52,638.65L894.88,631.49L896.24,645.81L897.6,617.17L898.96,636.27L900.32,643.43L901.68,657.75L903.04,629.1L904.4,636.27L905.76,648.2L907.12,636.27L908.48,655.36L909.84,641.04L911.2,669.68L912.56,641.04L915.28,645.81L916.64,660.13L918,648.2L919.36,655.36L920.72,650.59L922.08,662.52L923.44,655.36L924.8,662.52L926.16,664.91L927.52,662.52L928.88,669.68L930.24,662.52L931.6,664.91L932.96,676.84L934.32,676.84L935.68,674.45L937.04,669.68L938.4,679.23L941.12,674.45L942.48,669.68L943.84,676.84L945.2,674.45L946.56,669.68L947.92,669.68L949.28,674.45L950.64,672.07L952,667.29" style="vector-effect: none; fill: none; stroke: rgb(127, 127, 127); stroke-opacity: 1; stroke-width: 2px; opacity: 1;"/></g><g class="points"/><g class="text"/></g></g></g></g><path class="xlines-above crisp" d="M0,0" style="fill: none;"/><path class="ylines-above crisp" d="M0,0" style="fill: none;"/><g class="overlines-above"/><g class="xaxislayer-above"><g class="xtick"><text text-anchor="middle" x="0" y="833" transform="translate(80,0)" style="font-family: 'Open Sans', verdana, arial, sans-serif; font-size: 12px; fill: rgb(42, 63, 95); fill-opacity: 1; white-space: pre; opacity: 1;">−0.01</text></g><g class="xtick"><text text-anchor="middle" x="0" y="833" style="font-family: 'Open Sans', verdana, arial, sans-serif; font-size: 12px; fill: rgb(42, 63, 95); fill-opacity: 1; white-space: pre; opacity: 1;" transform="translate(420,0)">−0.005</text></g><g class="xtick"><text text-anchor="middle" x="0" y="833" style="font-family: 'Open Sans', verdana, arial, sans-serif; font-size: 12px; fill: rgb(42, 63, 95); fill-opacity: 1; white-space: pre; opacity: 1;" transform="translate(760,0)">0</text></g><g class="xtick"><text text-anchor="middle" x="0" y="833" style="font-family: 'Open Sans', verdana, arial, sans-serif; font-size: 12px; fill: rgb(42, 63, 95); fill-opacity: 1; white-space: pre; opacity: 1;" transform="translate(1100,0)">0.005</text></g><g class="xtick"><text text-anchor="middle" x="0" y="833" style="font-family: 'Open Sans', verdana, arial, sans-serif; font-size: 12px; fill: rgb(42, 63, 95); fill-opacity: 1; white-space: pre; opacity: 1;" transform="translate(1440,0)">0.01</text></g></g><g class="yaxislayer-above"><g class="ytick"><text text-anchor="end" x="79" y="4.199999999999999" transform="translate(0,786.39)" style="font-family: 'Open Sans', verdana, arial, sans-serif; font-size: 12px; fill: rgb(42, 63, 95); fill-opacity: 1; white-space: pre; opacity: 1;">0</text></g><g class="ytick"><text text-anchor="end" x="79" y="4.199999999999999" style="font-family: 'Open Sans', verdana, arial, sans-serif; font-size: 12px; fill: rgb(42, 63, 95); fill-opacity: 1; white-space: pre; opacity: 1;" transform="translate(0,667.05)">10μ</text></g><g class="ytick"><text text-anchor="end" x="79" y="4.199999999999999" style="font-family: 'Open Sans', verdana, arial, sans-serif; font-size: 12px; fill: rgb(42, 63, 95); fill-opacity: 1; white-space: pre; opacity: 1;" transform="translate(0,547.71)">20μ</text></g><g class="ytick"><text text-anchor="end" x="79" y="4.199999999999999" style="font-family: 'Open Sans', verdana, arial, sans-serif; font-size: 12px; fill: rgb(42, 63, 95); fill-opacity: 1; white-space: pre; opacity: 1;" transform="translate(0,428.38)">30μ</text></g><g class="ytick"><text text-anchor="end" x="79" y="4.199999999999999" style="font-family: 'Open Sans', verdana, arial, sans-serif; font-size: 12px; fill: rgb(42, 63, 95); fill-opacity: 1; white-space: pre; opacity: 1;" transform="translate(0,309.03999999999996)">40μ</text></g><g class="ytick"><text text-anchor="end" x="79" y="4.199999999999999" style="font-family: 'Open Sans', verdana, arial, sans-serif; font-size: 12px; fill: rgb(42, 63, 95); fill-opacity: 1; white-space: pre; opacity: 1;" transform="translate(0,189.7)">50μ</text></g></g><g class="overaxes-above"/></g></g><g class="polarlayer"/><g class="smithlayer"/><g class="ternarylayer"/><g class="geolayer"/><g class="funnelarealayer"/><g class="pielayer"/><g class="iciclelayer"/><g class="treemaplayer"/><g class="sunburstlayer"/><g class="glimages"/><defs id="topdefs-e4bcb0"><g class="clips"/><clipPath id="legende4bcb0"><rect width="121" height="200" x="0" y="0"/></clipPath></defs><g class="layer-above"><g class="imagelayer"/><g class="shapelayer"/></g><g class="infolayer"><g class="legend" pointer-events="all" transform="translate(1467.2,100)"><rect class="bg" shape-rendering="crispEdges" width="121" height="200" x="0" y="0" style="stroke: rgb(68, 68, 68); stroke-opacity: 1; fill: rgb(255, 255, 255); fill-opacity: 1; stroke-width: 0px;"/><g class="scrollbox" transform="" clip-path="url(#legende4bcb0)"><text class="legendtitletext" text-anchor="start" x="2" y="18.2" style="font-family: 'Open Sans', verdana, arial, sans-serif; font-size: 14px; fill: rgb(42, 63, 95); fill-opacity: 1; white-space: pre;">訊號</text><g class="groups"><g class="traces" transform="translate(0,32.7)" style="opacity: 1;"><text class="legendtext" text-anchor="start" x="40" y="4.680000000000001" style="font-family: 'Open Sans', verdana, arial, sans-serif; font-size: 12px; fill: rgb(42, 63, 95); fill-opacity: 1; white-space: pre;">0.0°(224)</text><g class="layers" style="opacity: 0.8;"><g class="legendfill"/><g class="legendlines"><path class="js-line" d="M5,0h30" style="fill: none; stroke: rgb(169, 214, 229); stroke-opacity: 1; stroke-width: 2px;"/></g><g class="legendsymbols"><g class="legendpoints"/></g></g><rect class="legendtoggle" x="0" y="-9.5" width="115.171875" height="19" style="fill: rgb(0, 0, 0); fill-opacity: 0;"/></g><g class="traces" transform="translate(0,51.7)" style="opacity: 1;"><text class="legendtext" text-anchor="start" x="40" y="4.680000000000001" style="font-family: 'Open Sans', verdana, arial, sans-serif; font-size: 12px; fill: rgb(42, 63, 95); fill-opacity: 1; white-space: pre;">45.0°(260)</text><g class="layers" style="opacity: 0.8;"><g class="legendfill"/><g class="legendlines"><path class="js-line" d="M5,0h30" style="fill: none; stroke: rgb(169, 214, 229); stroke-opacity: 1; stroke-width: 2px;"/></g><g class="legendsymbols"><g class="legendpoints"/></g></g><rect class="legendtoggle" x="0" y="-9.5" width="115.171875" height="19" style="fill: rgb(0, 0, 0); fill-opacity: 0;"/></g><g class="traces" transform="translate(0,70.7)" style="opacity: 1;"><text class="legendtext" text-anchor="start" x="40" y="4.680000000000001" style="font-family: 'Open Sans', verdana, arial, sans-serif; font-size: 12px; fill: rgb(42, 63, 95); fill-opacity: 1; white-space: pre;">90.0°(239)</text><g class="layers" style="opacity: 0.8;"><g class="legendfill"/><g class="legendlines"><path class="js-line" d="M5,0h30" style="fill: none; stroke: rgb(169, 214, 229); stroke-opacity: 1; stroke-width: 2px;"/></g><g class="legendsymbols"><g class="legendpoints"/></g></g><rect class="legendtoggle" x="0" y="-9.5" width="115.171875" height="19" style="fill: rgb(0, 0, 0); fill-opacity: 0;"/></g><g class="traces" transform="translate(0,89.7)" style="opacity: 1;"><text class="legendtext" text-anchor="start" x="40" y="4.680000000000001" style="font-family: 'Open Sans', verdana, arial, sans-serif; font-size: 12px; fill: rgb(42, 63, 95); fill-opacity: 1; white-space: pre;">135.0°(262)</text><g class="layers" style="opacity: 0.8;"><g class="legendfill"/><g class="legendlines"><path class="js-line" d="M5,0h30" style="fill: none; stroke: rgb(137, 194, 217); stroke-opacity: 1; stroke-width: 2px;"/></g><g class="legendsymbols"><g class="legendpoints"/></g></g><rect class="legendtoggle" x="0" y="-9.5" width="115.171875" height="19" style="fill: rgb(0, 0, 0); fill-opacity: 0;"/></g><g class="traces" transform="translate(0,108.7)" style="opacity: 1;"><text class="legendtext" text-anchor="start" x="40" y="4.680000000000001" style="font-family: 'Open Sans', verdana, arial, sans-serif; font-size: 12px; fill: rgb(42, 63, 95); fill-opacity: 1; white-space: pre;">180.0°(243)</text><g class="layers" style="opacity: 0.8;"><g class="legendfill"/><g class="legendlines"><path class="js-line" d="M5,0h30" style="fill: none; stroke: rgb(137, 194, 217); stroke-opacity: 1; stroke-width: 2px;"/></g><g class="legendsymbols"><g class="legendpoints"/></g></g><rect class="legendtoggle" x="0" y="-9.5" width="115.171875" height="19" style="fill: rgb(0, 0, 0); fill-opacity: 0;"/></g><g class="traces" transform="translate(0,127.7)" style="opacity: 1;"><text class="legendtext" text-anchor="start" x="40" y="4.680000000000001" style="font-family: 'Open Sans', verdana, arial, sans-serif; font-size: 12px; fill: rgb(42, 63, 95); fill-opacity: 1; white-space: pre;">225.0°(245)</text><g class="layers" style="opacity: 0.8;"><g class="legendfill"/><g class="legendlines"><path class="js-line" d="M5,0h30" style="fill: none; stroke: rgb(97, 165, 194); stroke-opacity: 1; stroke-width: 2px;"/></g><g class="legendsymbols"><g class="legendpoints"/></g></g><rect class="legendtoggle" x="0" y="-9.5" width="115.171875" height="19" style="fill: rgb(0, 0, 0); fill-opacity: 0;"/></g><g class="traces" transform="translate(0,146.7)" style="opacity: 1;"><text class="legendtext" text-anchor="start" x="40" y="4.680000000000001" style="font-family: 'Open Sans', verdana, arial, sans-serif; font-size: 12px; fill: rgb(42, 63, 95); fill-opacity: 1; white-space: pre;">270.0°(247)</text><g class="layers" style="opacity: 0.8;"><g class="legendfill"/><g class="legendlines"><path class="js-line" d="M5,0h30" style="fill: none; stroke: rgb(97, 165, 194); stroke-opacity: 1; stroke-width: 2px;"/></g><g class="legendsymbols"><g class="legendpoints"/></g></g><rect class="legendtoggle" x="0" y="-9.5" width="115.171875" height="19" style="fill: rgb(0, 0, 0); fill-opacity: 0;"/></g><g class="traces" transform="translate(0,165.7)" style="opacity: 1;"><text class="legendtext" text-anchor="start" x="40" y="4.680000000000001" style="font-family: 'Open Sans', verdana, arial, sans-serif; font-size: 12px; fill: rgb(42, 63, 95); fill-opacity: 1; white-space: pre;">315.0°(214)</text><g class="layers" style="opacity: 0.8;"><g class="legendfill"/><g class="legendlines"><path class="js-line" d="M5,0h30" style="fill: none; stroke: rgb(97, 165, 194); stroke-opacity: 1; stroke-width: 2px;"/></g><g class="legendsymbols"><g class="legendpoints"/></g></g><rect class="legendtoggle" x="0" y="-9.5" width="115.171875" height="19" style="fill: rgb(0, 0, 0); fill-opacity: 0;"/></g><g class="traces" transform="translate(0,184.7)" style="opacity: 1;"><text class="legendtext" text-anchor="start" x="40" y="4.680000000000001" style="font-family: 'Open Sans', verdana, arial, sans-serif; font-size: 12px; fill: rgb(42, 63, 95); fill-opacity: 1; white-space: pre;">未知(257)</text><g class="layers" style="opacity: 0.8;"><g class="legendfill"/><g class="legendlines"><path class="js-line" d="M5,0h30" style="fill: none; stroke: rgb(127, 127, 127); stroke-opacity: 1; stroke-width: 2px;"/></g><g class="legendsymbols"><g class="legendpoints"/></g></g><rect class="legendtoggle" x="0" y="-9.5" width="115.171875" height="19" style="fill: rgb(0, 0, 0); fill-opacity: 0;"/></g></g></g><rect class="scrollbar" rx="20" ry="3" width="0" height="0" x="0" y="0" style="fill: rgb(128, 139, 164); fill-opacity: 1;"/></g><g class="g-gtitle"><text class="gtitle" x="80" y="50" text-anchor="start" dy="0em" style="opacity: 1; font-family: 'Open Sans', verdana, arial, sans-serif; font-size: 17px; fill: rgb(42, 63, 95); fill-opacity: 1; white-space: pre;"><tspan class="line" dy="0em" x="80" y="50"><tspan style="font-weight:bold">原始數據預覽</tspan></tspan><tspan class="line" dy="1.3em" x="80" y="50">​<tspan style="font-size:70%" dy="0.3em">005-2 - 60mT - IVB</tspan><tspan dy="-0.21em">​</tspan></tspan></text></g><g class="g-xtitle"><text class="xtitle" x="760" y="859.8" text-anchor="middle" style="opacity: 1; font-family: 'Open Sans', verdana, arial, sans-serif; font-size: 14px; fill: rgb(42, 63, 95); fill-opacity: 1; white-space: pre;">磁場位置 (物理單位)</text></g><g class="g-ytitle"><text class="ytitle" transform="rotate(-90,36.6625,460)" x="36.6625" y="460" text-anchor="middle" style="opacity: 1; font-family: 'Open Sans', verdana, arial, sans-serif; font-size: 14px; fill: rgb(42, 63, 95); fill-opacity: 1; white-space: pre;">訊號振幅 (Ic)</text></g></g></svg>