<?xml version="1.0" encoding="utf-8" standalone="no"?>
<!DOCTYPE svg PUBLIC "-//W3C//DTD SVG 1.1//EN"
  "http://www.w3.org/Graphics/SVG/1.1/DTD/svg11.dtd">
<svg xmlns:xlink="http://www.w3.org/1999/xlink" width="373.523125pt" height="421.074pt" viewBox="0 0 373.523125 421.074" xmlns="http://www.w3.org/2000/svg" version="1.1">
 <metadata>
  <rdf:RDF xmlns:dc="http://purl.org/dc/elements/1.1/" xmlns:cc="http://creativecommons.org/ns#" xmlns:rdf="http://www.w3.org/1999/02/22-rdf-syntax-ns#">
   <cc:Work>
    <dc:type rdf:resource="http://purl.org/dc/dcmitype/StillImage"/>
    <dc:date>2026-01-07T03:50:38.559646</dc:date>
    <dc:format>image/svg+xml</dc:format>
    <dc:creator>
     <cc:Agent>
      <dc:title>Matplotlib v3.7.5, https://matplotlib.org/</dc:title>
     </cc:Agent>
    </dc:creator>
   </cc:Work>
  </rdf:RDF>
 </metadata>
 <defs>
  <style type="text/css">*{stroke-linejoin: round; stroke-linecap: butt}</style>
 </defs>
 <g id="figure_1">
  <g id="patch_1">
   <path d="M 0 421.074 
L 373.523125 421.074 
L 373.523125 0 
L 0 0 
z
" style="fill: #ffffff"/>
  </g>
  <g id="axes_1">
   <g id="patch_2">
    <path d="M 41.423125 198.884525 
L 370.643125 198.884525 
L 370.643125 19.998125 
L 41.423125 19.998125 
z
" style="fill: #ffffff"/>
   </g>
   <g id="matplotlib.axis_1">
    <g id="xtick_1">
     <g id="line2d_1">
      <defs>
       <path id="m5b1cd17855" d="M 0 0 
L 0 3.5 
" style="stroke: #000000"/>
      </defs>
      <g>
       <use xlink:href="#m5b1cd17855" x="47.754279" y="198.884525" style="stroke: #000000"/>
      </g>
     </g>
     <g id="text_1">
      <!-- $-\pi$ -->
      <g transform="translate(40.554279 213.482962) scale(0.1 -0.1)">
       <defs>
        <path id="DejaVuSans-2212" d="M 678 2272 
L 4684 2272 
L 4684 1741 
L 678 1741 
L 678 2272 
z
" transform="scale(0.015625)"/>
        <path id="DejaVuSans-Oblique-3c0" d="M 584 3500 
L 3938 3500 
L 3825 2925 
L 3384 2925 
L 2966 775 
Q 2922 550 2981 450 
Q 3038 353 3209 353 
Q 3256 353 3325 363 
Q 3397 369 3419 372 
L 3338 -44 
Q 3222 -84 3103 -103 
Q 2981 -122 2866 -122 
Q 2491 -122 2388 81 
Q 2284 288 2391 838 
L 2797 2925 
L 1506 2925 
L 938 0 
L 350 0 
L 919 2925 
L 472 2925 
L 584 3500 
z
" transform="scale(0.015625)"/>
       </defs>
       <use xlink:href="#DejaVuSans-2212" transform="translate(0 0.3125)"/>
       <use xlink:href="#DejaVuSans-Oblique-3c0" transform="translate(83.789062 0.3125)"/>
      </g>
     </g>
    </g>
    <g id="xtick_2">
     <g id="line2d_2">
      <g>
       <use xlink:href="#m5b1cd17855" x="126.893702" y="198.884525" style="stroke: #000000"/>
      </g>
     </g>
     <g id="text_2">
      <!-- $-\pi/2$ -->
      <g transform="translate(114.993702 213.482962) scale(0.1 -0.1)">
       <defs>
        <path id="DejaVuSans-2f" d="M 1625 4666 
L 2156 4666 
L 531 -594 
L 0 -594 
L 1625 4666 
z
" transform="scale(0.015625)"/>
        <path id="DejaVuSans-32" d="M 1228 531 
L 3431 531 
L 3431 0 
L 469 0 
L 469 531 
Q 828 903 1448 1529 
Q 2069 2156 2228 2338 
Q 2531 2678 2651 2914 
Q 2772 3150 2772 3378 
Q 2772 3750 2511 3984 
Q 2250 4219 1831 4219 
Q 1534 4219 1204 4116 
Q 875 4013 500 3803 
L 500 4441 
Q 881 4594 1212 4672 
Q 1544 4750 1819 4750 
Q 2544 4750 2975 4387 
Q 3406 4025 3406 3419 
Q 3406 3131 3298 2873 
Q 3191 2616 2906 2266 
Q 2828 2175 2409 1742 
Q 1991 1309 1228 531 
z
" transform="scale(0.015625)"/>
       </defs>
       <use xlink:href="#DejaVuSans-2212" transform="translate(0 0.78125)"/>
       <use xlink:href="#DejaVuSans-Oblique-3c0" transform="translate(83.789062 0.78125)"/>
       <use xlink:href="#DejaVuSans-2f" transform="translate(143.994141 0.78125)"/>
       <use xlink:href="#DejaVuSans-32" transform="translate(174.060547 0.78125)"/>
      </g>
     </g>
    </g>
    <g id="xtick_3">
     <g id="line2d_3">
      <g>
       <use xlink:href="#m5b1cd17855" x="206.033125" y="198.884525" style="stroke: #000000"/>
      </g>
     </g>
     <g id="text_3">
      <!-- $0$ -->
      <g transform="translate(202.833125 213.482962) scale(0.1 -0.1)">
       <defs>
        <path id="DejaVuSans-30" d="M 2034 4250 
Q 1547 4250 1301 3770 
Q 1056 3291 1056 2328 
Q 1056 1369 1301 889 
Q 1547 409 2034 409 
Q 2525 409 2770 889 
Q 3016 1369 3016 2328 
Q 3016 3291 2770 3770 
Q 2525 4250 2034 4250 
z
M 2034 4750 
Q 2819 4750 3233 4129 
Q 3647 3509 3647 2328 
Q 3647 1150 3233 529 
Q 2819 -91 2034 -91 
Q 1250 -91 836 529 
Q 422 1150 422 2328 
Q 422 3509 836 4129 
Q 1250 4750 2034 4750 
z
" transform="scale(0.015625)"/>
       </defs>
       <use xlink:href="#DejaVuSans-30" transform="translate(0 0.78125)"/>
      </g>
     </g>
    </g>
    <g id="xtick_4">
     <g id="line2d_4">
      <g>
       <use xlink:href="#m5b1cd17855" x="285.172548" y="198.884525" style="stroke: #000000"/>
      </g>
     </g>
     <g id="text_4">
      <!-- $\pi/2$ -->
      <g transform="translate(277.472548 213.482962) scale(0.1 -0.1)">
       <use xlink:href="#DejaVuSans-Oblique-3c0" transform="translate(0 0.78125)"/>
       <use xlink:href="#DejaVuSans-2f" transform="translate(60.205078 0.78125)"/>
       <use xlink:href="#DejaVuSans-32" transform="translate(90.271484 0.78125)"/>
      </g>
     </g>
    </g>
    <g id="xtick_5">
     <g id="line2d_5">
      <g>
       <use xlink:href="#m5b1cd17855" x="364.311971" y="198.884525" style="stroke: #000000"/>
      </g>
     </g>
     <g id="text_5">
      <!-- $\pi$ -->
      <g transform="translate(361.261971 213.482962) scale(0.1 -0.1)">
       <use xlink:href="#DejaVuSans-Oblique-3c0" transform="translate(0 0.3125)"/>
      </g>
     </g>
    </g>
    <g id="text_6">
     <!-- Phase  $\varphi$ -->
     <g transform="translate(180.293125 228.68265) scale(0.12 -0.12)">
      <defs>
       <path id="DejaVuSans-50" d="M 1259 4147 
L 1259 2394 
L 2053 2394 
Q 2494 2394 2734 2622 
Q 2975 2850 2975 3272 
Q 2975 3691 2734 3919 
Q 2494 4147 2053 4147 
L 1259 4147 
z
M 628 4666 
L 2053 4666 
Q 2838 4666 3239 4311 
Q 3641 3956 3641 3272 
Q 3641 2581 3239 2228 
Q 2838 1875 2053 1875 
L 1259 1875 
L 1259 0 
L 628 0 
L 628 4666 
z
" transform="scale(0.015625)"/>
       <path id="DejaVuSans-68" d="M 3513 2113 
L 3513 0 
L 2938 0 
L 2938 2094 
Q 2938 2591 2744 2837 
Q 2550 3084 2163 3084 
Q 1697 3084 1428 2787 
Q 1159 2491 1159 1978 
L 1159 0 
L 581 0 
L 581 4863 
L 1159 4863 
L 1159 2956 
Q 1366 3272 1645 3428 
Q 1925 3584 2291 3584 
Q 2894 3584 3203 3211 
Q 3513 2838 3513 2113 
z
" transform="scale(0.015625)"/>
       <path id="DejaVuSans-61" d="M 2194 1759 
Q 1497 1759 1228 1600 
Q 959 1441 959 1056 
Q 959 750 1161 570 
Q 1363 391 1709 391 
Q 2188 391 2477 730 
Q 2766 1069 2766 1631 
L 2766 1759 
L 2194 1759 
z
M 3341 1997 
L 3341 0 
L 2766 0 
L 2766 531 
Q 2569 213 2275 61 
Q 1981 -91 1556 -91 
Q 1019 -91 701 211 
Q 384 513 384 1019 
Q 384 1609 779 1909 
Q 1175 2209 1959 2209 
L 2766 2209 
L 2766 2266 
Q 2766 2663 2505 2880 
Q 2244 3097 1772 3097 
Q 1472 3097 1187 3025 
Q 903 2953 641 2809 
L 641 3341 
Q 956 3463 1253 3523 
Q 1550 3584 1831 3584 
Q 2591 3584 2966 3190 
Q 3341 2797 3341 1997 
z
" transform="scale(0.015625)"/>
       <path id="DejaVuSans-73" d="M 2834 3397 
L 2834 2853 
Q 2591 2978 2328 3040 
Q 2066 3103 1784 3103 
Q 1356 3103 1142 2972 
Q 928 2841 928 2578 
Q 928 2378 1081 2264 
Q 1234 2150 1697 2047 
L 1894 2003 
Q 2506 1872 2764 1633 
Q 3022 1394 3022 966 
Q 3022 478 2636 193 
Q 2250 -91 1575 -91 
Q 1294 -91 989 -36 
Q 684 19 347 128 
L 347 722 
Q 666 556 975 473 
Q 1284 391 1588 391 
Q 1994 391 2212 530 
Q 2431 669 2431 922 
Q 2431 1156 2273 1281 
Q 2116 1406 1581 1522 
L 1381 1569 
Q 847 1681 609 1914 
Q 372 2147 372 2553 
Q 372 3047 722 3315 
Q 1072 3584 1716 3584 
Q 2034 3584 2315 3537 
Q 2597 3491 2834 3397 
z
" transform="scale(0.015625)"/>
       <path id="DejaVuSans-65" d="M 3597 1894 
L 3597 1613 
L 953 1613 
Q 991 1019 1311 708 
Q 1631 397 2203 397 
Q 2534 397 2845 478 
Q 3156 559 3463 722 
L 3463 178 
Q 3153 47 2828 -22 
Q 2503 -91 2169 -91 
Q 1331 -91 842 396 
Q 353 884 353 1716 
Q 353 2575 817 3079 
Q 1281 3584 2069 3584 
Q 2775 3584 3186 3129 
Q 3597 2675 3597 1894 
z
M 3022 2063 
Q 3016 2534 2758 2815 
Q 2500 3097 2075 3097 
Q 1594 3097 1305 2825 
Q 1016 2553 972 2059 
L 3022 2063 
z
" transform="scale(0.015625)"/>
       <path id="DejaVuSans-20" transform="scale(0.015625)"/>
       <path id="DejaVuSans-Oblique-3c6" d="M 2969 3034 
Q 2766 3034 2675 2581 
L 2259 438 
Q 2553 438 2916 763 
Q 3244 1053 3375 1750 
Q 3497 2400 3300 2750 
Q 3138 3034 2969 3034 
z
M 3063 3525 
Q 3513 3525 3819 3113 
Q 4147 2672 3981 1750 
Q 3828 903 3291 400 
Q 2784 -75 2159 -75 
L 1916 -1331 
L 1344 -1331 
L 1588 -78 
Q 963 -78 641 400 
Q 309 888 475 1747 
Q 647 2641 1166 3097 
Q 1556 3438 2084 3525 
L 1984 3016 
Q 1766 2944 1538 2700 
Q 1194 2341 1081 1747 
Q 963 1116 1156 756 
Q 1334 434 1688 434 
L 2103 2581 
Q 2288 3525 3063 3525 
z
" transform="scale(0.015625)"/>
      </defs>
      <use xlink:href="#DejaVuSans-50" transform="translate(0 0.015625)"/>
      <use xlink:href="#DejaVuSans-68" transform="translate(60.302734 0.015625)"/>
      <use xlink:href="#DejaVuSans-61" transform="translate(123.681641 0.015625)"/>
      <use xlink:href="#DejaVuSans-73" transform="translate(184.960938 0.015625)"/>
      <use xlink:href="#DejaVuSans-65" transform="translate(237.060547 0.015625)"/>
      <use xlink:href="#DejaVuSans-20" transform="translate(298.583984 0.015625)"/>
      <use xlink:href="#DejaVuSans-20" transform="translate(330.371094 0.015625)"/>
      <use xlink:href="#DejaVuSans-Oblique-3c6" transform="translate(362.158203 0.015625)"/>
     </g>
    </g>
   </g>
   <g id="matplotlib.axis_2">
    <g id="ytick_1">
     <g id="line2d_6">
      <defs>
       <path id="md093a56c85" d="M 0 0 
L -3.5 0 
" style="stroke: #000000"/>
      </defs>
      <g>
       <use xlink:href="#md093a56c85" x="41.423125" y="180.017605" style="stroke: #000000"/>
      </g>
     </g>
     <g id="text_7">
      <!-- −2 -->
      <g transform="translate(19.680938 183.816824) scale(0.1 -0.1)">
       <use xlink:href="#DejaVuSans-2212"/>
       <use xlink:href="#DejaVuSans-32" x="83.789062"/>
      </g>
     </g>
    </g>
    <g id="ytick_2">
     <g id="line2d_7">
      <g>
       <use xlink:href="#md093a56c85" x="41.423125" y="144.729465" style="stroke: #000000"/>
      </g>
     </g>
     <g id="text_8">
      <!-- −1 -->
      <g transform="translate(19.680938 148.528684) scale(0.1 -0.1)">
       <defs>
        <path id="DejaVuSans-31" d="M 794 531 
L 1825 531 
L 1825 4091 
L 703 3866 
L 703 4441 
L 1819 4666 
L 2450 4666 
L 2450 531 
L 3481 531 
L 3481 0 
L 794 0 
L 794 531 
z
" transform="scale(0.015625)"/>
       </defs>
       <use xlink:href="#DejaVuSans-2212"/>
       <use xlink:href="#DejaVuSans-31" x="83.789062"/>
      </g>
     </g>
    </g>
    <g id="ytick_3">
     <g id="line2d_8">
      <g>
       <use xlink:href="#md093a56c85" x="41.423125" y="109.441325" style="stroke: #000000"/>
      </g>
     </g>
     <g id="text_9">
      <!-- 0 -->
      <g transform="translate(28.060625 113.240544) scale(0.1 -0.1)">
       <use xlink:href="#DejaVuSans-30"/>
      </g>
     </g>
    </g>
    <g id="ytick_4">
     <g id="line2d_9">
      <g>
       <use xlink:href="#md093a56c85" x="41.423125" y="74.153185" style="stroke: #000000"/>
      </g>
     </g>
     <g id="text_10">
      <!-- 1 -->
      <g transform="translate(28.060625 77.952404) scale(0.1 -0.1)">
       <use xlink:href="#DejaVuSans-31"/>
      </g>
     </g>
    </g>
    <g id="ytick_5">
     <g id="line2d_10">
      <g>
       <use xlink:href="#md093a56c85" x="41.423125" y="38.865045" style="stroke: #000000"/>
      </g>
     </g>
     <g id="text_11">
      <!-- 2 -->
      <g transform="translate(28.060625 42.664264) scale(0.1 -0.1)">
       <use xlink:href="#DejaVuSans-32"/>
      </g>
     </g>
    </g>
    <g id="text_12">
     <!-- Normalized supercurrent  $I_s(\varphi)\,/\,I_0$ -->
     <g transform="translate(13.160938 209.461325) rotate(-90) scale(0.12 -0.12)">
      <defs>
       <path id="DejaVuSans-4e" d="M 628 4666 
L 1478 4666 
L 3547 763 
L 3547 4666 
L 4159 4666 
L 4159 0 
L 3309 0 
L 1241 3903 
L 1241 0 
L 628 0 
L 628 4666 
z
" transform="scale(0.015625)"/>
       <path id="DejaVuSans-6f" d="M 1959 3097 
Q 1497 3097 1228 2736 
Q 959 2375 959 1747 
Q 959 1119 1226 758 
Q 1494 397 1959 397 
Q 2419 397 2687 759 
Q 2956 1122 2956 1747 
Q 2956 2369 2687 2733 
Q 2419 3097 1959 3097 
z
M 1959 3584 
Q 2709 3584 3137 3096 
Q 3566 2609 3566 1747 
Q 3566 888 3137 398 
Q 2709 -91 1959 -91 
Q 1206 -91 779 398 
Q 353 888 353 1747 
Q 353 2609 779 3096 
Q 1206 3584 1959 3584 
z
" transform="scale(0.015625)"/>
       <path id="DejaVuSans-72" d="M 2631 2963 
Q 2534 3019 2420 3045 
Q 2306 3072 2169 3072 
Q 1681 3072 1420 2755 
Q 1159 2438 1159 1844 
L 1159 0 
L 581 0 
L 581 3500 
L 1159 3500 
L 1159 2956 
Q 1341 3275 1631 3429 
Q 1922 3584 2338 3584 
Q 2397 3584 2469 3576 
Q 2541 3569 2628 3553 
L 2631 2963 
z
" transform="scale(0.015625)"/>
       <path id="DejaVuSans-6d" d="M 3328 2828 
Q 3544 3216 3844 3400 
Q 4144 3584 4550 3584 
Q 5097 3584 5394 3201 
Q 5691 2819 5691 2113 
L 5691 0 
L 5113 0 
L 5113 2094 
Q 5113 2597 4934 2840 
Q 4756 3084 4391 3084 
Q 3944 3084 3684 2787 
Q 3425 2491 3425 1978 
L 3425 0 
L 2847 0 
L 2847 2094 
Q 2847 2600 2669 2842 
Q 2491 3084 2119 3084 
Q 1678 3084 1418 2786 
Q 1159 2488 1159 1978 
L 1159 0 
L 581 0 
L 581 3500 
L 1159 3500 
L 1159 2956 
Q 1356 3278 1631 3431 
Q 1906 3584 2284 3584 
Q 2666 3584 2933 3390 
Q 3200 3197 3328 2828 
z
" transform="scale(0.015625)"/>
       <path id="DejaVuSans-6c" d="M 603 4863 
L 1178 4863 
L 1178 0 
L 603 0 
L 603 4863 
z
" transform="scale(0.015625)"/>
       <path id="DejaVuSans-69" d="M 603 3500 
L 1178 3500 
L 1178 0 
L 603 0 
L 603 3500 
z
M 603 4863 
L 1178 4863 
L 1178 4134 
L 603 4134 
L 603 4863 
z
" transform="scale(0.015625)"/>
       <path id="DejaVuSans-7a" d="M 353 3500 
L 3084 3500 
L 3084 2975 
L 922 459 
L 3084 459 
L 3084 0 
L 275 0 
L 275 525 
L 2438 3041 
L 353 3041 
L 353 3500 
z
" transform="scale(0.015625)"/>
       <path id="DejaVuSans-64" d="M 2906 2969 
L 2906 4863 
L 3481 4863 
L 3481 0 
L 2906 0 
L 2906 525 
Q 2725 213 2448 61 
Q 2172 -91 1784 -91 
Q 1150 -91 751 415 
Q 353 922 353 1747 
Q 353 2572 751 3078 
Q 1150 3584 1784 3584 
Q 2172 3584 2448 3432 
Q 2725 3281 2906 2969 
z
M 947 1747 
Q 947 1113 1208 752 
Q 1469 391 1925 391 
Q 2381 391 2643 752 
Q 2906 1113 2906 1747 
Q 2906 2381 2643 2742 
Q 2381 3103 1925 3103 
Q 1469 3103 1208 2742 
Q 947 2381 947 1747 
z
" transform="scale(0.015625)"/>
       <path id="DejaVuSans-75" d="M 544 1381 
L 544 3500 
L 1119 3500 
L 1119 1403 
Q 1119 906 1312 657 
Q 1506 409 1894 409 
Q 2359 409 2629 706 
Q 2900 1003 2900 1516 
L 2900 3500 
L 3475 3500 
L 3475 0 
L 2900 0 
L 2900 538 
Q 2691 219 2414 64 
Q 2138 -91 1772 -91 
Q 1169 -91 856 284 
Q 544 659 544 1381 
z
M 1991 3584 
L 1991 3584 
z
" transform="scale(0.015625)"/>
       <path id="DejaVuSans-70" d="M 1159 525 
L 1159 -1331 
L 581 -1331 
L 581 3500 
L 1159 3500 
L 1159 2969 
Q 1341 3281 1617 3432 
Q 1894 3584 2278 3584 
Q 2916 3584 3314 3078 
Q 3713 2572 3713 1747 
Q 3713 922 3314 415 
Q 2916 -91 2278 -91 
Q 1894 -91 1617 61 
Q 1341 213 1159 525 
z
M 3116 1747 
Q 3116 2381 2855 2742 
Q 2594 3103 2138 3103 
Q 1681 3103 1420 2742 
Q 1159 2381 1159 1747 
Q 1159 1113 1420 752 
Q 1681 391 2138 391 
Q 2594 391 2855 752 
Q 3116 1113 3116 1747 
z
" transform="scale(0.015625)"/>
       <path id="DejaVuSans-63" d="M 3122 3366 
L 3122 2828 
Q 2878 2963 2633 3030 
Q 2388 3097 2138 3097 
Q 1578 3097 1268 2742 
Q 959 2388 959 1747 
Q 959 1106 1268 751 
Q 1578 397 2138 397 
Q 2388 397 2633 464 
Q 2878 531 3122 666 
L 3122 134 
Q 2881 22 2623 -34 
Q 2366 -91 2075 -91 
Q 1284 -91 818 406 
Q 353 903 353 1747 
Q 353 2603 823 3093 
Q 1294 3584 2113 3584 
Q 2378 3584 2631 3529 
Q 2884 3475 3122 3366 
z
" transform="scale(0.015625)"/>
       <path id="DejaVuSans-6e" d="M 3513 2113 
L 3513 0 
L 2938 0 
L 2938 2094 
Q 2938 2591 2744 2837 
Q 2550 3084 2163 3084 
Q 1697 3084 1428 2787 
Q 1159 2491 1159 1978 
L 1159 0 
L 581 0 
L 581 3500 
L 1159 3500 
L 1159 2956 
Q 1366 3272 1645 3428 
Q 1925 3584 2291 3584 
Q 2894 3584 3203 3211 
Q 3513 2838 3513 2113 
z
" transform="scale(0.015625)"/>
       <path id="DejaVuSans-74" d="M 1172 4494 
L 1172 3500 
L 2356 3500 
L 2356 3053 
L 1172 3053 
L 1172 1153 
Q 1172 725 1289 603 
Q 1406 481 1766 481 
L 2356 481 
L 2356 0 
L 1766 0 
Q 1100 0 847 248 
Q 594 497 594 1153 
L 594 3053 
L 172 3053 
L 172 3500 
L 594 3500 
L 594 4494 
L 1172 4494 
z
" transform="scale(0.015625)"/>
       <path id="DejaVuSans-Oblique-49" d="M 1081 4666 
L 1716 4666 
L 806 0 
L 172 0 
L 1081 4666 
z
" transform="scale(0.015625)"/>
       <path id="DejaVuSans-Oblique-73" d="M 3200 3397 
L 3091 2853 
Q 2863 2978 2609 3040 
Q 2356 3103 2088 3103 
Q 1634 3103 1373 2948 
Q 1113 2794 1113 2528 
Q 1113 2219 1719 2053 
Q 1766 2041 1788 2034 
L 1972 1978 
Q 2547 1819 2739 1644 
Q 2931 1469 2931 1166 
Q 2931 609 2489 259 
Q 2047 -91 1331 -91 
Q 1053 -91 747 -37 
Q 441 16 72 128 
L 184 722 
Q 500 559 806 475 
Q 1113 391 1394 391 
Q 1816 391 2080 572 
Q 2344 753 2344 1031 
Q 2344 1331 1650 1516 
L 1591 1531 
L 1394 1581 
Q 956 1697 753 1886 
Q 550 2075 550 2369 
Q 550 2928 970 3256 
Q 1391 3584 2113 3584 
Q 2397 3584 2667 3537 
Q 2938 3491 3200 3397 
z
" transform="scale(0.015625)"/>
       <path id="DejaVuSans-28" d="M 1984 4856 
Q 1566 4138 1362 3434 
Q 1159 2731 1159 2009 
Q 1159 1288 1364 580 
Q 1569 -128 1984 -844 
L 1484 -844 
Q 1016 -109 783 600 
Q 550 1309 550 2009 
Q 550 2706 781 3412 
Q 1013 4119 1484 4856 
L 1984 4856 
z
" transform="scale(0.015625)"/>
       <path id="DejaVuSans-29" d="M 513 4856 
L 1013 4856 
Q 1481 4119 1714 3412 
Q 1947 2706 1947 2009 
Q 1947 1309 1714 600 
Q 1481 -109 1013 -844 
L 513 -844 
Q 928 -128 1133 580 
Q 1338 1288 1338 2009 
Q 1338 2731 1133 3434 
Q 928 4138 513 4856 
z
" transform="scale(0.015625)"/>
      </defs>
      <use xlink:href="#DejaVuSans-4e" transform="translate(0 0.015625)"/>
      <use xlink:href="#DejaVuSans-6f" transform="translate(74.804688 0.015625)"/>
      <use xlink:href="#DejaVuSans-72" transform="translate(135.986328 0.015625)"/>
      <use xlink:href="#DejaVuSans-6d" transform="translate(177.099609 0.015625)"/>
      <use xlink:href="#DejaVuSans-61" transform="translate(274.511719 0.015625)"/>
      <use xlink:href="#DejaVuSans-6c" transform="translate(335.791016 0.015625)"/>
      <use xlink:href="#DejaVuSans-69" transform="translate(363.574219 0.015625)"/>
      <use xlink:href="#DejaVuSans-7a" transform="translate(391.357422 0.015625)"/>
      <use xlink:href="#DejaVuSans-65" transform="translate(443.847656 0.015625)"/>
      <use xlink:href="#DejaVuSans-64" transform="translate(505.371094 0.015625)"/>
      <use xlink:href="#DejaVuSans-20" transform="translate(568.847656 0.015625)"/>
      <use xlink:href="#DejaVuSans-73" transform="translate(600.634766 0.015625)"/>
      <use xlink:href="#DejaVuSans-75" transform="translate(652.734375 0.015625)"/>
      <use xlink:href="#DejaVuSans-70" transform="translate(716.113281 0.015625)"/>
      <use xlink:href="#DejaVuSans-65" transform="translate(779.589844 0.015625)"/>
      <use xlink:href="#DejaVuSans-72" transform="translate(841.113281 0.015625)"/>
      <use xlink:href="#DejaVuSans-63" transform="translate(882.226562 0.015625)"/>
      <use xlink:href="#DejaVuSans-75" transform="translate(937.207031 0.015625)"/>
      <use xlink:href="#DejaVuSans-72" transform="translate(1000.585938 0.015625)"/>
      <use xlink:href="#DejaVuSans-72" transform="translate(1041.699219 0.015625)"/>
      <use xlink:href="#DejaVuSans-65" transform="translate(1082.8125 0.015625)"/>
      <use xlink:href="#DejaVuSans-6e" transform="translate(1144.335938 0.015625)"/>
      <use xlink:href="#DejaVuSans-74" transform="translate(1207.714844 0.015625)"/>
      <use xlink:href="#DejaVuSans-20" transform="translate(1246.923828 0.015625)"/>
      <use xlink:href="#DejaVuSans-20" transform="translate(1278.710938 0.015625)"/>
      <use xlink:href="#DejaVuSans-Oblique-49" transform="translate(1310.498047 0.015625)"/>
      <use xlink:href="#DejaVuSans-Oblique-73" transform="translate(1339.990234 -16.390625) scale(0.7)"/>
      <use xlink:href="#DejaVuSans-28" transform="translate(1379.194336 0.015625)"/>
      <use xlink:href="#DejaVuSans-Oblique-3c6" transform="translate(1418.208008 0.015625)"/>
      <use xlink:href="#DejaVuSans-29" transform="translate(1484.174805 0.015625)"/>
      <use xlink:href="#DejaVuSans-2f" transform="translate(1539.424153 0.015625)"/>
      <use xlink:href="#DejaVuSans-Oblique-49" transform="translate(1589.351235 0.015625)"/>
      <use xlink:href="#DejaVuSans-30" transform="translate(1618.843423 -16.390625) scale(0.7)"/>
     </g>
    </g>
   </g>
   <g id="line2d_11">
    <path d="M 47.754279 109.441325 
L 61.999375 119.286402 
L 69.649519 124.298896 
L 76.112572 128.271589 
L 81.784231 131.504975 
L 87.060192 134.262816 
L 92.072356 136.631304 
L 96.820721 138.62746 
L 101.305288 140.275121 
L 105.657957 141.640958 
L 109.878726 142.736114 
L 113.967596 143.574405 
L 118.056466 144.187998 
L 122.145337 144.572855 
L 126.102308 144.725112 
L 130.059279 144.659832 
L 134.01625 144.377418 
L 138.10512 143.859341 
L 142.19399 143.114691 
L 146.41476 142.113576 
L 150.635529 140.883288 
L 154.988197 139.383672 
L 159.472764 137.605143 
L 164.22113 135.479266 
L 169.233293 132.984964 
L 174.509255 130.108362 
L 180.312812 126.68386 
L 186.775865 122.60337 
L 194.42601 117.499402 
L 205.637428 109.718475 
L 220.278221 99.596248 
L 227.928365 94.583754 
L 234.391418 90.611061 
L 240.063077 87.377675 
L 245.339038 84.619834 
L 250.351202 82.251346 
L 255.099567 80.25519 
L 259.584135 78.607529 
L 263.936803 77.241692 
L 268.157572 76.146536 
L 272.246442 75.308245 
L 276.335312 74.694652 
L 280.424183 74.309795 
L 284.381154 74.157538 
L 288.338125 74.222818 
L 292.295096 74.505232 
L 296.383966 75.023309 
L 300.472837 75.767959 
L 304.693606 76.769074 
L 308.914375 77.999362 
L 313.267043 79.498978 
L 317.751611 81.277507 
L 322.499976 83.403384 
L 327.512139 85.897686 
L 332.788101 88.774288 
L 338.591659 92.19879 
L 345.054712 96.27928 
L 352.704856 101.383248 
L 363.916274 109.164175 
L 364.311971 109.441325 
L 364.311971 109.441325 
" clip-path="url(#pdf80cdfff2)" style="fill: none; stroke: #c7dae9; stroke-width: 2.4; stroke-linecap: square"/>
   </g>
   <g id="line2d_12">
    <path d="M 47.754279 109.441325 
L 60.680385 119.75317 
L 67.539135 124.936634 
L 73.342692 129.052926 
L 78.618654 132.52401 
L 83.498918 135.467387 
L 87.983486 137.920242 
L 92.336154 140.051839 
L 96.556923 141.870855 
L 100.645793 143.390278 
L 104.602764 144.626407 
L 108.559736 145.627518 
L 112.384808 146.369333 
L 116.20988 146.888161 
L 120.034952 147.184572 
L 123.860024 147.260477 
L 127.685096 147.119031 
L 131.642067 146.748567 
L 135.599038 146.156043 
L 139.687909 145.317941 
L 143.908678 144.22133 
L 148.261346 142.85551 
L 152.745913 141.212363 
L 157.494279 139.228371 
L 162.374543 136.947444 
L 167.650505 134.231062 
L 173.322163 131.053108 
L 179.521418 127.317133 
L 186.512067 122.836831 
L 194.953606 117.150807 
L 208.539207 107.686615 
L 221.729111 98.591899 
L 229.774952 93.310584 
L 236.501803 89.151664 
L 242.569159 85.658636 
L 248.108918 82.724017 
L 253.252981 80.247454 
L 258.133245 78.14344 
L 262.749712 76.392756 
L 267.234279 74.931516 
L 271.455048 73.784849 
L 275.543918 72.896084 
L 279.632788 72.235032 
L 283.58976 71.819646 
L 287.546731 71.631159 
L 291.371803 71.669332 
L 295.196875 71.927553 
L 299.021947 72.407954 
L 302.847019 73.111343 
L 306.672091 74.037108 
L 310.629062 75.226535 
L 314.586034 76.64752 
L 318.674904 78.352706 
L 322.895673 80.356058 
L 327.248341 82.667825 
L 331.864808 85.374312 
L 336.745072 88.495286 
L 342.021034 92.133859 
L 347.95649 96.500819 
L 355.210937 102.130553 
L 364.311971 109.441325 
L 364.311971 109.441325 
" clip-path="url(#pdf80cdfff2)" style="fill: none; stroke: #9fc0d9; stroke-width: 2.4; stroke-linecap: square"/>
   </g>
   <g id="line2d_13">
    <path d="M 47.754279 109.441325 
L 58.833798 120.262797 
L 64.769255 125.748052 
L 69.781418 130.09152 
L 74.397885 133.80157 
L 78.618654 136.915085 
L 82.707524 139.654245 
L 86.532596 141.955129 
L 90.225769 143.927652 
L 93.918942 145.650111 
L 97.480216 147.071836 
L 101.04149 148.258583 
L 104.602764 149.212131 
L 108.164038 149.935858 
L 111.725312 150.434481 
L 115.286587 150.713826 
L 118.97976 150.779097 
L 122.672933 150.624062 
L 126.498005 150.240743 
L 130.454976 149.616646 
L 134.543846 148.741146 
L 138.764615 147.605644 
L 143.117284 146.203693 
L 147.73375 144.478607 
L 152.614014 142.40953 
L 157.758077 139.980212 
L 163.165937 137.179785 
L 169.101394 133.850401 
L 175.564447 129.964982 
L 182.818894 125.340302 
L 191.524231 119.515691 
L 203.790841 111.011531 
L 223.048101 97.665583 
L 231.885337 91.832453 
L 239.139784 87.302051 
L 245.602837 83.521849 
L 251.538293 80.307078 
L 256.946154 77.62637 
L 262.090216 75.324709 
L 266.838582 73.438277 
L 271.455048 71.844063 
L 275.807716 70.575229 
L 280.028486 69.577818 
L 284.117356 68.84448 
L 288.074327 68.365668 
L 291.899399 68.129777 
L 295.592572 68.123298 
L 299.285745 68.342827 
L 302.847019 68.775828 
L 306.408293 69.432311 
L 309.969567 70.317346 
L 313.530841 71.434735 
L 317.092115 72.786757 
L 320.653389 74.373905 
L 324.346562 76.26649 
L 328.039736 78.405851 
L 331.864808 80.873866 
L 335.953678 83.782539 
L 340.306346 87.164348 
L 344.922812 91.039692 
L 350.066875 95.654467 
L 356.26613 101.530578 
L 364.311971 109.441325 
L 364.311971 109.441325 
" clip-path="url(#pdf80cdfff2)" style="fill: none; stroke: #77a6ca; stroke-width: 2.4; stroke-linecap: square"/>
   </g>
   <g id="line2d_14">
    <path d="M 47.754279 109.441325 
L 53.953534 122.910277 
L 57.382909 129.819895 
L 60.284688 135.185285 
L 62.922668 139.619156 
L 65.42875 143.416345 
L 67.934832 146.805183 
L 70.309014 149.647029 
L 72.683197 152.145552 
L 75.05738 154.320565 
L 77.431562 156.194438 
L 79.805745 157.790496 
L 82.311827 159.199376 
L 84.817909 160.350525 
L 87.455889 161.310488 
L 90.09387 162.037613 
L 92.86375 162.575869 
L 95.765529 162.917783 
L 98.931106 163.05937 
L 102.228582 162.978133 
L 105.657957 162.673467 
L 109.35113 162.122159 
L 113.308101 161.303269 
L 117.52887 160.198856 
L 122.013437 158.793644 
L 126.893702 157.023843 
L 132.037764 154.917801 
L 137.577524 152.405547 
L 143.512981 149.466061 
L 149.976034 146.010066 
L 156.966683 142.012671 
L 164.616827 137.375939 
L 173.190264 131.911838 
L 183.082692 125.334901 
L 195.745 116.631001 
L 232.940529 90.887446 
L 242.701058 84.501862 
L 251.142596 79.237037 
L 258.660841 74.80238 
L 265.519591 71.00782 
L 271.850745 67.753797 
L 277.786202 64.952916 
L 283.194062 62.641199 
L 288.338125 60.68375 
L 293.08649 59.113626 
L 297.439159 57.900203 
L 301.528029 56.98261 
L 305.353101 56.344231 
L 308.914375 55.965527 
L 312.34375 55.822503 
L 315.509327 55.907876 
L 318.543005 56.210008 
L 321.444784 56.725464 
L 324.214663 57.448847 
L 326.852644 58.3723 
L 329.358726 59.485025 
L 331.732909 60.772861 
L 334.107091 62.310347 
L 336.481274 64.12046 
L 338.855457 66.226565 
L 341.09774 68.507929 
L 343.471923 71.252644 
L 345.846106 74.352238 
L 348.220288 77.816937 
L 350.72637 81.871077 
L 353.364351 86.563734 
L 356.26613 92.183398 
L 359.695505 99.325612 
L 364.311971 109.441325 
L 364.311971 109.441325 
" clip-path="url(#pdf80cdfff2)" style="fill: none; stroke: #508cba; stroke-width: 2.4; stroke-linecap: square"/>
   </g>
   <g id="line2d_15">
    <path d="M 47.754279 109.441325 
L 50.524159 128.145396 
L 52.106947 137.417097 
L 53.557837 144.636432 
L 54.876827 150.122466 
L 56.195817 154.667493 
L 57.514808 158.394339 
L 58.833798 161.433542 
L 60.152788 163.906227 
L 61.471779 165.916983 
L 62.790769 167.552515 
L 64.241659 169.001596 
L 65.824447 170.247687 
L 67.407236 171.215941 
L 69.121923 172.016089 
L 71.100409 172.685265 
L 73.210793 173.163433 
L 75.584976 173.474404 
L 78.354856 173.600712 
L 81.388534 173.511366 
L 84.817909 173.185592 
L 88.642981 172.597982 
L 92.995649 171.69586 
L 97.744014 170.476062 
L 102.888077 168.91787 
L 108.295937 167.047386 
L 114.099495 164.803459 
L 120.29875 162.161742 
L 126.761803 159.162289 
L 133.620553 155.729279 
L 140.875 151.843706 
L 148.525144 147.491147 
L 156.834784 142.501087 
L 165.803918 136.851491 
L 175.960144 130.183784 
L 188.094856 121.937285 
L 206.033125 109.441325 
L 228.587861 93.779286 
L 240.590673 85.723504 
L 250.615 79.258181 
L 259.584135 73.735881 
L 267.761875 68.959449 
L 275.412019 64.74789 
L 282.534567 61.0771 
L 289.261418 57.85546 
L 295.724471 55.00674 
L 301.791827 52.573962 
L 307.463486 50.533397 
L 312.871346 48.822624 
L 317.88351 47.470258 
L 322.368077 46.482294 
L 326.456947 45.800841 
L 330.15012 45.407201 
L 333.447596 45.281071 
L 336.217476 45.386185 
L 338.723558 45.696152 
L 340.965841 46.197385 
L 342.944327 46.866561 
L 344.659014 47.666709 
L 346.241803 48.634963 
L 347.692692 49.764935 
L 349.143582 51.184386 
L 350.462572 52.786509 
L 351.781562 54.756129 
L 352.968654 56.912855 
L 354.155745 59.510136 
L 355.342837 62.633616 
L 356.529928 66.37725 
L 357.717019 70.835677 
L 359.03601 76.725177 
L 360.355 83.652339 
L 361.937788 93.257061 
L 364.180072 108.517563 
L 364.311971 109.441325 
L 364.311971 109.441325 
" clip-path="url(#pdf80cdfff2)" style="fill: none; stroke: #2872ab; stroke-width: 2.4; stroke-linecap: square"/>
   </g>
   <g id="line2d_16">
    <path d="M 47.754279 109.441325 
L 48.413774 148.090688 
L 48.809471 160.481364 
L 49.205168 167.404502 
L 49.600865 171.385398 
L 50.128462 174.392375 
L 50.656058 176.086701 
L 51.183654 177.118007 
L 51.843149 177.913233 
L 52.634543 178.480864 
L 53.557837 178.864243 
L 54.876827 179.149545 
L 56.723413 179.301032 
L 59.493293 179.284691 
L 63.450264 179.022163 
L 68.330529 178.470795 
L 73.738389 177.634984 
L 79.410048 176.531589 
L 85.213606 175.175008 
L 91.149062 173.558127 
L 97.216418 171.673157 
L 103.415673 169.512844 
L 109.746827 167.071079 
L 116.341779 164.285214 
L 123.06863 161.201308 
L 130.059279 157.751983 
L 137.445625 153.854961 
L 145.227668 149.491321 
L 153.405409 144.648844 
L 162.242644 139.156146 
L 172.135072 132.738593 
L 183.610288 125.017289 
L 198.646779 114.610203 
L 231.489639 91.80031 
L 243.096755 84.06301 
L 252.989183 77.730463 
L 261.826418 72.330003 
L 270.004159 67.585954 
L 277.786202 63.327047 
L 285.172548 59.538854 
L 292.163197 56.200455 
L 298.890048 53.230085 
L 305.485 50.56154 
L 311.816154 48.237591 
L 318.015409 46.197214 
L 324.082764 44.433767 
L 330.018221 42.939706 
L 335.821779 41.707481 
L 341.493437 40.731672 
L 346.769399 40.044001 
L 351.385865 39.65436 
L 354.81524 39.568163 
L 357.057524 39.714971 
L 358.508413 40.018407 
L 359.431707 40.401786 
L 360.223101 40.969417 
L 360.882596 41.764643 
L 361.410192 42.795949 
L 361.805889 43.97824 
L 362.201587 45.764567 
L 362.597284 48.600933 
L 362.992981 53.36151 
L 363.388678 61.7629 
L 363.784375 76.703992 
L 364.311971 109.441325 
L 364.311971 109.441325 
" clip-path="url(#pdf80cdfff2)" style="fill: none; stroke: #00589b; stroke-width: 2.4; stroke-linecap: square"/>
   </g>
   <g id="line2d_17">
    <path d="M 41.423125 109.441325 
L 370.643125 109.441325 
" clip-path="url(#pdf80cdfff2)" style="fill: none; stroke: #73a3c8; stroke-linecap: square"/>
   </g>
   <g id="line2d_18">
    <path d="M 206.033125 198.884525 
L 206.033125 19.998125 
" clip-path="url(#pdf80cdfff2)" style="fill: none; stroke: #73a3c8; stroke-linecap: square"/>
   </g>
   <g id="patch_3">
    <path d="M 41.423125 198.884525 
L 41.423125 19.998125 
" style="fill: none; stroke: #000000; stroke-width: 1.1; stroke-linejoin: miter; stroke-linecap: square"/>
   </g>
   <g id="patch_4">
    <path d="M 41.423125 198.884525 
L 370.643125 198.884525 
" style="fill: none; stroke: #000000; stroke-width: 1.1; stroke-linejoin: miter; stroke-linecap: square"/>
   </g>
   <g id="text_13">
    <!-- S–N–S Junction CPR (Short Ballistic Regime) -->
    <g transform="translate(75.624062 11.998125) scale(0.12 -0.12)">
     <defs>
      <path id="DejaVuSans-53" d="M 3425 4513 
L 3425 3897 
Q 3066 4069 2747 4153 
Q 2428 4238 2131 4238 
Q 1616 4238 1336 4038 
Q 1056 3838 1056 3469 
Q 1056 3159 1242 3001 
Q 1428 2844 1947 2747 
L 2328 2669 
Q 3034 2534 3370 2195 
Q 3706 1856 3706 1288 
Q 3706 609 3251 259 
Q 2797 -91 1919 -91 
Q 1588 -91 1214 -16 
Q 841 59 441 206 
L 441 856 
Q 825 641 1194 531 
Q 1563 422 1919 422 
Q 2459 422 2753 634 
Q 3047 847 3047 1241 
Q 3047 1584 2836 1778 
Q 2625 1972 2144 2069 
L 1759 2144 
Q 1053 2284 737 2584 
Q 422 2884 422 3419 
Q 422 4038 858 4394 
Q 1294 4750 2059 4750 
Q 2388 4750 2728 4690 
Q 3069 4631 3425 4513 
z
" transform="scale(0.015625)"/>
      <path id="DejaVuSans-2013" d="M 313 1978 
L 2888 1978 
L 2888 1528 
L 313 1528 
L 313 1978 
z
" transform="scale(0.015625)"/>
      <path id="DejaVuSans-4a" d="M 628 4666 
L 1259 4666 
L 1259 325 
Q 1259 -519 939 -900 
Q 619 -1281 -91 -1281 
L -331 -1281 
L -331 -750 
L -134 -750 
Q 284 -750 456 -515 
Q 628 -281 628 325 
L 628 4666 
z
" transform="scale(0.015625)"/>
      <path id="DejaVuSans-43" d="M 4122 4306 
L 4122 3641 
Q 3803 3938 3442 4084 
Q 3081 4231 2675 4231 
Q 1875 4231 1450 3742 
Q 1025 3253 1025 2328 
Q 1025 1406 1450 917 
Q 1875 428 2675 428 
Q 3081 428 3442 575 
Q 3803 722 4122 1019 
L 4122 359 
Q 3791 134 3420 21 
Q 3050 -91 2638 -91 
Q 1578 -91 968 557 
Q 359 1206 359 2328 
Q 359 3453 968 4101 
Q 1578 4750 2638 4750 
Q 3056 4750 3426 4639 
Q 3797 4528 4122 4306 
z
" transform="scale(0.015625)"/>
      <path id="DejaVuSans-52" d="M 2841 2188 
Q 3044 2119 3236 1894 
Q 3428 1669 3622 1275 
L 4263 0 
L 3584 0 
L 2988 1197 
Q 2756 1666 2539 1819 
Q 2322 1972 1947 1972 
L 1259 1972 
L 1259 0 
L 628 0 
L 628 4666 
L 2053 4666 
Q 2853 4666 3247 4331 
Q 3641 3997 3641 3322 
Q 3641 2881 3436 2590 
Q 3231 2300 2841 2188 
z
M 1259 4147 
L 1259 2491 
L 2053 2491 
Q 2509 2491 2742 2702 
Q 2975 2913 2975 3322 
Q 2975 3731 2742 3939 
Q 2509 4147 2053 4147 
L 1259 4147 
z
" transform="scale(0.015625)"/>
      <path id="DejaVuSans-42" d="M 1259 2228 
L 1259 519 
L 2272 519 
Q 2781 519 3026 730 
Q 3272 941 3272 1375 
Q 3272 1813 3026 2020 
Q 2781 2228 2272 2228 
L 1259 2228 
z
M 1259 4147 
L 1259 2741 
L 2194 2741 
Q 2656 2741 2882 2914 
Q 3109 3088 3109 3444 
Q 3109 3797 2882 3972 
Q 2656 4147 2194 4147 
L 1259 4147 
z
M 628 4666 
L 2241 4666 
Q 2963 4666 3353 4366 
Q 3744 4066 3744 3513 
Q 3744 3084 3544 2831 
Q 3344 2578 2956 2516 
Q 3422 2416 3680 2098 
Q 3938 1781 3938 1306 
Q 3938 681 3513 340 
Q 3088 0 2303 0 
L 628 0 
L 628 4666 
z
" transform="scale(0.015625)"/>
      <path id="DejaVuSans-67" d="M 2906 1791 
Q 2906 2416 2648 2759 
Q 2391 3103 1925 3103 
Q 1463 3103 1205 2759 
Q 947 2416 947 1791 
Q 947 1169 1205 825 
Q 1463 481 1925 481 
Q 2391 481 2648 825 
Q 2906 1169 2906 1791 
z
M 3481 434 
Q 3481 -459 3084 -895 
Q 2688 -1331 1869 -1331 
Q 1566 -1331 1297 -1286 
Q 1028 -1241 775 -1147 
L 775 -588 
Q 1028 -725 1275 -790 
Q 1522 -856 1778 -856 
Q 2344 -856 2625 -561 
Q 2906 -266 2906 331 
L 2906 616 
Q 2728 306 2450 153 
Q 2172 0 1784 0 
Q 1141 0 747 490 
Q 353 981 353 1791 
Q 353 2603 747 3093 
Q 1141 3584 1784 3584 
Q 2172 3584 2450 3431 
Q 2728 3278 2906 2969 
L 2906 3500 
L 3481 3500 
L 3481 434 
z
" transform="scale(0.015625)"/>
     </defs>
     <use xlink:href="#DejaVuSans-53"/>
     <use xlink:href="#DejaVuSans-2013" x="63.476562"/>
     <use xlink:href="#DejaVuSans-4e" x="113.476562"/>
     <use xlink:href="#DejaVuSans-2013" x="188.28125"/>
     <use xlink:href="#DejaVuSans-53" x="238.28125"/>
     <use xlink:href="#DejaVuSans-20" x="301.757812"/>
     <use xlink:href="#DejaVuSans-4a" x="333.544922"/>
     <use xlink:href="#DejaVuSans-75" x="363.037109"/>
     <use xlink:href="#DejaVuSans-6e" x="426.416016"/>
     <use xlink:href="#DejaVuSans-63" x="489.794922"/>
     <use xlink:href="#DejaVuSans-74" x="544.775391"/>
     <use xlink:href="#DejaVuSans-69" x="583.984375"/>
     <use xlink:href="#DejaVuSans-6f" x="611.767578"/>
     <use xlink:href="#DejaVuSans-6e" x="672.949219"/>
     <use xlink:href="#DejaVuSans-20" x="736.328125"/>
     <use xlink:href="#DejaVuSans-43" x="768.115234"/>
     <use xlink:href="#DejaVuSans-50" x="837.939453"/>
     <use xlink:href="#DejaVuSans-52" x="898.242188"/>
     <use xlink:href="#DejaVuSans-20" x="967.724609"/>
     <use xlink:href="#DejaVuSans-28" x="999.511719"/>
     <use xlink:href="#DejaVuSans-53" x="1038.525391"/>
     <use xlink:href="#DejaVuSans-68" x="1102.001953"/>
     <use xlink:href="#DejaVuSans-6f" x="1165.380859"/>
     <use xlink:href="#DejaVuSans-72" x="1226.5625"/>
     <use xlink:href="#DejaVuSans-74" x="1267.675781"/>
     <use xlink:href="#DejaVuSans-20" x="1306.884766"/>
     <use xlink:href="#DejaVuSans-42" x="1338.671875"/>
     <use xlink:href="#DejaVuSans-61" x="1407.275391"/>
     <use xlink:href="#DejaVuSans-6c" x="1468.554688"/>
     <use xlink:href="#DejaVuSans-6c" x="1496.337891"/>
     <use xlink:href="#DejaVuSans-69" x="1524.121094"/>
     <use xlink:href="#DejaVuSans-73" x="1551.904297"/>
     <use xlink:href="#DejaVuSans-74" x="1604.003906"/>
     <use xlink:href="#DejaVuSans-69" x="1643.212891"/>
     <use xlink:href="#DejaVuSans-63" x="1670.996094"/>
     <use xlink:href="#DejaVuSans-20" x="1725.976562"/>
     <use xlink:href="#DejaVuSans-52" x="1757.763672"/>
     <use xlink:href="#DejaVuSans-65" x="1822.746094"/>
     <use xlink:href="#DejaVuSans-67" x="1884.269531"/>
     <use xlink:href="#DejaVuSans-69" x="1947.746094"/>
     <use xlink:href="#DejaVuSans-6d" x="1975.529297"/>
     <use xlink:href="#DejaVuSans-65" x="2072.941406"/>
     <use xlink:href="#DejaVuSans-29" x="2134.464844"/>
    </g>
   </g>
   <g id="legend_1">
    <g id="line2d_19">
     <path d="M 50.423125 33.096562 
L 64.423125 33.096562 
L 78.423125 33.096562 
" style="fill: none; stroke: #c7dae9; stroke-width: 2.4; stroke-linecap: square"/>
    </g>
    <g id="text_14">
     <!-- $\tau=0$ -->
     <g transform="translate(86.423125 36.596562) scale(0.1 -0.1)">
      <defs>
       <path id="DejaVuSans-Oblique-3c4" d="M 2103 638 
Q 2188 488 2525 488 
L 2800 488 
L 2706 0 
L 2363 0 
Q 1800 0 1600 300 
Q 1403 606 1534 1269 
L 1856 2925 
L 541 2925 
L 653 3500 
L 3881 3500 
L 3769 2925 
L 2444 2925 
L 2113 1234 
Q 2025 781 2103 638 
z
" transform="scale(0.015625)"/>
       <path id="DejaVuSans-3d" d="M 678 2906 
L 4684 2906 
L 4684 2381 
L 678 2381 
L 678 2906 
z
M 678 1631 
L 4684 1631 
L 4684 1100 
L 678 1100 
L 678 1631 
z
" transform="scale(0.015625)"/>
      </defs>
      <use xlink:href="#DejaVuSans-Oblique-3c4" transform="translate(0 0.78125)"/>
      <use xlink:href="#DejaVuSans-3d" transform="translate(79.6875 0.78125)"/>
      <use xlink:href="#DejaVuSans-30" transform="translate(182.958984 0.78125)"/>
     </g>
    </g>
    <g id="line2d_20">
     <path d="M 50.423125 47.774687 
L 64.423125 47.774687 
L 78.423125 47.774687 
" style="fill: none; stroke: #9fc0d9; stroke-width: 2.4; stroke-linecap: square"/>
    </g>
    <g id="text_15">
     <!-- $\tau=0.25$ -->
     <g transform="translate(86.423125 51.274687) scale(0.1 -0.1)">
      <defs>
       <path id="DejaVuSans-2e" d="M 684 794 
L 1344 794 
L 1344 0 
L 684 0 
L 684 794 
z
" transform="scale(0.015625)"/>
       <path id="DejaVuSans-35" d="M 691 4666 
L 3169 4666 
L 3169 4134 
L 1269 4134 
L 1269 2991 
Q 1406 3038 1543 3061 
Q 1681 3084 1819 3084 
Q 2600 3084 3056 2656 
Q 3513 2228 3513 1497 
Q 3513 744 3044 326 
Q 2575 -91 1722 -91 
Q 1428 -91 1123 -41 
Q 819 9 494 109 
L 494 744 
Q 775 591 1075 516 
Q 1375 441 1709 441 
Q 2250 441 2565 725 
Q 2881 1009 2881 1497 
Q 2881 1984 2565 2268 
Q 2250 2553 1709 2553 
Q 1456 2553 1204 2497 
Q 953 2441 691 2322 
L 691 4666 
z
" transform="scale(0.015625)"/>
      </defs>
      <use xlink:href="#DejaVuSans-Oblique-3c4" transform="translate(0 0.78125)"/>
      <use xlink:href="#DejaVuSans-3d" transform="translate(79.6875 0.78125)"/>
      <use xlink:href="#DejaVuSans-30" transform="translate(182.958984 0.78125)"/>
      <use xlink:href="#DejaVuSans-2e" transform="translate(246.582031 0.78125)"/>
      <use xlink:href="#DejaVuSans-32" transform="translate(272.869141 0.78125)"/>
      <use xlink:href="#DejaVuSans-35" transform="translate(336.492188 0.78125)"/>
     </g>
    </g>
    <g id="line2d_21">
     <path d="M 50.423125 62.452812 
L 64.423125 62.452812 
L 78.423125 62.452812 
" style="fill: none; stroke: #77a6ca; stroke-width: 2.4; stroke-linecap: square"/>
    </g>
    <g id="text_16">
     <!-- $\tau=0.5$ -->
     <g transform="translate(86.423125 65.952812) scale(0.1 -0.1)">
      <use xlink:href="#DejaVuSans-Oblique-3c4" transform="translate(0 0.78125)"/>
      <use xlink:href="#DejaVuSans-3d" transform="translate(79.6875 0.78125)"/>
      <use xlink:href="#DejaVuSans-30" transform="translate(182.958984 0.78125)"/>
      <use xlink:href="#DejaVuSans-2e" transform="translate(246.582031 0.78125)"/>
      <use xlink:href="#DejaVuSans-35" transform="translate(278.369141 0.78125)"/>
     </g>
    </g>
    <g id="line2d_22">
     <path d="M 50.423125 77.130937 
L 64.423125 77.130937 
L 78.423125 77.130937 
" style="fill: none; stroke: #508cba; stroke-width: 2.4; stroke-linecap: square"/>
    </g>
    <g id="text_17">
     <!-- $\tau=0.9$ -->
     <g transform="translate(86.423125 80.630937) scale(0.1 -0.1)">
      <defs>
       <path id="DejaVuSans-39" d="M 703 97 
L 703 672 
Q 941 559 1184 500 
Q 1428 441 1663 441 
Q 2288 441 2617 861 
Q 2947 1281 2994 2138 
Q 2813 1869 2534 1725 
Q 2256 1581 1919 1581 
Q 1219 1581 811 2004 
Q 403 2428 403 3163 
Q 403 3881 828 4315 
Q 1253 4750 1959 4750 
Q 2769 4750 3195 4129 
Q 3622 3509 3622 2328 
Q 3622 1225 3098 567 
Q 2575 -91 1691 -91 
Q 1453 -91 1209 -44 
Q 966 3 703 97 
z
M 1959 2075 
Q 2384 2075 2632 2365 
Q 2881 2656 2881 3163 
Q 2881 3666 2632 3958 
Q 2384 4250 1959 4250 
Q 1534 4250 1286 3958 
Q 1038 3666 1038 3163 
Q 1038 2656 1286 2365 
Q 1534 2075 1959 2075 
z
" transform="scale(0.015625)"/>
      </defs>
      <use xlink:href="#DejaVuSans-Oblique-3c4" transform="translate(0 0.78125)"/>
      <use xlink:href="#DejaVuSans-3d" transform="translate(79.6875 0.78125)"/>
      <use xlink:href="#DejaVuSans-30" transform="translate(182.958984 0.78125)"/>
      <use xlink:href="#DejaVuSans-2e" transform="translate(246.582031 0.78125)"/>
      <use xlink:href="#DejaVuSans-39" transform="translate(278.369141 0.78125)"/>
     </g>
    </g>
    <g id="line2d_23">
     <path d="M 50.423125 91.809062 
L 64.423125 91.809062 
L 78.423125 91.809062 
" style="fill: none; stroke: #2872ab; stroke-width: 2.4; stroke-linecap: square"/>
    </g>
    <g id="text_18">
     <!-- $\tau=0.99$ -->
     <g transform="translate(86.423125 95.309062) scale(0.1 -0.1)">
      <use xlink:href="#DejaVuSans-Oblique-3c4" transform="translate(0 0.78125)"/>
      <use xlink:href="#DejaVuSans-3d" transform="translate(79.6875 0.78125)"/>
      <use xlink:href="#DejaVuSans-30" transform="translate(182.958984 0.78125)"/>
      <use xlink:href="#DejaVuSans-2e" transform="translate(246.582031 0.78125)"/>
      <use xlink:href="#DejaVuSans-39" transform="translate(278.369141 0.78125)"/>
      <use xlink:href="#DejaVuSans-39" transform="translate(341.992188 0.78125)"/>
     </g>
    </g>
    <g id="line2d_24">
     <path d="M 50.423125 106.487187 
L 64.423125 106.487187 
L 78.423125 106.487187 
" style="fill: none; stroke: #00589b; stroke-width: 2.4; stroke-linecap: square"/>
    </g>
    <g id="text_19">
     <!-- $\tau=0.9999$ -->
     <g transform="translate(86.423125 109.987187) scale(0.1 -0.1)">
      <use xlink:href="#DejaVuSans-Oblique-3c4" transform="translate(0 0.78125)"/>
      <use xlink:href="#DejaVuSans-3d" transform="translate(79.6875 0.78125)"/>
      <use xlink:href="#DejaVuSans-30" transform="translate(182.958984 0.78125)"/>
      <use xlink:href="#DejaVuSans-2e" transform="translate(246.582031 0.78125)"/>
      <use xlink:href="#DejaVuSans-39" transform="translate(278.369141 0.78125)"/>
      <use xlink:href="#DejaVuSans-39" transform="translate(341.992188 0.78125)"/>
      <use xlink:href="#DejaVuSans-39" transform="translate(405.615234 0.78125)"/>
      <use xlink:href="#DejaVuSans-39" transform="translate(469.238281 0.78125)"/>
     </g>
    </g>
   </g>
  </g>
  <g id="axes_2">
   <g id="patch_5">
    <path d="M 41.423125 385.902125 
L 370.643125 385.902125 
L 370.643125 259.868525 
L 41.423125 259.868525 
z
" style="fill: #ffffff"/>
   </g>
   <g id="matplotlib.axis_3">
    <g id="xtick_6">
     <g id="line2d_25">
      <g>
       <use xlink:href="#m5b1cd17855" x="49.757809" y="385.902125" style="stroke: #000000"/>
      </g>
     </g>
     <g id="text_20">
      <!-- 1 -->
      <g transform="translate(46.576559 400.500563) scale(0.1 -0.1)">
       <use xlink:href="#DejaVuSans-31"/>
      </g>
     </g>
    </g>
    <g id="xtick_7">
     <g id="line2d_26">
      <g>
       <use xlink:href="#m5b1cd17855" x="70.594517" y="385.902125" style="stroke: #000000"/>
      </g>
     </g>
     <g id="text_21">
      <!-- 2 -->
      <g transform="translate(67.413267 400.500563) scale(0.1 -0.1)">
       <use xlink:href="#DejaVuSans-32"/>
      </g>
     </g>
    </g>
    <g id="xtick_8">
     <g id="line2d_27">
      <g>
       <use xlink:href="#m5b1cd17855" x="91.431226" y="385.902125" style="stroke: #000000"/>
      </g>
     </g>
     <g id="text_22">
      <!-- 3 -->
      <g transform="translate(88.249976 400.500563) scale(0.1 -0.1)">
       <defs>
        <path id="DejaVuSans-33" d="M 2597 2516 
Q 3050 2419 3304 2112 
Q 3559 1806 3559 1356 
Q 3559 666 3084 287 
Q 2609 -91 1734 -91 
Q 1441 -91 1130 -33 
Q 819 25 488 141 
L 488 750 
Q 750 597 1062 519 
Q 1375 441 1716 441 
Q 2309 441 2620 675 
Q 2931 909 2931 1356 
Q 2931 1769 2642 2001 
Q 2353 2234 1838 2234 
L 1294 2234 
L 1294 2753 
L 1863 2753 
Q 2328 2753 2575 2939 
Q 2822 3125 2822 3475 
Q 2822 3834 2567 4026 
Q 2313 4219 1838 4219 
Q 1578 4219 1281 4162 
Q 984 4106 628 3988 
L 628 4550 
Q 988 4650 1302 4700 
Q 1616 4750 1894 4750 
Q 2613 4750 3031 4423 
Q 3450 4097 3450 3541 
Q 3450 3153 3228 2886 
Q 3006 2619 2597 2516 
z
" transform="scale(0.015625)"/>
       </defs>
       <use xlink:href="#DejaVuSans-33"/>
      </g>
     </g>
    </g>
    <g id="xtick_9">
     <g id="line2d_28">
      <g>
       <use xlink:href="#m5b1cd17855" x="112.267935" y="385.902125" style="stroke: #000000"/>
      </g>
     </g>
     <g id="text_23">
      <!-- 4 -->
      <g transform="translate(109.086685 400.500563) scale(0.1 -0.1)">
       <defs>
        <path id="DejaVuSans-34" d="M 2419 4116 
L 825 1625 
L 2419 1625 
L 2419 4116 
z
M 2253 4666 
L 3047 4666 
L 3047 1625 
L 3713 1625 
L 3713 1100 
L 3047 1100 
L 3047 0 
L 2419 0 
L 2419 1100 
L 313 1100 
L 313 1709 
L 2253 4666 
z
" transform="scale(0.015625)"/>
       </defs>
       <use xlink:href="#DejaVuSans-34"/>
      </g>
     </g>
    </g>
    <g id="xtick_10">
     <g id="line2d_29">
      <g>
       <use xlink:href="#m5b1cd17855" x="133.104644" y="385.902125" style="stroke: #000000"/>
      </g>
     </g>
     <g id="text_24">
      <!-- 5 -->
      <g transform="translate(129.923394 400.500563) scale(0.1 -0.1)">
       <use xlink:href="#DejaVuSans-35"/>
      </g>
     </g>
    </g>
    <g id="xtick_11">
     <g id="line2d_30">
      <g>
       <use xlink:href="#m5b1cd17855" x="153.941353" y="385.902125" style="stroke: #000000"/>
      </g>
     </g>
     <g id="text_25">
      <!-- 6 -->
      <g transform="translate(150.760103 400.500563) scale(0.1 -0.1)">
       <defs>
        <path id="DejaVuSans-36" d="M 2113 2584 
Q 1688 2584 1439 2293 
Q 1191 2003 1191 1497 
Q 1191 994 1439 701 
Q 1688 409 2113 409 
Q 2538 409 2786 701 
Q 3034 994 3034 1497 
Q 3034 2003 2786 2293 
Q 2538 2584 2113 2584 
z
M 3366 4563 
L 3366 3988 
Q 3128 4100 2886 4159 
Q 2644 4219 2406 4219 
Q 1781 4219 1451 3797 
Q 1122 3375 1075 2522 
Q 1259 2794 1537 2939 
Q 1816 3084 2150 3084 
Q 2853 3084 3261 2657 
Q 3669 2231 3669 1497 
Q 3669 778 3244 343 
Q 2819 -91 2113 -91 
Q 1303 -91 875 529 
Q 447 1150 447 2328 
Q 447 3434 972 4092 
Q 1497 4750 2381 4750 
Q 2619 4750 2861 4703 
Q 3103 4656 3366 4563 
z
" transform="scale(0.015625)"/>
       </defs>
       <use xlink:href="#DejaVuSans-36"/>
      </g>
     </g>
    </g>
    <g id="xtick_12">
     <g id="line2d_31">
      <g>
       <use xlink:href="#m5b1cd17855" x="174.778062" y="385.902125" style="stroke: #000000"/>
      </g>
     </g>
     <g id="text_26">
      <!-- 7 -->
      <g transform="translate(171.596812 400.500563) scale(0.1 -0.1)">
       <defs>
        <path id="DejaVuSans-37" d="M 525 4666 
L 3525 4666 
L 3525 4397 
L 1831 0 
L 1172 0 
L 2766 4134 
L 525 4134 
L 525 4666 
z
" transform="scale(0.015625)"/>
       </defs>
       <use xlink:href="#DejaVuSans-37"/>
      </g>
     </g>
    </g>
    <g id="xtick_13">
     <g id="line2d_32">
      <g>
       <use xlink:href="#m5b1cd17855" x="195.614771" y="385.902125" style="stroke: #000000"/>
      </g>
     </g>
     <g id="text_27">
      <!-- 8 -->
      <g transform="translate(192.433521 400.500563) scale(0.1 -0.1)">
       <defs>
        <path id="DejaVuSans-38" d="M 2034 2216 
Q 1584 2216 1326 1975 
Q 1069 1734 1069 1313 
Q 1069 891 1326 650 
Q 1584 409 2034 409 
Q 2484 409 2743 651 
Q 3003 894 3003 1313 
Q 3003 1734 2745 1975 
Q 2488 2216 2034 2216 
z
M 1403 2484 
Q 997 2584 770 2862 
Q 544 3141 544 3541 
Q 544 4100 942 4425 
Q 1341 4750 2034 4750 
Q 2731 4750 3128 4425 
Q 3525 4100 3525 3541 
Q 3525 3141 3298 2862 
Q 3072 2584 2669 2484 
Q 3125 2378 3379 2068 
Q 3634 1759 3634 1313 
Q 3634 634 3220 271 
Q 2806 -91 2034 -91 
Q 1263 -91 848 271 
Q 434 634 434 1313 
Q 434 1759 690 2068 
Q 947 2378 1403 2484 
z
M 1172 3481 
Q 1172 3119 1398 2916 
Q 1625 2713 2034 2713 
Q 2441 2713 2670 2916 
Q 2900 3119 2900 3481 
Q 2900 3844 2670 4047 
Q 2441 4250 2034 4250 
Q 1625 4250 1398 4047 
Q 1172 3844 1172 3481 
z
" transform="scale(0.015625)"/>
       </defs>
       <use xlink:href="#DejaVuSans-38"/>
      </g>
     </g>
    </g>
    <g id="xtick_14">
     <g id="line2d_33">
      <g>
       <use xlink:href="#m5b1cd17855" x="216.451479" y="385.902125" style="stroke: #000000"/>
      </g>
     </g>
     <g id="text_28">
      <!-- 9 -->
      <g transform="translate(213.270229 400.500563) scale(0.1 -0.1)">
       <use xlink:href="#DejaVuSans-39"/>
      </g>
     </g>
    </g>
    <g id="xtick_15">
     <g id="line2d_34">
      <g>
       <use xlink:href="#m5b1cd17855" x="237.288188" y="385.902125" style="stroke: #000000"/>
      </g>
     </g>
     <g id="text_29">
      <!-- 10 -->
      <g transform="translate(230.925688 400.500563) scale(0.1 -0.1)">
       <use xlink:href="#DejaVuSans-31"/>
       <use xlink:href="#DejaVuSans-30" x="63.623047"/>
      </g>
     </g>
    </g>
    <g id="xtick_16">
     <g id="line2d_35">
      <g>
       <use xlink:href="#m5b1cd17855" x="258.124897" y="385.902125" style="stroke: #000000"/>
      </g>
     </g>
     <g id="text_30">
      <!-- 11 -->
      <g transform="translate(251.762397 400.500563) scale(0.1 -0.1)">
       <use xlink:href="#DejaVuSans-31"/>
       <use xlink:href="#DejaVuSans-31" x="63.623047"/>
      </g>
     </g>
    </g>
    <g id="xtick_17">
     <g id="line2d_36">
      <g>
       <use xlink:href="#m5b1cd17855" x="278.961606" y="385.902125" style="stroke: #000000"/>
      </g>
     </g>
     <g id="text_31">
      <!-- 12 -->
      <g transform="translate(272.599106 400.500563) scale(0.1 -0.1)">
       <use xlink:href="#DejaVuSans-31"/>
       <use xlink:href="#DejaVuSans-32" x="63.623047"/>
      </g>
     </g>
    </g>
    <g id="xtick_18">
     <g id="line2d_37">
      <g>
       <use xlink:href="#m5b1cd17855" x="299.798315" y="385.902125" style="stroke: #000000"/>
      </g>
     </g>
     <g id="text_32">
      <!-- 13 -->
      <g transform="translate(293.435815 400.500563) scale(0.1 -0.1)">
       <use xlink:href="#DejaVuSans-31"/>
       <use xlink:href="#DejaVuSans-33" x="63.623047"/>
      </g>
     </g>
    </g>
    <g id="xtick_19">
     <g id="line2d_38">
      <g>
       <use xlink:href="#m5b1cd17855" x="320.635024" y="385.902125" style="stroke: #000000"/>
      </g>
     </g>
     <g id="text_33">
      <!-- 14 -->
      <g transform="translate(314.272524 400.500563) scale(0.1 -0.1)">
       <use xlink:href="#DejaVuSans-31"/>
       <use xlink:href="#DejaVuSans-34" x="63.623047"/>
      </g>
     </g>
    </g>
    <g id="xtick_20">
     <g id="line2d_39">
      <g>
       <use xlink:href="#m5b1cd17855" x="341.471733" y="385.902125" style="stroke: #000000"/>
      </g>
     </g>
     <g id="text_34">
      <!-- 15 -->
      <g transform="translate(335.109233 400.500563) scale(0.1 -0.1)">
       <use xlink:href="#DejaVuSans-31"/>
       <use xlink:href="#DejaVuSans-35" x="63.623047"/>
      </g>
     </g>
    </g>
    <g id="xtick_21">
     <g id="line2d_40">
      <g>
       <use xlink:href="#m5b1cd17855" x="362.308441" y="385.902125" style="stroke: #000000"/>
      </g>
     </g>
     <g id="text_35">
      <!-- 16 -->
      <g transform="translate(355.945941 400.500563) scale(0.1 -0.1)">
       <use xlink:href="#DejaVuSans-31"/>
       <use xlink:href="#DejaVuSans-36" x="63.623047"/>
      </g>
     </g>
    </g>
    <g id="text_36">
     <!-- Harmonic order  $n$ -->
     <g transform="translate(151.433125 415.698375) scale(0.12 -0.12)">
      <defs>
       <path id="DejaVuSans-48" d="M 628 4666 
L 1259 4666 
L 1259 2753 
L 3553 2753 
L 3553 4666 
L 4184 4666 
L 4184 0 
L 3553 0 
L 3553 2222 
L 1259 2222 
L 1259 0 
L 628 0 
L 628 4666 
z
" transform="scale(0.015625)"/>
       <path id="DejaVuSans-Oblique-6e" d="M 3566 2113 
L 3156 0 
L 2578 0 
L 2988 2091 
Q 3016 2238 3031 2350 
Q 3047 2463 3047 2528 
Q 3047 2791 2881 2937 
Q 2716 3084 2419 3084 
Q 1956 3084 1622 2776 
Q 1288 2469 1184 1941 
L 800 0 
L 225 0 
L 903 3500 
L 1478 3500 
L 1363 2950 
Q 1603 3253 1940 3418 
Q 2278 3584 2650 3584 
Q 3113 3584 3367 3334 
Q 3622 3084 3622 2631 
Q 3622 2519 3608 2391 
Q 3594 2263 3566 2113 
z
" transform="scale(0.015625)"/>
      </defs>
      <use xlink:href="#DejaVuSans-48" transform="translate(0 0.015625)"/>
      <use xlink:href="#DejaVuSans-61" transform="translate(75.195312 0.015625)"/>
      <use xlink:href="#DejaVuSans-72" transform="translate(136.474609 0.015625)"/>
      <use xlink:href="#DejaVuSans-6d" transform="translate(177.587891 0.015625)"/>
      <use xlink:href="#DejaVuSans-6f" transform="translate(275 0.015625)"/>
      <use xlink:href="#DejaVuSans-6e" transform="translate(336.181641 0.015625)"/>
      <use xlink:href="#DejaVuSans-69" transform="translate(399.560547 0.015625)"/>
      <use xlink:href="#DejaVuSans-63" transform="translate(427.34375 0.015625)"/>
      <use xlink:href="#DejaVuSans-20" transform="translate(482.324219 0.015625)"/>
      <use xlink:href="#DejaVuSans-6f" transform="translate(514.111328 0.015625)"/>
      <use xlink:href="#DejaVuSans-72" transform="translate(575.292969 0.015625)"/>
      <use xlink:href="#DejaVuSans-64" transform="translate(616.40625 0.015625)"/>
      <use xlink:href="#DejaVuSans-65" transform="translate(679.882812 0.015625)"/>
      <use xlink:href="#DejaVuSans-72" transform="translate(741.40625 0.015625)"/>
      <use xlink:href="#DejaVuSans-20" transform="translate(782.519531 0.015625)"/>
      <use xlink:href="#DejaVuSans-20" transform="translate(814.306641 0.015625)"/>
      <use xlink:href="#DejaVuSans-Oblique-6e" transform="translate(846.09375 0.015625)"/>
     </g>
    </g>
   </g>
   <g id="matplotlib.axis_4">
    <g id="ytick_6">
     <g id="line2d_41">
      <g>
       <use xlink:href="#md093a56c85" x="41.423125" y="385.902125" style="stroke: #000000"/>
      </g>
     </g>
     <g id="text_37">
      <!-- 0.0 -->
      <g transform="translate(18.52 389.701344) scale(0.1 -0.1)">
       <use xlink:href="#DejaVuSans-30"/>
       <use xlink:href="#DejaVuSans-2e" x="63.623047"/>
       <use xlink:href="#DejaVuSans-30" x="95.410156"/>
      </g>
     </g>
    </g>
    <g id="ytick_7">
     <g id="line2d_42">
      <g>
       <use xlink:href="#md093a56c85" x="41.423125" y="363.396125" style="stroke: #000000"/>
      </g>
     </g>
     <g id="text_38">
      <!-- 0.2 -->
      <g transform="translate(18.52 367.195344) scale(0.1 -0.1)">
       <use xlink:href="#DejaVuSans-30"/>
       <use xlink:href="#DejaVuSans-2e" x="63.623047"/>
       <use xlink:href="#DejaVuSans-32" x="95.410156"/>
      </g>
     </g>
    </g>
    <g id="ytick_8">
     <g id="line2d_43">
      <g>
       <use xlink:href="#md093a56c85" x="41.423125" y="340.890125" style="stroke: #000000"/>
      </g>
     </g>
     <g id="text_39">
      <!-- 0.4 -->
      <g transform="translate(18.52 344.689344) scale(0.1 -0.1)">
       <use xlink:href="#DejaVuSans-30"/>
       <use xlink:href="#DejaVuSans-2e" x="63.623047"/>
       <use xlink:href="#DejaVuSans-34" x="95.410156"/>
      </g>
     </g>
    </g>
    <g id="ytick_9">
     <g id="line2d_44">
      <g>
       <use xlink:href="#md093a56c85" x="41.423125" y="318.384125" style="stroke: #000000"/>
      </g>
     </g>
     <g id="text_40">
      <!-- 0.6 -->
      <g transform="translate(18.52 322.183344) scale(0.1 -0.1)">
       <use xlink:href="#DejaVuSans-30"/>
       <use xlink:href="#DejaVuSans-2e" x="63.623047"/>
       <use xlink:href="#DejaVuSans-36" x="95.410156"/>
      </g>
     </g>
    </g>
    <g id="ytick_10">
     <g id="line2d_45">
      <g>
       <use xlink:href="#md093a56c85" x="41.423125" y="295.878125" style="stroke: #000000"/>
      </g>
     </g>
     <g id="text_41">
      <!-- 0.8 -->
      <g transform="translate(18.52 299.677344) scale(0.1 -0.1)">
       <use xlink:href="#DejaVuSans-30"/>
       <use xlink:href="#DejaVuSans-2e" x="63.623047"/>
       <use xlink:href="#DejaVuSans-38" x="95.410156"/>
      </g>
     </g>
    </g>
    <g id="ytick_11">
     <g id="line2d_46">
      <g>
       <use xlink:href="#md093a56c85" x="41.423125" y="273.372125" style="stroke: #000000"/>
      </g>
     </g>
     <g id="text_42">
      <!-- 1.0 -->
      <g transform="translate(18.52 277.171344) scale(0.1 -0.1)">
       <use xlink:href="#DejaVuSans-31"/>
       <use xlink:href="#DejaVuSans-2e" x="63.623047"/>
       <use xlink:href="#DejaVuSans-30" x="95.410156"/>
      </g>
     </g>
    </g>
    <g id="text_43">
     <!-- Normalized amplitude  $A_n/A_1$ -->
     <g transform="translate(12 408.985325) rotate(-90) scale(0.12 -0.12)">
      <defs>
       <path id="DejaVuSans-Oblique-41" d="M 2356 4666 
L 3072 4666 
L 3938 0 
L 3278 0 
L 3084 1197 
L 984 1197 
L 325 0 
L -341 0 
L 2356 4666 
z
M 2584 4044 
L 1275 1722 
L 2988 1722 
L 2584 4044 
z
" transform="scale(0.015625)"/>
      </defs>
      <use xlink:href="#DejaVuSans-4e" transform="translate(0 0.015625)"/>
      <use xlink:href="#DejaVuSans-6f" transform="translate(74.804688 0.015625)"/>
      <use xlink:href="#DejaVuSans-72" transform="translate(135.986328 0.015625)"/>
      <use xlink:href="#DejaVuSans-6d" transform="translate(177.099609 0.015625)"/>
      <use xlink:href="#DejaVuSans-61" transform="translate(274.511719 0.015625)"/>
      <use xlink:href="#DejaVuSans-6c" transform="translate(335.791016 0.015625)"/>
      <use xlink:href="#DejaVuSans-69" transform="translate(363.574219 0.015625)"/>
      <use xlink:href="#DejaVuSans-7a" transform="translate(391.357422 0.015625)"/>
      <use xlink:href="#DejaVuSans-65" transform="translate(443.847656 0.015625)"/>
      <use xlink:href="#DejaVuSans-64" transform="translate(505.371094 0.015625)"/>
      <use xlink:href="#DejaVuSans-20" transform="translate(568.847656 0.015625)"/>
      <use xlink:href="#DejaVuSans-61" transform="translate(600.634766 0.015625)"/>
      <use xlink:href="#DejaVuSans-6d" transform="translate(661.914062 0.015625)"/>
      <use xlink:href="#DejaVuSans-70" transform="translate(759.326172 0.015625)"/>
      <use xlink:href="#DejaVuSans-6c" transform="translate(822.802734 0.015625)"/>
      <use xlink:href="#DejaVuSans-69" transform="translate(850.585938 0.015625)"/>
      <use xlink:href="#DejaVuSans-74" transform="translate(878.369141 0.015625)"/>
      <use xlink:href="#DejaVuSans-75" transform="translate(917.578125 0.015625)"/>
      <use xlink:href="#DejaVuSans-64" transform="translate(980.957031 0.015625)"/>
      <use xlink:href="#DejaVuSans-65" transform="translate(1044.433594 0.015625)"/>
      <use xlink:href="#DejaVuSans-20" transform="translate(1105.957031 0.015625)"/>
      <use xlink:href="#DejaVuSans-20" transform="translate(1137.744141 0.015625)"/>
      <use xlink:href="#DejaVuSans-Oblique-41" transform="translate(1169.53125 0.015625)"/>
      <use xlink:href="#DejaVuSans-Oblique-6e" transform="translate(1237.939453 -16.390625) scale(0.7)"/>
      <use xlink:href="#DejaVuSans-2f" transform="translate(1285.039062 0.015625)"/>
      <use xlink:href="#DejaVuSans-Oblique-41" transform="translate(1318.730469 0.015625)"/>
      <use xlink:href="#DejaVuSans-31" transform="translate(1387.138672 -16.390625) scale(0.7)"/>
     </g>
    </g>
   </g>
   <g id="line2d_47">
    <path d="M 49.757809 273.372125 
L 70.594517 385.902125 
L 91.431226 385.902125 
L 112.267935 385.902125 
L 133.104644 385.902125 
L 153.941353 385.902125 
L 174.778062 385.902125 
L 195.614771 385.902125 
L 216.451479 385.902125 
L 237.288188 385.902125 
L 258.124897 385.902125 
L 278.961606 385.902125 
L 299.798315 385.902125 
L 320.635024 385.902125 
L 341.471733 385.902125 
L 362.308441 385.902125 
" clip-path="url(#p0b177dc9e8)" style="fill: none; stroke: #c7dae9; stroke-width: 2.4; stroke-linecap: square"/>
    <defs>
     <path id="mb2d7d449e5" d="M 0 3 
C 0.795609 3 1.55874 2.683901 2.12132 2.12132 
C 2.683901 1.55874 3 0.795609 3 0 
C 3 -0.795609 2.683901 -1.55874 2.12132 -2.12132 
C 1.55874 -2.683901 0.795609 -3 0 -3 
C -0.795609 -3 -1.55874 -2.683901 -2.12132 -2.12132 
C -2.683901 -1.55874 -3 -0.795609 -3 0 
C -3 0.795609 -2.683901 1.55874 -2.12132 2.12132 
C -1.55874 2.683901 -0.795609 3 0 3 
z
" style="stroke: #c7dae9"/>
    </defs>
    <g clip-path="url(#p0b177dc9e8)">
     <use xlink:href="#mb2d7d449e5" x="49.757809" y="273.372125" style="fill: #c7dae9; stroke: #c7dae9"/>
     <use xlink:href="#mb2d7d449e5" x="70.594517" y="385.902125" style="fill: #c7dae9; stroke: #c7dae9"/>
     <use xlink:href="#mb2d7d449e5" x="91.431226" y="385.902125" style="fill: #c7dae9; stroke: #c7dae9"/>
     <use xlink:href="#mb2d7d449e5" x="112.267935" y="385.902125" style="fill: #c7dae9; stroke: #c7dae9"/>
     <use xlink:href="#mb2d7d449e5" x="133.104644" y="385.902125" style="fill: #c7dae9; stroke: #c7dae9"/>
     <use xlink:href="#mb2d7d449e5" x="153.941353" y="385.902125" style="fill: #c7dae9; stroke: #c7dae9"/>
     <use xlink:href="#mb2d7d449e5" x="174.778062" y="385.902125" style="fill: #c7dae9; stroke: #c7dae9"/>
     <use xlink:href="#mb2d7d449e5" x="195.614771" y="385.902125" style="fill: #c7dae9; stroke: #c7dae9"/>
     <use xlink:href="#mb2d7d449e5" x="216.451479" y="385.902125" style="fill: #c7dae9; stroke: #c7dae9"/>
     <use xlink:href="#mb2d7d449e5" x="237.288188" y="385.902125" style="fill: #c7dae9; stroke: #c7dae9"/>
     <use xlink:href="#mb2d7d449e5" x="258.124897" y="385.902125" style="fill: #c7dae9; stroke: #c7dae9"/>
     <use xlink:href="#mb2d7d449e5" x="278.961606" y="385.902125" style="fill: #c7dae9; stroke: #c7dae9"/>
     <use xlink:href="#mb2d7d449e5" x="299.798315" y="385.902125" style="fill: #c7dae9; stroke: #c7dae9"/>
     <use xlink:href="#mb2d7d449e5" x="320.635024" y="385.902125" style="fill: #c7dae9; stroke: #c7dae9"/>
     <use xlink:href="#mb2d7d449e5" x="341.471733" y="385.902125" style="fill: #c7dae9; stroke: #c7dae9"/>
     <use xlink:href="#mb2d7d449e5" x="362.308441" y="385.902125" style="fill: #c7dae9; stroke: #c7dae9"/>
    </g>
   </g>
   <g id="line2d_48">
    <path d="M 49.757809 273.372125 
L 70.594517 381.865087 
L 91.431226 385.68481 
L 112.267935 385.889125 
L 133.104644 385.901308 
L 153.941353 385.902072 
L 174.778062 385.902122 
L 195.614771 385.902125 
L 216.451479 385.902125 
L 237.288188 385.902125 
L 258.124897 385.902125 
L 278.961606 385.902125 
L 299.798315 385.902125 
L 320.635024 385.902125 
L 341.471733 385.902125 
L 362.308441 385.902125 
" clip-path="url(#p0b177dc9e8)" style="fill: none; stroke: #9fc0d9; stroke-width: 2.4; stroke-linecap: square"/>
    <defs>
     <path id="m30ff8f77b1" d="M 0 3 
C 0.795609 3 1.55874 2.683901 2.12132 2.12132 
C 2.683901 1.55874 3 0.795609 3 0 
C 3 -0.795609 2.683901 -1.55874 2.12132 -2.12132 
C 1.55874 -2.683901 0.795609 -3 0 -3 
C -0.795609 -3 -1.55874 -2.683901 -2.12132 -2.12132 
C -2.683901 -1.55874 -3 -0.795609 -3 0 
C -3 0.795609 -2.683901 1.55874 -2.12132 2.12132 
C -1.55874 2.683901 -0.795609 3 0 3 
z
" style="stroke: #9fc0d9"/>
    </defs>
    <g clip-path="url(#p0b177dc9e8)">
     <use xlink:href="#m30ff8f77b1" x="49.757809" y="273.372125" style="fill: #9fc0d9; stroke: #9fc0d9"/>
     <use xlink:href="#m30ff8f77b1" x="70.594517" y="381.865087" style="fill: #9fc0d9; stroke: #9fc0d9"/>
     <use xlink:href="#m30ff8f77b1" x="91.431226" y="385.68481" style="fill: #9fc0d9; stroke: #9fc0d9"/>
     <use xlink:href="#m30ff8f77b1" x="112.267935" y="385.889125" style="fill: #9fc0d9; stroke: #9fc0d9"/>
     <use xlink:href="#m30ff8f77b1" x="133.104644" y="385.901308" style="fill: #9fc0d9; stroke: #9fc0d9"/>
     <use xlink:href="#m30ff8f77b1" x="153.941353" y="385.902072" style="fill: #9fc0d9; stroke: #9fc0d9"/>
     <use xlink:href="#m30ff8f77b1" x="174.778062" y="385.902122" style="fill: #9fc0d9; stroke: #9fc0d9"/>
     <use xlink:href="#m30ff8f77b1" x="195.614771" y="385.902125" style="fill: #9fc0d9; stroke: #9fc0d9"/>
     <use xlink:href="#m30ff8f77b1" x="216.451479" y="385.902125" style="fill: #9fc0d9; stroke: #9fc0d9"/>
     <use xlink:href="#m30ff8f77b1" x="237.288188" y="385.902125" style="fill: #9fc0d9; stroke: #9fc0d9"/>
     <use xlink:href="#m30ff8f77b1" x="258.124897" y="385.902125" style="fill: #9fc0d9; stroke: #9fc0d9"/>
     <use xlink:href="#m30ff8f77b1" x="278.961606" y="385.902125" style="fill: #9fc0d9; stroke: #9fc0d9"/>
     <use xlink:href="#m30ff8f77b1" x="299.798315" y="385.902125" style="fill: #9fc0d9; stroke: #9fc0d9"/>
     <use xlink:href="#m30ff8f77b1" x="320.635024" y="385.902125" style="fill: #9fc0d9; stroke: #9fc0d9"/>
     <use xlink:href="#m30ff8f77b1" x="341.471733" y="385.902125" style="fill: #9fc0d9; stroke: #9fc0d9"/>
     <use xlink:href="#m30ff8f77b1" x="362.308441" y="385.902125" style="fill: #9fc0d9; stroke: #9fc0d9"/>
    </g>
   </g>
   <g id="line2d_49">
    <path d="M 49.757809 273.372125 
L 70.594517 376.28443 
L 91.431226 384.666834 
L 112.267935 385.725705 
L 133.104644 385.87566 
L 153.941353 385.898041 
L 174.778062 385.901483 
L 195.614771 385.902023 
L 216.451479 385.902109 
L 237.288188 385.902122 
L 258.124897 385.902125 
L 278.961606 385.902125 
L 299.798315 385.902125 
L 320.635024 385.902125 
L 341.471733 385.902125 
L 362.308441 385.902125 
" clip-path="url(#p0b177dc9e8)" style="fill: none; stroke: #77a6ca; stroke-width: 2.4; stroke-linecap: square"/>
    <defs>
     <path id="m6443cbff2a" d="M 0 3 
C 0.795609 3 1.55874 2.683901 2.12132 2.12132 
C 2.683901 1.55874 3 0.795609 3 0 
C 3 -0.795609 2.683901 -1.55874 2.12132 -2.12132 
C 1.55874 -2.683901 0.795609 -3 0 -3 
C -0.795609 -3 -1.55874 -2.683901 -2.12132 -2.12132 
C -2.683901 -1.55874 -3 -0.795609 -3 0 
C -3 0.795609 -2.683901 1.55874 -2.12132 2.12132 
C -1.55874 2.683901 -0.795609 3 0 3 
z
" style="stroke: #77a6ca"/>
    </defs>
    <g clip-path="url(#p0b177dc9e8)">
     <use xlink:href="#m6443cbff2a" x="49.757809" y="273.372125" style="fill: #77a6ca; stroke: #77a6ca"/>
     <use xlink:href="#m6443cbff2a" x="70.594517" y="376.28443" style="fill: #77a6ca; stroke: #77a6ca"/>
     <use xlink:href="#m6443cbff2a" x="91.431226" y="384.666834" style="fill: #77a6ca; stroke: #77a6ca"/>
     <use xlink:href="#m6443cbff2a" x="112.267935" y="385.725705" style="fill: #77a6ca; stroke: #77a6ca"/>
     <use xlink:href="#m6443cbff2a" x="133.104644" y="385.87566" style="fill: #77a6ca; stroke: #77a6ca"/>
     <use xlink:href="#m6443cbff2a" x="153.941353" y="385.898041" style="fill: #77a6ca; stroke: #77a6ca"/>
     <use xlink:href="#m6443cbff2a" x="174.778062" y="385.901483" style="fill: #77a6ca; stroke: #77a6ca"/>
     <use xlink:href="#m6443cbff2a" x="195.614771" y="385.902023" style="fill: #77a6ca; stroke: #77a6ca"/>
     <use xlink:href="#m6443cbff2a" x="216.451479" y="385.902109" style="fill: #77a6ca; stroke: #77a6ca"/>
     <use xlink:href="#m6443cbff2a" x="237.288188" y="385.902122" style="fill: #77a6ca; stroke: #77a6ca"/>
     <use xlink:href="#m6443cbff2a" x="258.124897" y="385.902125" style="fill: #77a6ca; stroke: #77a6ca"/>
     <use xlink:href="#m6443cbff2a" x="278.961606" y="385.902125" style="fill: #77a6ca; stroke: #77a6ca"/>
     <use xlink:href="#m6443cbff2a" x="299.798315" y="385.902125" style="fill: #77a6ca; stroke: #77a6ca"/>
     <use xlink:href="#m6443cbff2a" x="320.635024" y="385.902125" style="fill: #77a6ca; stroke: #77a6ca"/>
     <use xlink:href="#m6443cbff2a" x="341.471733" y="385.902125" style="fill: #77a6ca; stroke: #77a6ca"/>
     <use xlink:href="#m6443cbff2a" x="362.308441" y="385.902125" style="fill: #77a6ca; stroke: #77a6ca"/>
    </g>
   </g>
   <g id="line2d_50">
    <path d="M 49.757809 273.372125 
L 70.594517 357.752323 
L 91.431226 375.148729 
L 112.267935 381.303257 
L 133.104644 383.828931 
L 153.941353 384.938618 
L 174.778062 385.445385 
L 195.614771 385.682585 
L 216.451479 385.795511 
L 237.288188 385.84994 
L 258.124897 385.876422 
L 278.961606 385.889401 
L 299.798315 385.895799 
L 320.635024 385.898969 
L 341.471733 385.900546 
L 362.308441 385.901333 
" clip-path="url(#p0b177dc9e8)" style="fill: none; stroke: #508cba; stroke-width: 2.4; stroke-linecap: square"/>
    <defs>
     <path id="m11b1a60eae" d="M 0 3 
C 0.795609 3 1.55874 2.683901 2.12132 2.12132 
C 2.683901 1.55874 3 0.795609 3 0 
C 3 -0.795609 2.683901 -1.55874 2.12132 -2.12132 
C 1.55874 -2.683901 0.795609 -3 0 -3 
C -0.795609 -3 -1.55874 -2.683901 -2.12132 -2.12132 
C -2.683901 -1.55874 -3 -0.795609 -3 0 
C -3 0.795609 -2.683901 1.55874 -2.12132 2.12132 
C -1.55874 2.683901 -0.795609 3 0 3 
z
" style="stroke: #508cba"/>
    </defs>
    <g clip-path="url(#p0b177dc9e8)">
     <use xlink:href="#m11b1a60eae" x="49.757809" y="273.372125" style="fill: #508cba; stroke: #508cba"/>
     <use xlink:href="#m11b1a60eae" x="70.594517" y="357.752323" style="fill: #508cba; stroke: #508cba"/>
     <use xlink:href="#m11b1a60eae" x="91.431226" y="375.148729" style="fill: #508cba; stroke: #508cba"/>
     <use xlink:href="#m11b1a60eae" x="112.267935" y="381.303257" style="fill: #508cba; stroke: #508cba"/>
     <use xlink:href="#m11b1a60eae" x="133.104644" y="383.828931" style="fill: #508cba; stroke: #508cba"/>
     <use xlink:href="#m11b1a60eae" x="153.941353" y="384.938618" style="fill: #508cba; stroke: #508cba"/>
     <use xlink:href="#m11b1a60eae" x="174.778062" y="385.445385" style="fill: #508cba; stroke: #508cba"/>
     <use xlink:href="#m11b1a60eae" x="195.614771" y="385.682585" style="fill: #508cba; stroke: #508cba"/>
     <use xlink:href="#m11b1a60eae" x="216.451479" y="385.795511" style="fill: #508cba; stroke: #508cba"/>
     <use xlink:href="#m11b1a60eae" x="237.288188" y="385.84994" style="fill: #508cba; stroke: #508cba"/>
     <use xlink:href="#m11b1a60eae" x="258.124897" y="385.876422" style="fill: #508cba; stroke: #508cba"/>
     <use xlink:href="#m11b1a60eae" x="278.961606" y="385.889401" style="fill: #508cba; stroke: #508cba"/>
     <use xlink:href="#m11b1a60eae" x="299.798315" y="385.895799" style="fill: #508cba; stroke: #508cba"/>
     <use xlink:href="#m11b1a60eae" x="320.635024" y="385.898969" style="fill: #508cba; stroke: #508cba"/>
     <use xlink:href="#m11b1a60eae" x="341.471733" y="385.900546" style="fill: #508cba; stroke: #508cba"/>
     <use xlink:href="#m11b1a60eae" x="362.308441" y="385.901333" style="fill: #508cba; stroke: #508cba"/>
    </g>
   </g>
   <g id="line2d_51">
    <path d="M 49.757809 273.372125 
L 70.594517 344.852727 
L 91.431226 362.337246 
L 112.267935 370.528948 
L 133.104644 375.238403 
L 153.941353 378.234336 
L 174.778062 380.257289 
L 195.614771 381.677241 
L 216.451479 382.701122 
L 237.288188 383.45402 
L 258.124897 384.015907 
L 278.961606 384.440097 
L 299.798315 384.763279 
L 320.635024 385.011343 
L 341.471733 385.202921 
L 362.308441 385.351637 
" clip-path="url(#p0b177dc9e8)" style="fill: none; stroke: #2872ab; stroke-width: 2.4; stroke-linecap: square"/>
    <defs>
     <path id="m16f6972bc9" d="M 0 3 
C 0.795609 3 1.55874 2.683901 2.12132 2.12132 
C 2.683901 1.55874 3 0.795609 3 0 
C 3 -0.795609 2.683901 -1.55874 2.12132 -2.12132 
C 1.55874 -2.683901 0.795609 -3 0 -3 
C -0.795609 -3 -1.55874 -2.683901 -2.12132 -2.12132 
C -2.683901 -1.55874 -3 -0.795609 -3 0 
C -3 0.795609 -2.683901 1.55874 -2.12132 2.12132 
C -1.55874 2.683901 -0.795609 3 0 3 
z
" style="stroke: #2872ab"/>
    </defs>
    <g clip-path="url(#p0b177dc9e8)">
     <use xlink:href="#m16f6972bc9" x="49.757809" y="273.372125" style="fill: #2872ab; stroke: #2872ab"/>
     <use xlink:href="#m16f6972bc9" x="70.594517" y="344.852727" style="fill: #2872ab; stroke: #2872ab"/>
     <use xlink:href="#m16f6972bc9" x="91.431226" y="362.337246" style="fill: #2872ab; stroke: #2872ab"/>
     <use xlink:href="#m16f6972bc9" x="112.267935" y="370.528948" style="fill: #2872ab; stroke: #2872ab"/>
     <use xlink:href="#m16f6972bc9" x="133.104644" y="375.238403" style="fill: #2872ab; stroke: #2872ab"/>
     <use xlink:href="#m16f6972bc9" x="153.941353" y="378.234336" style="fill: #2872ab; stroke: #2872ab"/>
     <use xlink:href="#m16f6972bc9" x="174.778062" y="380.257289" style="fill: #2872ab; stroke: #2872ab"/>
     <use xlink:href="#m16f6972bc9" x="195.614771" y="381.677241" style="fill: #2872ab; stroke: #2872ab"/>
     <use xlink:href="#m16f6972bc9" x="216.451479" y="382.701122" style="fill: #2872ab; stroke: #2872ab"/>
     <use xlink:href="#m16f6972bc9" x="237.288188" y="383.45402" style="fill: #2872ab; stroke: #2872ab"/>
     <use xlink:href="#m16f6972bc9" x="258.124897" y="384.015907" style="fill: #2872ab; stroke: #2872ab"/>
     <use xlink:href="#m16f6972bc9" x="278.961606" y="384.440097" style="fill: #2872ab; stroke: #2872ab"/>
     <use xlink:href="#m16f6972bc9" x="299.798315" y="384.763279" style="fill: #2872ab; stroke: #2872ab"/>
     <use xlink:href="#m16f6972bc9" x="320.635024" y="385.011343" style="fill: #2872ab; stroke: #2872ab"/>
     <use xlink:href="#m16f6972bc9" x="341.471733" y="385.202921" style="fill: #2872ab; stroke: #2872ab"/>
     <use xlink:href="#m16f6972bc9" x="362.308441" y="385.351637" style="fill: #2872ab; stroke: #2872ab"/>
    </g>
   </g>
   <g id="line2d_52">
    <path d="M 49.757809 273.372125 
L 70.594517 340.989024 
L 91.431226 357.119981 
L 112.267935 364.665701 
L 133.104644 369.087377 
L 153.941353 372.0058 
L 174.778062 374.081518 
L 195.614771 375.636107 
L 216.451479 376.84541 
L 237.288188 377.813877 
L 258.124897 378.60753 
L 278.961606 379.270183 
L 299.798315 379.832074 
L 320.635024 380.314755 
L 341.471733 380.734008 
L 362.308441 381.101659 
" clip-path="url(#p0b177dc9e8)" style="fill: none; stroke: #00589b; stroke-width: 2.4; stroke-linecap: square"/>
    <defs>
     <path id="m5fbc9e2c8b" d="M 0 3 
C 0.795609 3 1.55874 2.683901 2.12132 2.12132 
C 2.683901 1.55874 3 0.795609 3 0 
C 3 -0.795609 2.683901 -1.55874 2.12132 -2.12132 
C 1.55874 -2.683901 0.795609 -3 0 -3 
C -0.795609 -3 -1.55874 -2.683901 -2.12132 -2.12132 
C -2.683901 -1.55874 -3 -0.795609 -3 0 
C -3 0.795609 -2.683901 1.55874 -2.12132 2.12132 
C -1.55874 2.683901 -0.795609 3 0 3 
z
" style="stroke: #00589b"/>
    </defs>
    <g clip-path="url(#p0b177dc9e8)">
     <use xlink:href="#m5fbc9e2c8b" x="49.757809" y="273.372125" style="fill: #00589b; stroke: #00589b"/>
     <use xlink:href="#m5fbc9e2c8b" x="70.594517" y="340.989024" style="fill: #00589b; stroke: #00589b"/>
     <use xlink:href="#m5fbc9e2c8b" x="91.431226" y="357.119981" style="fill: #00589b; stroke: #00589b"/>
     <use xlink:href="#m5fbc9e2c8b" x="112.267935" y="364.665701" style="fill: #00589b; stroke: #00589b"/>
     <use xlink:href="#m5fbc9e2c8b" x="133.104644" y="369.087377" style="fill: #00589b; stroke: #00589b"/>
     <use xlink:href="#m5fbc9e2c8b" x="153.941353" y="372.0058" style="fill: #00589b; stroke: #00589b"/>
     <use xlink:href="#m5fbc9e2c8b" x="174.778062" y="374.081518" style="fill: #00589b; stroke: #00589b"/>
     <use xlink:href="#m5fbc9e2c8b" x="195.614771" y="375.636107" style="fill: #00589b; stroke: #00589b"/>
     <use xlink:href="#m5fbc9e2c8b" x="216.451479" y="376.84541" style="fill: #00589b; stroke: #00589b"/>
     <use xlink:href="#m5fbc9e2c8b" x="237.288188" y="377.813877" style="fill: #00589b; stroke: #00589b"/>
     <use xlink:href="#m5fbc9e2c8b" x="258.124897" y="378.60753" style="fill: #00589b; stroke: #00589b"/>
     <use xlink:href="#m5fbc9e2c8b" x="278.961606" y="379.270183" style="fill: #00589b; stroke: #00589b"/>
     <use xlink:href="#m5fbc9e2c8b" x="299.798315" y="379.832074" style="fill: #00589b; stroke: #00589b"/>
     <use xlink:href="#m5fbc9e2c8b" x="320.635024" y="380.314755" style="fill: #00589b; stroke: #00589b"/>
     <use xlink:href="#m5fbc9e2c8b" x="341.471733" y="380.734008" style="fill: #00589b; stroke: #00589b"/>
     <use xlink:href="#m5fbc9e2c8b" x="362.308441" y="381.101659" style="fill: #00589b; stroke: #00589b"/>
    </g>
   </g>
   <g id="line2d_53">
    <path d="M 49.757809 273.372125 
L 70.594517 329.637125 
L 91.431226 348.392125 
L 112.267935 357.769625 
L 133.104644 363.396125 
L 153.941353 367.147125 
L 174.778062 369.826411 
L 195.614771 371.835875 
L 216.451479 373.398792 
L 237.288188 374.649125 
L 258.124897 375.672125 
L 278.961606 376.524625 
L 299.798315 377.245971 
L 320.635024 377.864268 
L 341.471733 378.400125 
L 362.308441 378.869 
" clip-path="url(#p0b177dc9e8)" style="fill: none; stroke-dasharray: 7.4,3.2; stroke-dashoffset: 0; stroke: #73a3c8; stroke-width: 2"/>
   </g>
   <g id="patch_6">
    <path d="M 41.423125 385.902125 
L 41.423125 259.868525 
" style="fill: none; stroke: #000000; stroke-width: 1.1; stroke-linejoin: miter; stroke-linecap: square"/>
   </g>
   <g id="patch_7">
    <path d="M 41.423125 385.902125 
L 370.643125 385.902125 
" style="fill: none; stroke: #000000; stroke-width: 1.1; stroke-linejoin: miter; stroke-linecap: square"/>
   </g>
   <g id="text_44">
    <!-- $\propto 1/n$ -->
    <g transform="translate(299.798315 374.59525) scale(0.1 -0.1)">
     <defs>
      <path id="DejaVuSans-221d" d="M 1647 1134 
Q 2163 1134 2472 1884 
Q 2075 2703 1647 2703 
Q 1334 2703 1175 2478 
Q 1006 2238 1006 1919 
Q 1006 1569 1175 1353 
Q 1350 1134 1647 1134 
z
M 3884 1128 
L 3884 716 
L 3644 716 
Q 3416 716 3247 809 
Q 3078 894 2916 1091 
Q 2819 1203 2666 1466 
Q 2456 1091 2272 925 
Q 2044 725 1681 725 
Q 1259 725 981 1041 
Q 688 1372 688 1919 
Q 688 2444 981 2800 
Q 1241 3116 1688 3116 
Q 1916 3116 2084 3022 
Q 2281 2919 2416 2741 
Q 2541 2581 2666 2366 
Q 2875 2741 3059 2906 
Q 3288 3106 3650 3106 
L 3884 3106 
L 3884 2697 
L 3684 2697 
Q 3222 2697 2859 1947 
Q 3256 1128 3684 1128 
L 3884 1128 
z
" transform="scale(0.015625)"/>
     </defs>
     <use xlink:href="#DejaVuSans-221d" transform="translate(19.482422 0.09375)"/>
     <use xlink:href="#DejaVuSans-31" transform="translate(110.400391 0.09375)"/>
     <use xlink:href="#DejaVuSans-2f" transform="translate(174.023438 0.09375)"/>
     <use xlink:href="#DejaVuSans-Oblique-6e" transform="translate(207.714844 0.09375)"/>
    </g>
   </g>
   <g id="text_45">
    <!-- FFT Harmonic Content -->
    <g transform="translate(139.060937 257.3729) scale(0.12 -0.12)">
     <defs>
      <path id="DejaVuSans-46" d="M 628 4666 
L 3309 4666 
L 3309 4134 
L 1259 4134 
L 1259 2759 
L 3109 2759 
L 3109 2228 
L 1259 2228 
L 1259 0 
L 628 0 
L 628 4666 
z
" transform="scale(0.015625)"/>
      <path id="DejaVuSans-54" d="M -19 4666 
L 3928 4666 
L 3928 4134 
L 2272 4134 
L 2272 0 
L 1638 0 
L 1638 4134 
L -19 4134 
L -19 4666 
z
" transform="scale(0.015625)"/>
     </defs>
     <use xlink:href="#DejaVuSans-46"/>
     <use xlink:href="#DejaVuSans-46" x="57.519531"/>
     <use xlink:href="#DejaVuSans-54" x="113.289062"/>
     <use xlink:href="#DejaVuSans-20" x="174.373047"/>
     <use xlink:href="#DejaVuSans-48" x="206.160156"/>
     <use xlink:href="#DejaVuSans-61" x="281.355469"/>
     <use xlink:href="#DejaVuSans-72" x="342.634766"/>
     <use xlink:href="#DejaVuSans-6d" x="381.998047"/>
     <use xlink:href="#DejaVuSans-6f" x="479.410156"/>
     <use xlink:href="#DejaVuSans-6e" x="540.591797"/>
     <use xlink:href="#DejaVuSans-69" x="603.970703"/>
     <use xlink:href="#DejaVuSans-63" x="631.753906"/>
     <use xlink:href="#DejaVuSans-20" x="686.734375"/>
     <use xlink:href="#DejaVuSans-43" x="718.521484"/>
     <use xlink:href="#DejaVuSans-6f" x="788.345703"/>
     <use xlink:href="#DejaVuSans-6e" x="849.527344"/>
     <use xlink:href="#DejaVuSans-74" x="912.90625"/>
     <use xlink:href="#DejaVuSans-65" x="952.115234"/>
     <use xlink:href="#DejaVuSans-6e" x="1013.638672"/>
     <use xlink:href="#DejaVuSans-74" x="1077.017578"/>
    </g>
   </g>
  </g>
 </g>
 <defs>
  <clipPath id="pdf80cdfff2">
   <rect x="41.423125" y="19.998125" width="329.22" height="178.8864"/>
  </clipPath>
  <clipPath id="p0b177dc9e8">
   <rect x="41.423125" y="259.868525" width="329.22" height="126.0336"/>
  </clipPath>
 </defs>
</svg>
