<?xml version="1.0" encoding="utf-8" standalone="no"?>
<!DOCTYPE svg PUBLIC "-//W3C//DTD SVG 1.1//EN"
  "http://www.w3.org/Graphics/SVG/1.1/DTD/svg11.dtd">
<svg xmlns:xlink="http://www.w3.org/1999/xlink" width="708.342634pt" height="418.914881pt" viewBox="0 0 708.342634 418.914881" xmlns="http://www.w3.org/2000/svg" version="1.1">
 <metadata>
  <rdf:RDF xmlns:dc="http://purl.org/dc/elements/1.1/" xmlns:cc="http://creativecommons.org/ns#" xmlns:rdf="http://www.w3.org/1999/02/22-rdf-syntax-ns#">
   <cc:Work>
    <dc:type rdf:resource="http://purl.org/dc/dcmitype/StillImage"/>
    <dc:date>2025-12-21T22:02:09.968112</dc:date>
    <dc:format>image/svg+xml</dc:format>
    <dc:creator>
     <cc:Agent>
      <dc:title>Matplotlib v3.10.8, https://matplotlib.org/</dc:title>
     </cc:Agent>
    </dc:creator>
   </cc:Work>
  </rdf:RDF>
 </metadata>
 <defs>
  <style type="text/css">*{stroke-linejoin: round; stroke-linecap: butt}</style>
 </defs>
 <g id="figure_1">
  <g id="patch_1">
   <path d="M 0 418.914881 
L 708.342634 418.914881 
L 708.342634 0 
L 0 0 
z
" style="fill: #ffffff"/>
  </g>
  <g id="axes_1">
   <g id="patch_2">
    <path d="M 50.944688 379.396756 
L 650.642634 379.396756 
L 650.642634 30.809556 
L 50.944688 30.809556 
z
" style="fill: #ffffff"/>
   </g>
   <g id="matplotlib.axis_1">
    <g id="xtick_1">
     <g id="line2d_1">
      <path d="M 106.897367 379.396756 
L 106.897367 30.809556 
" clip-path="url(#p747182d72b)" style="fill: none; stroke: #b0b0b0; stroke-opacity: 0.3; stroke-width: 0.8; stroke-linecap: square"/>
     </g>
     <g id="line2d_2">
      <defs>
       <path id="m2e44961eea" d="M 0 0 
L 0 3.5 
" style="stroke: #000000; stroke-width: 0.8"/>
      </defs>
      <g>
       <use xlink:href="#m2e44961eea" x="106.897367" y="379.396756" style="stroke: #000000; stroke-width: 0.8"/>
      </g>
     </g>
     <g id="text_1">
      <!-- −40 -->
      <g transform="translate(96.345023 393.995194) scale(0.1 -0.1)">
       <defs>
        <path id="DejaVuSans-2212" d="M 678 2272 
L 4684 2272 
L 4684 1741 
L 678 1741 
L 678 2272 
z
" transform="scale(0.015625)"/>
        <path id="DejaVuSans-34" d="M 2419 4116 
L 825 1625 
L 2419 1625 
L 2419 4116 
z
M 2253 4666 
L 3047 4666 
L 3047 1625 
L 3713 1625 
L 3713 1100 
L 3047 1100 
L 3047 0 
L 2419 0 
L 2419 1100 
L 313 1100 
L 313 1709 
L 2253 4666 
z
" transform="scale(0.015625)"/>
        <path id="DejaVuSans-30" d="M 2034 4250 
Q 1547 4250 1301 3770 
Q 1056 3291 1056 2328 
Q 1056 1369 1301 889 
Q 1547 409 2034 409 
Q 2525 409 2770 889 
Q 3016 1369 3016 2328 
Q 3016 3291 2770 3770 
Q 2525 4250 2034 4250 
z
M 2034 4750 
Q 2819 4750 3233 4129 
Q 3647 3509 3647 2328 
Q 3647 1150 3233 529 
Q 2819 -91 2034 -91 
Q 1250 -91 836 529 
Q 422 1150 422 2328 
Q 422 3509 836 4129 
Q 1250 4750 2034 4750 
z
" transform="scale(0.015625)"/>
       </defs>
       <use xlink:href="#DejaVuSans-2212"/>
       <use xlink:href="#DejaVuSans-34" transform="translate(83.789062 0)"/>
       <use xlink:href="#DejaVuSans-30" transform="translate(147.412109 0)"/>
      </g>
     </g>
    </g>
    <g id="xtick_2">
     <g id="line2d_3">
      <path d="M 221.672093 379.396756 
L 221.672093 30.809556 
" clip-path="url(#p747182d72b)" style="fill: none; stroke: #b0b0b0; stroke-opacity: 0.3; stroke-width: 0.8; stroke-linecap: square"/>
     </g>
     <g id="line2d_4">
      <g>
       <use xlink:href="#m2e44961eea" x="221.672093" y="379.396756" style="stroke: #000000; stroke-width: 0.8"/>
      </g>
     </g>
     <g id="text_2">
      <!-- −20 -->
      <g transform="translate(211.119749 393.995194) scale(0.1 -0.1)">
       <defs>
        <path id="DejaVuSans-32" d="M 1228 531 
L 3431 531 
L 3431 0 
L 469 0 
L 469 531 
Q 828 903 1448 1529 
Q 2069 2156 2228 2338 
Q 2531 2678 2651 2914 
Q 2772 3150 2772 3378 
Q 2772 3750 2511 3984 
Q 2250 4219 1831 4219 
Q 1534 4219 1204 4116 
Q 875 4013 500 3803 
L 500 4441 
Q 881 4594 1212 4672 
Q 1544 4750 1819 4750 
Q 2544 4750 2975 4387 
Q 3406 4025 3406 3419 
Q 3406 3131 3298 2873 
Q 3191 2616 2906 2266 
Q 2828 2175 2409 1742 
Q 1991 1309 1228 531 
z
" transform="scale(0.015625)"/>
       </defs>
       <use xlink:href="#DejaVuSans-2212"/>
       <use xlink:href="#DejaVuSans-32" transform="translate(83.789062 0)"/>
       <use xlink:href="#DejaVuSans-30" transform="translate(147.412109 0)"/>
      </g>
     </g>
    </g>
    <g id="xtick_3">
     <g id="line2d_5">
      <path d="M 336.44682 379.396756 
L 336.44682 30.809556 
" clip-path="url(#p747182d72b)" style="fill: none; stroke: #b0b0b0; stroke-opacity: 0.3; stroke-width: 0.8; stroke-linecap: square"/>
     </g>
     <g id="line2d_6">
      <g>
       <use xlink:href="#m2e44961eea" x="336.44682" y="379.396756" style="stroke: #000000; stroke-width: 0.8"/>
      </g>
     </g>
     <g id="text_3">
      <!-- 0 -->
      <g transform="translate(333.26557 393.995194) scale(0.1 -0.1)">
       <use xlink:href="#DejaVuSans-30"/>
      </g>
     </g>
    </g>
    <g id="xtick_4">
     <g id="line2d_7">
      <path d="M 451.221546 379.396756 
L 451.221546 30.809556 
" clip-path="url(#p747182d72b)" style="fill: none; stroke: #b0b0b0; stroke-opacity: 0.3; stroke-width: 0.8; stroke-linecap: square"/>
     </g>
     <g id="line2d_8">
      <g>
       <use xlink:href="#m2e44961eea" x="451.221546" y="379.396756" style="stroke: #000000; stroke-width: 0.8"/>
      </g>
     </g>
     <g id="text_4">
      <!-- 20 -->
      <g transform="translate(444.859046 393.995194) scale(0.1 -0.1)">
       <use xlink:href="#DejaVuSans-32"/>
       <use xlink:href="#DejaVuSans-30" transform="translate(63.623047 0)"/>
      </g>
     </g>
    </g>
    <g id="xtick_5">
     <g id="line2d_9">
      <path d="M 565.996273 379.396756 
L 565.996273 30.809556 
" clip-path="url(#p747182d72b)" style="fill: none; stroke: #b0b0b0; stroke-opacity: 0.3; stroke-width: 0.8; stroke-linecap: square"/>
     </g>
     <g id="line2d_10">
      <g>
       <use xlink:href="#m2e44961eea" x="565.996273" y="379.396756" style="stroke: #000000; stroke-width: 0.8"/>
      </g>
     </g>
     <g id="text_5">
      <!-- 40 -->
      <g transform="translate(559.633773 393.995194) scale(0.1 -0.1)">
       <use xlink:href="#DejaVuSans-34"/>
       <use xlink:href="#DejaVuSans-30" transform="translate(63.623047 0)"/>
      </g>
     </g>
    </g>
    <g id="text_6">
     <!-- Current $I$ ($\mu$A) -->
     <g transform="translate(309.813661 409.194882) scale(0.12 -0.12)">
      <defs>
       <path id="DejaVuSans-43" d="M 4122 4306 
L 4122 3641 
Q 3803 3938 3442 4084 
Q 3081 4231 2675 4231 
Q 1875 4231 1450 3742 
Q 1025 3253 1025 2328 
Q 1025 1406 1450 917 
Q 1875 428 2675 428 
Q 3081 428 3442 575 
Q 3803 722 4122 1019 
L 4122 359 
Q 3791 134 3420 21 
Q 3050 -91 2638 -91 
Q 1578 -91 968 557 
Q 359 1206 359 2328 
Q 359 3453 968 4101 
Q 1578 4750 2638 4750 
Q 3056 4750 3426 4639 
Q 3797 4528 4122 4306 
z
" transform="scale(0.015625)"/>
       <path id="DejaVuSans-75" d="M 544 1381 
L 544 3500 
L 1119 3500 
L 1119 1403 
Q 1119 906 1312 657 
Q 1506 409 1894 409 
Q 2359 409 2629 706 
Q 2900 1003 2900 1516 
L 2900 3500 
L 3475 3500 
L 3475 0 
L 2900 0 
L 2900 538 
Q 2691 219 2414 64 
Q 2138 -91 1772 -91 
Q 1169 -91 856 284 
Q 544 659 544 1381 
z
M 1991 3584 
L 1991 3584 
z
" transform="scale(0.015625)"/>
       <path id="DejaVuSans-72" d="M 2631 2963 
Q 2534 3019 2420 3045 
Q 2306 3072 2169 3072 
Q 1681 3072 1420 2755 
Q 1159 2438 1159 1844 
L 1159 0 
L 581 0 
L 581 3500 
L 1159 3500 
L 1159 2956 
Q 1341 3275 1631 3429 
Q 1922 3584 2338 3584 
Q 2397 3584 2469 3576 
Q 2541 3569 2628 3553 
L 2631 2963 
z
" transform="scale(0.015625)"/>
       <path id="DejaVuSans-65" d="M 3597 1894 
L 3597 1613 
L 953 1613 
Q 991 1019 1311 708 
Q 1631 397 2203 397 
Q 2534 397 2845 478 
Q 3156 559 3463 722 
L 3463 178 
Q 3153 47 2828 -22 
Q 2503 -91 2169 -91 
Q 1331 -91 842 396 
Q 353 884 353 1716 
Q 353 2575 817 3079 
Q 1281 3584 2069 3584 
Q 2775 3584 3186 3129 
Q 3597 2675 3597 1894 
z
M 3022 2063 
Q 3016 2534 2758 2815 
Q 2500 3097 2075 3097 
Q 1594 3097 1305 2825 
Q 1016 2553 972 2059 
L 3022 2063 
z
" transform="scale(0.015625)"/>
       <path id="DejaVuSans-6e" d="M 3513 2113 
L 3513 0 
L 2938 0 
L 2938 2094 
Q 2938 2591 2744 2837 
Q 2550 3084 2163 3084 
Q 1697 3084 1428 2787 
Q 1159 2491 1159 1978 
L 1159 0 
L 581 0 
L 581 3500 
L 1159 3500 
L 1159 2956 
Q 1366 3272 1645 3428 
Q 1925 3584 2291 3584 
Q 2894 3584 3203 3211 
Q 3513 2838 3513 2113 
z
" transform="scale(0.015625)"/>
       <path id="DejaVuSans-74" d="M 1172 4494 
L 1172 3500 
L 2356 3500 
L 2356 3053 
L 1172 3053 
L 1172 1153 
Q 1172 725 1289 603 
Q 1406 481 1766 481 
L 2356 481 
L 2356 0 
L 1766 0 
Q 1100 0 847 248 
Q 594 497 594 1153 
L 594 3053 
L 172 3053 
L 172 3500 
L 594 3500 
L 594 4494 
L 1172 4494 
z
" transform="scale(0.015625)"/>
       <path id="DejaVuSans-20" transform="scale(0.015625)"/>
       <path id="DejaVuSans-Oblique-49" d="M 1081 4666 
L 1716 4666 
L 806 0 
L 172 0 
L 1081 4666 
z
" transform="scale(0.015625)"/>
       <path id="DejaVuSans-28" d="M 1984 4856 
Q 1566 4138 1362 3434 
Q 1159 2731 1159 2009 
Q 1159 1288 1364 580 
Q 1569 -128 1984 -844 
L 1484 -844 
Q 1016 -109 783 600 
Q 550 1309 550 2009 
Q 550 2706 781 3412 
Q 1013 4119 1484 4856 
L 1984 4856 
z
" transform="scale(0.015625)"/>
       <path id="DejaVuSans-Oblique-3bc" d="M -84 -1331 
L 856 3500 
L 1434 3500 
L 1009 1322 
Q 997 1256 987 1175 
Q 978 1094 978 1013 
Q 978 722 1161 565 
Q 1344 409 1684 409 
Q 2147 409 2431 671 
Q 2716 934 2816 1459 
L 3213 3500 
L 3788 3500 
L 3266 809 
Q 3253 750 3248 706 
Q 3244 663 3244 628 
Q 3244 531 3283 486 
Q 3322 441 3406 441 
Q 3438 441 3492 456 
Q 3547 472 3647 513 
L 3559 50 
Q 3422 -19 3297 -55 
Q 3172 -91 3053 -91 
Q 2847 -91 2730 40 
Q 2613 172 2613 403 
Q 2438 153 2195 31 
Q 1953 -91 1625 -91 
Q 1334 -91 1117 43 
Q 900 178 831 397 
L 494 -1331 
L -84 -1331 
z
" transform="scale(0.015625)"/>
       <path id="DejaVuSans-41" d="M 2188 4044 
L 1331 1722 
L 3047 1722 
L 2188 4044 
z
M 1831 4666 
L 2547 4666 
L 4325 0 
L 3669 0 
L 3244 1197 
L 1141 1197 
L 716 0 
L 50 0 
L 1831 4666 
z
" transform="scale(0.015625)"/>
       <path id="DejaVuSans-29" d="M 513 4856 
L 1013 4856 
Q 1481 4119 1714 3412 
Q 1947 2706 1947 2009 
Q 1947 1309 1714 600 
Q 1481 -109 1013 -844 
L 513 -844 
Q 928 -128 1133 580 
Q 1338 1288 1338 2009 
Q 1338 2731 1133 3434 
Q 928 4138 513 4856 
z
" transform="scale(0.015625)"/>
      </defs>
      <use xlink:href="#DejaVuSans-43" transform="translate(0 0.125)"/>
      <use xlink:href="#DejaVuSans-75" transform="translate(69.824219 0.125)"/>
      <use xlink:href="#DejaVuSans-72" transform="translate(133.203125 0.125)"/>
      <use xlink:href="#DejaVuSans-72" transform="translate(174.316406 0.125)"/>
      <use xlink:href="#DejaVuSans-65" transform="translate(215.429688 0.125)"/>
      <use xlink:href="#DejaVuSans-6e" transform="translate(276.953125 0.125)"/>
      <use xlink:href="#DejaVuSans-74" transform="translate(340.332031 0.125)"/>
      <use xlink:href="#DejaVuSans-20" transform="translate(379.541016 0.125)"/>
      <use xlink:href="#DejaVuSans-Oblique-49" transform="translate(411.328125 0.125)"/>
      <use xlink:href="#DejaVuSans-20" transform="translate(440.820312 0.125)"/>
      <use xlink:href="#DejaVuSans-28" transform="translate(472.607422 0.125)"/>
      <use xlink:href="#DejaVuSans-Oblique-3bc" transform="translate(511.621094 0.125)"/>
      <use xlink:href="#DejaVuSans-41" transform="translate(575.244141 0.125)"/>
      <use xlink:href="#DejaVuSans-29" transform="translate(643.652344 0.125)"/>
     </g>
    </g>
   </g>
   <g id="matplotlib.axis_2">
    <g id="ytick_1">
     <g id="line2d_11">
      <path d="M 50.944688 351.425404 
L 650.642634 351.425404 
" clip-path="url(#p747182d72b)" style="fill: none; stroke: #b0b0b0; stroke-opacity: 0.3; stroke-width: 0.8; stroke-linecap: square"/>
     </g>
     <g id="line2d_12">
      <defs>
       <path id="maa6b6e5e85" d="M 0 0 
L -3.5 0 
" style="stroke: #000000; stroke-width: 0.8"/>
      </defs>
      <g>
       <use xlink:href="#maa6b6e5e85" x="50.944688" y="351.425404" style="stroke: #000000; stroke-width: 0.8"/>
      </g>
     </g>
     <g id="text_7">
      <!-- −75 -->
      <g transform="translate(22.84 355.224623) scale(0.1 -0.1)">
       <defs>
        <path id="DejaVuSans-37" d="M 525 4666 
L 3525 4666 
L 3525 4397 
L 1831 0 
L 1172 0 
L 2766 4134 
L 525 4134 
L 525 4666 
z
" transform="scale(0.015625)"/>
        <path id="DejaVuSans-35" d="M 691 4666 
L 3169 4666 
L 3169 4134 
L 1269 4134 
L 1269 2991 
Q 1406 3038 1543 3061 
Q 1681 3084 1819 3084 
Q 2600 3084 3056 2656 
Q 3513 2228 3513 1497 
Q 3513 744 3044 326 
Q 2575 -91 1722 -91 
Q 1428 -91 1123 -41 
Q 819 9 494 109 
L 494 744 
Q 775 591 1075 516 
Q 1375 441 1709 441 
Q 2250 441 2565 725 
Q 2881 1009 2881 1497 
Q 2881 1984 2565 2268 
Q 2250 2553 1709 2553 
Q 1456 2553 1204 2497 
Q 953 2441 691 2322 
L 691 4666 
z
" transform="scale(0.015625)"/>
       </defs>
       <use xlink:href="#DejaVuSans-2212"/>
       <use xlink:href="#DejaVuSans-37" transform="translate(83.789062 0)"/>
       <use xlink:href="#DejaVuSans-35" transform="translate(147.412109 0)"/>
      </g>
     </g>
    </g>
    <g id="ytick_2">
     <g id="line2d_13">
      <path d="M 50.944688 306.63137 
L 650.642634 306.63137 
" clip-path="url(#p747182d72b)" style="fill: none; stroke: #b0b0b0; stroke-opacity: 0.3; stroke-width: 0.8; stroke-linecap: square"/>
     </g>
     <g id="line2d_14">
      <g>
       <use xlink:href="#maa6b6e5e85" x="50.944688" y="306.63137" style="stroke: #000000; stroke-width: 0.8"/>
      </g>
     </g>
     <g id="text_8">
      <!-- −50 -->
      <g transform="translate(22.84 310.430589) scale(0.1 -0.1)">
       <use xlink:href="#DejaVuSans-2212"/>
       <use xlink:href="#DejaVuSans-35" transform="translate(83.789062 0)"/>
       <use xlink:href="#DejaVuSans-30" transform="translate(147.412109 0)"/>
      </g>
     </g>
    </g>
    <g id="ytick_3">
     <g id="line2d_15">
      <path d="M 50.944688 261.837336 
L 650.642634 261.837336 
" clip-path="url(#p747182d72b)" style="fill: none; stroke: #b0b0b0; stroke-opacity: 0.3; stroke-width: 0.8; stroke-linecap: square"/>
     </g>
     <g id="line2d_16">
      <g>
       <use xlink:href="#maa6b6e5e85" x="50.944688" y="261.837336" style="stroke: #000000; stroke-width: 0.8"/>
      </g>
     </g>
     <g id="text_9">
      <!-- −25 -->
      <g transform="translate(22.84 265.636555) scale(0.1 -0.1)">
       <use xlink:href="#DejaVuSans-2212"/>
       <use xlink:href="#DejaVuSans-32" transform="translate(83.789062 0)"/>
       <use xlink:href="#DejaVuSans-35" transform="translate(147.412109 0)"/>
      </g>
     </g>
    </g>
    <g id="ytick_4">
     <g id="line2d_17">
      <path d="M 50.944688 217.043302 
L 650.642634 217.043302 
" clip-path="url(#p747182d72b)" style="fill: none; stroke: #b0b0b0; stroke-opacity: 0.3; stroke-width: 0.8; stroke-linecap: square"/>
     </g>
     <g id="line2d_18">
      <g>
       <use xlink:href="#maa6b6e5e85" x="50.944688" y="217.043302" style="stroke: #000000; stroke-width: 0.8"/>
      </g>
     </g>
     <g id="text_10">
      <!-- 0 -->
      <g transform="translate(37.582188 220.842521) scale(0.1 -0.1)">
       <use xlink:href="#DejaVuSans-30"/>
      </g>
     </g>
    </g>
    <g id="ytick_5">
     <g id="line2d_19">
      <path d="M 50.944688 172.249268 
L 650.642634 172.249268 
" clip-path="url(#p747182d72b)" style="fill: none; stroke: #b0b0b0; stroke-opacity: 0.3; stroke-width: 0.8; stroke-linecap: square"/>
     </g>
     <g id="line2d_20">
      <g>
       <use xlink:href="#maa6b6e5e85" x="50.944688" y="172.249268" style="stroke: #000000; stroke-width: 0.8"/>
      </g>
     </g>
     <g id="text_11">
      <!-- 25 -->
      <g transform="translate(31.219687 176.048487) scale(0.1 -0.1)">
       <use xlink:href="#DejaVuSans-32"/>
       <use xlink:href="#DejaVuSans-35" transform="translate(63.623047 0)"/>
      </g>
     </g>
    </g>
    <g id="ytick_6">
     <g id="line2d_21">
      <path d="M 50.944688 127.455234 
L 650.642634 127.455234 
" clip-path="url(#p747182d72b)" style="fill: none; stroke: #b0b0b0; stroke-opacity: 0.3; stroke-width: 0.8; stroke-linecap: square"/>
     </g>
     <g id="line2d_22">
      <g>
       <use xlink:href="#maa6b6e5e85" x="50.944688" y="127.455234" style="stroke: #000000; stroke-width: 0.8"/>
      </g>
     </g>
     <g id="text_12">
      <!-- 50 -->
      <g transform="translate(31.219687 131.254453) scale(0.1 -0.1)">
       <use xlink:href="#DejaVuSans-35"/>
       <use xlink:href="#DejaVuSans-30" transform="translate(63.623047 0)"/>
      </g>
     </g>
    </g>
    <g id="ytick_7">
     <g id="line2d_23">
      <path d="M 50.944688 82.6612 
L 650.642634 82.6612 
" clip-path="url(#p747182d72b)" style="fill: none; stroke: #b0b0b0; stroke-opacity: 0.3; stroke-width: 0.8; stroke-linecap: square"/>
     </g>
     <g id="line2d_24">
      <g>
       <use xlink:href="#maa6b6e5e85" x="50.944688" y="82.6612" style="stroke: #000000; stroke-width: 0.8"/>
      </g>
     </g>
     <g id="text_13">
      <!-- 75 -->
      <g transform="translate(31.219687 86.460418) scale(0.1 -0.1)">
       <use xlink:href="#DejaVuSans-37"/>
       <use xlink:href="#DejaVuSans-35" transform="translate(63.623047 0)"/>
      </g>
     </g>
    </g>
    <g id="ytick_8">
     <g id="line2d_25">
      <path d="M 50.944688 37.867166 
L 650.642634 37.867166 
" clip-path="url(#p747182d72b)" style="fill: none; stroke: #b0b0b0; stroke-opacity: 0.3; stroke-width: 0.8; stroke-linecap: square"/>
     </g>
     <g id="line2d_26">
      <g>
       <use xlink:href="#maa6b6e5e85" x="50.944688" y="37.867166" style="stroke: #000000; stroke-width: 0.8"/>
      </g>
     </g>
     <g id="text_14">
      <!-- 100 -->
      <g transform="translate(24.857187 41.666384) scale(0.1 -0.1)">
       <defs>
        <path id="DejaVuSans-31" d="M 794 531 
L 1825 531 
L 1825 4091 
L 703 3866 
L 703 4441 
L 1819 4666 
L 2450 4666 
L 2450 531 
L 3481 531 
L 3481 0 
L 794 0 
L 794 531 
z
" transform="scale(0.015625)"/>
       </defs>
       <use xlink:href="#DejaVuSans-31"/>
       <use xlink:href="#DejaVuSans-30" transform="translate(63.623047 0)"/>
       <use xlink:href="#DejaVuSans-30" transform="translate(127.246094 0)"/>
      </g>
     </g>
    </g>
    <g id="text_15">
     <!-- Voltage $V$ ($\mu$V) -->
     <g transform="translate(16.32 248.603156) rotate(-90) scale(0.12 -0.12)">
      <defs>
       <path id="DejaVuSans-56" d="M 1831 0 
L 50 4666 
L 709 4666 
L 2188 738 
L 3669 4666 
L 4325 4666 
L 2547 0 
L 1831 0 
z
" transform="scale(0.015625)"/>
       <path id="DejaVuSans-6f" d="M 1959 3097 
Q 1497 3097 1228 2736 
Q 959 2375 959 1747 
Q 959 1119 1226 758 
Q 1494 397 1959 397 
Q 2419 397 2687 759 
Q 2956 1122 2956 1747 
Q 2956 2369 2687 2733 
Q 2419 3097 1959 3097 
z
M 1959 3584 
Q 2709 3584 3137 3096 
Q 3566 2609 3566 1747 
Q 3566 888 3137 398 
Q 2709 -91 1959 -91 
Q 1206 -91 779 398 
Q 353 888 353 1747 
Q 353 2609 779 3096 
Q 1206 3584 1959 3584 
z
" transform="scale(0.015625)"/>
       <path id="DejaVuSans-6c" d="M 603 4863 
L 1178 4863 
L 1178 0 
L 603 0 
L 603 4863 
z
" transform="scale(0.015625)"/>
       <path id="DejaVuSans-61" d="M 2194 1759 
Q 1497 1759 1228 1600 
Q 959 1441 959 1056 
Q 959 750 1161 570 
Q 1363 391 1709 391 
Q 2188 391 2477 730 
Q 2766 1069 2766 1631 
L 2766 1759 
L 2194 1759 
z
M 3341 1997 
L 3341 0 
L 2766 0 
L 2766 531 
Q 2569 213 2275 61 
Q 1981 -91 1556 -91 
Q 1019 -91 701 211 
Q 384 513 384 1019 
Q 384 1609 779 1909 
Q 1175 2209 1959 2209 
L 2766 2209 
L 2766 2266 
Q 2766 2663 2505 2880 
Q 2244 3097 1772 3097 
Q 1472 3097 1187 3025 
Q 903 2953 641 2809 
L 641 3341 
Q 956 3463 1253 3523 
Q 1550 3584 1831 3584 
Q 2591 3584 2966 3190 
Q 3341 2797 3341 1997 
z
" transform="scale(0.015625)"/>
       <path id="DejaVuSans-67" d="M 2906 1791 
Q 2906 2416 2648 2759 
Q 2391 3103 1925 3103 
Q 1463 3103 1205 2759 
Q 947 2416 947 1791 
Q 947 1169 1205 825 
Q 1463 481 1925 481 
Q 2391 481 2648 825 
Q 2906 1169 2906 1791 
z
M 3481 434 
Q 3481 -459 3084 -895 
Q 2688 -1331 1869 -1331 
Q 1566 -1331 1297 -1286 
Q 1028 -1241 775 -1147 
L 775 -588 
Q 1028 -725 1275 -790 
Q 1522 -856 1778 -856 
Q 2344 -856 2625 -561 
Q 2906 -266 2906 331 
L 2906 616 
Q 2728 306 2450 153 
Q 2172 0 1784 0 
Q 1141 0 747 490 
Q 353 981 353 1791 
Q 353 2603 747 3093 
Q 1141 3584 1784 3584 
Q 2172 3584 2450 3431 
Q 2728 3278 2906 2969 
L 2906 3500 
L 3481 3500 
L 3481 434 
z
" transform="scale(0.015625)"/>
       <path id="DejaVuSans-Oblique-56" d="M 1319 0 
L 500 4666 
L 1119 4666 
L 1797 653 
L 4063 4666 
L 4750 4666 
L 2053 0 
L 1319 0 
z
" transform="scale(0.015625)"/>
      </defs>
      <use xlink:href="#DejaVuSans-56" transform="translate(0 0.015625)"/>
      <use xlink:href="#DejaVuSans-6f" transform="translate(68.408203 0.015625)"/>
      <use xlink:href="#DejaVuSans-6c" transform="translate(129.589844 0.015625)"/>
      <use xlink:href="#DejaVuSans-74" transform="translate(157.373047 0.015625)"/>
      <use xlink:href="#DejaVuSans-61" transform="translate(196.582031 0.015625)"/>
      <use xlink:href="#DejaVuSans-67" transform="translate(257.861328 0.015625)"/>
      <use xlink:href="#DejaVuSans-65" transform="translate(321.337891 0.015625)"/>
      <use xlink:href="#DejaVuSans-20" transform="translate(382.861328 0.015625)"/>
      <use xlink:href="#DejaVuSans-Oblique-56" transform="translate(414.648438 0.015625)"/>
      <use xlink:href="#DejaVuSans-20" transform="translate(483.056641 0.015625)"/>
      <use xlink:href="#DejaVuSans-28" transform="translate(514.84375 0.015625)"/>
      <use xlink:href="#DejaVuSans-Oblique-3bc" transform="translate(553.857422 0.015625)"/>
      <use xlink:href="#DejaVuSans-56" transform="translate(617.480469 0.015625)"/>
      <use xlink:href="#DejaVuSans-29" transform="translate(685.888672 0.015625)"/>
     </g>
    </g>
   </g>
   <g id="line2d_27">
    <path d="M 336.44682 223.014411 
L 337.594567 224.194358 
L 338.742314 224.720671 
L 339.890062 224.843106 
L 341.037809 224.865213 
L 342.185556 224.797267 
L 343.333303 224.542493 
L 344.481051 224.45861 
L 345.628798 224.110849 
L 346.776545 223.820648 
L 347.924292 223.439354 
L 349.07204 223.231995 
L 350.219787 222.862715 
L 351.367534 222.63165 
L 352.515281 222.225794 
L 353.663029 221.788837 
L 354.810776 221.546584 
L 355.958523 221.205445 
L 357.106271 221.006655 
L 358.254018 220.731485 
L 359.401765 220.338204 
L 360.549512 220.075822 
L 361.69726 219.820274 
L 362.845007 219.57746 
L 363.992754 219.227484 
L 365.140501 219.063402 
L 366.288249 218.855801 
L 367.435996 218.657519 
L 368.583743 218.435423 
L 369.73149 218.164658 
L 370.879238 217.99625 
L 372.026985 217.824585 
L 373.174732 217.687708 
L 374.322479 217.40653 
L 375.470227 217.304065 
L 376.617974 217.07978 
L 377.765721 216.980679 
L 378.913469 216.840784 
L 380.061216 216.621091 
L 381.208963 216.582246 
L 382.35671 216.489065 
L 383.504458 216.319029 
L 384.652205 216.137139 
L 385.799952 216.172273 
L 386.947699 215.917445 
L 388.095447 215.850088 
L 389.243194 215.850648 
L 390.390941 215.634452 
L 391.538688 215.547339 
L 392.686436 215.5137 
L 393.834183 215.379705 
L 399.572919 215.104587 
L 405.311656 214.912899 
L 411.050392 214.701189 
L 416.789128 214.318321 
L 422.527865 214.104127 
L 428.266601 213.774412 
L 434.005337 213.594312 
L 439.744074 213.327898 
L 445.48281 212.975731 
L 451.221546 212.580689 
L 456.960283 212.428515 
L 462.699019 212.16461 
L 468.437755 211.82766 
L 474.176492 211.735795 
L 479.915228 211.470795 
L 485.653964 211.26843 
L 491.392701 126.457706 
L 497.131437 122.828834 
L 502.870173 119.409043 
L 508.60891 115.942468 
L 514.347646 112.395945 
L 520.086382 109.103369 
L 525.825118 105.561057 
L 531.563855 101.985059 
L 537.302591 98.537728 
L 543.041327 95.163053 
L 548.780064 91.683972 
L 554.5188 88.211861 
L 560.257536 84.684976 
L 565.996273 81.19054 
L 571.735009 77.765373 
L 577.473745 74.290664 
L 583.212482 70.777522 
L 588.951218 67.526191 
L 594.689954 63.984399 
L 600.428691 60.489676 
L 606.167427 57.047003 
L 611.906163 53.554932 
L 617.6449 50.026918 
L 623.383636 46.654429 
" clip-path="url(#p747182d72b)" style="fill: none; stroke: #1f77b4; stroke-width: 2; stroke-linecap: square"/>
   </g>
   <g id="line2d_28">
    <path d="M 78.203685 363.551884 
L 81.073053 361.935805 
L 95.419894 353.487184 
L 98.289262 351.731061 
L 115.505471 341.538053 
L 122.678892 337.434704 
L 124.113576 336.479319 
L 125.54826 335.765195 
L 128.417628 333.859728 
L 135.591048 329.856718 
L 137.025732 328.915506 
L 138.460416 328.176978 
L 141.329785 326.418095 
L 145.633837 323.89207 
L 155.676625 317.947185 
L 157.11131 218.502237 
L 170.023466 218.387332 
L 171.45815 218.349902 
L 172.892834 218.427618 
L 174.327519 218.284066 
L 180.066255 218.230297 
L 181.500939 218.140887 
L 184.370307 218.14572 
L 185.804991 218.01888 
L 188.674359 218.065974 
L 197.282464 217.956034 
L 204.455884 217.73546 
L 205.890568 217.768992 
L 207.325252 217.670772 
L 208.759936 217.735172 
L 210.194621 217.596692 
L 213.063989 217.602325 
L 215.933357 217.462404 
L 218.802725 217.507042 
L 224.541461 217.302887 
L 244.627039 216.645436 
L 246.061723 216.471181 
L 254.669827 216.180046 
L 256.104511 216.024987 
L 258.973879 215.954105 
L 267.581984 215.434588 
L 269.016668 215.288366 
L 270.451352 215.287672 
L 271.886036 215.044592 
L 277.624772 214.658681 
L 280.494141 214.346133 
L 286.232877 213.781189 
L 287.667561 213.555409 
L 290.536929 213.391327 
L 291.971613 213.08137 
L 293.406297 212.965262 
L 297.71035 212.238504 
L 299.145034 212.11396 
L 306.318454 210.832163 
L 313.491874 209.193821 
L 314.926559 208.916462 
L 316.361243 208.381659 
L 317.795927 207.99839 
L 319.230611 207.789885 
L 320.665295 207.304205 
L 322.099979 207.043638 
L 324.969347 206.244417 
L 326.404031 205.833383 
L 330.708083 205.044715 
L 333.577452 205.003893 
L 335.012136 205.254929 
L 336.44682 205.892678 
L 336.44682 205.892678 
" clip-path="url(#p747182d72b)" style="fill: none; stroke: #ff7f0e; stroke-width: 2; stroke-linecap: square"/>
   </g>
   <g id="line2d_29">
    <path d="M 78.203685 363.282286 
L 83.710553 360.097515 
L 89.217421 356.912744 
L 94.72429 353.727974 
L 100.231158 350.543203 
L 105.738026 347.358432 
L 111.244894 344.173661 
L 116.751762 340.98889 
L 122.258631 337.804119 
L 127.765499 334.619348 
L 133.272367 331.434578 
L 138.779235 328.249807 
L 144.286103 325.065036 
L 149.792972 321.880265 
L 155.29984 318.695494 
L 160.806708 315.510723 
L 166.313576 312.325952 
L 171.820444 309.141182 
L 177.327313 305.956411 
L 182.834181 302.77164 
L 188.341049 299.586869 
L 193.847917 296.402098 
L 199.354785 293.217327 
L 204.861653 290.032556 
L 210.368522 286.847786 
L 215.87539 283.663015 
L 221.382258 280.478244 
L 226.889126 277.293473 
L 232.395994 274.108702 
L 237.902863 270.923931 
L 243.409731 267.73916 
L 248.916599 264.554389 
L 254.423467 261.369619 
L 259.930335 258.184848 
L 265.437204 255.000077 
L 270.944072 251.815306 
L 276.45094 248.630535 
L 281.957808 245.445764 
L 287.464676 242.260993 
L 292.971545 239.076223 
L 298.478413 235.891452 
L 303.985281 232.706681 
L 309.492149 229.52191 
L 314.999017 226.337139 
L 320.505885 223.152368 
L 326.012754 219.967597 
L 331.519622 216.782827 
L 337.02649 213.598056 
L 342.533358 210.413285 
L 348.040226 207.228514 
L 353.547095 204.043743 
L 359.053963 200.858972 
L 364.560831 197.674201 
L 370.067699 194.489431 
L 375.574567 191.30466 
L 381.081436 188.119889 
L 386.588304 184.935118 
L 392.095172 181.750347 
L 397.60204 178.565576 
L 403.108908 175.380805 
L 408.615777 172.196035 
L 414.122645 169.011264 
L 419.629513 165.826493 
L 425.136381 162.641722 
L 430.643249 159.456951 
L 436.150118 156.27218 
L 441.656986 153.087409 
L 447.163854 149.902639 
L 452.670722 146.717868 
L 458.17759 143.533097 
L 463.684458 140.348326 
L 469.191327 137.163555 
L 474.698195 133.978784 
L 480.205063 130.794013 
L 485.711931 127.609243 
L 491.218799 124.424472 
L 496.725668 121.239701 
L 502.232536 118.05493 
L 507.739404 114.870159 
L 513.246272 111.685388 
L 518.75314 108.500617 
L 524.260009 105.315847 
L 529.766877 102.131076 
L 535.273745 98.946305 
L 540.780613 95.761534 
L 546.287481 92.576763 
L 551.79435 89.391992 
L 557.301218 86.207221 
L 562.808086 83.022451 
L 568.314954 79.83768 
L 573.821822 76.652909 
L 579.328691 73.468138 
L 584.835559 70.283367 
L 590.342427 67.098596 
L 595.849295 63.913825 
L 601.356163 60.729055 
L 606.863031 57.544284 
L 612.3699 54.359513 
L 617.876768 51.174742 
L 623.383636 47.989971 
" clip-path="url(#p747182d72b)" style="fill: none; stroke-dasharray: 1.5,2.475; stroke-dashoffset: 0; stroke: #008000; stroke-opacity: 0.9; stroke-width: 1.5"/>
   </g>
   <g id="line2d_30">
    <path d="M 491.392701 379.396756 
L 491.392701 30.809556 
" clip-path="url(#p747182d72b)" style="fill: none; stroke-dasharray: 4.44,1.92; stroke-dashoffset: 0; stroke: #1f77b4; stroke-opacity: 0.6; stroke-width: 1.2"/>
   </g>
   <g id="line2d_31">
    <path d="M 155.676625 379.396756 
L 155.676625 30.809556 
" clip-path="url(#p747182d72b)" style="fill: none; stroke-dasharray: 4.44,1.92; stroke-dashoffset: 0; stroke: #ff7f0e; stroke-opacity: 0.6; stroke-width: 1.2"/>
   </g>
   <g id="line2d_32">
    <path d="M 50.944688 217.043302 
L 650.642634 217.043302 
" clip-path="url(#p747182d72b)" style="fill: none; stroke: #808080; stroke-width: 0.5; stroke-linecap: square"/>
   </g>
   <g id="line2d_33">
    <path d="M 336.44682 379.396756 
L 336.44682 30.809556 
" clip-path="url(#p747182d72b)" style="fill: none; stroke: #808080; stroke-width: 0.5; stroke-linecap: square"/>
   </g>
   <g id="patch_3">
    <path d="M 50.944688 379.396756 
L 50.944688 30.809556 
" style="fill: none; stroke: #000000; stroke-width: 0.8; stroke-linejoin: miter; stroke-linecap: square"/>
   </g>
   <g id="patch_4">
    <path d="M 650.642634 379.396756 
L 650.642634 30.809556 
" style="fill: none; stroke: #000000; stroke-width: 0.8; stroke-linejoin: miter; stroke-linecap: square"/>
   </g>
   <g id="patch_5">
    <path d="M 50.944687 379.396756 
L 650.642634 379.396756 
" style="fill: none; stroke: #000000; stroke-width: 0.8; stroke-linejoin: miter; stroke-linecap: square"/>
   </g>
   <g id="patch_6">
    <path d="M 50.944687 30.809556 
L 650.642634 30.809556 
" style="fill: none; stroke: #000000; stroke-width: 0.8; stroke-linejoin: miter; stroke-linecap: square"/>
   </g>
   <g id="text_16">
    <g id="patch_7">
     <path d="M 537.510335 135.950795 
L 594.48221 135.950795 
L 594.48221 125.67267 
L 537.510335 125.67267 
z
" style="fill: #ffffff; opacity: 0.7; stroke: #008000; stroke-linejoin: miter"/>
    </g>
    <!-- Rn=1.85Ω -->
    <g style="fill: #008000" transform="translate(537.810335 133.571107) scale(0.1 -0.1)">
     <defs>
      <path id="DejaVuSans-Bold-52" d="M 2297 2597 
Q 2675 2597 2839 2737 
Q 3003 2878 3003 3200 
Q 3003 3519 2839 3656 
Q 2675 3794 2297 3794 
L 1791 3794 
L 1791 2597 
L 2297 2597 
z
M 1791 1766 
L 1791 0 
L 588 0 
L 588 4666 
L 2425 4666 
Q 3347 4666 3776 4356 
Q 4206 4047 4206 3378 
Q 4206 2916 3982 2619 
Q 3759 2322 3309 2181 
Q 3556 2125 3751 1926 
Q 3947 1728 4147 1325 
L 4800 0 
L 3519 0 
L 2950 1159 
Q 2778 1509 2601 1637 
Q 2425 1766 2131 1766 
L 1791 1766 
z
" transform="scale(0.015625)"/>
      <path id="DejaVuSans-Bold-6e" d="M 4056 2131 
L 4056 0 
L 2931 0 
L 2931 347 
L 2931 1631 
Q 2931 2084 2911 2256 
Q 2891 2428 2841 2509 
Q 2775 2619 2662 2680 
Q 2550 2741 2406 2741 
Q 2056 2741 1856 2470 
Q 1656 2200 1656 1722 
L 1656 0 
L 538 0 
L 538 3500 
L 1656 3500 
L 1656 2988 
Q 1909 3294 2193 3439 
Q 2478 3584 2822 3584 
Q 3428 3584 3742 3212 
Q 4056 2841 4056 2131 
z
" transform="scale(0.015625)"/>
      <path id="DejaVuSans-Bold-3d" d="M 678 3084 
L 4684 3084 
L 4684 2350 
L 678 2350 
L 678 3084 
z
M 678 1663 
L 4684 1663 
L 4684 922 
L 678 922 
L 678 1663 
z
" transform="scale(0.015625)"/>
      <path id="DejaVuSans-Bold-31" d="M 750 831 
L 1813 831 
L 1813 3847 
L 722 3622 
L 722 4441 
L 1806 4666 
L 2950 4666 
L 2950 831 
L 4013 831 
L 4013 0 
L 750 0 
L 750 831 
z
" transform="scale(0.015625)"/>
      <path id="DejaVuSans-Bold-2e" d="M 653 1209 
L 1778 1209 
L 1778 0 
L 653 0 
L 653 1209 
z
" transform="scale(0.015625)"/>
      <path id="DejaVuSans-Bold-38" d="M 2228 2088 
Q 1891 2088 1709 1903 
Q 1528 1719 1528 1375 
Q 1528 1031 1709 848 
Q 1891 666 2228 666 
Q 2563 666 2741 848 
Q 2919 1031 2919 1375 
Q 2919 1722 2741 1905 
Q 2563 2088 2228 2088 
z
M 1350 2484 
Q 925 2613 709 2878 
Q 494 3144 494 3541 
Q 494 4131 934 4440 
Q 1375 4750 2228 4750 
Q 3075 4750 3515 4442 
Q 3956 4134 3956 3541 
Q 3956 3144 3739 2878 
Q 3522 2613 3097 2484 
Q 3572 2353 3814 2058 
Q 4056 1763 4056 1313 
Q 4056 619 3595 264 
Q 3134 -91 2228 -91 
Q 1319 -91 855 264 
Q 391 619 391 1313 
Q 391 1763 633 2058 
Q 875 2353 1350 2484 
z
M 1631 3419 
Q 1631 3141 1786 2991 
Q 1941 2841 2228 2841 
Q 2509 2841 2662 2991 
Q 2816 3141 2816 3419 
Q 2816 3697 2662 3845 
Q 2509 3994 2228 3994 
Q 1941 3994 1786 3844 
Q 1631 3694 1631 3419 
z
" transform="scale(0.015625)"/>
      <path id="DejaVuSans-Bold-35" d="M 678 4666 
L 3669 4666 
L 3669 3781 
L 1638 3781 
L 1638 3059 
Q 1775 3097 1914 3117 
Q 2053 3138 2203 3138 
Q 3056 3138 3531 2711 
Q 4006 2284 4006 1522 
Q 4006 766 3489 337 
Q 2972 -91 2053 -91 
Q 1656 -91 1267 -14 
Q 878 63 494 219 
L 494 1166 
Q 875 947 1217 837 
Q 1559 728 1863 728 
Q 2300 728 2551 942 
Q 2803 1156 2803 1522 
Q 2803 1891 2551 2103 
Q 2300 2316 1863 2316 
Q 1603 2316 1309 2248 
Q 1016 2181 678 2041 
L 678 4666 
z
" transform="scale(0.015625)"/>
      <path id="DejaVuSans-Bold-3a9" d="M 2719 4750 
Q 3841 4750 4480 4106 
Q 5119 3463 5119 2494 
Q 5119 1406 4306 909 
L 5266 909 
L 5266 0 
L 3125 0 
L 3125 975 
Q 3244 1041 3334 1131 
Q 3875 1678 3875 2466 
Q 3875 3066 3572 3472 
Q 3269 3878 2719 3878 
Q 2169 3878 1866 3472 
Q 1563 3066 1563 2466 
Q 1563 1678 2103 1131 
Q 2194 1041 2313 975 
L 2313 0 
L 172 0 
L 172 909 
L 1131 909 
Q 319 1406 319 2494 
Q 319 3463 958 4106 
Q 1597 4750 2719 4750 
z
" transform="scale(0.015625)"/>
     </defs>
     <use xlink:href="#DejaVuSans-Bold-52"/>
     <use xlink:href="#DejaVuSans-Bold-6e" transform="translate(77.001953 0)"/>
     <use xlink:href="#DejaVuSans-Bold-3d" transform="translate(148.193359 0)"/>
     <use xlink:href="#DejaVuSans-Bold-31" transform="translate(231.982422 0)"/>
     <use xlink:href="#DejaVuSans-Bold-2e" transform="translate(301.5625 0)"/>
     <use xlink:href="#DejaVuSans-Bold-38" transform="translate(339.550781 0)"/>
     <use xlink:href="#DejaVuSans-Bold-35" transform="translate(409.130859 0)"/>
     <use xlink:href="#DejaVuSans-Bold-3a9" transform="translate(478.710938 0)"/>
    </g>
   </g>
   <g id="text_17">
    <g id="patch_8">
     <path d="M 464.167701 110.867706 
L 518.617701 110.867706 
Q 520.417701 110.867706 520.417701 109.067706 
L 520.417701 98.987706 
Q 520.417701 97.187706 518.617701 97.187706 
L 464.167701 97.187706 
Q 462.367701 97.187706 462.367701 98.987706 
L 462.367701 109.067706 
Q 462.367701 110.867706 464.167701 110.867706 
z
" style="fill: #ffffff; opacity: 0.7; stroke: #1f77b4; stroke-linejoin: miter"/>
    </g>
    <!-- $I_s^+$=27.0uA -->
    <g style="fill: #1f77b4" transform="translate(464.167701 106.457706) scale(0.09 -0.09)">
     <defs>
      <path id="DejaVuSans-2b" d="M 2944 4013 
L 2944 2272 
L 4684 2272 
L 4684 1741 
L 2944 1741 
L 2944 0 
L 2419 0 
L 2419 1741 
L 678 1741 
L 678 2272 
L 2419 2272 
L 2419 4013 
L 2944 4013 
z
" transform="scale(0.015625)"/>
      <path id="DejaVuSans-Oblique-73" d="M 3200 3397 
L 3091 2853 
Q 2863 2978 2609 3040 
Q 2356 3103 2088 3103 
Q 1634 3103 1373 2948 
Q 1113 2794 1113 2528 
Q 1113 2219 1719 2053 
Q 1766 2041 1788 2034 
L 1972 1978 
Q 2547 1819 2739 1644 
Q 2931 1469 2931 1166 
Q 2931 609 2489 259 
Q 2047 -91 1331 -91 
Q 1053 -91 747 -37 
Q 441 16 72 128 
L 184 722 
Q 500 559 806 475 
Q 1113 391 1394 391 
Q 1816 391 2080 572 
Q 2344 753 2344 1031 
Q 2344 1331 1650 1516 
L 1591 1531 
L 1394 1581 
Q 956 1697 753 1886 
Q 550 2075 550 2369 
Q 550 2928 970 3256 
Q 1391 3584 2113 3584 
Q 2397 3584 2667 3537 
Q 2938 3491 3200 3397 
z
" transform="scale(0.015625)"/>
      <path id="DejaVuSans-Bold-32" d="M 1844 884 
L 3897 884 
L 3897 0 
L 506 0 
L 506 884 
L 2209 2388 
Q 2438 2594 2547 2791 
Q 2656 2988 2656 3200 
Q 2656 3528 2436 3728 
Q 2216 3928 1850 3928 
Q 1569 3928 1234 3808 
Q 900 3688 519 3450 
L 519 4475 
Q 925 4609 1322 4679 
Q 1719 4750 2100 4750 
Q 2938 4750 3402 4381 
Q 3866 4013 3866 3353 
Q 3866 2972 3669 2642 
Q 3472 2313 2841 1759 
L 1844 884 
z
" transform="scale(0.015625)"/>
      <path id="DejaVuSans-Bold-37" d="M 428 4666 
L 3944 4666 
L 3944 3988 
L 2125 0 
L 953 0 
L 2675 3781 
L 428 3781 
L 428 4666 
z
" transform="scale(0.015625)"/>
      <path id="DejaVuSans-Bold-30" d="M 2944 2338 
Q 2944 3213 2780 3570 
Q 2616 3928 2228 3928 
Q 1841 3928 1675 3570 
Q 1509 3213 1509 2338 
Q 1509 1453 1675 1090 
Q 1841 728 2228 728 
Q 2613 728 2778 1090 
Q 2944 1453 2944 2338 
z
M 4147 2328 
Q 4147 1169 3647 539 
Q 3147 -91 2228 -91 
Q 1306 -91 806 539 
Q 306 1169 306 2328 
Q 306 3491 806 4120 
Q 1306 4750 2228 4750 
Q 3147 4750 3647 4120 
Q 4147 3491 4147 2328 
z
" transform="scale(0.015625)"/>
      <path id="DejaVuSans-Bold-75" d="M 500 1363 
L 500 3500 
L 1625 3500 
L 1625 3150 
Q 1625 2866 1622 2436 
Q 1619 2006 1619 1863 
Q 1619 1441 1641 1255 
Q 1663 1069 1716 984 
Q 1784 875 1895 815 
Q 2006 756 2150 756 
Q 2500 756 2700 1025 
Q 2900 1294 2900 1772 
L 2900 3500 
L 4019 3500 
L 4019 0 
L 2900 0 
L 2900 506 
Q 2647 200 2364 54 
Q 2081 -91 1741 -91 
Q 1134 -91 817 281 
Q 500 653 500 1363 
z
" transform="scale(0.015625)"/>
      <path id="DejaVuSans-Bold-41" d="M 3419 850 
L 1538 850 
L 1241 0 
L 31 0 
L 1759 4666 
L 3194 4666 
L 4922 0 
L 3713 0 
L 3419 850 
z
M 1838 1716 
L 3116 1716 
L 2478 3572 
L 1838 1716 
z
" transform="scale(0.015625)"/>
     </defs>
     <use xlink:href="#DejaVuSans-Oblique-49" transform="translate(0 0.826562)"/>
     <use xlink:href="#DejaVuSans-2b" transform="translate(50.146654 39.107813) scale(0.7)"/>
     <use xlink:href="#DejaVuSans-Oblique-73" transform="translate(29.492188 -26.517188) scale(0.7)"/>
     <use xlink:href="#DejaVuSans-Bold-3d" transform="translate(125.171068 0.826562)"/>
     <use xlink:href="#DejaVuSans-Bold-32" transform="translate(208.96013 0.826562)"/>
     <use xlink:href="#DejaVuSans-Bold-37" transform="translate(278.540208 0.826562)"/>
     <use xlink:href="#DejaVuSans-Bold-2e" transform="translate(348.120286 0.826562)"/>
     <use xlink:href="#DejaVuSans-Bold-30" transform="translate(386.108568 0.826562)"/>
     <use xlink:href="#DejaVuSans-Bold-75" transform="translate(455.688646 0.826562)"/>
     <use xlink:href="#DejaVuSans-Bold-41" transform="translate(526.880052 0.826562)"/>
    </g>
   </g>
   <g id="text_18">
    <g id="patch_9">
     <path d="M 126.606625 302.357185 
L 184.746625 302.357185 
Q 186.546625 302.357185 186.546625 300.557185 
L 186.546625 291.197185 
Q 186.546625 289.397185 184.746625 289.397185 
L 126.606625 289.397185 
Q 124.806625 289.397185 124.806625 291.197185 
L 124.806625 300.557185 
Q 124.806625 302.357185 126.606625 302.357185 
z
" style="fill: #ffffff; opacity: 0.7; stroke: #ff7f0e; stroke-linejoin: miter"/>
    </g>
    <!-- $I_s^-$=-31.5uA -->
    <g style="fill: #ff7f0e" transform="translate(126.606625 297.947185) scale(0.09 -0.09)">
     <defs>
      <path id="DejaVuSans-Bold-2d" d="M 347 2297 
L 2309 2297 
L 2309 1388 
L 347 1388 
L 347 2297 
z
" transform="scale(0.015625)"/>
      <path id="DejaVuSans-Bold-33" d="M 2981 2516 
Q 3453 2394 3698 2092 
Q 3944 1791 3944 1325 
Q 3944 631 3412 270 
Q 2881 -91 1863 -91 
Q 1503 -91 1142 -33 
Q 781 25 428 141 
L 428 1069 
Q 766 900 1098 814 
Q 1431 728 1753 728 
Q 2231 728 2486 893 
Q 2741 1059 2741 1369 
Q 2741 1688 2480 1852 
Q 2219 2016 1709 2016 
L 1228 2016 
L 1228 2791 
L 1734 2791 
Q 2188 2791 2409 2933 
Q 2631 3075 2631 3366 
Q 2631 3634 2415 3781 
Q 2200 3928 1806 3928 
Q 1516 3928 1219 3862 
Q 922 3797 628 3669 
L 628 4550 
Q 984 4650 1334 4700 
Q 1684 4750 2022 4750 
Q 2931 4750 3382 4451 
Q 3834 4153 3834 3553 
Q 3834 3144 3618 2883 
Q 3403 2622 2981 2516 
z
" transform="scale(0.015625)"/>
     </defs>
     <use xlink:href="#DejaVuSans-Oblique-49" transform="translate(0 0.78125)"/>
     <use xlink:href="#DejaVuSans-2212" transform="translate(50.146654 39.0625) scale(0.7)"/>
     <use xlink:href="#DejaVuSans-Oblique-73" transform="translate(29.492188 -26.5625) scale(0.7)"/>
     <use xlink:href="#DejaVuSans-Bold-3d" transform="translate(125.171068 0.78125)"/>
     <use xlink:href="#DejaVuSans-Bold-2d" transform="translate(208.96013 0.78125)"/>
     <use xlink:href="#DejaVuSans-Bold-33" transform="translate(250.464036 0.78125)"/>
     <use xlink:href="#DejaVuSans-Bold-31" transform="translate(320.044115 0.78125)"/>
     <use xlink:href="#DejaVuSans-Bold-2e" transform="translate(389.624193 0.78125)"/>
     <use xlink:href="#DejaVuSans-Bold-35" transform="translate(427.612474 0.78125)"/>
     <use xlink:href="#DejaVuSans-Bold-75" transform="translate(497.192552 0.78125)"/>
     <use xlink:href="#DejaVuSans-Bold-41" transform="translate(568.383958 0.78125)"/>
    </g>
   </g>
   <g id="legend_1">
    <g id="patch_10">
     <path d="M 570.042634 374.396756 
L 643.642634 374.396756 
Q 645.642634 374.396756 645.642634 372.396756 
L 645.642634 314.684256 
Q 645.642634 312.684256 643.642634 312.684256 
L 570.042634 312.684256 
Q 568.042634 312.684256 568.042634 314.684256 
L 568.042634 372.396756 
Q 568.042634 374.396756 570.042634 374.396756 
z
" style="fill: #ffffff; opacity: 0.8; stroke: #cccccc; stroke-linejoin: miter"/>
    </g>
    <g id="line2d_34">
     <path d="M 572.042634 320.782694 
L 582.042634 320.782694 
L 592.042634 320.782694 
" style="fill: none; stroke: #1f77b4; stroke-width: 2; stroke-linecap: square"/>
    </g>
    <g id="text_19">
     <!-- $I^+$ IV -->
     <g transform="translate(600.042634 324.282694) scale(0.1 -0.1)">
      <defs>
       <path id="DejaVuSans-49" d="M 628 4666 
L 1259 4666 
L 1259 0 
L 628 0 
L 628 4666 
z
" transform="scale(0.015625)"/>
      </defs>
      <use xlink:href="#DejaVuSans-Oblique-49" transform="translate(0 0.826562)"/>
      <use xlink:href="#DejaVuSans-2b" transform="translate(50.146654 39.107812) scale(0.7)"/>
      <use xlink:href="#DejaVuSans-20" transform="translate(125.171068 0.826562)"/>
      <use xlink:href="#DejaVuSans-49" transform="translate(156.958177 0.826562)"/>
      <use xlink:href="#DejaVuSans-56" transform="translate(186.450365 0.826562)"/>
     </g>
    </g>
    <g id="line2d_35">
     <path d="M 572.042634 335.460819 
L 582.042634 335.460819 
L 592.042634 335.460819 
" style="fill: none; stroke-dasharray: 3.7,1.6; stroke-dashoffset: 0; stroke: #1f77b4; stroke-opacity: 0.6"/>
    </g>
    <g id="text_20">
     <!-- $I^+$ dV/dI -->
     <g transform="translate(600.042634 338.960819) scale(0.1 -0.1)">
      <defs>
       <path id="DejaVuSans-64" d="M 2906 2969 
L 2906 4863 
L 3481 4863 
L 3481 0 
L 2906 0 
L 2906 525 
Q 2725 213 2448 61 
Q 2172 -91 1784 -91 
Q 1150 -91 751 415 
Q 353 922 353 1747 
Q 353 2572 751 3078 
Q 1150 3584 1784 3584 
Q 2172 3584 2448 3432 
Q 2725 3281 2906 2969 
z
M 947 1747 
Q 947 1113 1208 752 
Q 1469 391 1925 391 
Q 2381 391 2643 752 
Q 2906 1113 2906 1747 
Q 2906 2381 2643 2742 
Q 2381 3103 1925 3103 
Q 1469 3103 1208 2742 
Q 947 2381 947 1747 
z
" transform="scale(0.015625)"/>
       <path id="DejaVuSans-2f" d="M 1625 4666 
L 2156 4666 
L 531 -594 
L 0 -594 
L 1625 4666 
z
" transform="scale(0.015625)"/>
      </defs>
      <use xlink:href="#DejaVuSans-Oblique-49" transform="translate(0 0.826562)"/>
      <use xlink:href="#DejaVuSans-2b" transform="translate(50.146654 39.107812) scale(0.7)"/>
      <use xlink:href="#DejaVuSans-20" transform="translate(125.171068 0.826562)"/>
      <use xlink:href="#DejaVuSans-64" transform="translate(156.958177 0.826562)"/>
      <use xlink:href="#DejaVuSans-56" transform="translate(220.43474 0.826562)"/>
      <use xlink:href="#DejaVuSans-2f" transform="translate(288.842943 0.826562)"/>
      <use xlink:href="#DejaVuSans-64" transform="translate(322.534349 0.826562)"/>
      <use xlink:href="#DejaVuSans-49" transform="translate(386.010911 0.826562)"/>
     </g>
    </g>
    <g id="line2d_36">
     <path d="M 572.042634 350.138944 
L 582.042634 350.138944 
L 592.042634 350.138944 
" style="fill: none; stroke: #ff7f0e; stroke-width: 2; stroke-linecap: square"/>
    </g>
    <g id="text_21">
     <!-- $I^-$ IV -->
     <g transform="translate(600.042634 353.638944) scale(0.1 -0.1)">
      <use xlink:href="#DejaVuSans-Oblique-49" transform="translate(0 0.09375)"/>
      <use xlink:href="#DejaVuSans-2212" transform="translate(50.146654 38.375) scale(0.7)"/>
      <use xlink:href="#DejaVuSans-20" transform="translate(125.171068 0.09375)"/>
      <use xlink:href="#DejaVuSans-49" transform="translate(156.958177 0.09375)"/>
      <use xlink:href="#DejaVuSans-56" transform="translate(186.450365 0.09375)"/>
     </g>
    </g>
    <g id="line2d_37">
     <path d="M 572.042634 364.817069 
L 582.042634 364.817069 
L 592.042634 364.817069 
" style="fill: none; stroke-dasharray: 3.7,1.6; stroke-dashoffset: 0; stroke: #ff7f0e; stroke-opacity: 0.6"/>
    </g>
    <g id="text_22">
     <!-- $I^-$ dV/dI -->
     <g transform="translate(600.042634 368.317069) scale(0.1 -0.1)">
      <use xlink:href="#DejaVuSans-Oblique-49" transform="translate(0 0.015625)"/>
      <use xlink:href="#DejaVuSans-2212" transform="translate(50.146654 38.296875) scale(0.7)"/>
      <use xlink:href="#DejaVuSans-20" transform="translate(125.171068 0.015625)"/>
      <use xlink:href="#DejaVuSans-64" transform="translate(156.958177 0.015625)"/>
      <use xlink:href="#DejaVuSans-56" transform="translate(220.43474 0.015625)"/>
      <use xlink:href="#DejaVuSans-2f" transform="translate(288.842943 0.015625)"/>
      <use xlink:href="#DejaVuSans-64" transform="translate(322.534349 0.015625)"/>
      <use xlink:href="#DejaVuSans-49" transform="translate(386.010911 0.015625)"/>
     </g>
    </g>
   </g>
   <g id="PathCollection_1">
    <defs>
     <path id="m3cd5eb7f19" d="M 0 5 
C 1.326016 5 2.597899 4.473168 3.535534 3.535534 
C 4.473168 2.597899 5 1.326016 5 0 
C 5 -1.326016 4.473168 -2.597899 3.535534 -3.535534 
C 2.597899 -4.473168 1.326016 -5 0 -5 
C -1.326016 -5 -2.597899 -4.473168 -3.535534 -3.535534 
C -4.473168 -2.597899 -5 -1.326016 -5 0 
C -5 1.326016 -4.473168 2.597899 -3.535534 3.535534 
C -2.597899 4.473168 -1.326016 5 0 5 
z
" style="stroke: #000000"/>
    </defs>
    <g clip-path="url(#p747182d72b)">
     <use xlink:href="#m3cd5eb7f19" x="491.392701" y="126.457706" style="fill: #1f77b4; stroke: #000000"/>
    </g>
   </g>
   <g id="PathCollection_2">
    <defs>
     <path id="m60d94c97fd" d="M 0 5 
C 1.326016 5 2.597899 4.473168 3.535534 3.535534 
C 4.473168 2.597899 5 1.326016 5 0 
C 5 -1.326016 4.473168 -2.597899 3.535534 -3.535534 
C 2.597899 -4.473168 1.326016 -5 0 -5 
C -1.326016 -5 -2.597899 -4.473168 -3.535534 -3.535534 
C -4.473168 -2.597899 -5 -1.326016 -5 0 
C -5 1.326016 -4.473168 2.597899 -3.535534 3.535534 
C -2.597899 4.473168 -1.326016 5 0 5 
z
" style="stroke: #000000"/>
    </defs>
    <g clip-path="url(#p747182d72b)">
     <use xlink:href="#m60d94c97fd" x="155.676625" y="317.947185" style="fill: #ff7f0e; stroke: #000000"/>
    </g>
   </g>
  </g>
  <g id="axes_2">
   <g id="matplotlib.axis_3">
    <g id="ytick_9">
     <g id="line2d_38">
      <defs>
       <path id="m0077e433b7" d="M 0 0 
L 3.5 0 
" style="stroke: #000000; stroke-width: 0.8"/>
      </defs>
      <g>
       <use xlink:href="#m0077e433b7" x="650.642634" y="379.396756" style="stroke: #000000; stroke-width: 0.8"/>
      </g>
     </g>
     <g id="text_23">
      <!-- $\mathdefault{10^{-1}}$ -->
      <g transform="translate(657.642634 383.195975) scale(0.1 -0.1)">
       <use xlink:href="#DejaVuSans-31" transform="translate(0 0.684375)"/>
       <use xlink:href="#DejaVuSans-30" transform="translate(63.623047 0.684375)"/>
       <use xlink:href="#DejaVuSans-2212" transform="translate(128.203125 38.965625) scale(0.7)"/>
       <use xlink:href="#DejaVuSans-31" transform="translate(186.855469 38.965625) scale(0.7)"/>
      </g>
     </g>
    </g>
    <g id="ytick_10">
     <g id="line2d_39">
      <g>
       <use xlink:href="#m0077e433b7" x="650.642634" y="270.518415" style="stroke: #000000; stroke-width: 0.8"/>
      </g>
     </g>
     <g id="text_24">
      <!-- $\mathdefault{10^{0}}$ -->
      <g transform="translate(657.642634 274.317633) scale(0.1 -0.1)">
       <use xlink:href="#DejaVuSans-31" transform="translate(0 0.765625)"/>
       <use xlink:href="#DejaVuSans-30" transform="translate(63.623047 0.765625)"/>
       <use xlink:href="#DejaVuSans-30" transform="translate(128.203125 39.046875) scale(0.7)"/>
      </g>
     </g>
    </g>
    <g id="ytick_11">
     <g id="line2d_40">
      <g>
       <use xlink:href="#m0077e433b7" x="650.642634" y="161.640073" style="stroke: #000000; stroke-width: 0.8"/>
      </g>
     </g>
     <g id="text_25">
      <!-- $\mathdefault{10^{1}}$ -->
      <g transform="translate(657.642634 165.439292) scale(0.1 -0.1)">
       <use xlink:href="#DejaVuSans-31" transform="translate(0 0.684375)"/>
       <use xlink:href="#DejaVuSans-30" transform="translate(63.623047 0.684375)"/>
       <use xlink:href="#DejaVuSans-31" transform="translate(128.203125 38.965625) scale(0.7)"/>
      </g>
     </g>
    </g>
    <g id="ytick_12">
     <g id="line2d_41">
      <g>
       <use xlink:href="#m0077e433b7" x="650.642634" y="52.761731" style="stroke: #000000; stroke-width: 0.8"/>
      </g>
     </g>
     <g id="text_26">
      <!-- $\mathdefault{10^{2}}$ -->
      <g transform="translate(657.642634 56.56095) scale(0.1 -0.1)">
       <use xlink:href="#DejaVuSans-31" transform="translate(0 0.765625)"/>
       <use xlink:href="#DejaVuSans-30" transform="translate(63.623047 0.765625)"/>
       <use xlink:href="#DejaVuSans-32" transform="translate(128.203125 39.046875) scale(0.7)"/>
      </g>
     </g>
    </g>
    <g id="ytick_13">
     <g id="line2d_42">
      <defs>
       <path id="m7bbfe1d6a9" d="M 0 0 
L 2 0 
" style="stroke: #000000; stroke-width: 0.6"/>
      </defs>
      <g>
       <use xlink:href="#m7bbfe1d6a9" x="650.642634" y="346.62111" style="stroke: #000000; stroke-width: 0.6"/>
      </g>
     </g>
    </g>
    <g id="ytick_14">
     <g id="line2d_43">
      <g>
       <use xlink:href="#m7bbfe1d6a9" x="650.642634" y="327.448585" style="stroke: #000000; stroke-width: 0.6"/>
      </g>
     </g>
    </g>
    <g id="ytick_15">
     <g id="line2d_44">
      <g>
       <use xlink:href="#m7bbfe1d6a9" x="650.642634" y="313.845463" style="stroke: #000000; stroke-width: 0.6"/>
      </g>
     </g>
    </g>
    <g id="ytick_16">
     <g id="line2d_45">
      <g>
       <use xlink:href="#m7bbfe1d6a9" x="650.642634" y="303.294061" style="stroke: #000000; stroke-width: 0.6"/>
      </g>
     </g>
    </g>
    <g id="ytick_17">
     <g id="line2d_46">
      <g>
       <use xlink:href="#m7bbfe1d6a9" x="650.642634" y="294.672939" style="stroke: #000000; stroke-width: 0.6"/>
      </g>
     </g>
    </g>
    <g id="ytick_18">
     <g id="line2d_47">
      <g>
       <use xlink:href="#m7bbfe1d6a9" x="650.642634" y="287.383883" style="stroke: #000000; stroke-width: 0.6"/>
      </g>
     </g>
    </g>
    <g id="ytick_19">
     <g id="line2d_48">
      <g>
       <use xlink:href="#m7bbfe1d6a9" x="650.642634" y="281.069816" style="stroke: #000000; stroke-width: 0.6"/>
      </g>
     </g>
    </g>
    <g id="ytick_20">
     <g id="line2d_49">
      <g>
       <use xlink:href="#m7bbfe1d6a9" x="650.642634" y="275.500414" style="stroke: #000000; stroke-width: 0.6"/>
      </g>
     </g>
    </g>
    <g id="ytick_21">
     <g id="line2d_50">
      <g>
       <use xlink:href="#m7bbfe1d6a9" x="650.642634" y="237.742768" style="stroke: #000000; stroke-width: 0.6"/>
      </g>
     </g>
    </g>
    <g id="ytick_22">
     <g id="line2d_51">
      <g>
       <use xlink:href="#m7bbfe1d6a9" x="650.642634" y="218.570244" style="stroke: #000000; stroke-width: 0.6"/>
      </g>
     </g>
    </g>
    <g id="ytick_23">
     <g id="line2d_52">
      <g>
       <use xlink:href="#m7bbfe1d6a9" x="650.642634" y="204.967121" style="stroke: #000000; stroke-width: 0.6"/>
      </g>
     </g>
    </g>
    <g id="ytick_24">
     <g id="line2d_53">
      <g>
       <use xlink:href="#m7bbfe1d6a9" x="650.642634" y="194.41572" style="stroke: #000000; stroke-width: 0.6"/>
      </g>
     </g>
    </g>
    <g id="ytick_25">
     <g id="line2d_54">
      <g>
       <use xlink:href="#m7bbfe1d6a9" x="650.642634" y="185.794597" style="stroke: #000000; stroke-width: 0.6"/>
      </g>
     </g>
    </g>
    <g id="ytick_26">
     <g id="line2d_55">
      <g>
       <use xlink:href="#m7bbfe1d6a9" x="650.642634" y="178.505542" style="stroke: #000000; stroke-width: 0.6"/>
      </g>
     </g>
    </g>
    <g id="ytick_27">
     <g id="line2d_56">
      <g>
       <use xlink:href="#m7bbfe1d6a9" x="650.642634" y="172.191475" style="stroke: #000000; stroke-width: 0.6"/>
      </g>
     </g>
    </g>
    <g id="ytick_28">
     <g id="line2d_57">
      <g>
       <use xlink:href="#m7bbfe1d6a9" x="650.642634" y="166.622073" style="stroke: #000000; stroke-width: 0.6"/>
      </g>
     </g>
    </g>
    <g id="ytick_29">
     <g id="line2d_58">
      <g>
       <use xlink:href="#m7bbfe1d6a9" x="650.642634" y="128.864426" style="stroke: #000000; stroke-width: 0.6"/>
      </g>
     </g>
    </g>
    <g id="ytick_30">
     <g id="line2d_59">
      <g>
       <use xlink:href="#m7bbfe1d6a9" x="650.642634" y="109.691902" style="stroke: #000000; stroke-width: 0.6"/>
      </g>
     </g>
    </g>
    <g id="ytick_31">
     <g id="line2d_60">
      <g>
       <use xlink:href="#m7bbfe1d6a9" x="650.642634" y="96.088779" style="stroke: #000000; stroke-width: 0.6"/>
      </g>
     </g>
    </g>
    <g id="ytick_32">
     <g id="line2d_61">
      <g>
       <use xlink:href="#m7bbfe1d6a9" x="650.642634" y="85.537378" style="stroke: #000000; stroke-width: 0.6"/>
      </g>
     </g>
    </g>
    <g id="ytick_33">
     <g id="line2d_62">
      <g>
       <use xlink:href="#m7bbfe1d6a9" x="650.642634" y="76.916255" style="stroke: #000000; stroke-width: 0.6"/>
      </g>
     </g>
    </g>
    <g id="ytick_34">
     <g id="line2d_63">
      <g>
       <use xlink:href="#m7bbfe1d6a9" x="650.642634" y="69.6272" style="stroke: #000000; stroke-width: 0.6"/>
      </g>
     </g>
    </g>
    <g id="ytick_35">
     <g id="line2d_64">
      <g>
       <use xlink:href="#m7bbfe1d6a9" x="650.642634" y="63.313133" style="stroke: #000000; stroke-width: 0.6"/>
      </g>
     </g>
    </g>
    <g id="ytick_36">
     <g id="line2d_65">
      <g>
       <use xlink:href="#m7bbfe1d6a9" x="650.642634" y="57.743731" style="stroke: #000000; stroke-width: 0.6"/>
      </g>
     </g>
    </g>
    <g id="text_27">
     <!-- Differential Resistance $dV/dI$ ($\Omega$) -->
     <g transform="translate(692.024509 108.443156) rotate(-270) scale(0.12 -0.12)">
      <defs>
       <path id="DejaVuSans-44" d="M 1259 4147 
L 1259 519 
L 2022 519 
Q 2988 519 3436 956 
Q 3884 1394 3884 2338 
Q 3884 3275 3436 3711 
Q 2988 4147 2022 4147 
L 1259 4147 
z
M 628 4666 
L 1925 4666 
Q 3281 4666 3915 4102 
Q 4550 3538 4550 2338 
Q 4550 1131 3912 565 
Q 3275 0 1925 0 
L 628 0 
L 628 4666 
z
" transform="scale(0.015625)"/>
       <path id="DejaVuSans-69" d="M 603 3500 
L 1178 3500 
L 1178 0 
L 603 0 
L 603 3500 
z
M 603 4863 
L 1178 4863 
L 1178 4134 
L 603 4134 
L 603 4863 
z
" transform="scale(0.015625)"/>
       <path id="DejaVuSans-66" d="M 2375 4863 
L 2375 4384 
L 1825 4384 
Q 1516 4384 1395 4259 
Q 1275 4134 1275 3809 
L 1275 3500 
L 2222 3500 
L 2222 3053 
L 1275 3053 
L 1275 0 
L 697 0 
L 697 3053 
L 147 3053 
L 147 3500 
L 697 3500 
L 697 3744 
Q 697 4328 969 4595 
Q 1241 4863 1831 4863 
L 2375 4863 
z
" transform="scale(0.015625)"/>
       <path id="DejaVuSans-52" d="M 2841 2188 
Q 3044 2119 3236 1894 
Q 3428 1669 3622 1275 
L 4263 0 
L 3584 0 
L 2988 1197 
Q 2756 1666 2539 1819 
Q 2322 1972 1947 1972 
L 1259 1972 
L 1259 0 
L 628 0 
L 628 4666 
L 2053 4666 
Q 2853 4666 3247 4331 
Q 3641 3997 3641 3322 
Q 3641 2881 3436 2590 
Q 3231 2300 2841 2188 
z
M 1259 4147 
L 1259 2491 
L 2053 2491 
Q 2509 2491 2742 2702 
Q 2975 2913 2975 3322 
Q 2975 3731 2742 3939 
Q 2509 4147 2053 4147 
L 1259 4147 
z
" transform="scale(0.015625)"/>
       <path id="DejaVuSans-73" d="M 2834 3397 
L 2834 2853 
Q 2591 2978 2328 3040 
Q 2066 3103 1784 3103 
Q 1356 3103 1142 2972 
Q 928 2841 928 2578 
Q 928 2378 1081 2264 
Q 1234 2150 1697 2047 
L 1894 2003 
Q 2506 1872 2764 1633 
Q 3022 1394 3022 966 
Q 3022 478 2636 193 
Q 2250 -91 1575 -91 
Q 1294 -91 989 -36 
Q 684 19 347 128 
L 347 722 
Q 666 556 975 473 
Q 1284 391 1588 391 
Q 1994 391 2212 530 
Q 2431 669 2431 922 
Q 2431 1156 2273 1281 
Q 2116 1406 1581 1522 
L 1381 1569 
Q 847 1681 609 1914 
Q 372 2147 372 2553 
Q 372 3047 722 3315 
Q 1072 3584 1716 3584 
Q 2034 3584 2315 3537 
Q 2597 3491 2834 3397 
z
" transform="scale(0.015625)"/>
       <path id="DejaVuSans-63" d="M 3122 3366 
L 3122 2828 
Q 2878 2963 2633 3030 
Q 2388 3097 2138 3097 
Q 1578 3097 1268 2742 
Q 959 2388 959 1747 
Q 959 1106 1268 751 
Q 1578 397 2138 397 
Q 2388 397 2633 464 
Q 2878 531 3122 666 
L 3122 134 
Q 2881 22 2623 -34 
Q 2366 -91 2075 -91 
Q 1284 -91 818 406 
Q 353 903 353 1747 
Q 353 2603 823 3093 
Q 1294 3584 2113 3584 
Q 2378 3584 2631 3529 
Q 2884 3475 3122 3366 
z
" transform="scale(0.015625)"/>
       <path id="DejaVuSans-Oblique-64" d="M 2675 525 
Q 2444 222 2128 65 
Q 1813 -91 1428 -91 
Q 903 -91 598 267 
Q 294 625 294 1247 
Q 294 1766 478 2236 
Q 663 2706 1013 3078 
Q 1244 3325 1534 3454 
Q 1825 3584 2144 3584 
Q 2481 3584 2739 3421 
Q 2997 3259 3138 2956 
L 3513 4863 
L 4091 4863 
L 3144 0 
L 2566 0 
L 2675 525 
z
M 891 1350 
Q 891 897 1095 644 
Q 1300 391 1663 391 
Q 1931 391 2161 520 
Q 2391 650 2566 903 
Q 2750 1166 2856 1509 
Q 2963 1853 2963 2188 
Q 2963 2622 2758 2865 
Q 2553 3109 2194 3109 
Q 1922 3109 1687 2981 
Q 1453 2853 1288 2613 
Q 1106 2353 998 2009 
Q 891 1666 891 1350 
z
" transform="scale(0.015625)"/>
       <path id="DejaVuSans-3a9" d="M 4647 556 
L 4647 0 
L 2772 0 
L 2772 556 
Q 3325 859 3634 1378 
Q 3944 1897 3944 2528 
Q 3944 3278 3531 3731 
Q 3119 4184 2444 4184 
Q 1769 4184 1355 3729 
Q 941 3275 941 2528 
Q 941 1897 1250 1378 
Q 1563 859 2119 556 
L 2119 0 
L 244 0 
L 244 556 
L 1241 556 
Q 747 991 519 1456 
Q 294 1922 294 2497 
Q 294 3491 894 4106 
Q 1491 4722 2444 4722 
Q 3391 4722 3994 4106 
Q 4594 3494 4594 2528 
Q 4594 1922 4372 1459 
Q 4150 997 3647 556 
L 4647 556 
z
" transform="scale(0.015625)"/>
      </defs>
      <use xlink:href="#DejaVuSans-44" transform="translate(0 0.015625)"/>
      <use xlink:href="#DejaVuSans-69" transform="translate(77.001953 0.015625)"/>
      <use xlink:href="#DejaVuSans-66" transform="translate(104.785156 0.015625)"/>
      <use xlink:href="#DejaVuSans-66" transform="translate(139.990234 0.015625)"/>
      <use xlink:href="#DejaVuSans-65" transform="translate(175.195312 0.015625)"/>
      <use xlink:href="#DejaVuSans-72" transform="translate(236.71875 0.015625)"/>
      <use xlink:href="#DejaVuSans-65" transform="translate(277.832031 0.015625)"/>
      <use xlink:href="#DejaVuSans-6e" transform="translate(339.355469 0.015625)"/>
      <use xlink:href="#DejaVuSans-74" transform="translate(402.734375 0.015625)"/>
      <use xlink:href="#DejaVuSans-69" transform="translate(441.943359 0.015625)"/>
      <use xlink:href="#DejaVuSans-61" transform="translate(469.726562 0.015625)"/>
      <use xlink:href="#DejaVuSans-6c" transform="translate(531.005859 0.015625)"/>
      <use xlink:href="#DejaVuSans-20" transform="translate(558.789062 0.015625)"/>
      <use xlink:href="#DejaVuSans-52" transform="translate(590.576172 0.015625)"/>
      <use xlink:href="#DejaVuSans-65" transform="translate(660.058594 0.015625)"/>
      <use xlink:href="#DejaVuSans-73" transform="translate(721.582031 0.015625)"/>
      <use xlink:href="#DejaVuSans-69" transform="translate(773.681641 0.015625)"/>
      <use xlink:href="#DejaVuSans-73" transform="translate(801.464844 0.015625)"/>
      <use xlink:href="#DejaVuSans-74" transform="translate(853.564453 0.015625)"/>
      <use xlink:href="#DejaVuSans-61" transform="translate(892.773438 0.015625)"/>
      <use xlink:href="#DejaVuSans-6e" transform="translate(954.052734 0.015625)"/>
      <use xlink:href="#DejaVuSans-63" transform="translate(1017.431641 0.015625)"/>
      <use xlink:href="#DejaVuSans-65" transform="translate(1072.412109 0.015625)"/>
      <use xlink:href="#DejaVuSans-20" transform="translate(1133.935547 0.015625)"/>
      <use xlink:href="#DejaVuSans-Oblique-64" transform="translate(1165.722656 0.015625)"/>
      <use xlink:href="#DejaVuSans-Oblique-56" transform="translate(1229.199219 0.015625)"/>
      <use xlink:href="#DejaVuSans-2f" transform="translate(1297.607422 0.015625)"/>
      <use xlink:href="#DejaVuSans-Oblique-64" transform="translate(1331.298828 0.015625)"/>
      <use xlink:href="#DejaVuSans-Oblique-49" transform="translate(1394.775391 0.015625)"/>
      <use xlink:href="#DejaVuSans-20" transform="translate(1424.267578 0.015625)"/>
      <use xlink:href="#DejaVuSans-28" transform="translate(1456.054688 0.015625)"/>
      <use xlink:href="#DejaVuSans-3a9" transform="translate(1495.068359 0.015625)"/>
      <use xlink:href="#DejaVuSans-29" transform="translate(1571.484375 0.015625)"/>
     </g>
    </g>
   </g>
   <g id="line2d_66">
    <path d="M 336.44682 379.396756 
L 337.594567 379.396756 
L 338.742314 379.396756 
L 339.890062 379.396756 
L 341.037809 379.396756 
L 342.185556 308.246386 
L 343.333303 305.967004 
L 344.481051 294.494969 
L 345.628798 276.021708 
L 346.776545 273.599399 
L 347.924292 279.825443 
L 349.07204 280.800468 
L 350.219787 278.895373 
L 351.367534 276.09893 
L 352.515281 262.854392 
L 353.663029 273.059199 
L 354.810776 280.249917 
L 355.958523 283.9108 
L 357.106271 290.072768 
L 358.254018 273.814252 
L 359.401765 274.727608 
L 360.549512 285.877772 
L 361.69726 287.69887 
L 362.845007 279.494275 
L 363.992754 286.2326 
L 365.140501 301.566978 
L 366.288249 297.404834 
L 367.435996 295.745562 
L 368.583743 288.223669 
L 369.73149 293.677323 
L 370.879238 305.769852 
L 372.026985 310.370618 
L 373.174732 296.007505 
L 374.322479 300.069467 
L 375.470227 307.659477 
L 376.617974 308.148786 
L 377.765721 322.447951 
L 378.913469 303.131291 
L 380.061216 318.731446 
L 381.208963 350.509189 
L 382.35671 317.883268 
L 383.504458 304.149724 
L 384.652205 345.507807 
L 385.799952 326.42996 
L 386.947699 308.324764 
L 388.095447 379.396756 
L 389.243194 327.311539 
L 390.390941 311.17942 
L 391.538688 354.729635 
L 392.686436 339.218419 
L 393.834183 321.922673 
L 399.572919 366.894702 
L 405.311656 373.797732 
L 411.050392 355.454546 
L 416.789128 355.257461 
L 422.527865 359.666261 
L 428.266601 362.727194 
L 434.005337 368.996151 
L 439.744074 353.583217 
L 445.48281 344.650183 
L 451.221546 359.379583 
L 456.960283 372.334267 
L 462.699019 354.958006 
L 468.437755 370.908613 
L 474.176492 379.396756 
L 479.915228 366.83809 
L 485.653964 120.791572 
L 491.392701 118.923116 
L 497.131437 238.530325 
L 502.870173 239.631813 
L 508.60891 238.769523 
L 514.347646 239.957489 
L 520.086382 239.98661 
L 525.825118 238.065406 
L 531.563855 238.700592 
L 537.302591 240.07582 
L 543.041327 239.856262 
L 548.780064 239.188768 
L 554.5188 238.864694 
L 560.257536 238.714104 
L 565.996273 239.404139 
L 571.735009 239.539138 
L 577.473745 238.940048 
L 583.212482 240.476292 
L 588.951218 240.276443 
L 594.689954 238.61189 
L 600.428691 239.282712 
L 606.167427 239.30079 
L 611.906163 238.722431 
L 617.6449 239.534841 
L 623.383636 240.612759 
" clip-path="url(#p747182d72b)" style="fill: none; stroke-dasharray: 3.7,1.6; stroke-dashoffset: 0; stroke: #1f77b4; stroke-opacity: 0.6"/>
   </g>
   <g id="line2d_67">
    <path d="M 78.203685 244.588325 
L 81.073053 240.787933 
L 82.507737 240.351709 
L 83.942421 238.794657 
L 85.377105 240.003223 
L 86.81179 243.41489 
L 88.246474 243.331265 
L 89.681158 237.996899 
L 91.115842 237.924218 
L 92.550526 241.509525 
L 93.98521 241.127539 
L 95.419894 238.292091 
L 96.854578 238.692751 
L 98.289262 241.003763 
L 101.15863 242.738955 
L 102.593314 240.272327 
L 104.027999 239.665167 
L 105.462683 240.951105 
L 106.897367 239.753895 
L 108.332051 239.335867 
L 109.766735 239.982892 
L 111.201419 239.138213 
L 112.636103 240.334723 
L 114.070787 240.089607 
L 115.505471 240.612759 
L 116.940155 242.321416 
L 118.374839 241.486488 
L 119.809523 240.048878 
L 121.244207 241.81158 
L 122.678892 239.514709 
L 124.113576 241.084383 
L 125.54826 241.241964 
L 126.982944 234.833412 
L 128.417628 239.298224 
L 129.852312 246.384512 
L 131.286996 241.321461 
L 132.72168 239.006901 
L 134.156364 244.180208 
L 135.591048 240.027534 
L 138.460416 241.512598 
L 139.895101 238.618512 
L 141.329785 241.727139 
L 142.764469 241.27711 
L 144.199153 239.620373 
L 145.633837 240.097559 
L 147.068521 238.917139 
L 148.503205 238.524195 
L 149.937889 242.070474 
L 151.372573 240.840409 
L 152.807257 240.758692 
L 154.241941 241.270995 
L 155.676625 47.408947 
L 157.11131 47.824297 
L 158.545994 379.396756 
L 159.980678 379.396756 
L 161.415362 366.359656 
L 162.850046 379.396756 
L 167.154098 379.396756 
L 168.588782 366.284918 
L 170.023466 379.396756 
L 172.892834 379.396756 
L 174.327519 361.091917 
L 175.762203 379.396756 
L 178.631571 379.396756 
L 180.066255 368.147157 
L 181.500939 379.396756 
L 182.935623 379.396756 
L 184.370307 356.813563 
L 185.804991 379.396756 
L 195.84778 379.396756 
L 197.282464 352.426165 
L 198.717148 379.396756 
L 200.151832 379.396756 
L 201.586516 356.796086 
L 203.0212 379.396756 
L 208.759936 379.396756 
L 210.194621 375.421355 
L 211.629305 379.396756 
L 213.063989 353.36747 
L 214.498673 358.314294 
L 215.933357 379.396756 
L 217.368041 379.396756 
L 218.802725 375.460236 
L 220.237409 370.120407 
L 221.672093 379.396756 
L 223.106777 376.548801 
L 224.541461 378.957537 
L 225.976145 361.350967 
L 227.41083 379.396756 
L 228.845514 379.396756 
L 230.280198 358.035396 
L 231.714882 379.396756 
L 236.018934 379.396756 
L 237.453618 355.904655 
L 238.888302 337.246483 
L 240.322986 379.396756 
L 241.75767 371.962529 
L 243.192354 365.90197 
L 244.627039 339.078597 
L 246.061723 337.027392 
L 247.496407 379.396756 
L 248.931091 368.874719 
L 250.365775 344.873834 
L 251.800459 379.396756 
L 253.235143 379.396756 
L 254.669827 336.189359 
L 257.539195 379.396756 
L 258.973879 353.091937 
L 260.408563 361.834451 
L 261.843247 337.344838 
L 263.277932 379.396756 
L 264.712616 367.011676 
L 266.1473 320.26202 
L 267.581984 329.542379 
L 269.016668 356.007625 
L 270.451352 332.063295 
L 271.886036 320.034511 
L 273.32072 346.384802 
L 274.755404 332.704229 
L 276.190088 340.061796 
L 277.624772 327.009303 
L 279.059456 320.31217 
L 280.494141 330.745733 
L 281.928825 344.293343 
L 283.363509 319.297389 
L 284.798193 311.481024 
L 286.232877 316.873988 
L 287.667561 316.937804 
L 289.102245 350.782258 
L 290.536929 313.086278 
L 291.971613 305.661577 
L 293.406297 313.770339 
L 294.840981 302.390708 
L 296.275665 299.638479 
L 297.71035 309.274689 
L 299.145034 311.96272 
L 300.579718 292.598678 
L 302.014402 296.181181 
L 303.449086 301.068497 
L 304.88377 296.901826 
L 306.318454 290.248348 
L 307.753138 279.395646 
L 309.187822 280.428505 
L 310.622506 294.915661 
L 312.05719 291.71455 
L 313.491874 286.54138 
L 314.926559 275.157425 
L 316.361243 269.36143 
L 317.795927 290.126784 
L 319.230611 282.57936 
L 320.665295 279.159818 
L 322.099979 281.797912 
L 323.534663 275.916988 
L 324.969347 277.982054 
L 326.404031 284.882169 
L 327.838715 289.030179 
L 329.273399 294.586328 
L 332.142767 379.396756 
L 336.44682 379.396756 
L 336.44682 379.396756 
" clip-path="url(#p747182d72b)" style="fill: none; stroke-dasharray: 3.7,1.6; stroke-dashoffset: 0; stroke: #ff7f0e; stroke-opacity: 0.6"/>
   </g>
   <g id="patch_11">
    <path d="M 50.944688 379.396756 
L 50.944688 30.809557 
" style="fill: none; stroke: #000000; stroke-width: 0.8; stroke-linejoin: miter; stroke-linecap: square"/>
   </g>
   <g id="patch_12">
    <path d="M 650.642634 379.396756 
L 650.642634 30.809557 
" style="fill: none; stroke: #000000; stroke-width: 0.8; stroke-linejoin: miter; stroke-linecap: square"/>
   </g>
   <g id="patch_13">
    <path d="M 50.944687 379.396756 
L 650.642634 379.396756 
" style="fill: none; stroke: #000000; stroke-width: 0.8; stroke-linejoin: miter; stroke-linecap: square"/>
   </g>
   <g id="patch_14">
    <path d="M 50.944687 30.809556 
L 650.642634 30.809556 
" style="fill: none; stroke: #000000; stroke-width: 0.8; stroke-linejoin: miter; stroke-linecap: square"/>
   </g>
   <g id="text_28">
    <!-- IV and dV/dI at $B = 0$ -->
    <g transform="translate(278.833661 17.837812) scale(0.14 -0.14)">
     <defs>
      <path id="DejaVuSans-Oblique-42" d="M 1081 4666 
L 2694 4666 
Q 3350 4666 3675 4422 
Q 4000 4178 4000 3688 
Q 4000 3238 3720 2911 
Q 3441 2584 2988 2516 
Q 3375 2428 3569 2181 
Q 3763 1934 3763 1522 
Q 3763 819 3242 409 
Q 2722 0 1819 0 
L 172 0 
L 1081 4666 
z
M 1234 2228 
L 903 519 
L 1919 519 
Q 2491 519 2800 781 
Q 3109 1044 3109 1522 
Q 3109 1891 2904 2059 
Q 2700 2228 2247 2228 
L 1234 2228 
z
M 1606 4147 
L 1331 2741 
L 2272 2741 
Q 2775 2741 3058 2959 
Q 3341 3178 3341 3566 
Q 3341 3869 3150 4008 
Q 2959 4147 2541 4147 
L 1606 4147 
z
" transform="scale(0.015625)"/>
      <path id="DejaVuSans-3d" d="M 678 2906 
L 4684 2906 
L 4684 2381 
L 678 2381 
L 678 2906 
z
M 678 1631 
L 4684 1631 
L 4684 1100 
L 678 1100 
L 678 1631 
z
" transform="scale(0.015625)"/>
     </defs>
     <use xlink:href="#DejaVuSans-49" transform="translate(0 0.015625)"/>
     <use xlink:href="#DejaVuSans-56" transform="translate(29.492188 0.015625)"/>
     <use xlink:href="#DejaVuSans-20" transform="translate(97.900391 0.015625)"/>
     <use xlink:href="#DejaVuSans-61" transform="translate(129.6875 0.015625)"/>
     <use xlink:href="#DejaVuSans-6e" transform="translate(190.966797 0.015625)"/>
     <use xlink:href="#DejaVuSans-64" transform="translate(254.345703 0.015625)"/>
     <use xlink:href="#DejaVuSans-20" transform="translate(317.822266 0.015625)"/>
     <use xlink:href="#DejaVuSans-64" transform="translate(349.609375 0.015625)"/>
     <use xlink:href="#DejaVuSans-56" transform="translate(413.085938 0.015625)"/>
     <use xlink:href="#DejaVuSans-2f" transform="translate(481.494141 0.015625)"/>
     <use xlink:href="#DejaVuSans-64" transform="translate(515.185547 0.015625)"/>
     <use xlink:href="#DejaVuSans-49" transform="translate(578.662109 0.015625)"/>
     <use xlink:href="#DejaVuSans-20" transform="translate(608.154297 0.015625)"/>
     <use xlink:href="#DejaVuSans-61" transform="translate(639.941406 0.015625)"/>
     <use xlink:href="#DejaVuSans-74" transform="translate(701.220703 0.015625)"/>
     <use xlink:href="#DejaVuSans-20" transform="translate(740.429688 0.015625)"/>
     <use xlink:href="#DejaVuSans-Oblique-42" transform="translate(772.216797 0.015625)"/>
     <use xlink:href="#DejaVuSans-3d" transform="translate(860.302734 0.015625)"/>
     <use xlink:href="#DejaVuSans-30" transform="translate(963.574219 0.015625)"/>
    </g>
   </g>
  </g>
 </g>
 <defs>
  <clipPath id="p747182d72b">
   <rect x="50.944688" y="30.809556" width="599.697946" height="348.5872"/>
  </clipPath>
 </defs>
</svg>
