<?xml version="1.0" encoding="utf-8" standalone="no"?>
<!DOCTYPE svg PUBLIC "-//W3C//DTD SVG 1.1//EN"
  "http://www.w3.org/Graphics/SVG/1.1/DTD/svg11.dtd">
<svg xmlns:xlink="http://www.w3.org/1999/xlink" width="564.783591pt" height="316.2675pt" viewBox="0 0 564.783591 316.2675" xmlns="http://www.w3.org/2000/svg" version="1.1">
 <metadata>
  <rdf:RDF xmlns:dc="http://purl.org/dc/elements/1.1/" xmlns:cc="http://creativecommons.org/ns#" xmlns:rdf="http://www.w3.org/1999/02/22-rdf-syntax-ns#">
   <cc:Work>
    <dc:type rdf:resource="http://purl.org/dc/dcmitype/StillImage"/>
    <dc:date>2025-08-05T04:59:01.539216</dc:date>
    <dc:format>image/svg+xml</dc:format>
    <dc:creator>
     <cc:Agent>
      <dc:title>Matplotlib v3.10.5, https://matplotlib.org/</dc:title>
     </cc:Agent>
    </dc:creator>
   </cc:Work>
  </rdf:RDF>
 </metadata>
 <defs>
  <style type="text/css">*{stroke-linejoin: round; stroke-linecap: butt}</style>
 </defs>
 <g id="figure_1">
  <g id="patch_1">
   <path d="M 0 316.2675 
L 564.783591 316.2675 
L 564.783591 0 
L 0 0 
z
" style="fill: #ffffff"/>
  </g>
  <g id="axes_1">
   <g id="patch_2">
    <path d="M 49.512812 274.84 
L 551.383591 274.84 
L 551.383591 7.2 
L 49.512812 7.2 
z
" style="fill: #ffffff"/>
   </g>
   <g id="patch_3">
    <path d="M 209.348052 50.057386 
Q 209.907179 49.510735 208.707541 50.683605 
" clip-path="url(#pd64035f26a)" style="fill: none; stroke: #000000; stroke-width: 2.2; stroke-linecap: round"/>
    <path d="M 201.042554 53.142869 
L 208.707541 50.683605 
L 206.07596 58.291153 
" clip-path="url(#pd64035f26a)" style="fill: none; stroke: #000000; stroke-width: 2.2; stroke-linecap: round"/>
   </g>
   <g id="patch_4">
    <path d="M 224.258092 50.057386 
Q 223.698966 49.510735 224.898603 50.683605 
" clip-path="url(#pd64035f26a)" style="fill: none; stroke: #000000; stroke-width: 2.2; stroke-linecap: round"/>
    <path d="M 227.530184 58.291153 
L 224.898603 50.683605 
L 232.56359 53.142869 
" clip-path="url(#pd64035f26a)" style="fill: none; stroke: #000000; stroke-width: 2.2; stroke-linecap: round"/>
   </g>
   <g id="matplotlib.axis_1">
    <g id="xtick_1">
     <g id="line2d_1">
      <defs>
       <path id="m9a4b0c2f60" d="M 0 0 
L 0 3.5 
" style="stroke: #000000; stroke-width: 0.8"/>
      </defs>
      <g>
       <use xlink:href="#m9a4b0c2f60" x="49.512812" y="274.84" style="stroke: #000000; stroke-width: 0.8"/>
      </g>
     </g>
     <g id="text_1">
      <!-- $0$ -->
      <g transform="translate(46.312812 289.438437) scale(0.1 -0.1)">
       <defs>
        <path id="DejaVuSans-30" d="M 2034 4250 
Q 1547 4250 1301 3770 
Q 1056 3291 1056 2328 
Q 1056 1369 1301 889 
Q 1547 409 2034 409 
Q 2525 409 2770 889 
Q 3016 1369 3016 2328 
Q 3016 3291 2770 3770 
Q 2525 4250 2034 4250 
z
M 2034 4750 
Q 2819 4750 3233 4129 
Q 3647 3509 3647 2328 
Q 3647 1150 3233 529 
Q 2819 -91 2034 -91 
Q 1250 -91 836 529 
Q 422 1150 422 2328 
Q 422 3509 836 4129 
Q 1250 4750 2034 4750 
z
" transform="scale(0.015625)"/>
       </defs>
       <use xlink:href="#DejaVuSans-30" transform="translate(0 0.78125)"/>
      </g>
     </g>
    </g>
    <g id="xtick_2">
     <g id="line2d_2">
      <g>
       <use xlink:href="#m9a4b0c2f60" x="216.803072" y="274.84" style="stroke: #000000; stroke-width: 0.8"/>
      </g>
     </g>
     <g id="text_2">
      <!-- $2\pi$ -->
      <g transform="translate(210.603072 289.438437) scale(0.1 -0.1)">
       <defs>
        <path id="DejaVuSans-32" d="M 1228 531 
L 3431 531 
L 3431 0 
L 469 0 
L 469 531 
Q 828 903 1448 1529 
Q 2069 2156 2228 2338 
Q 2531 2678 2651 2914 
Q 2772 3150 2772 3378 
Q 2772 3750 2511 3984 
Q 2250 4219 1831 4219 
Q 1534 4219 1204 4116 
Q 875 4013 500 3803 
L 500 4441 
Q 881 4594 1212 4672 
Q 1544 4750 1819 4750 
Q 2544 4750 2975 4387 
Q 3406 4025 3406 3419 
Q 3406 3131 3298 2873 
Q 3191 2616 2906 2266 
Q 2828 2175 2409 1742 
Q 1991 1309 1228 531 
z
" transform="scale(0.015625)"/>
        <path id="DejaVuSans-Oblique-3c0" d="M 584 3500 
L 3938 3500 
L 3825 2925 
L 3384 2925 
L 2966 775 
Q 2922 550 2981 450 
Q 3038 353 3209 353 
Q 3256 353 3325 363 
Q 3397 369 3419 372 
L 3338 -44 
Q 3222 -84 3103 -103 
Q 2981 -122 2866 -122 
Q 2491 -122 2388 81 
Q 2284 288 2391 838 
L 2797 2925 
L 1506 2925 
L 938 0 
L 350 0 
L 919 2925 
L 472 2925 
L 584 3500 
z
" transform="scale(0.015625)"/>
       </defs>
       <use xlink:href="#DejaVuSans-32" transform="translate(0 0.78125)"/>
       <use xlink:href="#DejaVuSans-Oblique-3c0" transform="translate(63.623047 0.78125)"/>
      </g>
     </g>
    </g>
    <g id="xtick_3">
     <g id="line2d_3">
      <g>
       <use xlink:href="#m9a4b0c2f60" x="384.093332" y="274.84" style="stroke: #000000; stroke-width: 0.8"/>
      </g>
     </g>
     <g id="text_3">
      <!-- $4\pi$ -->
      <g transform="translate(377.893332 289.438437) scale(0.1 -0.1)">
       <defs>
        <path id="DejaVuSans-34" d="M 2419 4116 
L 825 1625 
L 2419 1625 
L 2419 4116 
z
M 2253 4666 
L 3047 4666 
L 3047 1625 
L 3713 1625 
L 3713 1100 
L 3047 1100 
L 3047 0 
L 2419 0 
L 2419 1100 
L 313 1100 
L 313 1709 
L 2253 4666 
z
" transform="scale(0.015625)"/>
       </defs>
       <use xlink:href="#DejaVuSans-34" transform="translate(0 0.09375)"/>
       <use xlink:href="#DejaVuSans-Oblique-3c0" transform="translate(63.623047 0.09375)"/>
      </g>
     </g>
    </g>
    <g id="xtick_4">
     <g id="line2d_4">
      <g>
       <use xlink:href="#m9a4b0c2f60" x="551.383591" y="274.84" style="stroke: #000000; stroke-width: 0.8"/>
      </g>
     </g>
     <g id="text_4">
      <!-- $6\pi$ -->
      <g transform="translate(545.183591 289.438437) scale(0.1 -0.1)">
       <defs>
        <path id="DejaVuSans-36" d="M 2113 2584 
Q 1688 2584 1439 2293 
Q 1191 2003 1191 1497 
Q 1191 994 1439 701 
Q 1688 409 2113 409 
Q 2538 409 2786 701 
Q 3034 994 3034 1497 
Q 3034 2003 2786 2293 
Q 2538 2584 2113 2584 
z
M 3366 4563 
L 3366 3988 
Q 3128 4100 2886 4159 
Q 2644 4219 2406 4219 
Q 1781 4219 1451 3797 
Q 1122 3375 1075 2522 
Q 1259 2794 1537 2939 
Q 1816 3084 2150 3084 
Q 2853 3084 3261 2657 
Q 3669 2231 3669 1497 
Q 3669 778 3244 343 
Q 2819 -91 2113 -91 
Q 1303 -91 875 529 
Q 447 1150 447 2328 
Q 447 3434 972 4092 
Q 1497 4750 2381 4750 
Q 2619 4750 2861 4703 
Q 3103 4656 3366 4563 
z
" transform="scale(0.015625)"/>
       </defs>
       <use xlink:href="#DejaVuSans-36" transform="translate(0 0.78125)"/>
       <use xlink:href="#DejaVuSans-Oblique-3c0" transform="translate(63.623047 0.78125)"/>
      </g>
     </g>
    </g>
    <g id="text_5">
     <!-- $\varphi$ -->
     <g transform="translate(295.828202 306.1275) scale(0.14 -0.14)">
      <defs>
       <path id="DejaVuSans-Oblique-3c6" d="M 2969 3034 
Q 2766 3034 2675 2581 
L 2259 438 
Q 2553 438 2916 763 
Q 3244 1053 3375 1750 
Q 3497 2400 3300 2750 
Q 3138 3034 2969 3034 
z
M 3063 3525 
Q 3513 3525 3819 3113 
Q 4147 2672 3981 1750 
Q 3828 903 3291 400 
Q 2784 -75 2159 -75 
L 1916 -1331 
L 1344 -1331 
L 1588 -78 
Q 963 -78 641 400 
Q 309 888 475 1747 
Q 647 2641 1166 3097 
Q 1556 3438 2084 3525 
L 1984 3016 
Q 1766 2944 1538 2700 
Q 1194 2341 1081 1747 
Q 963 1116 1156 756 
Q 1334 434 1688 434 
L 2103 2581 
Q 2288 3525 3063 3525 
z
" transform="scale(0.015625)"/>
      </defs>
      <use xlink:href="#DejaVuSans-Oblique-3c6" transform="translate(0 0.921875)"/>
     </g>
    </g>
   </g>
   <g id="matplotlib.axis_2">
    <g id="ytick_1">
     <g id="line2d_5">
      <defs>
       <path id="m17614b7a85" d="M 0 0 
L -3.5 0 
" style="stroke: #000000; stroke-width: 0.8"/>
      </defs>
      <g>
       <use xlink:href="#m17614b7a85" x="49.512812" y="15.946405" style="stroke: #000000; stroke-width: 0.8"/>
      </g>
     </g>
     <g id="text_6">
      <!-- 2 -->
      <g transform="translate(36.150312 19.745624) scale(0.1 -0.1)">
       <use xlink:href="#DejaVuSans-32"/>
      </g>
     </g>
    </g>
    <g id="ytick_2">
     <g id="line2d_6">
      <g>
       <use xlink:href="#m17614b7a85" x="49.512812" y="50.932026" style="stroke: #000000; stroke-width: 0.8"/>
      </g>
     </g>
     <g id="text_7">
      <!-- 0 -->
      <g transform="translate(36.150312 54.731245) scale(0.1 -0.1)">
       <use xlink:href="#DejaVuSans-30"/>
      </g>
     </g>
    </g>
    <g id="ytick_3">
     <g id="line2d_7">
      <g>
       <use xlink:href="#m17614b7a85" x="49.512812" y="120.903268" style="stroke: #000000; stroke-width: 0.8"/>
      </g>
     </g>
     <g id="text_8">
      <!-- -4 -->
      <g transform="translate(32.5425 124.702487) scale(0.1 -0.1)">
       <defs>
        <path id="DejaVuSans-2d" d="M 313 2009 
L 1997 2009 
L 1997 1497 
L 313 1497 
L 313 2009 
z
" transform="scale(0.015625)"/>
       </defs>
       <use xlink:href="#DejaVuSans-2d"/>
       <use xlink:href="#DejaVuSans-34" transform="translate(36.083984 0)"/>
      </g>
     </g>
    </g>
    <g id="ytick_4">
     <g id="line2d_8">
      <g>
       <use xlink:href="#m17614b7a85" x="49.512812" y="190.87451" style="stroke: #000000; stroke-width: 0.8"/>
      </g>
     </g>
     <g id="text_9">
      <!-- -8 -->
      <g transform="translate(32.5425 194.673729) scale(0.1 -0.1)">
       <defs>
        <path id="DejaVuSans-38" d="M 2034 2216 
Q 1584 2216 1326 1975 
Q 1069 1734 1069 1313 
Q 1069 891 1326 650 
Q 1584 409 2034 409 
Q 2484 409 2743 651 
Q 3003 894 3003 1313 
Q 3003 1734 2745 1975 
Q 2488 2216 2034 2216 
z
M 1403 2484 
Q 997 2584 770 2862 
Q 544 3141 544 3541 
Q 544 4100 942 4425 
Q 1341 4750 2034 4750 
Q 2731 4750 3128 4425 
Q 3525 4100 3525 3541 
Q 3525 3141 3298 2862 
Q 3072 2584 2669 2484 
Q 3125 2378 3379 2068 
Q 3634 1759 3634 1313 
Q 3634 634 3220 271 
Q 2806 -91 2034 -91 
Q 1263 -91 848 271 
Q 434 634 434 1313 
Q 434 1759 690 2068 
Q 947 2378 1403 2484 
z
M 1172 3481 
Q 1172 3119 1398 2916 
Q 1625 2713 2034 2713 
Q 2441 2713 2670 2916 
Q 2900 3119 2900 3481 
Q 2900 3844 2670 4047 
Q 2441 4250 2034 4250 
Q 1625 4250 1398 4047 
Q 1172 3844 1172 3481 
z
" transform="scale(0.015625)"/>
       </defs>
       <use xlink:href="#DejaVuSans-2d"/>
       <use xlink:href="#DejaVuSans-38" transform="translate(36.083984 0)"/>
      </g>
     </g>
    </g>
    <g id="ytick_5">
     <g id="line2d_9">
      <g>
       <use xlink:href="#m17614b7a85" x="49.512812" y="260.845752" style="stroke: #000000; stroke-width: 0.8"/>
      </g>
     </g>
     <g id="text_10">
      <!-- -12 -->
      <g transform="translate(26.18 264.64497) scale(0.1 -0.1)">
       <defs>
        <path id="DejaVuSans-31" d="M 794 531 
L 1825 531 
L 1825 4091 
L 703 3866 
L 703 4441 
L 1819 4666 
L 2450 4666 
L 2450 531 
L 3481 531 
L 3481 0 
L 794 0 
L 794 531 
z
" transform="scale(0.015625)"/>
       </defs>
       <use xlink:href="#DejaVuSans-2d"/>
       <use xlink:href="#DejaVuSans-31" transform="translate(36.083984 0)"/>
       <use xlink:href="#DejaVuSans-32" transform="translate(99.707031 0)"/>
      </g>
     </g>
    </g>
    <g id="text_11">
     <!-- $U(\varphi)$ [$E_J$] -->
     <g transform="translate(17.84 170) rotate(-90) scale(0.14 -0.14)">
      <defs>
       <path id="DejaVuSans-Oblique-55" d="M 991 4666 
L 1625 4666 
L 1075 1831 
Q 1041 1641 1027 1517 
Q 1013 1394 1013 1300 
Q 1013 869 1253 645 
Q 1494 422 1959 422 
Q 2563 422 2898 753 
Q 3234 1084 3378 1831 
L 3928 4666 
L 4563 4666 
L 4000 1753 
Q 3816 809 3300 359 
Q 2784 -91 1888 -91 
Q 1188 -91 780 261 
Q 372 613 372 1216 
Q 372 1325 387 1461 
Q 403 1597 434 1753 
L 991 4666 
z
" transform="scale(0.015625)"/>
       <path id="DejaVuSans-28" d="M 1984 4856 
Q 1566 4138 1362 3434 
Q 1159 2731 1159 2009 
Q 1159 1288 1364 580 
Q 1569 -128 1984 -844 
L 1484 -844 
Q 1016 -109 783 600 
Q 550 1309 550 2009 
Q 550 2706 781 3412 
Q 1013 4119 1484 4856 
L 1984 4856 
z
" transform="scale(0.015625)"/>
       <path id="DejaVuSans-29" d="M 513 4856 
L 1013 4856 
Q 1481 4119 1714 3412 
Q 1947 2706 1947 2009 
Q 1947 1309 1714 600 
Q 1481 -109 1013 -844 
L 513 -844 
Q 928 -128 1133 580 
Q 1338 1288 1338 2009 
Q 1338 2731 1133 3434 
Q 928 4138 513 4856 
z
" transform="scale(0.015625)"/>
       <path id="DejaVuSans-20" transform="scale(0.015625)"/>
       <path id="DejaVuSans-5b" d="M 550 4863 
L 1875 4863 
L 1875 4416 
L 1125 4416 
L 1125 -397 
L 1875 -397 
L 1875 -844 
L 550 -844 
L 550 4863 
z
" transform="scale(0.015625)"/>
       <path id="DejaVuSans-Oblique-45" d="M 1081 4666 
L 4031 4666 
L 3928 4134 
L 1606 4134 
L 1338 2753 
L 3566 2753 
L 3463 2222 
L 1234 2222 
L 909 531 
L 3284 531 
L 3181 0 
L 172 0 
L 1081 4666 
z
" transform="scale(0.015625)"/>
       <path id="DejaVuSans-Oblique-4a" d="M 1069 4666 
L 1703 4666 
L 856 325 
Q 691 -522 298 -901 
Q -94 -1281 -800 -1281 
L -1050 -1281 
L -947 -750 
L -750 -750 
Q -328 -750 -109 -509 
Q 109 -269 225 325 
L 1069 4666 
z
" transform="scale(0.015625)"/>
       <path id="DejaVuSans-5d" d="M 1947 4863 
L 1947 -844 
L 622 -844 
L 622 -397 
L 1369 -397 
L 1369 4416 
L 622 4416 
L 622 4863 
L 1947 4863 
z
" transform="scale(0.015625)"/>
      </defs>
      <use xlink:href="#DejaVuSans-Oblique-55" transform="translate(0 0.015625)"/>
      <use xlink:href="#DejaVuSans-28" transform="translate(73.193359 0.015625)"/>
      <use xlink:href="#DejaVuSans-Oblique-3c6" transform="translate(112.207031 0.015625)"/>
      <use xlink:href="#DejaVuSans-29" transform="translate(178.173828 0.015625)"/>
      <use xlink:href="#DejaVuSans-20" transform="translate(217.1875 0.015625)"/>
      <use xlink:href="#DejaVuSans-5b" transform="translate(248.974609 0.015625)"/>
      <use xlink:href="#DejaVuSans-Oblique-45" transform="translate(287.988281 0.015625)"/>
      <use xlink:href="#DejaVuSans-Oblique-4a" transform="translate(351.171875 -16.390625) scale(0.7)"/>
      <use xlink:href="#DejaVuSans-5d" transform="translate(374.550781 0.015625)"/>
     </g>
    </g>
   </g>
   <g id="line2d_10">
    <path d="M 49.512812 50.932026 
L 52.527051 50.820046 
L 55.54129 50.485541 
L 58.555529 49.932792 
L 61.569768 49.168877 
L 65.08638 48.023945 
L 68.602992 46.624954 
L 72.119604 44.996273 
L 76.13859 42.890232 
L 80.659948 40.266605 
L 86.688426 36.47681 
L 103.26674 25.859992 
L 107.788098 23.304615 
L 111.807083 21.275823 
L 115.323695 19.726115 
L 118.840307 18.415283 
L 122.35692 17.366161 
L 125.371158 16.689196 
L 128.385397 16.226681 
L 131.399636 15.984536 
L 134.413875 15.965863 
L 137.428114 16.170901 
L 140.442353 16.597023 
L 143.456592 17.238776 
L 146.470831 18.087941 
L 149.987443 19.326137 
L 153.504055 20.810175 
L 157.52304 22.773909 
L 162.044399 25.270586 
L 167.06813 28.316922 
L 174.603727 33.191678 
L 184.148817 39.344504 
L 189.172549 42.328151 
L 193.693907 44.746463 
L 197.712892 46.624954 
L 201.229504 48.023945 
L 204.746116 49.168877 
L 207.760355 49.932792 
L 210.774594 50.485541 
L 213.788833 50.820046 
L 216.803072 50.932026 
L 219.817311 50.820046 
L 222.83155 50.485541 
L 225.845789 49.932792 
L 228.860028 49.168877 
L 232.37664 48.023945 
L 235.893252 46.624954 
L 239.409864 44.996273 
L 243.428849 42.890232 
L 247.950208 40.266605 
L 253.978685 36.47681 
L 270.556999 25.859992 
L 275.078358 23.304615 
L 279.097343 21.275823 
L 282.613955 19.726115 
L 286.130567 18.415283 
L 289.647179 17.366161 
L 292.661418 16.689196 
L 295.675657 16.226681 
L 298.689896 15.984536 
L 301.704135 15.965863 
L 304.718374 16.170901 
L 307.732613 16.597023 
L 310.746852 17.238776 
L 313.76109 18.087941 
L 317.277702 19.326137 
L 320.794315 20.810175 
L 324.8133 22.773909 
L 329.334658 25.270586 
L 334.35839 28.316922 
L 341.893987 33.191678 
L 351.439077 39.344504 
L 356.462808 42.328151 
L 360.984167 44.746463 
L 365.003152 46.624954 
L 368.519764 48.023945 
L 372.036376 49.168877 
L 375.050615 49.932792 
L 378.064854 50.485541 
L 381.079093 50.820046 
L 384.093332 50.932026 
L 387.107571 50.820046 
L 390.12181 50.485541 
L 393.136048 49.932792 
L 396.150287 49.168877 
L 399.666899 48.023945 
L 403.183511 46.624954 
L 406.700124 44.996273 
L 410.719109 42.890232 
L 415.240467 40.266605 
L 421.268945 36.47681 
L 437.847259 25.859992 
L 442.368617 23.304615 
L 446.387603 21.275823 
L 449.904215 19.726115 
L 453.420827 18.415283 
L 456.937439 17.366161 
L 459.951678 16.689196 
L 462.965917 16.226681 
L 465.980155 15.984536 
L 468.994394 15.965863 
L 472.008633 16.170901 
L 475.022872 16.597023 
L 478.037111 17.238776 
L 481.05135 18.087941 
L 484.567962 19.326137 
L 488.084574 20.810175 
L 492.103559 22.773909 
L 496.624918 25.270586 
L 501.648649 28.316922 
L 509.184247 33.191678 
L 518.729336 39.344504 
L 523.753068 42.328151 
L 528.274426 44.746463 
L 532.293412 46.624954 
L 535.810024 48.023945 
L 539.326636 49.168877 
L 542.340875 49.932792 
L 545.355113 50.485541 
L 548.369352 50.820046 
L 551.383591 50.932026 
L 551.383591 50.932026 
" clip-path="url(#pd64035f26a)" style="fill: none; stroke: #000000; stroke-width: 2; stroke-linecap: square"/>
   </g>
   <g id="line2d_11">
    <path d="M 49.512812 50.932026 
L 52.527051 51.315139 
L 55.54129 51.475726 
L 58.555529 51.41807 
L 61.569768 51.149248 
L 64.584007 50.679039 
L 68.100619 49.892557 
L 71.617231 48.872649 
L 75.636216 47.457078 
L 80.157575 45.602698 
L 85.683679 43.0657 
L 104.271486 34.264769 
L 108.792844 32.510731 
L 112.81183 31.20712 
L 116.328442 30.30069 
L 119.845054 29.640103 
L 122.859293 29.28603 
L 125.873532 29.139371 
L 128.887771 29.208341 
L 131.902009 29.498396 
L 134.916248 30.012162 
L 137.930487 30.749399 
L 140.944726 31.707007 
L 143.958965 32.879064 
L 147.475577 34.505795 
L 150.992189 36.394235 
L 154.508801 38.52155 
L 158.527786 41.210466 
L 163.049145 44.508482 
L 168.57525 48.827563 
L 180.632205 58.661119 
L 186.660683 63.396084 
L 191.684415 67.059746 
L 195.7034 69.732665 
L 199.722385 72.12628 
L 203.238997 73.960412 
L 206.755609 75.528522 
L 209.769848 76.647674 
L 212.784087 77.550635 
L 215.798326 78.232184 
L 218.812565 78.689932 
L 221.826804 78.924358 
L 224.841043 78.9388 
L 227.855281 78.739411 
L 230.86952 78.335083 
L 234.386132 77.619847 
L 237.902744 76.663962 
L 241.92173 75.31129 
L 245.940715 73.72509 
L 250.964446 71.492179 
L 258.500044 67.848155 
L 267.54276 63.501233 
L 272.566492 61.329667 
L 276.585477 59.811184 
L 280.604462 58.541157 
L 284.121074 57.66836 
L 287.637687 57.044759 
L 290.651925 56.72457 
L 293.666164 56.613352 
L 296.680403 56.718866 
L 299.694642 57.046101 
L 302.708881 57.597206 
L 305.72312 58.371464 
L 308.737359 59.3653 
L 311.751598 60.572329 
L 315.26821 62.237676 
L 318.784822 64.161741 
L 322.803807 66.647191 
L 326.822792 69.398276 
L 331.344151 72.751354 
L 337.372629 77.520584 
L 354.453316 91.25371 
L 358.974674 94.537389 
L 362.993659 97.210307 
L 367.012645 99.603922 
L 370.529257 101.438054 
L 374.045869 103.006164 
L 377.060108 104.125316 
L 380.074346 105.028278 
L 383.088585 105.709826 
L 386.102824 106.167574 
L 389.117063 106.402001 
L 392.131302 106.416443 
L 395.145541 106.217054 
L 398.15978 105.812725 
L 401.676392 105.097489 
L 405.193004 104.141604 
L 409.211989 102.788933 
L 413.230975 101.202733 
L 418.254706 98.969821 
L 425.790303 95.325797 
L 434.83302 90.978875 
L 439.856752 88.807309 
L 443.875737 87.288827 
L 447.894722 86.0188 
L 451.411334 85.146003 
L 454.927946 84.522402 
L 457.942185 84.202213 
L 460.956424 84.090994 
L 463.970663 84.196509 
L 466.984902 84.523744 
L 469.999141 85.074849 
L 473.01338 85.849106 
L 476.027619 86.842943 
L 479.041857 88.049972 
L 482.558469 89.715318 
L 486.075082 91.639383 
L 490.094067 94.124833 
L 494.113052 96.875918 
L 498.63441 100.228996 
L 504.662888 104.998226 
L 521.743575 118.731352 
L 526.264934 122.015031 
L 530.283919 124.687949 
L 534.302904 127.081565 
L 537.819516 128.915696 
L 541.336128 130.483807 
L 544.350367 131.602959 
L 547.364606 132.50592 
L 550.378845 133.187468 
L 551.383591 133.364953 
L 551.383591 133.364953 
" clip-path="url(#pd64035f26a)" style="fill: none; stroke-dasharray: 7.4,3.2; stroke-dashoffset: 0; stroke: #000000; stroke-width: 2"/>
   </g>
   <g id="line2d_12">
    <path d="M 49.512812 50.932026 
L 52.527051 51.612195 
L 55.54129 52.069837 
L 58.555529 52.309237 
L 61.569768 52.33747 
L 64.584007 52.164317 
L 68.100619 51.7244 
L 71.617231 51.051057 
L 75.636216 50.03156 
L 80.157575 48.622763 
L 85.683679 46.630367 
L 104.271486 39.661279 
L 108.290471 38.484301 
L 112.309456 37.54388 
L 115.826069 36.95091 
L 119.342681 36.600343 
L 122.35692 36.509744 
L 125.371158 36.624927 
L 128.385397 36.95456 
L 131.399636 37.504564 
L 134.413875 38.278039 
L 137.428114 39.275225 
L 140.442353 40.493496 
L 143.456592 41.927396 
L 146.973204 43.861702 
L 150.489816 46.060615 
L 154.508801 48.868987 
L 158.527786 51.953976 
L 163.049145 55.697576 
L 168.57525 60.561259 
L 189.172549 79.031019 
L 193.693907 82.637554 
L 197.712892 85.572243 
L 201.229504 87.895407 
L 204.746116 89.964512 
L 208.262729 91.759614 
L 211.276967 93.068554 
L 214.291206 94.158341 
L 217.305445 95.025165 
L 220.319684 95.668069 
L 223.333923 96.088964 
L 226.348162 96.292603 
L 229.362401 96.286522 
L 232.37664 96.080939 
L 235.893252 95.60612 
L 239.409864 94.901613 
L 243.428849 93.851769 
L 247.950208 92.416365 
L 253.476312 90.403329 
L 270.556999 83.950864 
L 275.078358 82.583709 
L 279.097343 81.611114 
L 282.613955 80.98558 
L 286.130567 80.598921 
L 289.144806 80.475054 
L 292.159045 80.555266 
L 295.173284 80.848671 
L 298.187523 81.361654 
L 301.201762 82.09779 
L 304.216001 83.057796 
L 307.230239 84.239522 
L 310.244478 85.637981 
L 313.76109 87.532938 
L 317.277702 89.695306 
L 320.794315 92.103517 
L 324.8133 95.123449 
L 329.334658 98.808348 
L 334.860763 103.623444 
L 343.401106 111.416086 
L 351.94145 119.132994 
L 357.467555 123.821378 
L 361.988913 127.361338 
L 366.007898 130.224814 
L 369.52451 132.47769 
L 373.041122 134.470341 
L 376.557734 136.184154 
L 379.571973 137.420641 
L 382.586212 138.43639 
L 385.600451 139.228539 
L 388.61469 139.797086 
L 391.628929 140.144896 
L 394.643168 140.277656 
L 397.657407 140.203809 
L 401.174019 139.871458 
L 404.690631 139.294974 
L 408.207243 138.500497 
L 412.226228 137.364152 
L 416.747587 135.854566 
L 422.776064 133.591682 
L 435.837766 128.597327 
L 440.359125 127.123765 
L 444.37811 126.02981 
L 447.894722 125.279647 
L 451.411334 124.753415 
L 454.927946 124.476379 
L 457.942185 124.453246 
L 460.956424 124.639083 
L 463.970663 125.041653 
L 466.984902 125.665944 
L 469.999141 126.514104 
L 473.01338 127.585417 
L 476.027619 128.876309 
L 479.544231 130.651201 
L 483.060843 132.701341 
L 486.577455 135.007116 
L 490.59644 137.924248 
L 495.117798 141.514459 
L 500.14153 145.805013 
L 507.174754 152.14803 
L 519.734083 163.53665 
L 524.757814 167.785606 
L 529.279173 171.325566 
L 533.298158 174.189042 
L 536.81477 176.441918 
L 540.331382 178.434569 
L 543.847994 180.148382 
L 546.862233 181.384869 
L 549.876472 182.400618 
L 551.383591 182.82471 
L 551.383591 182.82471 
" clip-path="url(#pd64035f26a)" style="fill: none; stroke-dasharray: 12.8,3.2,2,3.2; stroke-dashoffset: 0; stroke: #000000; stroke-width: 2"/>
   </g>
   <g id="line2d_13">
    <path d="M 49.512812 50.932026 
L 52.527051 52.107287 
L 55.54129 53.060023 
L 58.555529 53.794515 
L 61.569768 54.317841 
L 64.584007 54.639781 
L 68.100619 54.777472 
L 71.617231 54.681736 
L 75.636216 54.322363 
L 79.655202 53.741777 
L 84.678933 52.784929 
L 92.716904 50.982406 
L 100.252501 49.358086 
L 105.276232 48.506767 
L 109.295218 48.044482 
L 112.81183 47.842234 
L 116.328442 47.859977 
L 119.845054 48.123562 
L 122.859293 48.561638 
L 125.873532 49.207126 
L 128.887771 50.068245 
L 131.902009 51.150448 
L 134.916248 52.456362 
L 137.930487 53.985747 
L 140.944726 55.735503 
L 144.461338 58.047357 
L 147.97795 60.636876 
L 151.494562 63.485114 
L 155.513548 67.026762 
L 160.034906 71.326323 
L 165.058637 76.414561 
L 172.091862 83.892878 
L 185.655937 98.406986 
L 191.182041 103.939178 
L 195.7034 108.151855 
L 199.722385 111.601668 
L 203.238997 114.359972 
L 206.755609 116.852256 
L 210.272221 119.061263 
L 213.788833 120.974676 
L 216.803072 122.373896 
L 219.817311 123.549158 
L 222.83155 124.501893 
L 225.845789 125.236385 
L 228.860028 125.759711 
L 231.874267 126.081651 
L 235.390879 126.219342 
L 238.907491 126.123607 
L 242.926476 125.764233 
L 246.945461 125.183648 
L 251.969193 124.226799 
L 260.007163 122.424276 
L 267.54276 120.799956 
L 272.566492 119.948637 
L 276.585477 119.486353 
L 280.102089 119.284104 
L 283.618701 119.301847 
L 287.135313 119.565433 
L 290.149552 120.003508 
L 293.163791 120.648997 
L 296.17803 121.510115 
L 299.192269 122.592318 
L 302.206508 123.898232 
L 305.220747 125.427617 
L 308.234986 127.177374 
L 311.751598 129.489227 
L 315.26821 132.078747 
L 318.784822 134.926984 
L 322.803807 138.468632 
L 327.325166 142.768193 
L 332.348897 147.856431 
L 339.382121 155.334749 
L 352.946196 169.848856 
L 358.472301 175.381048 
L 362.993659 179.593725 
L 367.012645 183.043538 
L 370.529257 185.801843 
L 374.045869 188.294126 
L 377.562481 190.503133 
L 381.079093 192.416546 
L 384.093332 193.815767 
L 387.107571 194.991028 
L 390.12181 195.943763 
L 393.136048 196.678255 
L 396.150287 197.201581 
L 399.164526 197.523521 
L 402.681138 197.661212 
L 406.19775 197.565477 
L 410.216736 197.206103 
L 414.235721 196.625518 
L 419.259452 195.66867 
L 427.297423 193.866147 
L 434.83302 192.241827 
L 439.856752 191.390508 
L 443.875737 190.928223 
L 447.392349 190.725974 
L 450.908961 190.743717 
L 454.425573 191.007303 
L 457.439812 191.445378 
L 460.454051 192.090867 
L 463.46829 192.951985 
L 466.482529 194.034189 
L 469.496768 195.340103 
L 472.511006 196.869488 
L 475.525245 198.619244 
L 479.041857 200.931097 
L 482.558469 203.520617 
L 486.075082 206.368855 
L 490.094067 209.910502 
L 494.615425 214.210063 
L 499.639157 219.298302 
L 506.672381 226.776619 
L 520.236456 241.290726 
L 525.762561 246.822918 
L 530.283919 251.035595 
L 534.302904 254.485408 
L 537.819516 257.243713 
L 541.336128 259.735996 
L 544.85274 261.945004 
L 548.369352 263.858416 
L 551.383591 265.257637 
L 551.383591 265.257637 
" clip-path="url(#pd64035f26a)" style="fill: none; stroke-dasharray: 2,3.3; stroke-dashoffset: 0; stroke: #000000; stroke-width: 2"/>
   </g>
   <g id="line2d_14">
    <defs>
     <path id="m91a23b4580" d="M 0 3 
C 0.795609 3 1.55874 2.683901 2.12132 2.12132 
C 2.683901 1.55874 3 0.795609 3 0 
C 3 -0.795609 2.683901 -1.55874 2.12132 -2.12132 
C 1.55874 -2.683901 0.795609 -3 0 -3 
C -0.795609 -3 -1.55874 -2.683901 -2.12132 -2.12132 
C -2.683901 -1.55874 -3 -0.795609 -3 0 
C -3 0.795609 -2.683901 1.55874 -2.12132 2.12132 
C -1.55874 2.683901 -0.795609 3 0 3 
z
" style="stroke: #808080"/>
    </defs>
    <g clip-path="url(#pd64035f26a)">
     <use xlink:href="#m91a23b4580" x="216.803072" y="50.932026" style="fill: #808080; stroke: #808080"/>
    </g>
   </g>
   <g id="line2d_15">
    <g clip-path="url(#pd64035f26a)">
     <use xlink:href="#m91a23b4580" x="384.093332" y="50.932026" style="fill: #808080; stroke: #808080"/>
    </g>
   </g>
   <g id="line2d_16">
    <g clip-path="url(#pd64035f26a)">
     <use xlink:href="#m91a23b4580" x="551.383591" y="50.932026" style="fill: #808080; stroke: #808080"/>
    </g>
   </g>
   <g id="line2d_17">
    <g clip-path="url(#pd64035f26a)">
     <use xlink:href="#m91a23b4580" x="223.530702" y="78.959221" style="fill: #808080; stroke: #808080"/>
    </g>
   </g>
   <g id="line2d_18">
    <g clip-path="url(#pd64035f26a)">
     <use xlink:href="#m91a23b4580" x="390.820962" y="106.436863" style="fill: #808080; stroke: #808080"/>
    </g>
   </g>
   <g id="line2d_19">
    <g clip-path="url(#pd64035f26a)">
     <use xlink:href="#m91a23b4580" x="227.759738" y="96.315304" style="fill: #808080; stroke: #808080"/>
    </g>
   </g>
   <g id="line2d_20">
    <g clip-path="url(#pd64035f26a)">
     <use xlink:href="#m91a23b4580" x="395.049997" y="140.279531" style="fill: #808080; stroke: #808080"/>
    </g>
   </g>
   <g id="line2d_21">
    <g clip-path="url(#pd64035f26a)">
     <use xlink:href="#m91a23b4580" x="235.642558" y="126.219937" style="fill: #808080; stroke: #808080"/>
    </g>
   </g>
   <g id="line2d_22">
    <g clip-path="url(#pd64035f26a)">
     <use xlink:href="#m91a23b4580" x="402.932818" y="197.661808" style="fill: #808080; stroke: #808080"/>
    </g>
   </g>
   <g id="line2d_23">
    <path d="M 224.258092 50.932026 
L 224.242775 50.918548 
L 224.196887 50.87817 
L 224.120615 50.811058 
L 224.014275 50.717487 
L 223.878302 50.597842 
L 223.713255 50.452614 
L 223.519813 50.282401 
L 223.298771 50.087902 
L 223.051036 49.869916 
L 222.777627 49.629338 
L 222.479667 49.367158 
L 222.158381 49.084453 
L 221.815089 48.782384 
L 221.451201 48.462193 
L 221.068213 48.125195 
L 220.667699 47.772776 
L 220.251304 47.406383 
L 219.82074 47.027522 
L 219.377776 46.637749 
L 218.924231 46.238667 
L 218.46197 45.831916 
L 217.992893 45.419166 
L 217.518926 45.002114 
L 217.042017 44.582474 
L 216.564127 44.16197 
L 216.087219 43.74233 
L 215.613252 43.325278 
L 215.144174 42.912529 
L 214.681913 42.505777 
L 214.228369 42.106695 
L 213.785404 41.716923 
L 213.35484 41.338062 
L 212.938445 40.971669 
L 212.537931 40.619249 
L 212.154943 40.282251 
L 211.791055 39.96206 
L 211.447763 39.659991 
L 211.126477 39.377286 
L 210.828517 39.115106 
L 210.555108 38.874529 
L 210.307374 38.656542 
L 210.086331 38.462043 
L 209.892889 38.29183 
L 209.727842 38.146603 
L 209.591869 38.026958 
L 209.485529 37.933387 
L 209.409258 37.866274 
L 209.363369 37.825896 
L 209.348052 37.812418 
" clip-path="url(#pd64035f26a)" style="fill: none; stroke: #000000; stroke-opacity: 0.8; stroke-width: 2; stroke-linecap: square"/>
   </g>
   <g id="line2d_24">
    <path d="M 209.348052 50.932026 
L 209.348052 48.308105 
" clip-path="url(#pd64035f26a)" style="fill: none; stroke: #000000; stroke-opacity: 0.7; stroke-width: 1.5; stroke-linecap: square"/>
   </g>
   <g id="line2d_25">
    <path d="M 224.258092 50.932026 
L 224.258092 48.308105 
" clip-path="url(#pd64035f26a)" style="fill: none; stroke: #000000; stroke-opacity: 0.7; stroke-width: 1.5; stroke-linecap: square"/>
   </g>
   <g id="patch_5">
    <path d="M 49.512812 274.84 
L 49.512812 7.2 
" style="fill: none; stroke: #000000; stroke-width: 0.8; stroke-linejoin: miter; stroke-linecap: square"/>
   </g>
   <g id="patch_6">
    <path d="M 49.512812 274.84 
L 551.383591 274.84 
" style="fill: none; stroke: #000000; stroke-width: 0.8; stroke-linejoin: miter; stroke-linecap: square"/>
   </g>
   <g id="text_12">
    <!-- $j = 0.0$ -->
    <g transform="translate(407.315897 28.191373) scale(0.12 -0.12)">
     <defs>
      <path id="DejaVuSans-Oblique-6a" d="M 928 3500 
L 1503 3500 
L 813 -63 
L 809 -78 
Q 694 -675 544 -897 
Q 403 -1106 132 -1218 
Q -138 -1331 -506 -1331 
L -722 -1331 
L -628 -844 
L -481 -844 
Q -144 -844 -1 -703 
Q 141 -563 238 -63 
L 928 3500 
z
M 1197 4863 
L 1772 4863 
L 1631 4134 
L 1056 4134 
L 1197 4863 
z
" transform="scale(0.015625)"/>
      <path id="DejaVuSans-3d" d="M 678 2906 
L 4684 2906 
L 4684 2381 
L 678 2381 
L 678 2906 
z
M 678 1631 
L 4684 1631 
L 4684 1100 
L 678 1100 
L 678 1631 
z
" transform="scale(0.015625)"/>
      <path id="DejaVuSans-2e" d="M 684 794 
L 1344 794 
L 1344 0 
L 684 0 
L 684 794 
z
" transform="scale(0.015625)"/>
     </defs>
     <use xlink:href="#DejaVuSans-Oblique-6a" transform="translate(0 0.015625)"/>
     <use xlink:href="#DejaVuSans-3d" transform="translate(47.265625 0.015625)"/>
     <use xlink:href="#DejaVuSans-30" transform="translate(150.537109 0.015625)"/>
     <use xlink:href="#DejaVuSans-2e" transform="translate(214.160156 0.015625)"/>
     <use xlink:href="#DejaVuSans-30" transform="translate(245.947266 0.015625)"/>
    </g>
   </g>
   <g id="text_13">
    <!-- $j = 0.5$ -->
    <g transform="translate(415.68041 85.984374) scale(0.12 -0.12)">
     <defs>
      <path id="DejaVuSans-35" d="M 691 4666 
L 3169 4666 
L 3169 4134 
L 1269 4134 
L 1269 2991 
Q 1406 3038 1543 3061 
Q 1681 3084 1819 3084 
Q 2600 3084 3056 2656 
Q 3513 2228 3513 1497 
Q 3513 744 3044 326 
Q 2575 -91 1722 -91 
Q 1428 -91 1123 -41 
Q 819 9 494 109 
L 494 744 
Q 775 591 1075 516 
Q 1375 441 1709 441 
Q 2250 441 2565 725 
Q 2881 1009 2881 1497 
Q 2881 1984 2565 2268 
Q 2250 2553 1709 2553 
Q 1456 2553 1204 2497 
Q 953 2441 691 2322 
L 691 4666 
z
" transform="scale(0.015625)"/>
     </defs>
     <use xlink:href="#DejaVuSans-Oblique-6a" transform="translate(0 0.015625)"/>
     <use xlink:href="#DejaVuSans-3d" transform="translate(47.265625 0.015625)"/>
     <use xlink:href="#DejaVuSans-30" transform="translate(150.537109 0.015625)"/>
     <use xlink:href="#DejaVuSans-2e" transform="translate(214.160156 0.015625)"/>
     <use xlink:href="#DejaVuSans-35" transform="translate(245.947266 0.015625)"/>
    </g>
   </g>
   <g id="text_14">
    <!-- $j = 0.8$ -->
    <g transform="translate(424.224923 121.225292) scale(0.12 -0.12)">
     <use xlink:href="#DejaVuSans-Oblique-6a" transform="translate(0 0.015625)"/>
     <use xlink:href="#DejaVuSans-3d" transform="translate(47.265625 0.015625)"/>
     <use xlink:href="#DejaVuSans-30" transform="translate(150.537109 0.015625)"/>
     <use xlink:href="#DejaVuSans-2e" transform="translate(214.160156 0.015625)"/>
     <use xlink:href="#DejaVuSans-38" transform="translate(243.322266 0.015625)"/>
    </g>
   </g>
   <g id="text_15">
    <!-- $j = 1.3$ -->
    <g transform="translate(298.577228 128.346384) scale(0.12 -0.12)">
     <defs>
      <path id="DejaVuSans-33" d="M 2597 2516 
Q 3050 2419 3304 2112 
Q 3559 1806 3559 1356 
Q 3559 666 3084 287 
Q 2609 -91 1734 -91 
Q 1441 -91 1130 -33 
Q 819 25 488 141 
L 488 750 
Q 750 597 1062 519 
Q 1375 441 1716 441 
Q 2309 441 2620 675 
Q 2931 909 2931 1356 
Q 2931 1769 2642 2001 
Q 2353 2234 1838 2234 
L 1294 2234 
L 1294 2753 
L 1863 2753 
Q 2328 2753 2575 2939 
Q 2822 3125 2822 3475 
Q 2822 3834 2567 4026 
Q 2313 4219 1838 4219 
Q 1578 4219 1281 4162 
Q 984 4106 628 3988 
L 628 4550 
Q 988 4650 1302 4700 
Q 1616 4750 1894 4750 
Q 2613 4750 3031 4423 
Q 3450 4097 3450 3541 
Q 3450 3153 3228 2886 
Q 3006 2619 2597 2516 
z
" transform="scale(0.015625)"/>
     </defs>
     <use xlink:href="#DejaVuSans-Oblique-6a" transform="translate(0 0.015625)"/>
     <use xlink:href="#DejaVuSans-3d" transform="translate(47.265625 0.015625)"/>
     <use xlink:href="#DejaVuSans-31" transform="translate(150.537109 0.015625)"/>
     <use xlink:href="#DejaVuSans-2e" transform="translate(214.160156 0.015625)"/>
     <use xlink:href="#DejaVuSans-33" transform="translate(245.947266 0.015625)"/>
    </g>
   </g>
   <g id="text_16">
    <g id="patch_7">
     <path d="M 207.633072 35.015294 
L 225.973072 35.015294 
Q 230.173072 35.015294 230.173072 30.815294 
L 230.173072 17.265919 
Q 230.173072 13.065919 225.973072 13.065919 
L 207.633072 13.065919 
Q 203.433072 13.065919 203.433072 17.265919 
L 203.433072 30.815294 
Q 203.433072 35.015294 207.633072 35.015294 
z
" style="fill: #ffffff; opacity: 0.8"/>
    </g>
    <!-- $\omega_p$ -->
    <g transform="translate(207.633072 26.475294) scale(0.14 -0.14)">
     <defs>
      <path id="DejaVuSans-Oblique-3c9" d="M 1369 -91 
Q 72 -91 434 1766 
Q 575 2500 1256 3500 
L 1875 3500 
Q 1231 2500 1088 1750 
Q 819 397 1519 397 
Q 2166 397 2478 2078 
L 3009 2078 
Q 2669 388 3316 397 
Q 4013 403 4275 1750 
Q 4419 2500 4169 3500 
L 4788 3500 
Q 5075 2500 4934 1766 
Q 4578 -94 3278 -91 
Q 2428 -88 2503 844 
Q 2194 -91 1369 -91 
z
" transform="scale(0.015625)"/>
      <path id="DejaVuSans-Oblique-70" d="M 3175 2156 
Q 3175 2616 2975 2859 
Q 2775 3103 2400 3103 
Q 2144 3103 1911 2972 
Q 1678 2841 1497 2591 
Q 1319 2344 1212 1994 
Q 1106 1644 1106 1300 
Q 1106 863 1306 627 
Q 1506 391 1875 391 
Q 2147 391 2380 519 
Q 2613 647 2778 891 
Q 2956 1147 3065 1494 
Q 3175 1841 3175 2156 
z
M 1394 2969 
Q 1625 3272 1939 3428 
Q 2253 3584 2638 3584 
Q 3175 3584 3472 3232 
Q 3769 2881 3769 2247 
Q 3769 1728 3584 1258 
Q 3400 788 3053 416 
Q 2822 169 2531 39 
Q 2241 -91 1919 -91 
Q 1547 -91 1294 64 
Q 1041 219 916 525 
L 556 -1331 
L -19 -1331 
L 922 3500 
L 1497 3500 
L 1394 2969 
z
" transform="scale(0.015625)"/>
     </defs>
     <use xlink:href="#DejaVuSans-Oblique-3c9" transform="translate(0 0.3125)"/>
     <use xlink:href="#DejaVuSans-Oblique-70" transform="translate(83.740234 -16.09375) scale(0.7)"/>
    </g>
   </g>
   <g id="patch_8">
    <path d="M 223.530702 75.282713 
Q 223.530702 67.78747 223.530702 60.292227 
" style="fill: none; stroke: #000000; stroke-width: 1.5; stroke-linecap: round"/>
    <path d="M 225.530702 71.282713 
L 223.530702 75.282713 
L 221.530702 71.282713 
" style="fill: none; stroke: #000000; stroke-width: 1.5; stroke-linecap: round"/>
    <path d="M 221.530702 64.292227 
L 223.530702 60.292227 
L 225.530702 64.292227 
" style="fill: none; stroke: #000000; stroke-width: 1.5; stroke-linecap: round"/>
   </g>
   <g id="text_17">
    <!-- $U_0$ -->
    <g transform="translate(231.518224 71.097519) scale(0.12 -0.12)">
     <use xlink:href="#DejaVuSans-Oblique-55" transform="translate(0 0.09375)"/>
     <use xlink:href="#DejaVuSans-30" transform="translate(73.193359 -16.3125) scale(0.7)"/>
    </g>
   </g>
  </g>
 </g>
 <defs>
  <clipPath id="pd64035f26a">
   <rect x="49.512812" y="7.2" width="501.870779" height="267.64"/>
  </clipPath>
 </defs>
</svg>
