<?xml version="1.0" encoding="utf-8" standalone="no"?>
<!DOCTYPE svg PUBLIC "-//W3C//DTD SVG 1.1//EN"
  "http://www.w3.org/Graphics/SVG/1.1/DTD/svg11.dtd">
<svg xmlns:xlink="http://www.w3.org/1999/xlink" width="564.783591pt" height="313.757657pt" viewBox="0 0 564.783591 313.757657" xmlns="http://www.w3.org/2000/svg" version="1.1">
 <metadata>
  <rdf:RDF xmlns:dc="http://purl.org/dc/elements/1.1/" xmlns:cc="http://creativecommons.org/ns#" xmlns:rdf="http://www.w3.org/1999/02/22-rdf-syntax-ns#">
   <cc:Work>
    <dc:type rdf:resource="http://purl.org/dc/dcmitype/StillImage"/>
    <dc:date>2025-08-05T04:05:42.383324</dc:date>
    <dc:format>image/svg+xml</dc:format>
    <dc:creator>
     <cc:Agent>
      <dc:title>Matplotlib v3.10.5, https://matplotlib.org/</dc:title>
     </cc:Agent>
    </dc:creator>
   </cc:Work>
  </rdf:RDF>
 </metadata>
 <defs>
  <style type="text/css">*{stroke-linejoin: round; stroke-linecap: butt}</style>
 </defs>
 <g id="figure_1">
  <g id="patch_1">
   <path d="M 0 313.757657 
L 564.783591 313.757657 
L 564.783591 0 
L 0 0 
z
" style="fill: #ffffff"/>
  </g>
  <g id="axes_1">
   <g id="patch_2">
    <path d="M 49.512812 306.557657 
L 551.383591 306.557657 
L 551.383591 12.113657 
L 49.512812 12.113657 
z
" style="fill: #ffffff"/>
   </g>
   <g id="matplotlib.axis_1">
    <g id="xtick_1">
     <g id="line2d_1">
      <defs>
       <path id="mda0f6aabe8" d="M 0 0 
L 0 3.5 
" style="stroke: #000000; stroke-width: 0.8"/>
      </defs>
      <g>
       <use xlink:href="#mda0f6aabe8" x="49.512812" y="43.661229" style="stroke: #000000; stroke-width: 0.8"/>
      </g>
     </g>
     <g id="text_1">
      <!-- $0$ -->
      <g transform="translate(46.312812 58.259666) scale(0.1 -0.1)">
       <defs>
        <path id="DejaVuSans-30" d="M 2034 4250 
Q 1547 4250 1301 3770 
Q 1056 3291 1056 2328 
Q 1056 1369 1301 889 
Q 1547 409 2034 409 
Q 2525 409 2770 889 
Q 3016 1369 3016 2328 
Q 3016 3291 2770 3770 
Q 2525 4250 2034 4250 
z
M 2034 4750 
Q 2819 4750 3233 4129 
Q 3647 3509 3647 2328 
Q 3647 1150 3233 529 
Q 2819 -91 2034 -91 
Q 1250 -91 836 529 
Q 422 1150 422 2328 
Q 422 3509 836 4129 
Q 1250 4750 2034 4750 
z
" transform="scale(0.015625)"/>
       </defs>
       <use xlink:href="#DejaVuSans-30" transform="translate(0 0.78125)"/>
      </g>
     </g>
    </g>
    <g id="xtick_2">
     <g id="line2d_2">
      <g>
       <use xlink:href="#mda0f6aabe8" x="216.803072" y="43.661229" style="stroke: #000000; stroke-width: 0.8"/>
      </g>
     </g>
     <g id="text_2">
      <!-- $2\pi$ -->
      <g transform="translate(210.603072 58.259666) scale(0.1 -0.1)">
       <defs>
        <path id="DejaVuSans-32" d="M 1228 531 
L 3431 531 
L 3431 0 
L 469 0 
L 469 531 
Q 828 903 1448 1529 
Q 2069 2156 2228 2338 
Q 2531 2678 2651 2914 
Q 2772 3150 2772 3378 
Q 2772 3750 2511 3984 
Q 2250 4219 1831 4219 
Q 1534 4219 1204 4116 
Q 875 4013 500 3803 
L 500 4441 
Q 881 4594 1212 4672 
Q 1544 4750 1819 4750 
Q 2544 4750 2975 4387 
Q 3406 4025 3406 3419 
Q 3406 3131 3298 2873 
Q 3191 2616 2906 2266 
Q 2828 2175 2409 1742 
Q 1991 1309 1228 531 
z
" transform="scale(0.015625)"/>
        <path id="DejaVuSans-Oblique-3c0" d="M 584 3500 
L 3938 3500 
L 3825 2925 
L 3384 2925 
L 2966 775 
Q 2922 550 2981 450 
Q 3038 353 3209 353 
Q 3256 353 3325 363 
Q 3397 369 3419 372 
L 3338 -44 
Q 3222 -84 3103 -103 
Q 2981 -122 2866 -122 
Q 2491 -122 2388 81 
Q 2284 288 2391 838 
L 2797 2925 
L 1506 2925 
L 938 0 
L 350 0 
L 919 2925 
L 472 2925 
L 584 3500 
z
" transform="scale(0.015625)"/>
       </defs>
       <use xlink:href="#DejaVuSans-32" transform="translate(0 0.78125)"/>
       <use xlink:href="#DejaVuSans-Oblique-3c0" transform="translate(63.623047 0.78125)"/>
      </g>
     </g>
    </g>
    <g id="xtick_3">
     <g id="line2d_3">
      <g>
       <use xlink:href="#mda0f6aabe8" x="384.093332" y="43.661229" style="stroke: #000000; stroke-width: 0.8"/>
      </g>
     </g>
     <g id="text_3">
      <!-- $4\pi$ -->
      <g transform="translate(377.893332 58.259666) scale(0.1 -0.1)">
       <defs>
        <path id="DejaVuSans-34" d="M 2419 4116 
L 825 1625 
L 2419 1625 
L 2419 4116 
z
M 2253 4666 
L 3047 4666 
L 3047 1625 
L 3713 1625 
L 3713 1100 
L 3047 1100 
L 3047 0 
L 2419 0 
L 2419 1100 
L 313 1100 
L 313 1709 
L 2253 4666 
z
" transform="scale(0.015625)"/>
       </defs>
       <use xlink:href="#DejaVuSans-34" transform="translate(0 0.09375)"/>
       <use xlink:href="#DejaVuSans-Oblique-3c0" transform="translate(63.623047 0.09375)"/>
      </g>
     </g>
    </g>
    <g id="xtick_4">
     <g id="line2d_4">
      <g>
       <use xlink:href="#mda0f6aabe8" x="551.383591" y="43.661229" style="stroke: #000000; stroke-width: 0.8"/>
      </g>
     </g>
     <g id="text_4">
      <!-- $6\pi$ -->
      <g transform="translate(545.183591 58.259666) scale(0.1 -0.1)">
       <defs>
        <path id="DejaVuSans-36" d="M 2113 2584 
Q 1688 2584 1439 2293 
Q 1191 2003 1191 1497 
Q 1191 994 1439 701 
Q 1688 409 2113 409 
Q 2538 409 2786 701 
Q 3034 994 3034 1497 
Q 3034 2003 2786 2293 
Q 2538 2584 2113 2584 
z
M 3366 4563 
L 3366 3988 
Q 3128 4100 2886 4159 
Q 2644 4219 2406 4219 
Q 1781 4219 1451 3797 
Q 1122 3375 1075 2522 
Q 1259 2794 1537 2939 
Q 1816 3084 2150 3084 
Q 2853 3084 3261 2657 
Q 3669 2231 3669 1497 
Q 3669 778 3244 343 
Q 2819 -91 2113 -91 
Q 1303 -91 875 529 
Q 447 1150 447 2328 
Q 447 3434 972 4092 
Q 1497 4750 2381 4750 
Q 2619 4750 2861 4703 
Q 3103 4656 3366 4563 
z
" transform="scale(0.015625)"/>
       </defs>
       <use xlink:href="#DejaVuSans-36" transform="translate(0 0.78125)"/>
       <use xlink:href="#DejaVuSans-Oblique-3c0" transform="translate(63.623047 0.78125)"/>
      </g>
     </g>
    </g>
    <g id="text_5">
     <!-- $\varphi$ -->
     <g transform="translate(295.828202 74.948729) scale(0.14 -0.14)">
      <defs>
       <path id="DejaVuSans-Oblique-3c6" d="M 2969 3034 
Q 2766 3034 2675 2581 
L 2259 438 
Q 2553 438 2916 763 
Q 3244 1053 3375 1750 
Q 3497 2400 3300 2750 
Q 3138 3034 2969 3034 
z
M 3063 3525 
Q 3513 3525 3819 3113 
Q 4147 2672 3981 1750 
Q 3828 903 3291 400 
Q 2784 -75 2159 -75 
L 1916 -1331 
L 1344 -1331 
L 1588 -78 
Q 963 -78 641 400 
Q 309 888 475 1747 
Q 647 2641 1166 3097 
Q 1556 3438 2084 3525 
L 1984 3016 
Q 1766 2944 1538 2700 
Q 1194 2341 1081 1747 
Q 963 1116 1156 756 
Q 1334 434 1688 434 
L 2103 2581 
Q 2288 3525 3063 3525 
z
" transform="scale(0.015625)"/>
      </defs>
      <use xlink:href="#DejaVuSans-Oblique-3c6" transform="translate(0 0.921875)"/>
     </g>
    </g>
   </g>
   <g id="matplotlib.axis_2">
    <g id="ytick_1">
     <g id="line2d_5">
      <defs>
       <path id="maf44016c49" d="M 0 0 
L -3.5 0 
" style="stroke: #000000; stroke-width: 0.8"/>
      </defs>
      <g>
       <use xlink:href="#maf44016c49" x="49.512812" y="43.661229" style="stroke: #000000; stroke-width: 0.8"/>
      </g>
     </g>
     <g id="text_6">
      <!-- 0 -->
      <g transform="translate(36.150312 47.460447) scale(0.1 -0.1)">
       <use xlink:href="#DejaVuSans-30"/>
      </g>
     </g>
    </g>
    <g id="ytick_2">
     <g id="line2d_6">
      <g>
       <use xlink:href="#maf44016c49" x="49.512812" y="127.788086" style="stroke: #000000; stroke-width: 0.8"/>
      </g>
     </g>
     <g id="text_7">
      <!-- -4 -->
      <g transform="translate(32.5425 131.587304) scale(0.1 -0.1)">
       <defs>
        <path id="DejaVuSans-2d" d="M 313 2009 
L 1997 2009 
L 1997 1497 
L 313 1497 
L 313 2009 
z
" transform="scale(0.015625)"/>
       </defs>
       <use xlink:href="#DejaVuSans-2d"/>
       <use xlink:href="#DejaVuSans-34" transform="translate(36.083984 0)"/>
      </g>
     </g>
    </g>
    <g id="ytick_3">
     <g id="line2d_7">
      <g>
       <use xlink:href="#maf44016c49" x="49.512812" y="211.914943" style="stroke: #000000; stroke-width: 0.8"/>
      </g>
     </g>
     <g id="text_8">
      <!-- -8 -->
      <g transform="translate(32.5425 215.714162) scale(0.1 -0.1)">
       <defs>
        <path id="DejaVuSans-38" d="M 2034 2216 
Q 1584 2216 1326 1975 
Q 1069 1734 1069 1313 
Q 1069 891 1326 650 
Q 1584 409 2034 409 
Q 2484 409 2743 651 
Q 3003 894 3003 1313 
Q 3003 1734 2745 1975 
Q 2488 2216 2034 2216 
z
M 1403 2484 
Q 997 2584 770 2862 
Q 544 3141 544 3541 
Q 544 4100 942 4425 
Q 1341 4750 2034 4750 
Q 2731 4750 3128 4425 
Q 3525 4100 3525 3541 
Q 3525 3141 3298 2862 
Q 3072 2584 2669 2484 
Q 3125 2378 3379 2068 
Q 3634 1759 3634 1313 
Q 3634 634 3220 271 
Q 2806 -91 2034 -91 
Q 1263 -91 848 271 
Q 434 634 434 1313 
Q 434 1759 690 2068 
Q 947 2378 1403 2484 
z
M 1172 3481 
Q 1172 3119 1398 2916 
Q 1625 2713 2034 2713 
Q 2441 2713 2670 2916 
Q 2900 3119 2900 3481 
Q 2900 3844 2670 4047 
Q 2441 4250 2034 4250 
Q 1625 4250 1398 4047 
Q 1172 3844 1172 3481 
z
" transform="scale(0.015625)"/>
       </defs>
       <use xlink:href="#DejaVuSans-2d"/>
       <use xlink:href="#DejaVuSans-38" transform="translate(36.083984 0)"/>
      </g>
     </g>
    </g>
    <g id="ytick_4">
     <g id="line2d_8">
      <g>
       <use xlink:href="#maf44016c49" x="49.512812" y="296.0418" style="stroke: #000000; stroke-width: 0.8"/>
      </g>
     </g>
     <g id="text_9">
      <!-- -12 -->
      <g transform="translate(26.18 299.841019) scale(0.1 -0.1)">
       <defs>
        <path id="DejaVuSans-31" d="M 794 531 
L 1825 531 
L 1825 4091 
L 703 3866 
L 703 4441 
L 1819 4666 
L 2450 4666 
L 2450 531 
L 3481 531 
L 3481 0 
L 794 0 
L 794 531 
z
" transform="scale(0.015625)"/>
       </defs>
       <use xlink:href="#DejaVuSans-2d"/>
       <use xlink:href="#DejaVuSans-31" transform="translate(36.083984 0)"/>
       <use xlink:href="#DejaVuSans-32" transform="translate(99.707031 0)"/>
      </g>
     </g>
    </g>
    <g id="text_10">
     <!-- $U(\varphi)$ [$E_J$] -->
     <g transform="translate(17.84 188.315657) rotate(-90) scale(0.14 -0.14)">
      <defs>
       <path id="DejaVuSans-Oblique-55" d="M 991 4666 
L 1625 4666 
L 1075 1831 
Q 1041 1641 1027 1517 
Q 1013 1394 1013 1300 
Q 1013 869 1253 645 
Q 1494 422 1959 422 
Q 2563 422 2898 753 
Q 3234 1084 3378 1831 
L 3928 4666 
L 4563 4666 
L 4000 1753 
Q 3816 809 3300 359 
Q 2784 -91 1888 -91 
Q 1188 -91 780 261 
Q 372 613 372 1216 
Q 372 1325 387 1461 
Q 403 1597 434 1753 
L 991 4666 
z
" transform="scale(0.015625)"/>
       <path id="DejaVuSans-28" d="M 1984 4856 
Q 1566 4138 1362 3434 
Q 1159 2731 1159 2009 
Q 1159 1288 1364 580 
Q 1569 -128 1984 -844 
L 1484 -844 
Q 1016 -109 783 600 
Q 550 1309 550 2009 
Q 550 2706 781 3412 
Q 1013 4119 1484 4856 
L 1984 4856 
z
" transform="scale(0.015625)"/>
       <path id="DejaVuSans-29" d="M 513 4856 
L 1013 4856 
Q 1481 4119 1714 3412 
Q 1947 2706 1947 2009 
Q 1947 1309 1714 600 
Q 1481 -109 1013 -844 
L 513 -844 
Q 928 -128 1133 580 
Q 1338 1288 1338 2009 
Q 1338 2731 1133 3434 
Q 928 4138 513 4856 
z
" transform="scale(0.015625)"/>
       <path id="DejaVuSans-20" transform="scale(0.015625)"/>
       <path id="DejaVuSans-5b" d="M 550 4863 
L 1875 4863 
L 1875 4416 
L 1125 4416 
L 1125 -397 
L 1875 -397 
L 1875 -844 
L 550 -844 
L 550 4863 
z
" transform="scale(0.015625)"/>
       <path id="DejaVuSans-Oblique-45" d="M 1081 4666 
L 4031 4666 
L 3928 4134 
L 1606 4134 
L 1338 2753 
L 3566 2753 
L 3463 2222 
L 1234 2222 
L 909 531 
L 3284 531 
L 3181 0 
L 172 0 
L 1081 4666 
z
" transform="scale(0.015625)"/>
       <path id="DejaVuSans-Oblique-4a" d="M 1069 4666 
L 1703 4666 
L 856 325 
Q 691 -522 298 -901 
Q -94 -1281 -800 -1281 
L -1050 -1281 
L -947 -750 
L -750 -750 
Q -328 -750 -109 -509 
Q 109 -269 225 325 
L 1069 4666 
z
" transform="scale(0.015625)"/>
       <path id="DejaVuSans-5d" d="M 1947 4863 
L 1947 -844 
L 622 -844 
L 622 -397 
L 1369 -397 
L 1369 4416 
L 622 4416 
L 622 4863 
L 1947 4863 
z
" transform="scale(0.015625)"/>
      </defs>
      <use xlink:href="#DejaVuSans-Oblique-55" transform="translate(0 0.015625)"/>
      <use xlink:href="#DejaVuSans-28" transform="translate(73.193359 0.015625)"/>
      <use xlink:href="#DejaVuSans-Oblique-3c6" transform="translate(112.207031 0.015625)"/>
      <use xlink:href="#DejaVuSans-29" transform="translate(178.173828 0.015625)"/>
      <use xlink:href="#DejaVuSans-20" transform="translate(217.1875 0.015625)"/>
      <use xlink:href="#DejaVuSans-5b" transform="translate(248.974609 0.015625)"/>
      <use xlink:href="#DejaVuSans-Oblique-45" transform="translate(287.988281 0.015625)"/>
      <use xlink:href="#DejaVuSans-Oblique-4a" transform="translate(351.171875 -16.390625) scale(0.7)"/>
      <use xlink:href="#DejaVuSans-5d" transform="translate(374.550781 0.015625)"/>
     </g>
    </g>
   </g>
   <g id="line2d_9">
    <path d="M 49.512812 43.661229 
L 52.024678 43.567702 
L 55.038917 43.209849 
L 58.053156 42.588507 
L 61.067395 41.711631 
L 64.081634 40.590448 
L 67.095873 39.239312 
L 70.612485 37.395584 
L 74.129097 35.294638 
L 78.148082 32.625725 
L 82.669441 29.354698 
L 89.200292 24.314257 
L 100.754874 15.343099 
L 105.276232 12.113657 
L 109.295218 9.494306 
L 112.81183 7.44554 
L 116.328442 5.661272 
L 119.342681 4.366114 
L 122.35692 3.304781 
L 125.371158 2.490862 
L 128.385397 1.934777 
L 131.399636 1.643645 
L 133.911502 1.606223 
L 136.423368 1.755779 
L 139.437607 2.180067 
L 142.451846 2.866168 
L 145.466085 3.805298 
L 148.480323 4.985433 
L 151.494562 6.391465 
L 155.011174 8.293177 
L 158.527786 10.444621 
L 162.546772 13.160958 
L 167.570503 16.851464 
L 175.1061 22.728723 
L 184.148817 29.729479 
L 189.172549 33.316736 
L 193.191534 35.919099 
L 196.708146 37.950104 
L 200.224758 39.714232 
L 203.238997 40.990498 
L 206.253236 42.031689 
L 209.267475 42.824475 
L 212.281714 43.358707 
L 215.295953 43.627543 
L 217.807818 43.646255 
L 220.319684 43.478048 
L 223.333923 43.031688 
L 226.348162 42.32412 
L 229.362401 41.364403 
L 232.37664 40.164824 
L 235.390879 38.740742 
L 238.907491 36.820039 
L 242.424103 34.652143 
L 246.443088 31.92048 
L 251.46682 28.216528 
L 259.002417 22.331898 
L 267.54276 15.716633 
L 272.566492 12.113657 
L 276.585477 9.494306 
L 280.102089 7.44554 
L 283.618701 5.661272 
L 286.63294 4.366114 
L 289.647179 3.304781 
L 292.661418 2.490862 
L 295.675657 1.934777 
L 298.689896 1.643645 
L 301.201762 1.606223 
L 303.713627 1.755779 
L 306.727866 2.180067 
L 309.742105 2.866168 
L 312.756344 3.805298 
L 315.770583 4.985433 
L 318.784822 6.391465 
L 322.301434 8.293177 
L 325.818046 10.444621 
L 329.837031 13.160958 
L 334.860763 16.851464 
L 342.39636 22.728723 
L 351.439077 29.729479 
L 356.462808 33.316736 
L 360.481794 35.919099 
L 363.998406 37.950104 
L 367.515018 39.714232 
L 370.529257 40.990498 
L 373.543496 42.031689 
L 376.557734 42.824475 
L 379.571973 43.358707 
L 382.586212 43.627543 
L 385.098078 43.646255 
L 387.609944 43.478048 
L 390.624183 43.031688 
L 393.638422 42.32412 
L 396.652661 41.364403 
L 399.666899 40.164824 
L 402.681138 38.740742 
L 406.19775 36.820039 
L 409.714362 34.652143 
L 413.733348 31.92048 
L 418.757079 28.216528 
L 426.292676 22.331898 
L 434.83302 15.716633 
L 439.856752 12.113657 
L 443.875737 9.494306 
L 447.392349 7.44554 
L 450.908961 5.661272 
L 453.9232 4.366114 
L 456.937439 3.304781 
L 459.951678 2.490862 
L 462.965917 1.934777 
L 465.980155 1.643645 
L 468.492021 1.606223 
L 471.003887 1.755779 
L 474.018126 2.180067 
L 477.032365 2.866168 
L 480.046604 3.805298 
L 483.060843 4.985433 
L 486.075082 6.391465 
L 489.591694 8.293177 
L 493.108306 10.444621 
L 497.127291 13.160958 
L 502.151022 16.851464 
L 509.68662 22.728723 
L 518.729336 29.729479 
L 523.753068 33.316736 
L 527.772053 35.919099 
L 531.288665 37.950104 
L 534.805277 39.714232 
L 537.819516 40.990498 
L 540.833755 42.031689 
L 543.847994 42.824475 
L 546.862233 43.358707 
L 549.876472 43.627543 
L 551.383591 43.661229 
L 551.383591 43.661229 
" clip-path="url(#p84e1870e0b)" style="fill: none; stroke: #000000; stroke-width: 2; stroke-linecap: square"/>
   </g>
   <g id="line2d_10">
    <path d="M 49.512812 43.661229 
L 52.527051 44.121848 
L 55.54129 44.314922 
L 58.555529 44.245602 
L 61.569768 43.922395 
L 64.584007 43.357061 
L 67.598246 42.564458 
L 70.612485 41.562355 
L 74.129097 40.15587 
L 78.148082 38.280628 
L 82.669441 35.90248 
L 88.697918 32.447783 
L 100.754874 25.462399 
L 105.276232 23.125837 
L 109.295218 21.300156 
L 112.81183 19.945852 
L 115.826069 18.994307 
L 118.840307 18.256966 
L 121.854546 17.750888 
L 124.868785 17.490175 
L 127.883024 17.485786 
L 130.897263 17.745397 
L 133.409129 18.16661 
L 136.423368 18.918906 
L 139.437607 19.938447 
L 142.451846 21.219801 
L 145.466085 22.754184 
L 148.480323 24.529572 
L 151.996935 26.885143 
L 155.513548 29.519129 
L 159.532533 32.826775 
L 164.053891 36.858202 
L 169.579996 42.103636 
L 187.665429 59.557247 
L 192.186788 63.469945 
L 196.205773 66.6445 
L 199.722385 69.143211 
L 203.238997 71.348399 
L 206.253236 72.984843 
L 209.267475 74.372882 
L 212.281714 75.502367 
L 215.295953 76.366456 
L 218.310192 76.961709 
L 221.32443 77.288126 
L 224.338669 77.349147 
L 227.352908 77.151614 
L 230.367147 76.705676 
L 233.381386 76.024663 
L 236.395625 75.124915 
L 239.912237 73.824433 
L 243.428849 72.287137 
L 247.447834 70.290284 
L 252.471566 67.527943 
L 261.514283 62.21831 
L 268.045134 58.498939 
L 272.566492 56.162377 
L 276.585477 54.336696 
L 280.102089 52.982392 
L 283.116328 52.030847 
L 286.130567 51.293505 
L 289.144806 50.787428 
L 292.159045 50.526715 
L 295.173284 50.522325 
L 298.187523 50.781937 
L 300.699388 51.20315 
L 303.713627 51.955445 
L 306.727866 52.974986 
L 309.742105 54.25634 
L 312.756344 55.790723 
L 315.770583 57.566112 
L 319.287195 59.921682 
L 322.803807 62.555668 
L 326.822792 65.863315 
L 331.344151 69.894741 
L 336.870255 75.140176 
L 354.955689 92.593786 
L 359.477047 96.506484 
L 363.496032 99.681039 
L 367.012645 102.17975 
L 370.529257 104.384938 
L 373.543496 106.021383 
L 376.557734 107.409422 
L 379.571973 108.538906 
L 382.586212 109.402996 
L 385.600451 109.998249 
L 388.61469 110.324665 
L 391.628929 110.385687 
L 394.643168 110.188153 
L 397.657407 109.742215 
L 400.671646 109.061202 
L 403.685885 108.161455 
L 407.202497 106.860972 
L 410.719109 105.323676 
L 414.738094 103.326823 
L 419.761825 100.564483 
L 428.804542 95.25485 
L 435.335393 91.535478 
L 439.856752 89.198916 
L 443.875737 87.373235 
L 447.392349 86.018931 
L 450.406588 85.067386 
L 453.420827 84.330045 
L 456.435066 83.823967 
L 459.449304 83.563254 
L 462.463543 83.558865 
L 465.477782 83.818476 
L 467.989648 84.239689 
L 471.003887 84.991985 
L 474.018126 86.011526 
L 477.032365 87.29288 
L 480.046604 88.827263 
L 483.060843 90.602651 
L 486.577455 92.958222 
L 490.094067 95.592208 
L 494.113052 98.899854 
L 498.63441 102.931281 
L 504.160515 108.176715 
L 522.245948 125.630326 
L 526.767307 129.543024 
L 530.786292 132.717579 
L 534.302904 135.21629 
L 537.819516 137.421478 
L 540.833755 139.057922 
L 543.847994 140.445961 
L 546.862233 141.575446 
L 549.876472 142.439535 
L 551.383591 142.770847 
L 551.383591 142.770847 
" clip-path="url(#p84e1870e0b)" style="fill: none; stroke-dasharray: 7.4,3.2; stroke-dashoffset: 0; stroke: #000000; stroke-width: 2"/>
   </g>
   <g id="line2d_11">
    <path d="M 49.512812 43.661229 
L 52.527051 44.478999 
L 55.54129 45.029226 
L 58.555529 45.317058 
L 61.569768 45.351002 
L 64.584007 45.14282 
L 67.598246 44.707368 
L 70.612485 44.062417 
L 74.129097 43.07261 
L 78.148082 41.67357 
L 82.669441 39.83115 
L 88.697918 37.090756 
L 100.754874 31.53398 
L 105.276232 29.733145 
L 109.295218 28.383666 
L 112.81183 27.44604 
L 115.826069 26.851646 
L 118.840307 26.471457 
L 121.854546 26.322531 
L 124.868785 26.41897 
L 127.883024 26.771732 
L 130.897263 27.388495 
L 133.911502 28.273556 
L 136.925741 29.427777 
L 139.93998 30.848574 
L 142.954219 32.52995 
L 145.968458 34.462573 
L 148.982697 36.633893 
L 152.499309 39.447804 
L 156.015921 42.535589 
L 160.034906 46.355475 
L 164.556264 50.95406 
L 170.584742 57.427882 
L 186.660683 74.897249 
L 191.182041 79.415166 
L 195.201027 83.143285 
L 198.717639 86.136975 
L 202.234251 88.845622 
L 205.24849 90.91921 
L 208.262729 92.74849 
L 211.276967 94.322237 
L 214.291206 95.632495 
L 217.305445 96.674682 
L 220.319684 97.44765 
L 223.333923 97.953694 
L 226.348162 98.198531 
L 229.362401 98.191219 
L 232.37664 97.944045 
L 235.390879 97.472368 
L 238.405118 96.794419 
L 241.92173 95.770757 
L 245.940715 94.339862 
L 250.462073 92.471172 
L 256.490551 89.712716 
L 267.54276 84.607242 
L 272.064119 82.778395 
L 276.083104 81.39564 
L 279.599716 80.423041 
L 282.613955 79.794802 
L 285.628194 79.37765 
L 288.642433 79.189119 
L 291.656672 79.243816 
L 294.670911 79.553234 
L 297.68515 80.125606 
L 300.699388 80.965798 
L 303.713627 82.075245 
L 306.727866 83.451938 
L 309.742105 85.090444 
L 312.756344 86.981979 
L 315.770583 89.114519 
L 319.287195 91.886766 
L 322.803807 94.93743 
L 326.822792 98.721278 
L 331.344151 103.288433 
L 337.372629 109.736811 
L 354.453316 128.272093 
L 358.974674 132.755808 
L 362.993659 136.445677 
L 366.510271 139.400545 
L 370.026883 142.066077 
L 373.041122 144.099862 
L 376.055361 145.887246 
L 379.0696 147.41754 
L 382.083839 148.683346 
L 385.098078 149.68065 
L 388.112317 150.408878 
L 391.126556 150.8709 
L 394.140795 151.072994 
L 397.155034 151.024766 
L 400.169273 150.739028 
L 403.183511 150.231632 
L 406.700124 149.384598 
L 410.216736 148.295519 
L 414.235721 146.803807 
L 418.757079 144.886109 
L 425.790303 141.620582 
L 434.330647 137.682966 
L 438.852005 135.827266 
L 442.87099 134.412178 
L 446.387603 133.405349 
L 449.401841 132.743828 
L 452.41608 132.290201 
L 455.430319 132.06247 
L 458.444558 132.075744 
L 461.458797 132.342048 
L 464.473036 132.870165 
L 467.487275 133.665527 
L 470.501514 134.730145 
L 473.515753 136.062582 
L 476.529992 137.657973 
L 479.544231 139.508086 
L 482.558469 141.601427 
L 486.075082 144.331419 
L 489.591694 147.344269 
L 493.610679 151.091186 
L 498.132037 155.625792 
L 503.658142 161.500452 
L 523.250695 182.65935 
L 527.772053 187.033985 
L 531.791038 190.60399 
L 535.30765 193.438508 
L 538.824263 195.97144 
L 541.838501 197.883561 
L 544.85274 199.543534 
L 547.866979 200.942298 
L 550.881218 202.074141 
L 551.383591 202.236618 
L 551.383591 202.236618 
" clip-path="url(#p84e1870e0b)" style="fill: none; stroke-dasharray: 12.8,3.2,2,3.2; stroke-dashoffset: 0; stroke: #000000; stroke-width: 2"/>
   </g>
   <g id="line2d_12">
    <path d="M 49.512812 43.661229 
L 52.527051 45.074252 
L 55.54129 46.219732 
L 58.555529 47.102816 
L 61.569768 47.732014 
L 64.584007 48.119085 
L 67.598246 48.278886 
L 70.612485 48.229188 
L 74.129097 47.933842 
L 77.645709 47.417877 
L 81.664694 46.610081 
L 86.688426 45.369412 
L 102.261993 41.322599 
L 106.280979 40.581522 
L 109.797591 40.139892 
L 113.314203 39.932428 
L 116.328442 39.967684 
L 119.342681 40.220184 
L 122.35692 40.706509 
L 125.371158 41.440248 
L 128.385397 42.43182 
L 131.399636 43.688346 
L 134.413875 45.213553 
L 137.428114 47.007729 
L 140.442353 49.067716 
L 143.456592 51.386957 
L 146.973204 54.407046 
L 150.489816 57.745275 
L 154.006428 61.374946 
L 158.025413 65.839037 
L 162.546772 71.198122 
L 168.072876 78.108572 
L 178.120339 91.137386 
L 185.655937 100.740666 
L 190.679668 106.806387 
L 195.201027 111.913845 
L 199.220012 116.106312 
L 202.736624 119.466306 
L 206.253236 122.50989 
L 209.267475 124.850334 
L 212.281714 126.932223 
L 215.295953 128.748717 
L 218.310192 130.296375 
L 221.32443 131.575196 
L 224.338669 132.588622 
L 227.352908 133.343494 
L 230.367147 133.84996 
L 233.381386 134.121352 
L 236.395625 134.174009 
L 239.912237 133.984666 
L 243.428849 133.558508 
L 247.447834 132.831529 
L 251.969193 131.783988 
L 259.002417 129.894108 
L 267.040387 127.781925 
L 271.561746 126.819104 
L 275.580731 126.197687 
L 279.097343 125.88532 
L 282.111582 125.819051 
L 285.125821 125.960677 
L 288.14006 126.3282 
L 291.154299 126.936727 
L 294.168538 127.798284 
L 297.182776 128.921654 
L 300.197015 130.312269 
L 303.211254 131.97214 
L 306.225493 133.89983 
L 309.239732 136.090474 
L 312.253971 138.535839 
L 315.770583 141.695197 
L 319.287195 145.161907 
L 323.30618 149.462864 
L 327.827539 154.672275 
L 332.85127 160.822924 
L 339.884494 169.838095 
L 352.443823 186.010925 
L 357.467555 192.111558 
L 361.988913 197.260554 
L 366.007898 201.496999 
L 369.52451 204.900108 
L 373.041122 207.990347 
L 376.055361 210.372984 
L 379.0696 212.498531 
L 382.083839 214.35959 
L 385.098078 215.952147 
L 388.112317 217.275627 
L 391.126556 218.332902 
L 394.140795 219.130249 
L 397.155034 219.677275 
L 400.169273 219.98679 
L 403.183511 220.074646 
L 406.19775 219.959534 
L 409.714362 219.597239 
L 413.733348 218.92912 
L 418.254706 217.928214 
L 424.283184 216.343863 
L 434.330647 213.676928 
L 438.852005 212.714107 
L 442.87099 212.09269 
L 446.387603 211.780323 
L 449.401841 211.714054 
L 452.41608 211.85568 
L 455.430319 212.223202 
L 458.444558 212.83173 
L 461.458797 213.693287 
L 464.473036 214.816656 
L 467.487275 216.207272 
L 470.501514 217.867142 
L 473.515753 219.794833 
L 476.529992 221.985477 
L 479.544231 224.430842 
L 483.060843 227.5902 
L 486.577455 231.05691 
L 490.59644 235.357866 
L 495.117798 240.567278 
L 500.14153 246.717926 
L 507.174754 255.733098 
L 519.734083 271.905928 
L 524.757814 278.006561 
L 529.279173 283.155557 
L 533.298158 287.392002 
L 536.81477 290.795111 
L 540.331382 293.885349 
L 543.345621 296.267987 
L 546.35986 298.393534 
L 549.374099 300.254592 
L 551.383591 301.346237 
L 551.383591 301.346237 
" clip-path="url(#p84e1870e0b)" style="fill: none; stroke-dasharray: 2,3.3; stroke-dashoffset: 0; stroke: #000000; stroke-width: 2"/>
   </g>
   <g id="line2d_13">
    <defs>
     <path id="ma2b7331282" d="M 0 3 
C 0.795609 3 1.55874 2.683901 2.12132 2.12132 
C 2.683901 1.55874 3 0.795609 3 0 
C 3 -0.795609 2.683901 -1.55874 2.12132 -2.12132 
C 1.55874 -2.683901 0.795609 -3 0 -3 
C -0.795609 -3 -1.55874 -2.683901 -2.12132 -2.12132 
C -2.683901 -1.55874 -3 -0.795609 -3 0 
C -3 0.795609 -2.683901 1.55874 -2.12132 2.12132 
C -1.55874 2.683901 -0.795609 3 0 3 
z
" style="stroke: #808080"/>
    </defs>
    <g clip-path="url(#p84e1870e0b)">
     <use xlink:href="#ma2b7331282" x="216.803072" y="43.661229" style="fill: #808080; stroke: #808080"/>
    </g>
   </g>
   <g id="line2d_14">
    <g clip-path="url(#p84e1870e0b)">
     <use xlink:href="#ma2b7331282" x="384.093332" y="43.661229" style="fill: #808080; stroke: #808080"/>
    </g>
   </g>
   <g id="line2d_15">
    <g clip-path="url(#p84e1870e0b)">
     <use xlink:href="#ma2b7331282" x="551.383591" y="43.661229" style="fill: #808080; stroke: #808080"/>
    </g>
   </g>
   <g id="line2d_16">
    <g clip-path="url(#p84e1870e0b)">
     <use xlink:href="#ma2b7331282" x="223.530702" y="77.358498" style="fill: #808080; stroke: #808080"/>
    </g>
   </g>
   <g id="line2d_17">
    <g clip-path="url(#p84e1870e0b)">
     <use xlink:href="#ma2b7331282" x="390.820962" y="110.395038" style="fill: #808080; stroke: #808080"/>
    </g>
   </g>
   <g id="line2d_18">
    <g clip-path="url(#p84e1870e0b)">
     <use xlink:href="#ma2b7331282" x="227.759738" y="98.225824" style="fill: #808080; stroke: #808080"/>
    </g>
   </g>
   <g id="line2d_19">
    <g clip-path="url(#p84e1870e0b)">
     <use xlink:href="#ma2b7331282" x="395.049997" y="151.084287" style="fill: #808080; stroke: #808080"/>
    </g>
   </g>
   <g id="line2d_20">
    <g clip-path="url(#p84e1870e0b)">
     <use xlink:href="#ma2b7331282" x="235.642558" y="134.18035" style="fill: #808080; stroke: #808080"/>
    </g>
   </g>
   <g id="line2d_21">
    <g clip-path="url(#p84e1870e0b)">
     <use xlink:href="#ma2b7331282" x="402.932818" y="220.075353" style="fill: #808080; stroke: #808080"/>
    </g>
   </g>
   <g id="patch_3">
    <path d="M 49.512812 306.557657 
L 49.512812 12.113657 
" style="fill: none; stroke: #000000; stroke-width: 0.8; stroke-linejoin: miter; stroke-linecap: square"/>
   </g>
   <g id="patch_4">
    <path d="M 49.512812 43.661229 
L 551.383591 43.661229 
" style="fill: none; stroke: #000000; stroke-width: 0.8; stroke-linejoin: miter; stroke-linecap: square"/>
   </g>
   <g id="text_11">
    <!-- $j = 0.0$ -->
    <g transform="translate(407.315897 16.32) scale(0.12 -0.12)">
     <defs>
      <path id="DejaVuSans-Oblique-6a" d="M 928 3500 
L 1503 3500 
L 813 -63 
L 809 -78 
Q 694 -675 544 -897 
Q 403 -1106 132 -1218 
Q -138 -1331 -506 -1331 
L -722 -1331 
L -628 -844 
L -481 -844 
Q -144 -844 -1 -703 
Q 141 -563 238 -63 
L 928 3500 
z
M 1197 4863 
L 1772 4863 
L 1631 4134 
L 1056 4134 
L 1197 4863 
z
" transform="scale(0.015625)"/>
      <path id="DejaVuSans-3d" d="M 678 2906 
L 4684 2906 
L 4684 2381 
L 678 2381 
L 678 2906 
z
M 678 1631 
L 4684 1631 
L 4684 1100 
L 678 1100 
L 678 1631 
z
" transform="scale(0.015625)"/>
      <path id="DejaVuSans-2e" d="M 684 794 
L 1344 794 
L 1344 0 
L 684 0 
L 684 794 
z
" transform="scale(0.015625)"/>
     </defs>
     <use xlink:href="#DejaVuSans-Oblique-6a" transform="translate(0 0.015625)"/>
     <use xlink:href="#DejaVuSans-3d" transform="translate(47.265625 0.015625)"/>
     <use xlink:href="#DejaVuSans-30" transform="translate(150.537109 0.015625)"/>
     <use xlink:href="#DejaVuSans-2e" transform="translate(214.160156 0.015625)"/>
     <use xlink:href="#DejaVuSans-30" transform="translate(245.947266 0.015625)"/>
    </g>
   </g>
   <g id="text_12">
    <!-- $j = 0.5$ -->
    <g transform="translate(415.68041 85.804884) scale(0.12 -0.12)">
     <defs>
      <path id="DejaVuSans-35" d="M 691 4666 
L 3169 4666 
L 3169 4134 
L 1269 4134 
L 1269 2991 
Q 1406 3038 1543 3061 
Q 1681 3084 1819 3084 
Q 2600 3084 3056 2656 
Q 3513 2228 3513 1497 
Q 3513 744 3044 326 
Q 2575 -91 1722 -91 
Q 1428 -91 1123 -41 
Q 819 9 494 109 
L 494 744 
Q 775 591 1075 516 
Q 1375 441 1709 441 
Q 2250 441 2565 725 
Q 2881 1009 2881 1497 
Q 2881 1984 2565 2268 
Q 2250 2553 1709 2553 
Q 1456 2553 1204 2497 
Q 953 2441 691 2322 
L 691 4666 
z
" transform="scale(0.015625)"/>
     </defs>
     <use xlink:href="#DejaVuSans-Oblique-6a" transform="translate(0 0.015625)"/>
     <use xlink:href="#DejaVuSans-3d" transform="translate(47.265625 0.015625)"/>
     <use xlink:href="#DejaVuSans-30" transform="translate(150.537109 0.015625)"/>
     <use xlink:href="#DejaVuSans-2e" transform="translate(214.160156 0.015625)"/>
     <use xlink:href="#DejaVuSans-35" transform="translate(245.947266 0.015625)"/>
    </g>
   </g>
   <g id="text_13">
    <!-- $j = 0.8$ -->
    <g transform="translate(424.224923 128.175257) scale(0.12 -0.12)">
     <use xlink:href="#DejaVuSans-Oblique-6a" transform="translate(0 0.015625)"/>
     <use xlink:href="#DejaVuSans-3d" transform="translate(47.265625 0.015625)"/>
     <use xlink:href="#DejaVuSans-30" transform="translate(150.537109 0.015625)"/>
     <use xlink:href="#DejaVuSans-2e" transform="translate(214.160156 0.015625)"/>
     <use xlink:href="#DejaVuSans-38" transform="translate(243.322266 0.015625)"/>
    </g>
   </g>
   <g id="text_14">
    <!-- $j = 1.3$ -->
    <g transform="translate(298.577228 136.73699) scale(0.12 -0.12)">
     <defs>
      <path id="DejaVuSans-33" d="M 2597 2516 
Q 3050 2419 3304 2112 
Q 3559 1806 3559 1356 
Q 3559 666 3084 287 
Q 2609 -91 1734 -91 
Q 1441 -91 1130 -33 
Q 819 25 488 141 
L 488 750 
Q 750 597 1062 519 
Q 1375 441 1716 441 
Q 2309 441 2620 675 
Q 2931 909 2931 1356 
Q 2931 1769 2642 2001 
Q 2353 2234 1838 2234 
L 1294 2234 
L 1294 2753 
L 1863 2753 
Q 2328 2753 2575 2939 
Q 2822 3125 2822 3475 
Q 2822 3834 2567 4026 
Q 2313 4219 1838 4219 
Q 1578 4219 1281 4162 
Q 984 4106 628 3988 
L 628 4550 
Q 988 4650 1302 4700 
Q 1616 4750 1894 4750 
Q 2613 4750 3031 4423 
Q 3450 4097 3450 3541 
Q 3450 3153 3228 2886 
Q 3006 2619 2597 2516 
z
" transform="scale(0.015625)"/>
     </defs>
     <use xlink:href="#DejaVuSans-Oblique-6a" transform="translate(0 0.015625)"/>
     <use xlink:href="#DejaVuSans-3d" transform="translate(47.265625 0.015625)"/>
     <use xlink:href="#DejaVuSans-31" transform="translate(150.537109 0.015625)"/>
     <use xlink:href="#DejaVuSans-2e" transform="translate(214.160156 0.015625)"/>
     <use xlink:href="#DejaVuSans-33" transform="translate(245.947266 0.015625)"/>
    </g>
   </g>
   <g id="patch_5">
    <path d="M 254.946035 26.985325 
Q 195.89088 26.985325 136.835725 26.985325 
" style="fill: none; stroke: #000000; stroke-width: 1.5; stroke-linecap: round"/>
    <path d="M 250.946035 24.985325 
L 254.946035 26.985325 
L 250.946035 28.985325 
" style="fill: none; stroke: #000000; stroke-width: 1.5; stroke-linecap: round"/>
    <path d="M 140.835725 28.985325 
L 136.835725 26.985325 
L 140.835725 24.985325 
" style="fill: none; stroke: #000000; stroke-width: 1.5; stroke-linecap: round"/>
   </g>
   <g id="text_15">
    <!-- $\omega_p$ -->
    <g transform="translate(188.03179 20.675811) scale(0.12 -0.12)">
     <defs>
      <path id="DejaVuSans-Oblique-3c9" d="M 1369 -91 
Q 72 -91 434 1766 
Q 575 2500 1256 3500 
L 1875 3500 
Q 1231 2500 1088 1750 
Q 819 397 1519 397 
Q 2166 397 2478 2078 
L 3009 2078 
Q 2669 388 3316 397 
Q 4013 403 4275 1750 
Q 4419 2500 4169 3500 
L 4788 3500 
Q 5075 2500 4934 1766 
Q 4578 -94 3278 -91 
Q 2428 -88 2503 844 
Q 2194 -91 1369 -91 
z
" transform="scale(0.015625)"/>
      <path id="DejaVuSans-Oblique-70" d="M 3175 2156 
Q 3175 2616 2975 2859 
Q 2775 3103 2400 3103 
Q 2144 3103 1911 2972 
Q 1678 2841 1497 2591 
Q 1319 2344 1212 1994 
Q 1106 1644 1106 1300 
Q 1106 863 1306 627 
Q 1506 391 1875 391 
Q 2147 391 2380 519 
Q 2613 647 2778 891 
Q 2956 1147 3065 1494 
Q 3175 1841 3175 2156 
z
M 1394 2969 
Q 1625 3272 1939 3428 
Q 2253 3584 2638 3584 
Q 3175 3584 3472 3232 
Q 3769 2881 3769 2247 
Q 3769 1728 3584 1258 
Q 3400 788 3053 416 
Q 2822 169 2531 39 
Q 2241 -91 1919 -91 
Q 1547 -91 1294 64 
Q 1041 219 916 525 
L 556 -1331 
L -19 -1331 
L 922 3500 
L 1497 3500 
L 1394 2969 
z
" transform="scale(0.015625)"/>
     </defs>
     <use xlink:href="#DejaVuSans-Oblique-3c9" transform="translate(0 0.3125)"/>
     <use xlink:href="#DejaVuSans-Oblique-70" transform="translate(83.740234 -16.09375) scale(0.7)"/>
    </g>
   </g>
   <g id="patch_6">
    <path d="M 174.980507 73.021989 
Q 174.980507 47.407357 174.980507 21.792726 
" style="fill: none; stroke: #000000; stroke-width: 1.5; stroke-linecap: round"/>
    <path d="M 176.980507 69.021989 
L 174.980507 73.021989 
L 172.980507 69.021989 
" style="fill: none; stroke: #000000; stroke-width: 1.5; stroke-linecap: round"/>
    <path d="M 172.980507 25.792726 
L 174.980507 21.792726 
L 176.980507 25.792726 
" style="fill: none; stroke: #000000; stroke-width: 1.5; stroke-linecap: round"/>
   </g>
   <g id="text_16">
    <!-- $U_0$ -->
    <g transform="translate(182.968029 50.718169) scale(0.12 -0.12)">
     <use xlink:href="#DejaVuSans-Oblique-55" transform="translate(0 0.09375)"/>
     <use xlink:href="#DejaVuSans-30" transform="translate(73.193359 -16.3125) scale(0.7)"/>
    </g>
   </g>
  </g>
 </g>
 <defs>
  <clipPath id="p84e1870e0b">
   <rect x="49.512812" y="12.113657" width="501.870779" height="294.444"/>
  </clipPath>
 </defs>
</svg>
